M48
;Layer_Color=9474304
;FILE_FORMAT=2:4
INCH,TZ
;TYPE=PLATED
T1F00S00C0.0150
T2F00S00C0.0191
T3F00S00C0.0303
T4F00S00C0.0430
T5F00S00C0.0433
T6F00S00C0.0492
T7F00S00C0.1378
T8F00S00C0.2835
%
T01
X-2003Y2979
X-2773Y4329
X2510Y3080
X4365Y3854
X9210Y5359
X9470Y6440
X11200Y3248
X11850Y3598
X8930Y12940
X7885Y12835
X7160Y12290
X9300Y13980
X8908Y14720
X3920Y14030
X3700Y11580
X3260Y14870
X1600Y13510
T02
X6814Y4682
X8510Y4724
X8660Y4360
X9070Y4164
X8680Y5100
T03
X-583Y3699
X-977Y4381
X1027Y4639
X633Y5321
X-233Y6789
X-627Y7471
X-2247Y6521
X-1853Y5839
X1580Y3004
X1580Y2216
X6640Y2686
X6640Y3474
X9240Y11466
X9240Y12254
T04
X3277Y959
X6157Y959
T05
X8725Y1820
X9217Y2673
X9709Y3525
X10201Y4377
X10693Y5230
X11185Y6082
X11677Y6935
X12170Y7787
T06
X-103Y9479
X9557Y9479
T07
X4717Y1079
X10857Y11709
X-1423
T08
X4717Y8169
M30
