M48
;Layer_Color=9474304
;FILE_FORMAT=2:4
INCH,TZ
;TYPE=PLATED
T1F00S00C0.0150
T2F00S00C0.0191
T3F00S00C0.0200
T4F00S00C0.0303
T5F00S00C0.0430
T6F00S00C0.0433
T7F00S00C0.0492
T8F00S00C0.1378
T9F00S00C0.2835
%
T01
X3210Y2210
X3510Y2200
X3440Y3330
X3590Y4210
X425Y6630
X9150Y6000
X9210Y5359
X10240Y6910
X10930Y7810
X12670Y9240
X11850Y3598
X11200Y3248
X8930Y12940
X7885Y12835
X7160Y12290
X9300Y13980
X8908Y14720
X3920Y14030
X3700Y11580
X3260Y14870
X1600Y13510
T02
X6814Y4682
X8510Y4724
X8660Y4360
X9070Y4164
X8100Y4000
X8250Y3450
X8680Y5100
T03
X680Y8020
T04
X669Y2103
X1351Y2497
X2657Y3149
X2263Y3831
X401Y4127
X-281Y3733
X-549Y5767
X-1231Y5373
X-1499Y7407
X-2181Y7013
X6640Y3474
X6640Y2686
X8760Y11516
X8760Y12303
T05
X2477Y959
X6957
T06
X8725Y1820
X9217Y2673
X9709Y3525
X10201Y4377
X10693Y5230
X11185Y6082
X11677Y6935
X12170Y7787
T07
X-103Y9479
X9557Y9479
T08
X4717Y1079
X10857Y11709
X-1423
T09
X4717Y8169
M30
