M48
;Layer_Color=9474304
;FILE_FORMAT=2:4
INCH,TZ
;TYPE=PLATED
T1F00S00C0.0150
T2F00S00C0.0191
T3F00S00C0.0200
T4F00S00C0.0300
T5F00S00C0.0430
T6F00S00C0.0433
T7F00S00C0.0492
T8F00S00C0.1378
T9F00S00C0.1380
T10F00S00C0.2835
%
T01
X-1013Y3519
X-1783Y4869
X3845Y3854
X4365
X6405Y2144
X11200Y3248
X11850Y3598
X9165Y5554
X8930Y12940
X7885Y12835
X7160Y12290
X7439Y14731
X9300Y13980
X3920Y14030
X3240Y14250
X3290Y11640
X2190Y11440
T02
X6375Y2894
X6415Y4354
X6815Y4194
X6814Y4682
X7215Y4444
X7794Y5219
X7704Y5652
X8123Y5520
X8253Y5068
T03
X-715Y4984
T04
X1297Y2529
X2047Y2919
T05
X3277Y959
X6157
T06
X587Y3496
X87Y4362
X-893Y6046
X-1393Y6912
X11677Y6935
X11185Y6082
X10693Y5230
X10201Y4377
X9709Y3525
X9217Y2673
X8725Y1820
X12170Y7787
T07
X-103Y9479
X9557
T08
X4717Y1079
X10857Y11709
T09
X-1423Y11709
T10
X4717Y8169
M30
