G04 Layer_Color=32896*
%FSLAX24Y24*%
%MOIN*%
G70*
G01*
G75*
%ADD34C,0.0100*%
G04:AMPARAMS|DCode=68|XSize=29.5mil|YSize=87.9mil|CornerRadius=0mil|HoleSize=0mil|Usage=FLASHONLY|Rotation=55.000|XOffset=0mil|YOffset=0mil|HoleType=Round|Shape=Rectangle|*
%AMROTATEDRECTD68*
4,1,4,0.0275,-0.0373,-0.0445,0.0131,-0.0275,0.0373,0.0445,-0.0131,0.0275,-0.0373,0.0*
%
%ADD68ROTATEDRECTD68*%

%ADD126C,0.0040*%
%ADD127C,0.0039*%
%ADD128C,0.0060*%
G04:AMPARAMS|DCode=129|XSize=13.8mil|YSize=31.5mil|CornerRadius=0mil|HoleSize=0mil|Usage=FLASHONLY|Rotation=190.000|XOffset=0mil|YOffset=0mil|HoleType=Round|Shape=Rectangle|*
%AMROTATEDRECTD129*
4,1,4,0.0041,0.0167,0.0095,-0.0143,-0.0041,-0.0167,-0.0095,0.0143,0.0041,0.0167,0.0*
%
%ADD129ROTATEDRECTD129*%

G04:AMPARAMS|DCode=130|XSize=13.8mil|YSize=31.5mil|CornerRadius=0mil|HoleSize=0mil|Usage=FLASHONLY|Rotation=60.000|XOffset=0mil|YOffset=0mil|HoleType=Round|Shape=Rectangle|*
%AMROTATEDRECTD130*
4,1,4,0.0102,-0.0138,-0.0171,0.0019,-0.0102,0.0138,0.0171,-0.0019,0.0102,-0.0138,0.0*
%
%ADD130ROTATEDRECTD130*%

%ADD131R,0.0315X0.0138*%
%ADD132R,0.0118X0.0240*%
%ADD133R,0.0110X0.0240*%
%ADD134R,0.0240X0.0118*%
%ADD135R,0.0240X0.0110*%
G04:AMPARAMS|DCode=136|XSize=16.5mil|YSize=63.5mil|CornerRadius=0mil|HoleSize=0mil|Usage=FLASHONLY|Rotation=55.000|XOffset=0mil|YOffset=0mil|HoleType=Round|Shape=Rectangle|*
%AMROTATEDRECTD136*
4,1,4,0.0213,-0.0250,-0.0307,0.0114,-0.0213,0.0250,0.0307,-0.0114,0.0213,-0.0250,0.0*
%
%ADD136ROTATEDRECTD136*%

G04:AMPARAMS|DCode=137|XSize=17mil|YSize=64.5mil|CornerRadius=0mil|HoleSize=0mil|Usage=FLASHONLY|Rotation=55.000|XOffset=0mil|YOffset=0mil|HoleType=Round|Shape=Rectangle|*
%AMROTATEDRECTD137*
4,1,4,0.0215,-0.0255,-0.0313,0.0115,-0.0215,0.0255,0.0313,-0.0115,0.0215,-0.0255,0.0*
%
%ADD137ROTATEDRECTD137*%

%ADD138R,0.0138X0.0315*%
%ADD139R,0.0575X0.0295*%
%ADD140R,0.0575X0.0300*%
G04:AMPARAMS|DCode=141|XSize=11mil|YSize=24mil|CornerRadius=0mil|HoleSize=0mil|Usage=FLASHONLY|Rotation=60.000|XOffset=0mil|YOffset=0mil|HoleType=Round|Shape=Rectangle|*
%AMROTATEDRECTD141*
4,1,4,0.0076,-0.0108,-0.0131,0.0012,-0.0076,0.0108,0.0131,-0.0012,0.0076,-0.0108,0.0*
%
%ADD141ROTATEDRECTD141*%

G04:AMPARAMS|DCode=142|XSize=11.8mil|YSize=24mil|CornerRadius=0mil|HoleSize=0mil|Usage=FLASHONLY|Rotation=60.000|XOffset=0mil|YOffset=0mil|HoleType=Round|Shape=Rectangle|*
%AMROTATEDRECTD142*
4,1,4,0.0074,-0.0111,-0.0133,0.0009,-0.0074,0.0111,0.0133,-0.0009,0.0074,-0.0111,0.0*
%
%ADD142ROTATEDRECTD142*%

D34*
X6942Y4691D02*
X7755Y4122D01*
X7961Y6146D02*
X8774Y5577D01*
D68*
X7749Y4972D02*
D03*
D126*
X11852Y9255D02*
X12201Y9316D01*
X10881Y8128D02*
X11058Y8435D01*
X10281Y7278D02*
X10458Y7585D01*
X7328Y14843D02*
Y15197D01*
X7732Y12003D02*
Y12357D01*
X6438Y14843D02*
Y15197D01*
X9262Y6575D02*
X9439Y6882D01*
X3473Y13512D02*
X3827Y13512D01*
X4050Y14980D02*
X4050Y15280D01*
X3530Y14980D02*
X3530Y15270D01*
X8483Y13202D02*
X8837Y13202D01*
X8483Y13842D02*
X8837D01*
X5268Y16292D02*
X5622Y16292D01*
X6273Y12621D02*
Y12976D01*
X4838Y14212D02*
X5192D01*
X4833Y13548D02*
X5187D01*
X4753Y15817D02*
Y16171D01*
X3960Y12310D02*
Y12610D01*
X3440Y12310D02*
Y12600D01*
X6888Y13357D02*
Y13711D01*
Y12307D02*
X6888Y12661D01*
X1158Y11697D02*
X1158Y11343D01*
D127*
X11899Y8984D02*
X12248Y9045D01*
X10642Y8266D02*
X10819Y8572D01*
X10042Y7416D02*
X10219Y7722D01*
X7052Y14843D02*
Y15197D01*
X8008Y12003D02*
Y12357D01*
X6162Y14843D02*
Y15197D01*
X9501Y6438D02*
X9678Y6745D01*
X3473Y13788D02*
X3827D01*
X8483Y13478D02*
X8837D01*
X8483Y14118D02*
X8837Y14118D01*
X5268Y16016D02*
X5622Y16016D01*
X5997Y12621D02*
Y12976D01*
X4838Y13936D02*
X5192Y13936D01*
X4833Y13272D02*
X5187D01*
X4477Y15817D02*
X4477Y16171D01*
X6612Y13357D02*
Y13711D01*
Y12307D02*
Y12661D01*
X882Y11697D02*
X882Y11343D01*
D128*
X6864Y11530D02*
X7060D01*
X6864Y11352D02*
X7060D01*
X7940Y11060D02*
X7940Y11256D01*
X7762Y11060D02*
Y11256D01*
X11350Y9280D02*
X11350Y9476D01*
X11172D02*
X11172Y9280D01*
X4695Y15334D02*
X5815D01*
X4695Y14814D02*
Y15334D01*
Y14814D02*
X5815Y14814D01*
X5815Y15334D01*
X4910Y11880D02*
X4910Y13000D01*
X4910Y11880D02*
X5430D01*
Y13000D01*
X4910D02*
X5430D01*
X7585Y15374D02*
X8705D01*
X7585Y14854D02*
Y15374D01*
Y14854D02*
X8705D01*
Y15374D01*
X10028Y7972D02*
X10126Y8143D01*
X9874Y8061D02*
X9972Y8232D01*
D129*
X11808Y9107D02*
D03*
X12292Y9193D02*
D03*
D130*
X10973Y8563D02*
D03*
X10727Y8137D02*
D03*
X10373Y7713D02*
D03*
X10127Y7287D02*
D03*
X9593Y6873D02*
D03*
X9347Y6447D02*
D03*
D131*
X7190Y15266D02*
D03*
X7190Y14774D02*
D03*
X7870Y11934D02*
D03*
X7870Y12426D02*
D03*
X6300Y15266D02*
D03*
X6300Y14774D02*
D03*
X6135Y13045D02*
D03*
X6135Y12553D02*
D03*
X4615Y15748D02*
D03*
X4615Y16240D02*
D03*
X6750Y13780D02*
D03*
X6750Y13288D02*
D03*
X6750Y12238D02*
D03*
X6750Y12730D02*
D03*
X1020Y11766D02*
D03*
X1020Y11274D02*
D03*
D132*
X6801Y11440D02*
D03*
D133*
X7125Y11440D02*
D03*
D134*
X7850Y11319D02*
D03*
X11260Y9539D02*
D03*
D135*
X7850Y10995D02*
D03*
X11260Y9215D02*
D03*
D136*
X7273Y4296D02*
D03*
D137*
X8450Y5968D02*
D03*
D138*
X3896Y13650D02*
D03*
X3404D02*
D03*
X8414Y13340D02*
D03*
X8906Y13340D02*
D03*
X8414Y13980D02*
D03*
X8906D02*
D03*
X5691Y16154D02*
D03*
X5199Y16154D02*
D03*
X5261Y14074D02*
D03*
X4769Y14074D02*
D03*
X4764Y13410D02*
D03*
X5256Y13410D02*
D03*
D139*
X3792Y15412D02*
D03*
X3702Y12742D02*
D03*
D140*
X3792Y14840D02*
D03*
X3702Y12170D02*
D03*
D141*
X10082Y8243D02*
D03*
D142*
X9920Y7962D02*
D03*
M02*
