G04 Layer_Color=128*
%FSLAX24Y24*%
%MOIN*%
G70*
G01*
G75*
%ADD130C,0.0020*%
D130*
X9088Y12254D02*
X9392D01*
X9240Y12102D02*
Y12405D01*
X9088Y11466D02*
X9392D01*
X9240Y11315D02*
Y11618D01*
X1428Y2216D02*
X1732D01*
X1580Y2065D02*
Y2368D01*
X1428Y3004D02*
X1732D01*
X1580Y2852D02*
Y3155D01*
X6488Y2686D02*
X6792D01*
X6640Y2535D02*
Y2838D01*
X6488Y3474D02*
X6792D01*
X6640Y3322D02*
Y3625D01*
X-350Y9479D02*
X143D01*
X-103Y9233D02*
Y9725D01*
X9310Y9479D02*
X9803D01*
X9557Y9233D02*
Y9725D01*
X3299Y8169D02*
X6134D01*
X4717Y6752D02*
Y9587D01*
X8508Y1820D02*
X8941D01*
X8725Y1604D02*
Y2037D01*
X9000Y2673D02*
X9433D01*
X9217Y2456D02*
Y2889D01*
X9492Y3525D02*
X9926D01*
X9709Y3308D02*
Y3742D01*
X9985Y4377D02*
X10418D01*
X10201Y4161D02*
Y4594D01*
X10477Y5230D02*
X10910D01*
X10693Y5013D02*
Y5446D01*
X10969Y6082D02*
X11402D01*
X11185Y5866D02*
Y6299D01*
X11461Y6935D02*
X11894D01*
X11677Y6718D02*
Y7151D01*
X11953Y7787D02*
X12386D01*
X12170Y7570D02*
Y8003D01*
X-735Y3699D02*
X-432D01*
X-583Y3547D02*
Y3851D01*
X-1128Y4381D02*
X-825D01*
X-977Y4229D02*
Y4533D01*
X-2398Y6521D02*
X-2095D01*
X-2247Y6369D02*
Y6673D01*
X-2005Y5839D02*
X-1702D01*
X-1853Y5687D02*
Y5991D01*
X5942Y959D02*
X6372D01*
X6157Y744D02*
Y1174D01*
X3062Y959D02*
X3492D01*
X3277Y744D02*
Y1174D01*
X10168Y11709D02*
X11546D01*
X10857Y11020D02*
Y12398D01*
X-2112Y11709D02*
X-734D01*
X-1423Y11020D02*
Y12398D01*
X4028Y1079D02*
X5406D01*
X4717Y390D02*
Y1768D01*
X482Y5321D02*
X785D01*
X633Y5169D02*
Y5473D01*
X875Y4639D02*
X1178D01*
X1027Y4487D02*
Y4791D01*
X-385Y6789D02*
X-82D01*
X-233Y6637D02*
Y6941D01*
X-778Y7471D02*
X-475D01*
X-627Y7319D02*
Y7623D01*
X9395Y6440D02*
X9545D01*
X9470Y6365D02*
Y6515D01*
X1525Y13510D02*
X1675D01*
X1600Y13435D02*
Y13585D01*
X2435Y3080D02*
X2585D01*
X2510Y3005D02*
Y3155D01*
X3625Y11580D02*
X3775D01*
X3700Y11505D02*
Y11655D01*
X3185Y14870D02*
X3335D01*
X3260Y14795D02*
Y14945D01*
X11125Y3248D02*
X11275D01*
X11200Y3173D02*
Y3323D01*
X9135Y5359D02*
X9285D01*
X9210Y5284D02*
Y5434D01*
X-2078Y2979D02*
X-1928D01*
X-2003Y2904D02*
Y3054D01*
X11775Y3598D02*
X11925D01*
X11850Y3523D02*
Y3673D01*
X8833Y14720D02*
X8983D01*
X8908Y14645D02*
Y14795D01*
X6719Y4682D02*
X6910D01*
X6814Y4587D02*
Y4778D01*
X4290Y3854D02*
X4440D01*
X4365Y3779D02*
Y3929D01*
X7810Y12835D02*
X7960D01*
X7885Y12760D02*
Y12910D01*
X8855Y12940D02*
X9005D01*
X8930Y12865D02*
Y13015D01*
X7085Y12290D02*
X7235D01*
X7160Y12215D02*
Y12365D01*
X3845Y14030D02*
X3995D01*
X3920Y13955D02*
Y14105D01*
X9225Y13980D02*
X9375D01*
X9300Y13905D02*
Y14055D01*
X-2848Y4329D02*
X-2698D01*
X-2773Y4254D02*
Y4404D01*
X8414Y4724D02*
X8606D01*
X8510Y4628D02*
Y4820D01*
X8584Y5100D02*
X8776D01*
X8680Y5004D02*
Y5196D01*
X8564Y4360D02*
X8756D01*
X8660Y4264D02*
Y4456D01*
X8974Y4164D02*
X9166D01*
X9070Y4068D02*
Y4260D01*
M02*
