G04 Layer_Color=32768*
%FSLAX24Y24*%
%MOIN*%
G70*
G01*
G75*
%ADD62C,0.0020*%
%ADD116C,0.0039*%
%ADD130C,0.0020*%
D62*
X7098Y12948D02*
Y13932D01*
X8082Y12948D02*
Y13932D01*
X7098D02*
X8082D01*
X7098Y12948D02*
X8082D01*
X3066Y11195D02*
X3066Y13085D01*
X1374Y11195D02*
Y13085D01*
Y11195D02*
X3066D01*
X1374Y13085D02*
X3066Y13085D01*
X2904Y3814D02*
Y4444D01*
X4046Y3814D02*
Y4444D01*
X2904Y4444D02*
X4046Y4444D01*
X2904Y3814D02*
X4046D01*
X2904Y3064D02*
Y3694D01*
X4046Y3694D02*
X4046Y3064D01*
X2904Y3694D02*
X4046Y3694D01*
X2904Y3064D02*
X4046D01*
X4046Y2964D02*
X4046Y2334D01*
X2904D02*
X2904Y2964D01*
X2904Y2334D02*
X4046D01*
X2904Y2964D02*
X4046D01*
X4160Y3084D02*
X4160Y3714D01*
X5301Y3084D02*
X5301Y3714D01*
X4160D02*
X5301D01*
X4160Y3084D02*
X5301D01*
X4160Y2964D02*
X4160Y2334D01*
X5301Y2964D02*
X5301Y2334D01*
X4160Y2964D02*
X5301D01*
X4160Y2334D02*
X5301D01*
X1364Y15815D02*
X3056D01*
X1364Y13925D02*
X3056Y13925D01*
X1364Y13925D02*
Y15815D01*
X3056Y13925D02*
Y15815D01*
X10208Y7457D02*
X10641Y8207D01*
X9799Y7693D02*
X10232Y8443D01*
X10641Y8207D01*
X9799Y7693D02*
X10208Y7457D01*
D116*
X7393Y13440D02*
X7787Y13440D01*
X7590Y13243D02*
Y13637D01*
X1885Y12140D02*
X2279Y12140D01*
X2082Y12337D02*
X2082Y11943D01*
X3278Y4129D02*
X3672D01*
X3475Y3932D02*
Y4326D01*
X3278Y3379D02*
X3672D01*
X3475Y3182D02*
Y3576D01*
X3278Y2649D02*
X3672D01*
X3475Y2452D02*
Y2846D01*
X4534Y3399D02*
X4927D01*
X4731Y3202D02*
Y3596D01*
X4534Y2649D02*
X4927Y2649D01*
X4731Y2452D02*
Y2846D01*
X2072Y14673D02*
X2072Y15067D01*
X1875Y14870D02*
X2269D01*
X10058Y8044D02*
X10382Y7857D01*
X10127Y7788D02*
X10314Y8112D01*
X2290Y13313D02*
Y13707D01*
X2093Y13510D02*
X2487D01*
X1739Y13825D02*
X2841Y13825D01*
X1739Y13195D02*
X2841Y13195D01*
X1739Y13825D02*
X1739Y13195D01*
X2841Y13825D02*
X2841Y13195D01*
D130*
X744Y12022D02*
X744Y11018D01*
X744Y12022D02*
X1296Y12022D01*
Y11018D02*
Y12022D01*
X744Y11018D02*
X1296D01*
X6474Y11982D02*
X7026D01*
X7026Y12986D01*
X6474D02*
X7026D01*
X6474Y11982D02*
Y12986D01*
Y13032D02*
Y14036D01*
X7026D01*
Y13032D02*
Y14036D01*
X6474Y13032D02*
X7026D01*
X3313Y11680D02*
X4090D01*
X3313Y13237D02*
X4090D01*
X3313Y11680D02*
Y13237D01*
X4090Y11680D02*
Y13237D01*
X4340Y15492D02*
X4891Y15492D01*
X4891Y16496D02*
X4891Y15492D01*
X4340Y16496D02*
X4891Y16496D01*
X4340Y15492D02*
Y16496D01*
X4508Y13134D02*
X5512D01*
X4508D02*
Y13686D01*
X5512D01*
Y13134D02*
Y13686D01*
X5517Y13798D02*
Y14350D01*
X4513D02*
X5517D01*
X4513Y13798D02*
Y14350D01*
Y13798D02*
X5517D01*
X5859Y12297D02*
Y13301D01*
X6411D01*
Y12297D02*
Y13301D01*
X5859Y12297D02*
X6411D01*
X5947Y15879D02*
Y16430D01*
X4943D02*
X5947D01*
X4943Y15879D02*
Y16430D01*
Y15879D02*
X5947D01*
X8158Y14256D02*
X8158Y13704D01*
X9162D01*
X9162Y14256D02*
X9162Y13704D01*
X8158Y14256D02*
X9162D01*
X8158Y13616D02*
X8158Y13064D01*
X9162D01*
X9162Y13616D02*
X9162Y13064D01*
X8158Y13616D02*
X9162D01*
X3403Y14350D02*
X4180D01*
X3403Y15907D02*
X4180D01*
X3403Y14350D02*
Y15907D01*
X4180Y14350D02*
Y15907D01*
X3148Y13926D02*
X4152D01*
X4152Y13374D02*
X4152Y13926D01*
X3148Y13374D02*
X4152D01*
X3148D02*
X3148Y13926D01*
X9682Y7683D02*
X10160Y7407D01*
X9180Y6813D02*
X9682Y7683D01*
X9180Y6813D02*
X9658Y6537D01*
X10160Y7407D01*
X11460Y9000D02*
Y9760D01*
X11070Y9000D02*
X11460D01*
X11070D02*
Y9760D01*
X11460D01*
X6024Y14518D02*
Y15522D01*
X6576D01*
Y14518D02*
Y15522D01*
X6024Y14518D02*
X6576Y14518D01*
X6914D02*
X6914Y15522D01*
X7466Y15522D01*
Y14518D02*
Y15522D01*
X6914Y14518D02*
X7466Y14518D01*
X8146Y11678D02*
Y12682D01*
X7594Y11678D02*
X8146D01*
X7594D02*
Y12682D01*
X8146Y12682D01*
X6580Y11640D02*
X7340D01*
Y11250D02*
Y11640D01*
X6580Y11250D02*
X7340D01*
X6580D02*
Y11640D01*
X8050Y10780D02*
Y11540D01*
X7660Y10780D02*
X8050D01*
X7660D02*
Y11540D01*
X8050D01*
M02*
