G04 Layer_Color=2752767*
%FSLAX24Y24*%
%MOIN*%
G70*
G01*
G75*
%ADD130C,0.0020*%
%ADD131C,0.0027*%
D130*
X9160Y12174D02*
Y12334D01*
X9320D01*
Y12174D01*
X9160D01*
X9160Y11386D02*
Y11546D01*
X9320D01*
Y11386D01*
X9160D01*
X1500Y2136D02*
Y2296D01*
X1660D01*
Y2136D01*
X1500D01*
X1500Y2924D02*
Y3084D01*
X1660D01*
Y2924D01*
X1500D01*
X6560Y2606D02*
Y2766D01*
X6720D01*
Y2606D01*
X6560D01*
X6560Y3394D02*
Y3554D01*
X6720D01*
Y3394D01*
X6560D01*
X4717Y8089D02*
X4637Y8249D01*
X4797D01*
X4717Y8089D01*
X8725Y1740D02*
X8765Y1780D01*
X8805D01*
X8765Y1820D01*
X8805Y1860D01*
X8765D01*
X8725Y1900D01*
X8685Y1860D01*
X8645D01*
X8685Y1820D01*
X8645Y1780D01*
X8685D01*
X8725Y1740D01*
X9217Y2593D02*
X9257Y2633D01*
X9297D01*
X9257Y2673D01*
X9297Y2713D01*
X9257D01*
X9217Y2753D01*
X9177Y2713D01*
X9137D01*
X9177Y2673D01*
X9137Y2633D01*
X9177D01*
X9217Y2593D01*
X9709Y3445D02*
X9749Y3485D01*
X9789D01*
X9749Y3525D01*
X9789Y3565D01*
X9749D01*
X9709Y3605D01*
X9669Y3565D01*
X9629D01*
X9669Y3525D01*
X9629Y3485D01*
X9669D01*
X9709Y3445D01*
X10201Y4297D02*
X10241Y4337D01*
X10281D01*
X10241Y4377D01*
X10281Y4417D01*
X10241D01*
X10201Y4457D01*
X10161Y4417D01*
X10121D01*
X10161Y4377D01*
X10121Y4337D01*
X10161D01*
X10201Y4297D01*
X10693Y5150D02*
X10733Y5190D01*
X10773D01*
X10733Y5230D01*
X10773Y5270D01*
X10733D01*
X10693Y5310D01*
X10653Y5270D01*
X10613D01*
X10653Y5230D01*
X10613Y5190D01*
X10653D01*
X10693Y5150D01*
X11185Y6002D02*
X11225Y6042D01*
X11265D01*
X11225Y6082D01*
X11265Y6122D01*
X11225D01*
X11185Y6162D01*
X11145Y6122D01*
X11105D01*
X11145Y6082D01*
X11105Y6042D01*
X11145D01*
X11185Y6002D01*
X11677Y6855D02*
X11717Y6895D01*
X11757D01*
X11717Y6935D01*
X11757Y6975D01*
X11717D01*
X11677Y7015D01*
X11637Y6975D01*
X11597D01*
X11637Y6935D01*
X11597Y6895D01*
X11637D01*
X11677Y6855D01*
X12170Y7707D02*
X12210Y7747D01*
X12250D01*
X12210Y7787D01*
X12250Y7827D01*
X12210D01*
X12170Y7867D01*
X12130Y7827D01*
X12090D01*
X12130Y7787D01*
X12090Y7747D01*
X12130D01*
X12170Y7707D01*
X-663Y3619D02*
Y3779D01*
X-503D01*
Y3619D01*
X-663D01*
X-1057Y4301D02*
Y4461D01*
X-897D01*
Y4301D01*
X-1057D01*
X-2327Y6441D02*
Y6601D01*
X-2167D01*
Y6441D01*
X-2327D01*
X-1933Y5759D02*
Y5919D01*
X-1773D01*
Y5759D01*
X-1933D01*
X6077Y879D02*
X6117Y959D01*
X6077Y1039D01*
X6157Y999D01*
X6237Y1039D01*
X6197Y959D01*
X6237Y879D01*
X6157Y919D01*
X6077Y879D01*
X3197Y879D02*
X3237Y959D01*
X3197Y1039D01*
X3277Y999D01*
X3357Y1039D01*
X3317Y959D01*
X3357Y879D01*
X3277Y919D01*
X3197Y879D01*
X10817Y11669D02*
Y11629D01*
X10897D01*
Y11669D01*
X10937D01*
Y11749D01*
X10897D01*
Y11789D01*
X10817D01*
Y11749D01*
X10777D01*
Y11669D01*
X10817D01*
X-1463D02*
Y11629D01*
X-1383D01*
Y11669D01*
X-1343D01*
Y11749D01*
X-1383D01*
Y11789D01*
X-1463D01*
Y11749D01*
X-1503D01*
Y11669D01*
X-1463D01*
X4677Y1039D02*
Y999D01*
X4757D01*
Y1039D01*
X4797D01*
Y1119D01*
X4757D01*
Y1159D01*
X4677D01*
Y1119D01*
X4637D01*
Y1039D01*
X4677D01*
X553Y5241D02*
Y5401D01*
X713D01*
Y5241D01*
X553D01*
X947Y4559D02*
Y4719D01*
X1107D01*
Y4559D01*
X947D01*
X-313Y6709D02*
Y6869D01*
X-153D01*
Y6709D01*
X-313D01*
X-707Y7391D02*
Y7551D01*
X-547D01*
Y7391D01*
X-707D01*
X9390Y6360D02*
X9430D01*
X9470Y6400D01*
X9510Y6360D01*
X9550D01*
Y6400D01*
X9510Y6440D01*
X9550Y6480D01*
Y6520D01*
X9510D01*
X9470Y6480D01*
X9430Y6520D01*
X9390D01*
Y6480D01*
X9430Y6440D01*
X9390Y6400D01*
Y6360D01*
X1520Y13430D02*
X1560D01*
X1600Y13470D01*
X1640Y13430D01*
X1680D01*
Y13470D01*
X1640Y13510D01*
X1680Y13550D01*
Y13590D01*
X1640D01*
X1600Y13550D01*
X1560Y13590D01*
X1520D01*
Y13550D01*
X1560Y13510D01*
X1520Y13470D01*
Y13430D01*
X2430Y3000D02*
X2470D01*
X2510Y3040D01*
X2550Y3000D01*
X2590D01*
Y3040D01*
X2550Y3080D01*
X2590Y3120D01*
Y3160D01*
X2550D01*
X2510Y3120D01*
X2470Y3160D01*
X2430D01*
Y3120D01*
X2470Y3080D01*
X2430Y3040D01*
Y3000D01*
X3620Y11500D02*
X3660D01*
X3700Y11540D01*
X3740Y11500D01*
X3780D01*
Y11540D01*
X3740Y11580D01*
X3780Y11620D01*
Y11660D01*
X3740D01*
X3700Y11620D01*
X3660Y11660D01*
X3620D01*
Y11620D01*
X3660Y11580D01*
X3620Y11540D01*
Y11500D01*
X3180Y14790D02*
X3220D01*
X3260Y14830D01*
X3300Y14790D01*
X3340D01*
Y14830D01*
X3300Y14870D01*
X3340Y14910D01*
Y14950D01*
X3300D01*
X3260Y14910D01*
X3220Y14950D01*
X3180D01*
Y14910D01*
X3220Y14870D01*
X3180Y14830D01*
Y14790D01*
X11120Y3168D02*
X11160D01*
X11200Y3208D01*
X11240Y3168D01*
X11280D01*
Y3208D01*
X11240Y3248D01*
X11280Y3288D01*
Y3328D01*
X11240D01*
X11200Y3288D01*
X11160Y3328D01*
X11120D01*
Y3288D01*
X11160Y3248D01*
X11120Y3208D01*
Y3168D01*
X9130Y5279D02*
X9170D01*
X9210Y5319D01*
X9250Y5279D01*
X9290D01*
Y5319D01*
X9250Y5359D01*
X9290Y5399D01*
Y5439D01*
X9250D01*
X9210Y5399D01*
X9170Y5439D01*
X9130D01*
Y5399D01*
X9170Y5359D01*
X9130Y5319D01*
Y5279D01*
X-2083Y2899D02*
X-2043D01*
X-2003Y2939D01*
X-1963Y2899D01*
X-1923D01*
Y2939D01*
X-1963Y2979D01*
X-1923Y3019D01*
Y3059D01*
X-1963D01*
X-2003Y3019D01*
X-2043Y3059D01*
X-2083D01*
Y3019D01*
X-2043Y2979D01*
X-2083Y2939D01*
Y2899D01*
X11770Y3518D02*
X11810D01*
X11850Y3558D01*
X11890Y3518D01*
X11930D01*
Y3558D01*
X11890Y3598D01*
X11930Y3638D01*
Y3678D01*
X11890D01*
X11850Y3638D01*
X11810Y3678D01*
X11770D01*
Y3638D01*
X11810Y3598D01*
X11770Y3558D01*
Y3518D01*
X8828Y14640D02*
X8868D01*
X8908Y14680D01*
X8948Y14640D01*
X8988D01*
Y14680D01*
X8948Y14720D01*
X8988Y14760D01*
Y14800D01*
X8948D01*
X8908Y14760D01*
X8868Y14800D01*
X8828D01*
Y14760D01*
X8868Y14720D01*
X8828Y14680D01*
Y14640D01*
X6734Y4682D02*
X6814Y4762D01*
X6894Y4682D01*
X6814Y4602D01*
X6734Y4682D01*
X4285Y3774D02*
X4325D01*
X4365Y3814D01*
X4405Y3774D01*
X4445D01*
Y3814D01*
X4405Y3854D01*
X4445Y3894D01*
Y3934D01*
X4405D01*
X4365Y3894D01*
X4325Y3934D01*
X4285D01*
Y3894D01*
X4325Y3854D01*
X4285Y3814D01*
Y3774D01*
X7805Y12755D02*
X7845D01*
X7885Y12795D01*
X7925Y12755D01*
X7965D01*
Y12795D01*
X7925Y12835D01*
X7965Y12875D01*
Y12915D01*
X7925D01*
X7885Y12875D01*
X7845Y12915D01*
X7805D01*
Y12875D01*
X7845Y12835D01*
X7805Y12795D01*
Y12755D01*
X8850Y12860D02*
X8890D01*
X8930Y12900D01*
X8970Y12860D01*
X9010D01*
Y12900D01*
X8970Y12940D01*
X9010Y12980D01*
Y13020D01*
X8970D01*
X8930Y12980D01*
X8890Y13020D01*
X8850D01*
Y12980D01*
X8890Y12940D01*
X8850Y12900D01*
Y12860D01*
X7080Y12210D02*
X7120D01*
X7160Y12250D01*
X7200Y12210D01*
X7240D01*
Y12250D01*
X7200Y12290D01*
X7240Y12330D01*
Y12370D01*
X7200D01*
X7160Y12330D01*
X7120Y12370D01*
X7080D01*
Y12330D01*
X7120Y12290D01*
X7080Y12250D01*
Y12210D01*
X3840Y13950D02*
X3880D01*
X3920Y13990D01*
X3960Y13950D01*
X4000D01*
Y13990D01*
X3960Y14030D01*
X4000Y14070D01*
Y14110D01*
X3960D01*
X3920Y14070D01*
X3880Y14110D01*
X3840D01*
Y14070D01*
X3880Y14030D01*
X3840Y13990D01*
Y13950D01*
X9220Y13900D02*
X9260D01*
X9300Y13940D01*
X9340Y13900D01*
X9380D01*
Y13940D01*
X9340Y13980D01*
X9380Y14020D01*
Y14060D01*
X9340D01*
X9300Y14020D01*
X9260Y14060D01*
X9220D01*
Y14020D01*
X9260Y13980D01*
X9220Y13940D01*
Y13900D01*
X-2853Y4249D02*
X-2813D01*
X-2773Y4289D01*
X-2733Y4249D01*
X-2693D01*
Y4289D01*
X-2733Y4329D01*
X-2693Y4369D01*
Y4409D01*
X-2733D01*
X-2773Y4369D01*
X-2813Y4409D01*
X-2853D01*
Y4369D01*
X-2813Y4329D01*
X-2853Y4289D01*
Y4249D01*
X8430Y4724D02*
X8510Y4804D01*
X8590Y4724D01*
X8510Y4644D01*
X8430Y4724D01*
X8600Y5100D02*
X8680Y5180D01*
X8760Y5100D01*
X8680Y5020D01*
X8600Y5100D01*
X8580Y4360D02*
X8660Y4440D01*
X8740Y4360D01*
X8660Y4280D01*
X8580Y4360D01*
X8990Y4164D02*
X9070Y4244D01*
X9150Y4164D01*
X9070Y4084D01*
X8990Y4164D01*
D131*
X-23Y9479D02*
G03*
X-23Y9479I-80J0D01*
G01*
X9637Y9479D02*
G03*
X9637Y9479I-80J0D01*
G01*
M02*
