G04 Layer_Color=32896*
%FSLAX24Y24*%
%MOIN*%
G70*
G01*
G75*
%ADD59C,0.0157*%
%ADD60C,0.0433*%
%ADD63C,0.0077*%
D59*
X6049Y1978D02*
Y2844D01*
X6364D01*
Y3316D01*
X6049Y3316D02*
X6364Y3316D01*
X6049Y3316D02*
Y4182D01*
Y1978D02*
X7742D01*
Y2686D01*
Y3474D01*
Y4182D01*
X6049D02*
X7742D01*
X989Y1508D02*
Y2374D01*
X1304Y2374D01*
Y2846D01*
X989Y2846D02*
X1304Y2846D01*
X989Y2846D02*
Y3712D01*
Y1508D02*
X2682D01*
X2682Y2216D01*
X2682Y3004D02*
X2682Y2216D01*
X2682Y3004D02*
Y3712D01*
X989Y3712D02*
X2682Y3712D01*
X9831Y12096D02*
Y12962D01*
X9516Y12096D02*
X9831Y12096D01*
X9516Y12096D02*
X9516Y11624D01*
X9831D01*
Y10758D02*
Y11624D01*
X8138Y12962D02*
X9831D01*
X8138D02*
X8138Y12254D01*
X8138Y11466D02*
X8138Y12254D01*
X8138Y10758D02*
X8138Y11466D01*
X8138Y10758D02*
X9831D01*
D60*
X8097Y3986D02*
Y4025D01*
X3037Y3516D02*
X3037Y3555D01*
X7783Y10915D02*
X7783Y10954D01*
D63*
X7500Y1760D02*
Y1350D01*
X7266D01*
X6967Y1760D02*
X7221D01*
Y1350D01*
X6967D01*
X7221Y1565D02*
X7065D01*
X6899Y1760D02*
Y1350D01*
Y1760D02*
X6762D01*
X6703Y1741D01*
X6664Y1701D01*
X6645Y1662D01*
X6625Y1604D01*
Y1506D01*
X6645Y1448D01*
X6664Y1409D01*
X6703Y1370D01*
X6762Y1350D01*
X6899D01*
X2363Y4310D02*
Y3900D01*
X2500Y4310D02*
X2227D01*
X1924D02*
X2178D01*
Y3900D01*
X1924D01*
X2178Y4115D02*
X2022D01*
X1856Y4310D02*
Y3900D01*
Y4310D02*
X1699Y3900D01*
X1543Y4310D02*
X1699Y3900D01*
X1543Y4310D02*
Y3900D01*
X1426Y4095D02*
X1250D01*
X1192Y4115D01*
X1172Y4134D01*
X1153Y4173D01*
Y4232D01*
X1172Y4271D01*
X1192Y4290D01*
X1250Y4310D01*
X1426D01*
Y3900D01*
X7850Y11745D02*
X7674D01*
X7616Y11765D01*
X7596Y11784D01*
X7577Y11823D01*
Y11882D01*
X7596Y11921D01*
X7616Y11940D01*
X7674Y11960D01*
X7850D01*
Y11550D01*
X7485Y11960D02*
Y11550D01*
Y11960D02*
X7309D01*
X7251Y11940D01*
X7231Y11921D01*
X7212Y11882D01*
Y11843D01*
X7231Y11804D01*
X7251Y11784D01*
X7309Y11765D01*
X7485D01*
X7348D02*
X7212Y11550D01*
X7003Y11960D02*
X7042Y11940D01*
X7081Y11901D01*
X7100Y11862D01*
X7120Y11804D01*
Y11706D01*
X7100Y11648D01*
X7081Y11609D01*
X7042Y11570D01*
X7003Y11550D01*
X6925D01*
X6885Y11570D01*
X6846Y11609D01*
X6827Y11648D01*
X6807Y11706D01*
Y11804D01*
X6827Y11862D01*
X6846Y11901D01*
X6885Y11940D01*
X6925Y11960D01*
X7003D01*
X6712D02*
Y11550D01*
Y11960D02*
X6536D01*
X6477Y11940D01*
X6458Y11921D01*
X6438Y11882D01*
Y11843D01*
X6458Y11804D01*
X6477Y11784D01*
X6536Y11765D01*
X6712D02*
X6536D01*
X6477Y11745D01*
X6458Y11726D01*
X6438Y11687D01*
Y11628D01*
X6458Y11589D01*
X6477Y11570D01*
X6536Y11550D01*
X6712D01*
X6093Y11960D02*
X6347D01*
Y11550D01*
X6093D01*
X6347Y11765D02*
X6190D01*
X8161Y13960D02*
Y13550D01*
X7938Y13960D02*
Y13550D01*
X8075Y13960D02*
X7802D01*
X7499D02*
X7753D01*
Y13550D01*
X7499D01*
X7753Y13765D02*
X7597D01*
X7431Y13960D02*
Y13550D01*
Y13960D02*
X7275Y13550D01*
X7118Y13960D02*
X7275Y13550D01*
X7118Y13960D02*
Y13550D01*
X6523Y13960D02*
X6660Y13413D01*
X6406Y13960D02*
X6542Y13413D01*
X6660Y13745D02*
X6386D01*
X6679Y13628D02*
X6406D01*
X5697Y13960D02*
X5892Y13550D01*
X5970Y13960D02*
X5697D01*
X5605Y13882D02*
X5566Y13901D01*
X5508Y13960D01*
Y13550D01*
X5285Y13862D02*
Y13882D01*
X5265Y13921D01*
X5246Y13941D01*
X5207Y13960D01*
X5129D01*
X5090Y13941D01*
X5070Y13921D01*
X5051Y13882D01*
Y13843D01*
X5070Y13804D01*
X5109Y13745D01*
X5305Y13550D01*
X5031D01*
X4939Y13882D02*
X4900Y13901D01*
X4842Y13960D01*
Y13550D01*
X4522Y13960D02*
X4580Y13941D01*
X4619Y13882D01*
X4639Y13784D01*
Y13726D01*
X4619Y13628D01*
X4580Y13570D01*
X4522Y13550D01*
X4483D01*
X4424Y13570D01*
X4385Y13628D01*
X4365Y13726D01*
Y13784D01*
X4385Y13882D01*
X4424Y13941D01*
X4483Y13960D01*
X4522D01*
X7689Y15310D02*
Y14900D01*
X7415Y15310D02*
Y14900D01*
X7689Y15115D02*
X7415D01*
X7048Y15310D02*
X7302D01*
Y14900D01*
X7048D01*
X7302Y15115D02*
X7146D01*
X6960Y15212D02*
Y15232D01*
X6941Y15271D01*
X6921Y15290D01*
X6882Y15310D01*
X6804D01*
X6765Y15290D01*
X6745Y15271D01*
X6726Y15232D01*
Y15193D01*
X6745Y15154D01*
X6785Y15095D01*
X6980Y14900D01*
X6706D01*
X6517Y15310D02*
X6576Y15290D01*
X6595Y15251D01*
Y15212D01*
X6576Y15173D01*
X6537Y15154D01*
X6458Y15134D01*
X6400Y15115D01*
X6361Y15076D01*
X6341Y15037D01*
Y14978D01*
X6361Y14939D01*
X6380Y14920D01*
X6439Y14900D01*
X6517D01*
X6576Y14920D01*
X6595Y14939D01*
X6615Y14978D01*
Y15037D01*
X6595Y15076D01*
X6556Y15115D01*
X6498Y15134D01*
X6419Y15154D01*
X6380Y15173D01*
X6361Y15212D01*
Y15251D01*
X6380Y15290D01*
X6439Y15310D01*
X6517D01*
X6132D02*
X6191Y15290D01*
X6230Y15232D01*
X6250Y15134D01*
Y15076D01*
X6230Y14978D01*
X6191Y14920D01*
X6132Y14900D01*
X6093D01*
X6035Y14920D01*
X5996Y14978D01*
X5976Y15076D01*
Y15134D01*
X5996Y15232D01*
X6035Y15290D01*
X6093Y15310D01*
X6132D01*
X5884Y15095D02*
X5709D01*
X5650Y15115D01*
X5631Y15134D01*
X5611Y15173D01*
Y15232D01*
X5631Y15271D01*
X5650Y15290D01*
X5709Y15310D01*
X5884D01*
Y14900D01*
X5226Y15212D02*
X5246Y15251D01*
X5285Y15290D01*
X5324Y15310D01*
X5402D01*
X5441Y15290D01*
X5480Y15251D01*
X5500Y15212D01*
X5519Y15154D01*
Y15056D01*
X5500Y14998D01*
X5480Y14959D01*
X5441Y14920D01*
X5402Y14900D01*
X5324D01*
X5285Y14920D01*
X5246Y14959D01*
X5226Y14998D01*
X5111Y15310D02*
Y14900D01*
Y15310D02*
X4936D01*
X4877Y15290D01*
X4857Y15271D01*
X4838Y15232D01*
Y15193D01*
X4857Y15154D01*
X4877Y15134D01*
X4936Y15115D01*
X5111D02*
X4936D01*
X4877Y15095D01*
X4857Y15076D01*
X4838Y15037D01*
Y14978D01*
X4857Y14939D01*
X4877Y14920D01*
X4936Y14900D01*
X5111D01*
X7300Y14703D02*
Y14293D01*
Y14703D02*
X7124D01*
X7066Y14684D01*
X7046Y14664D01*
X7027Y14625D01*
Y14586D01*
X7046Y14547D01*
X7066Y14528D01*
X7124Y14508D01*
X7300D01*
X7163D02*
X7027Y14293D01*
X6681Y14703D02*
X6935D01*
Y14293D01*
X6681D01*
X6935Y14508D02*
X6779D01*
X6613Y14703D02*
X6457Y14293D01*
X6300Y14703D02*
X6457Y14293D01*
X6248Y14157D02*
X5935D01*
X5648Y14645D02*
X5668Y14684D01*
X5726Y14703D01*
X5765D01*
X5824Y14684D01*
X5863Y14625D01*
X5882Y14528D01*
Y14430D01*
X5863Y14352D01*
X5824Y14313D01*
X5765Y14293D01*
X5746D01*
X5687Y14313D01*
X5648Y14352D01*
X5629Y14410D01*
Y14430D01*
X5648Y14489D01*
X5687Y14528D01*
X5746Y14547D01*
X5765D01*
X5824Y14528D01*
X5863Y14489D01*
X5882Y14430D01*
X5226Y14293D02*
X5383Y14703D01*
X5539Y14293D01*
X5480Y14430D02*
X5285D01*
M02*
