G04 Layer_Color=128*
%FSLAX24Y24*%
%MOIN*%
G70*
G01*
G75*
%ADD143C,0.0020*%
D143*
X8608Y12303D02*
X8911D01*
X8760Y12152D02*
Y12455D01*
X8608Y11516D02*
X8911D01*
X8760Y11364D02*
Y11667D01*
X2112Y3831D02*
X2415D01*
X2263Y3679D02*
Y3983D01*
X2505Y3149D02*
X2808D01*
X2657Y2997D02*
Y3301D01*
X6488Y2686D02*
X6792D01*
X6640Y2535D02*
Y2838D01*
X6488Y3474D02*
X6792D01*
X6640Y3322D02*
Y3625D01*
X6742Y959D02*
X7172D01*
X6957Y744D02*
Y1174D01*
X2262Y959D02*
X2692D01*
X2477Y744D02*
Y1174D01*
X-350Y9479D02*
X143D01*
X-103Y9233D02*
Y9725D01*
X9310Y9479D02*
X9803D01*
X9557Y9233D02*
Y9725D01*
X3299Y8169D02*
X6134D01*
X4717Y6752D02*
Y9587D01*
X8508Y1820D02*
X8941D01*
X8725Y1604D02*
Y2037D01*
X9000Y2673D02*
X9433D01*
X9217Y2456D02*
Y2889D01*
X9492Y3525D02*
X9926D01*
X9709Y3308D02*
Y3742D01*
X9985Y4377D02*
X10418D01*
X10201Y4161D02*
Y4594D01*
X10477Y5230D02*
X10910D01*
X10693Y5013D02*
Y5446D01*
X10969Y6082D02*
X11402D01*
X11185Y5866D02*
Y6299D01*
X11461Y6935D02*
X11894D01*
X11677Y6718D02*
Y7151D01*
X11953Y7787D02*
X12386D01*
X12170Y7570D02*
Y8003D01*
X1199Y2497D02*
X1503D01*
X1351Y2345D02*
Y2648D01*
X517Y2103D02*
X821D01*
X669Y1952D02*
Y2255D01*
X-2333Y7013D02*
X-2029D01*
X-2181Y6862D02*
Y7165D01*
X-1651Y7407D02*
X-1347D01*
X-1499Y7255D02*
Y7558D01*
X10168Y11709D02*
X11546D01*
X10857Y11020D02*
Y12398D01*
X-2112Y11709D02*
X-734D01*
X-1423Y11020D02*
Y12398D01*
X4028Y1079D02*
X5406D01*
X4717Y390D02*
Y1768D01*
X-1383Y5373D02*
X-1079D01*
X-1231Y5222D02*
Y5525D01*
X-701Y5767D02*
X-397D01*
X-549Y5615D02*
Y5918D01*
X249Y4127D02*
X553D01*
X401Y3975D02*
Y4278D01*
X-433Y3733D02*
X-129D01*
X-281Y3582D02*
Y3885D01*
X12595Y9240D02*
X12745D01*
X12670Y9165D02*
Y9315D01*
X10165Y6910D02*
X10315D01*
X10240Y6835D02*
Y6985D01*
X10855Y7810D02*
X11005D01*
X10930Y7735D02*
Y7885D01*
X3515Y4210D02*
X3665D01*
X3590Y4135D02*
Y4285D01*
X3365Y3330D02*
X3515D01*
X3440Y3255D02*
Y3405D01*
X350Y6630D02*
X500D01*
X425Y6555D02*
Y6705D01*
X580Y8020D02*
X780D01*
X680Y7920D02*
Y8120D01*
X3435Y2200D02*
X3585D01*
X3510Y2125D02*
Y2275D01*
X3135Y2210D02*
X3285D01*
X3210Y2135D02*
Y2285D01*
X8414Y4724D02*
X8606D01*
X8510Y4628D02*
Y4820D01*
X11125Y3248D02*
X11275D01*
X11200Y3173D02*
Y3323D01*
X9075Y6000D02*
X9225D01*
X9150Y5925D02*
Y6075D01*
X9135Y5359D02*
X9285D01*
X9210Y5284D02*
Y5434D01*
X3625Y11580D02*
X3775D01*
X3700Y11505D02*
Y11655D01*
X8154Y3450D02*
X8346D01*
X8250Y3354D02*
Y3546D01*
X8004Y4000D02*
X8196D01*
X8100Y3904D02*
Y4096D01*
X1525Y13510D02*
X1675D01*
X1600Y13435D02*
Y13585D01*
X3185Y14870D02*
X3335D01*
X3260Y14795D02*
Y14945D01*
X11775Y3598D02*
X11925D01*
X11850Y3523D02*
Y3673D01*
X8833Y14720D02*
X8983D01*
X8908Y14645D02*
Y14795D01*
X6719Y4682D02*
X6910D01*
X6814Y4587D02*
Y4778D01*
X7810Y12835D02*
X7960D01*
X7885Y12760D02*
Y12910D01*
X8855Y12940D02*
X9005D01*
X8930Y12865D02*
Y13015D01*
X7085Y12290D02*
X7235D01*
X7160Y12215D02*
Y12365D01*
X3845Y14030D02*
X3995D01*
X3920Y13955D02*
Y14105D01*
X9225Y13980D02*
X9375D01*
X9300Y13905D02*
Y14055D01*
X8584Y5100D02*
X8776D01*
X8680Y5004D02*
Y5196D01*
X8564Y4360D02*
X8756D01*
X8660Y4264D02*
Y4456D01*
X8974Y4164D02*
X9166D01*
X9070Y4068D02*
Y4260D01*
M02*
