G04 Layer_Color=16711935*
%FSLAX24Y24*%
%MOIN*%
G70*
G01*
G75*
G04:AMPARAMS|DCode=100|XSize=118.7mil|YSize=118.7mil|CornerRadius=59.4mil|HoleSize=0mil|Usage=FLASHONLY|Rotation=45.000|XOffset=0mil|YOffset=0mil|HoleType=Round|Shape=RoundedRectangle|*
%AMROUNDEDRECTD100*
21,1,0.1187,0.0000,0,0,45.0*
21,1,0.0000,0.1187,0,0,45.0*
1,1,0.1187,0.0000,0.0000*
1,1,0.1187,0.0000,0.0000*
1,1,0.1187,0.0000,0.0000*
1,1,0.1187,0.0000,0.0000*
%
%ADD100ROUNDEDRECTD100*%
%ADD106C,0.0570*%
%ADD107R,0.0570X0.0570*%
%ADD108C,0.1080*%
%ADD110C,0.0828*%
%ADD111P,0.0806X4X165.0*%
%ADD112C,0.0880*%
%ADD113P,0.0953X8X22.5*%
G04:AMPARAMS|DCode=114|XSize=118.7mil|YSize=118.7mil|CornerRadius=59.4mil|HoleSize=0mil|Usage=FLASHONLY|Rotation=135.000|XOffset=0mil|YOffset=0mil|HoleType=Round|Shape=RoundedRectangle|*
%AMROUNDEDRECTD114*
21,1,0.1187,0.0000,0,0,135.0*
21,1,0.0000,0.1187,0,0,135.0*
1,1,0.1187,0.0000,0.0000*
1,1,0.1187,0.0000,0.0000*
1,1,0.1187,0.0000,0.0000*
1,1,0.1187,0.0000,0.0000*
%
%ADD114ROUNDEDRECTD114*%
%ADD115C,0.4017*%
D100*
X-3690Y8140D02*
D03*
D106*
X9240Y12254D02*
D03*
X1580Y2216D02*
D03*
X6640Y2686D02*
D03*
X-977Y4381D02*
D03*
X-2247Y6521D02*
D03*
X633Y5321D02*
D03*
X-627Y7471D02*
D03*
D107*
X9240Y11466D02*
D03*
X1580Y3004D02*
D03*
X6640Y3474D02*
D03*
D108*
X-103Y9479D02*
D03*
X9557Y9479D02*
D03*
D110*
X8725Y1820D02*
D03*
X9217Y2673D02*
D03*
X9709Y3525D02*
D03*
X10201Y4377D02*
D03*
X10693Y5230D02*
D03*
X11185Y6082D02*
D03*
X11677Y6935D02*
D03*
X12170Y7787D02*
D03*
D111*
X-583Y3699D02*
D03*
X-1853Y5839D02*
D03*
X1027Y4639D02*
D03*
X-233Y6789D02*
D03*
D112*
X6157Y959D02*
D03*
D113*
X3277Y959D02*
D03*
D114*
X11940Y10420D02*
D03*
D115*
X4717Y8169D02*
D03*
M02*
