G04 Layer_Color=8388736*
%FSLAX24Y24*%
%MOIN*%
G70*
G01*
G75*
%ADD91R,0.0827X0.0827*%
G04:AMPARAMS|DCode=92|XSize=37.1mil|YSize=47.4mil|CornerRadius=9.8mil|HoleSize=0mil|Usage=FLASHONLY|Rotation=190.000|XOffset=0mil|YOffset=0mil|HoleType=Round|Shape=RoundedRectangle|*
%AMROUNDEDRECTD92*
21,1,0.0371,0.0277,0,0,190.0*
21,1,0.0175,0.0474,0,0,190.0*
1,1,0.0197,-0.0110,0.0121*
1,1,0.0197,0.0062,0.0152*
1,1,0.0197,0.0110,-0.0121*
1,1,0.0197,-0.0062,-0.0152*
%
%ADD92ROUNDEDRECTD92*%
G04:AMPARAMS|DCode=93|XSize=37.1mil|YSize=47.4mil|CornerRadius=9.8mil|HoleSize=0mil|Usage=FLASHONLY|Rotation=60.000|XOffset=0mil|YOffset=0mil|HoleType=Round|Shape=RoundedRectangle|*
%AMROUNDEDRECTD93*
21,1,0.0371,0.0277,0,0,60.0*
21,1,0.0175,0.0474,0,0,60.0*
1,1,0.0197,0.0164,0.0006*
1,1,0.0197,0.0076,-0.0145*
1,1,0.0197,-0.0164,-0.0006*
1,1,0.0197,-0.0076,0.0145*
%
%ADD93ROUNDEDRECTD93*%
G04:AMPARAMS|DCode=94|XSize=118.7mil|YSize=118.7mil|CornerRadius=59.4mil|HoleSize=0mil|Usage=FLASHONLY|Rotation=45.000|XOffset=0mil|YOffset=0mil|HoleType=Round|Shape=RoundedRectangle|*
%AMROUNDEDRECTD94*
21,1,0.1187,0.0000,0,0,45.0*
21,1,0.0000,0.1187,0,0,45.0*
1,1,0.1187,0.0000,0.0000*
1,1,0.1187,0.0000,0.0000*
1,1,0.1187,0.0000,0.0000*
1,1,0.1187,0.0000,0.0000*
%
%ADD94ROUNDEDRECTD94*%
G04:AMPARAMS|DCode=95|XSize=118.7mil|YSize=118.7mil|CornerRadius=59.4mil|HoleSize=0mil|Usage=FLASHONLY|Rotation=60.000|XOffset=0mil|YOffset=0mil|HoleType=Round|Shape=RoundedRectangle|*
%AMROUNDEDRECTD95*
21,1,0.1187,0.0000,0,0,60.0*
21,1,0.0000,0.1187,0,0,60.0*
1,1,0.1187,0.0000,0.0000*
1,1,0.1187,0.0000,0.0000*
1,1,0.1187,0.0000,0.0000*
1,1,0.1187,0.0000,0.0000*
%
%ADD95ROUNDEDRECTD95*%
G04:AMPARAMS|DCode=96|XSize=37.1mil|YSize=47.4mil|CornerRadius=9.8mil|HoleSize=0mil|Usage=FLASHONLY|Rotation=90.000|XOffset=0mil|YOffset=0mil|HoleType=Round|Shape=RoundedRectangle|*
%AMROUNDEDRECTD96*
21,1,0.0371,0.0277,0,0,90.0*
21,1,0.0175,0.0474,0,0,90.0*
1,1,0.0197,0.0139,0.0087*
1,1,0.0197,0.0139,-0.0087*
1,1,0.0197,-0.0139,-0.0087*
1,1,0.0197,-0.0139,0.0087*
%
%ADD96ROUNDEDRECTD96*%
G04:AMPARAMS|DCode=97|XSize=30mil|YSize=32mil|CornerRadius=8.4mil|HoleSize=0mil|Usage=FLASHONLY|Rotation=0.000|XOffset=0mil|YOffset=0mil|HoleType=Round|Shape=RoundedRectangle|*
%AMROUNDEDRECTD97*
21,1,0.0300,0.0152,0,0,0.0*
21,1,0.0132,0.0320,0,0,0.0*
1,1,0.0168,0.0066,-0.0076*
1,1,0.0168,-0.0066,-0.0076*
1,1,0.0168,-0.0066,0.0076*
1,1,0.0168,0.0066,0.0076*
%
%ADD97ROUNDEDRECTD97*%
G04:AMPARAMS|DCode=98|XSize=30mil|YSize=32mil|CornerRadius=8.4mil|HoleSize=0mil|Usage=FLASHONLY|Rotation=270.000|XOffset=0mil|YOffset=0mil|HoleType=Round|Shape=RoundedRectangle|*
%AMROUNDEDRECTD98*
21,1,0.0300,0.0152,0,0,270.0*
21,1,0.0132,0.0320,0,0,270.0*
1,1,0.0168,-0.0076,-0.0066*
1,1,0.0168,-0.0076,0.0066*
1,1,0.0168,0.0076,0.0066*
1,1,0.0168,0.0076,-0.0066*
%
%ADD98ROUNDEDRECTD98*%
G04:AMPARAMS|DCode=99|XSize=55.2mil|YSize=67.1mil|CornerRadius=0mil|HoleSize=0mil|Usage=FLASHONLY|Rotation=240.000|XOffset=0mil|YOffset=0mil|HoleType=Round|Shape=Rectangle|*
%AMROTATEDRECTD99*
4,1,4,-0.0152,0.0407,0.0428,0.0072,0.0152,-0.0407,-0.0428,-0.0072,-0.0152,0.0407,0.0*
%
%ADD99ROTATEDRECTD99*%

G04:AMPARAMS|DCode=100|XSize=55.2mil|YSize=67.1mil|CornerRadius=0mil|HoleSize=0mil|Usage=FLASHONLY|Rotation=300.000|XOffset=0mil|YOffset=0mil|HoleType=Round|Shape=Rectangle|*
%AMROTATEDRECTD100*
4,1,4,-0.0428,0.0072,0.0152,0.0407,0.0428,-0.0072,-0.0152,-0.0407,-0.0428,0.0072,0.0*
%
%ADD100ROTATEDRECTD100*%

%ADD101P,0.1230X4X100.0*%
%ADD102R,0.0513X0.0631*%
%ADD103R,0.0552X0.0277*%
%ADD104R,0.0474X0.0277*%
G04:AMPARAMS|DCode=105|XSize=37.1mil|YSize=47.4mil|CornerRadius=9.8mil|HoleSize=0mil|Usage=FLASHONLY|Rotation=0.000|XOffset=0mil|YOffset=0mil|HoleType=Round|Shape=RoundedRectangle|*
%AMROUNDEDRECTD105*
21,1,0.0371,0.0277,0,0,0.0*
21,1,0.0175,0.0474,0,0,0.0*
1,1,0.0197,0.0087,-0.0139*
1,1,0.0197,-0.0087,-0.0139*
1,1,0.0197,-0.0087,0.0139*
1,1,0.0197,0.0087,0.0139*
%
%ADD105ROUNDEDRECTD105*%
G04:AMPARAMS|DCode=106|XSize=60mil|YSize=68mil|CornerRadius=17mil|HoleSize=0mil|Usage=FLASHONLY|Rotation=270.000|XOffset=0mil|YOffset=0mil|HoleType=Round|Shape=RoundedRectangle|*
%AMROUNDEDRECTD106*
21,1,0.0600,0.0340,0,0,270.0*
21,1,0.0260,0.0680,0,0,270.0*
1,1,0.0340,-0.0170,-0.0130*
1,1,0.0340,-0.0170,0.0130*
1,1,0.0340,0.0170,0.0130*
1,1,0.0340,0.0170,-0.0130*
%
%ADD106ROUNDEDRECTD106*%
%ADD107R,0.0415X0.0572*%
%ADD108R,0.0572X0.0415*%
G04:AMPARAMS|DCode=109|XSize=57.2mil|YSize=41.5mil|CornerRadius=0mil|HoleSize=0mil|Usage=FLASHONLY|Rotation=210.000|XOffset=0mil|YOffset=0mil|HoleType=Round|Shape=Rectangle|*
%AMROTATEDRECTD109*
4,1,4,0.0144,0.0323,0.0351,-0.0037,-0.0144,-0.0323,-0.0351,0.0037,0.0144,0.0323,0.0*
%
%ADD109ROTATEDRECTD109*%

%ADD110R,0.0400X0.0440*%
%ADD111R,0.0440X0.0400*%
%ADD112R,0.0228X0.0218*%
%ADD113R,0.0218X0.0228*%
G04:AMPARAMS|DCode=114|XSize=30mil|YSize=32mil|CornerRadius=8.4mil|HoleSize=0mil|Usage=FLASHONLY|Rotation=60.000|XOffset=0mil|YOffset=0mil|HoleType=Round|Shape=RoundedRectangle|*
%AMROUNDEDRECTD114*
21,1,0.0300,0.0152,0,0,60.0*
21,1,0.0132,0.0320,0,0,60.0*
1,1,0.0168,0.0099,0.0019*
1,1,0.0168,0.0033,-0.0095*
1,1,0.0168,-0.0099,-0.0019*
1,1,0.0168,-0.0033,0.0095*
%
%ADD114ROUNDEDRECTD114*%
%ADD115C,0.0570*%
%ADD116R,0.0570X0.0570*%
%ADD117P,0.0806X4X165.0*%
%ADD118C,0.0880*%
%ADD119P,0.0953X8X22.5*%
%ADD120C,0.1080*%
%ADD121C,0.6080*%
%ADD122C,0.0828*%
%ADD123P,0.0806X4X255.0*%
G36*
X1413Y12515D02*
X2397Y12515D01*
X2402Y12514D01*
X2408Y12513D01*
X2412Y12512D01*
X2417Y12509D01*
X2422Y12506D01*
X2426Y12503D01*
X2662Y12267D01*
X2665Y12263D01*
X2668Y12258D01*
X2670Y12254D01*
X2672Y12249D01*
X2673Y12244D01*
X2673Y12238D01*
Y12042D01*
X2673Y12036D01*
X2672Y12031D01*
X2670Y12026D01*
X2668Y12022D01*
X2665Y12017D01*
X2662Y12013D01*
X2426Y11777D01*
X2422Y11774D01*
X2417Y11771D01*
X2412Y11768D01*
X2408Y11767D01*
X2402Y11766D01*
X2397Y11765D01*
X1413Y11765D01*
X1413D01*
D01*
X1408Y11766D01*
X1403Y11767D01*
X1398Y11768D01*
X1395Y11769D01*
X1393Y11771D01*
X1389Y11774D01*
X1385Y11777D01*
Y11777D01*
X1385D01*
X1381Y11781D01*
X1378Y11785D01*
X1377Y11788D01*
X1376Y11790D01*
X1374Y11795D01*
X1373Y11800D01*
X1373Y11805D01*
D01*
Y11805D01*
X1373Y12475D01*
X1373Y12480D01*
X1374Y12485D01*
X1376Y12490D01*
X1377Y12492D01*
X1378Y12495D01*
X1381Y12499D01*
X1385Y12503D01*
X1385D01*
Y12503D01*
X1389Y12506D01*
X1393Y12509D01*
X1395Y12511D01*
X1398Y12512D01*
X1403Y12513D01*
X1408Y12514D01*
X1413Y12515D01*
X1413D01*
D01*
D01*
D02*
G37*
G36*
X1403Y15245D02*
X2387Y15245D01*
X2392Y15244D01*
X2398Y15243D01*
X2403Y15242D01*
X2407Y15239D01*
X2412Y15236D01*
X2416Y15233D01*
X2652Y14997D01*
X2655Y14993D01*
X2658Y14988D01*
X2660Y14984D01*
X2662Y14979D01*
X2663Y14974D01*
X2663Y14968D01*
Y14772D01*
X2663Y14766D01*
X2662Y14761D01*
X2660Y14756D01*
X2658Y14752D01*
X2655Y14747D01*
X2652Y14743D01*
X2416Y14507D01*
X2412Y14504D01*
X2407Y14501D01*
X2403Y14498D01*
X2398Y14497D01*
X2392Y14496D01*
X2387Y14495D01*
X1403D01*
D01*
X1403D01*
X1398Y14496D01*
X1393Y14497D01*
X1388Y14498D01*
X1383Y14501D01*
X1380Y14503D01*
X1379Y14504D01*
X1375Y14507D01*
Y14507D01*
X1375D01*
X1371Y14511D01*
X1370Y14512D01*
X1368Y14515D01*
X1366Y14520D01*
X1364Y14525D01*
X1363Y14530D01*
X1363Y14535D01*
D01*
Y14535D01*
X1363Y15205D01*
X1363Y15210D01*
X1364Y15215D01*
X1366Y15220D01*
X1368Y15225D01*
X1370Y15228D01*
X1371Y15229D01*
X1375Y15233D01*
X1375D01*
Y15233D01*
X1379Y15236D01*
X1380Y15237D01*
X1383Y15239D01*
X1388Y15242D01*
X1393Y15243D01*
X1398Y15244D01*
X1403Y15245D01*
X1403D01*
D01*
D01*
D02*
G37*
D91*
X7590Y13440D02*
D03*
D92*
X11786Y9103D02*
D03*
X12314Y9196D02*
D03*
D93*
X10984Y8582D02*
D03*
X10716Y8118D02*
D03*
X10384Y7732D02*
D03*
X10116Y7268D02*
D03*
X9604Y6892D02*
D03*
X9336Y6428D02*
D03*
D94*
X-3690Y8140D02*
D03*
D95*
X11940Y10420D02*
D03*
D96*
X7190Y15288D02*
D03*
Y14752D02*
D03*
X7870Y11912D02*
D03*
Y12448D02*
D03*
X6300Y15288D02*
D03*
Y14752D02*
D03*
X6135Y13066D02*
D03*
X6135Y12531D02*
D03*
X4615Y15727D02*
D03*
Y16262D02*
D03*
X6750Y13802D02*
D03*
Y13267D02*
D03*
Y12217D02*
D03*
Y12752D02*
D03*
X1020Y11788D02*
D03*
Y11252D02*
D03*
D97*
X6771Y11440D02*
D03*
X7150D02*
D03*
D98*
X7850Y11349D02*
D03*
X7850Y10970D02*
D03*
X11260Y9569D02*
D03*
Y9190D02*
D03*
D99*
X11700Y2219D02*
D03*
X12330Y3310D02*
D03*
X12730Y3999D02*
D03*
X13360Y5090D02*
D03*
D100*
X-2195Y2204D02*
D03*
X-2825Y3296D02*
D03*
X-3240Y4029D02*
D03*
X-3870Y5120D02*
D03*
D101*
X8313Y5777D02*
D03*
X7408Y4485D02*
D03*
D102*
X2585Y13510D02*
D03*
X1995Y13510D02*
D03*
D103*
X2781Y14279D02*
D03*
X2781Y15461D02*
D03*
X2791Y12731D02*
D03*
X2791Y11549D02*
D03*
D104*
X2820Y14870D02*
D03*
X2830Y12140D02*
D03*
D105*
X3918Y13650D02*
D03*
X3382Y13650D02*
D03*
X8392Y13340D02*
D03*
X8928D02*
D03*
X8392Y13980D02*
D03*
X8928D02*
D03*
X5713Y16154D02*
D03*
X5177Y16154D02*
D03*
X5283Y14074D02*
D03*
X4747Y14074D02*
D03*
X4742Y13410D02*
D03*
X5278Y13410D02*
D03*
D106*
X3790Y15504D02*
D03*
Y14750D02*
D03*
X3700Y12834D02*
D03*
X3700Y12080D02*
D03*
D107*
X5395Y3389D02*
D03*
X4666D02*
D03*
X5394Y4130D02*
D03*
X4666D02*
D03*
D108*
X4050Y3476D02*
D03*
X4050Y4204D02*
D03*
D109*
X578Y6375D02*
D03*
X942Y5745D02*
D03*
X281Y6870D02*
D03*
X-84Y7500D02*
D03*
D110*
X4881Y14681D02*
D03*
X5635Y14681D02*
D03*
X5255Y15514D02*
D03*
X7771Y14720D02*
D03*
X8525Y14720D02*
D03*
X8145Y15554D02*
D03*
D111*
X5564Y12066D02*
D03*
X5564Y12820D02*
D03*
X4730Y12440D02*
D03*
D112*
X7885Y13149D02*
D03*
X7295D02*
D03*
X7885Y13342D02*
D03*
X7295D02*
D03*
X7885Y13538D02*
D03*
X7295Y13538D02*
D03*
X7885Y13731D02*
D03*
X7295Y13731D02*
D03*
D113*
X7688Y13145D02*
D03*
X7492Y13145D02*
D03*
X7688Y13735D02*
D03*
X7492D02*
D03*
D114*
X10095Y8265D02*
D03*
X9906Y7936D02*
D03*
D115*
X8760Y12303D02*
D03*
X2263Y3831D02*
D03*
X6640Y2686D02*
D03*
X669Y2103D02*
D03*
X-2181Y7013D02*
D03*
X-1231Y5373D02*
D03*
X-281Y3733D02*
D03*
D116*
X8760Y11516D02*
D03*
X6640Y3474D02*
D03*
D117*
X2657Y3149D02*
D03*
D118*
X6957Y959D02*
D03*
D119*
X2477D02*
D03*
D120*
X-103Y9479D02*
D03*
X9557Y9479D02*
D03*
D121*
X4717Y8169D02*
D03*
D122*
X8725Y1820D02*
D03*
X9217Y2673D02*
D03*
X9709Y3525D02*
D03*
X10201Y4377D02*
D03*
X10693Y5230D02*
D03*
X11185Y6082D02*
D03*
X11677Y6935D02*
D03*
X12170Y7787D02*
D03*
D123*
X1351Y2497D02*
D03*
X-1499Y7407D02*
D03*
X-549Y5767D02*
D03*
X401Y4127D02*
D03*
M02*
