G04 Layer_Physical_Order=1*
G04 Layer_Color=255*
%FSLAX24Y24*%
%MOIN*%
G70*
G01*
G75*
%ADD10C,0.0070*%
G04:AMPARAMS|DCode=11|XSize=29.1mil|YSize=39.4mil|CornerRadius=5.8mil|HoleSize=0mil|Usage=FLASHONLY|Rotation=190.000|XOffset=0mil|YOffset=0mil|HoleType=Round|Shape=RoundedRectangle|*
%AMROUNDEDRECTD11*
21,1,0.0291,0.0277,0,0,190.0*
21,1,0.0175,0.0394,0,0,190.0*
1,1,0.0117,-0.0110,0.0121*
1,1,0.0117,0.0062,0.0152*
1,1,0.0117,0.0110,-0.0121*
1,1,0.0117,-0.0062,-0.0152*
%
%ADD11ROUNDEDRECTD11*%
G04:AMPARAMS|DCode=12|XSize=29.1mil|YSize=39.4mil|CornerRadius=5.8mil|HoleSize=0mil|Usage=FLASHONLY|Rotation=60.000|XOffset=0mil|YOffset=0mil|HoleType=Round|Shape=RoundedRectangle|*
%AMROUNDEDRECTD12*
21,1,0.0291,0.0277,0,0,60.0*
21,1,0.0175,0.0394,0,0,60.0*
1,1,0.0117,0.0164,0.0006*
1,1,0.0117,0.0076,-0.0145*
1,1,0.0117,-0.0164,-0.0006*
1,1,0.0117,-0.0076,0.0145*
%
%ADD12ROUNDEDRECTD12*%
G04:AMPARAMS|DCode=13|XSize=78.7mil|YSize=78.7mil|CornerRadius=39.4mil|HoleSize=0mil|Usage=FLASHONLY|Rotation=45.000|XOffset=0mil|YOffset=0mil|HoleType=Round|Shape=RoundedRectangle|*
%AMROUNDEDRECTD13*
21,1,0.0787,0.0000,0,0,45.0*
21,1,0.0000,0.0787,0,0,45.0*
1,1,0.0787,0.0000,0.0000*
1,1,0.0787,0.0000,0.0000*
1,1,0.0787,0.0000,0.0000*
1,1,0.0787,0.0000,0.0000*
%
%ADD13ROUNDEDRECTD13*%
G04:AMPARAMS|DCode=14|XSize=78.7mil|YSize=78.7mil|CornerRadius=39.4mil|HoleSize=0mil|Usage=FLASHONLY|Rotation=60.000|XOffset=0mil|YOffset=0mil|HoleType=Round|Shape=RoundedRectangle|*
%AMROUNDEDRECTD14*
21,1,0.0787,0.0000,0,0,60.0*
21,1,0.0000,0.0787,0,0,60.0*
1,1,0.0787,0.0000,0.0000*
1,1,0.0787,0.0000,0.0000*
1,1,0.0787,0.0000,0.0000*
1,1,0.0787,0.0000,0.0000*
%
%ADD14ROUNDEDRECTD14*%
G04:AMPARAMS|DCode=15|XSize=29.1mil|YSize=39.4mil|CornerRadius=5.8mil|HoleSize=0mil|Usage=FLASHONLY|Rotation=90.000|XOffset=0mil|YOffset=0mil|HoleType=Round|Shape=RoundedRectangle|*
%AMROUNDEDRECTD15*
21,1,0.0291,0.0277,0,0,90.0*
21,1,0.0175,0.0394,0,0,90.0*
1,1,0.0117,0.0139,0.0087*
1,1,0.0117,0.0139,-0.0087*
1,1,0.0117,-0.0139,-0.0087*
1,1,0.0117,-0.0139,0.0087*
%
%ADD15ROUNDEDRECTD15*%
G04:AMPARAMS|DCode=16|XSize=22mil|YSize=24mil|CornerRadius=4.4mil|HoleSize=0mil|Usage=FLASHONLY|Rotation=0.000|XOffset=0mil|YOffset=0mil|HoleType=Round|Shape=RoundedRectangle|*
%AMROUNDEDRECTD16*
21,1,0.0220,0.0152,0,0,0.0*
21,1,0.0132,0.0240,0,0,0.0*
1,1,0.0088,0.0066,-0.0076*
1,1,0.0088,-0.0066,-0.0076*
1,1,0.0088,-0.0066,0.0076*
1,1,0.0088,0.0066,0.0076*
%
%ADD16ROUNDEDRECTD16*%
G04:AMPARAMS|DCode=17|XSize=22mil|YSize=24mil|CornerRadius=4.4mil|HoleSize=0mil|Usage=FLASHONLY|Rotation=270.000|XOffset=0mil|YOffset=0mil|HoleType=Round|Shape=RoundedRectangle|*
%AMROUNDEDRECTD17*
21,1,0.0220,0.0152,0,0,270.0*
21,1,0.0132,0.0240,0,0,270.0*
1,1,0.0088,-0.0076,-0.0066*
1,1,0.0088,-0.0076,0.0066*
1,1,0.0088,0.0076,0.0066*
1,1,0.0088,0.0076,-0.0066*
%
%ADD17ROUNDEDRECTD17*%
G04:AMPARAMS|DCode=18|XSize=47.2mil|YSize=59.1mil|CornerRadius=0mil|HoleSize=0mil|Usage=FLASHONLY|Rotation=240.000|XOffset=0mil|YOffset=0mil|HoleType=Round|Shape=Rectangle|*
%AMROTATEDRECTD18*
4,1,4,-0.0138,0.0352,0.0374,0.0057,0.0138,-0.0352,-0.0374,-0.0057,-0.0138,0.0352,0.0*
%
%ADD18ROTATEDRECTD18*%

G04:AMPARAMS|DCode=19|XSize=47.2mil|YSize=59.1mil|CornerRadius=0mil|HoleSize=0mil|Usage=FLASHONLY|Rotation=300.000|XOffset=0mil|YOffset=0mil|HoleType=Round|Shape=Rectangle|*
%AMROTATEDRECTD19*
4,1,4,-0.0374,0.0057,0.0138,0.0352,0.0374,-0.0057,-0.0138,-0.0352,-0.0374,0.0057,0.0*
%
%ADD19ROTATEDRECTD19*%

%ADD20P,0.1117X4X100.0*%
%ADD21R,0.0433X0.0551*%
%ADD22R,0.0472X0.0197*%
%ADD23R,0.0394X0.0197*%
G04:AMPARAMS|DCode=24|XSize=29.1mil|YSize=39.4mil|CornerRadius=5.8mil|HoleSize=0mil|Usage=FLASHONLY|Rotation=0.000|XOffset=0mil|YOffset=0mil|HoleType=Round|Shape=RoundedRectangle|*
%AMROUNDEDRECTD24*
21,1,0.0291,0.0277,0,0,0.0*
21,1,0.0175,0.0394,0,0,0.0*
1,1,0.0117,0.0087,-0.0139*
1,1,0.0117,-0.0087,-0.0139*
1,1,0.0117,-0.0087,0.0139*
1,1,0.0117,0.0087,0.0139*
%
%ADD24ROUNDEDRECTD24*%
G04:AMPARAMS|DCode=25|XSize=52mil|YSize=60mil|CornerRadius=13mil|HoleSize=0mil|Usage=FLASHONLY|Rotation=270.000|XOffset=0mil|YOffset=0mil|HoleType=Round|Shape=RoundedRectangle|*
%AMROUNDEDRECTD25*
21,1,0.0520,0.0340,0,0,270.0*
21,1,0.0260,0.0600,0,0,270.0*
1,1,0.0260,-0.0170,-0.0130*
1,1,0.0260,-0.0170,0.0130*
1,1,0.0260,0.0170,0.0130*
1,1,0.0260,0.0170,-0.0130*
%
%ADD25ROUNDEDRECTD25*%
%ADD26R,0.0335X0.0492*%
%ADD27R,0.0492X0.0335*%
G04:AMPARAMS|DCode=28|XSize=49.2mil|YSize=33.5mil|CornerRadius=0mil|HoleSize=0mil|Usage=FLASHONLY|Rotation=210.000|XOffset=0mil|YOffset=0mil|HoleType=Round|Shape=Rectangle|*
%AMROTATEDRECTD28*
4,1,4,0.0129,0.0268,0.0297,-0.0022,-0.0129,-0.0268,-0.0297,0.0022,0.0129,0.0268,0.0*
%
%ADD28ROTATEDRECTD28*%

%ADD29R,0.0320X0.0360*%
%ADD30R,0.0360X0.0320*%
%ADD31R,0.0148X0.0138*%
%ADD32R,0.0138X0.0148*%
G04:AMPARAMS|DCode=33|XSize=22mil|YSize=24mil|CornerRadius=4.4mil|HoleSize=0mil|Usage=FLASHONLY|Rotation=60.000|XOffset=0mil|YOffset=0mil|HoleType=Round|Shape=RoundedRectangle|*
%AMROUNDEDRECTD33*
21,1,0.0220,0.0152,0,0,60.0*
21,1,0.0132,0.0240,0,0,60.0*
1,1,0.0088,0.0099,0.0019*
1,1,0.0088,0.0033,-0.0095*
1,1,0.0088,-0.0099,-0.0019*
1,1,0.0088,-0.0033,0.0095*
%
%ADD33ROUNDEDRECTD33*%
%ADD34C,0.0100*%
%ADD35C,0.0130*%
%ADD36C,0.0080*%
%ADD37C,0.0120*%
%ADD38C,0.0800*%
%ADD39C,0.0160*%
%ADD40C,0.0130*%
%ADD41C,0.0200*%
%ADD42C,0.0300*%
%ADD43C,0.0240*%
%ADD44C,0.0400*%
%ADD45C,0.0490*%
%ADD46R,0.0490X0.0490*%
%ADD47P,0.0693X4X165.0*%
%ADD48C,0.0800*%
%ADD49P,0.0866X8X22.5*%
%ADD50C,0.1000*%
%ADD51C,0.6000*%
%ADD52C,0.0748*%
%ADD53P,0.0693X4X255.0*%
%ADD54C,0.0300*%
%ADD55C,0.0290*%
%ADD56C,0.0400*%
G36*
X2397Y12475D02*
X2633Y12238D01*
Y12042D01*
X2397Y11805D01*
X1413Y11805D01*
X1413Y12475D01*
X2397Y12475D01*
D02*
G37*
G36*
X2387Y15205D02*
X2623Y14968D01*
Y14772D01*
X2387Y14535D01*
X1403D01*
X1403Y15205D01*
X2387Y15205D01*
D02*
G37*
D10*
X-3021Y8140D02*
G03*
X-3021Y8140I-669J0D01*
G01*
X12609Y10420D02*
G03*
X12609Y10420I-669J0D01*
G01*
X7295Y13735D02*
Y13954D01*
X6750Y13802D02*
X6807D01*
X7071Y13538D01*
X7295D01*
X7520Y12990D02*
X7680D01*
X7492Y13018D02*
X7520Y12990D01*
X7492Y13018D02*
Y13145D01*
X7295Y12965D02*
Y13145D01*
X7885Y12835D02*
X8070Y13019D01*
Y13280D01*
X8008Y13342D02*
X8070Y13280D01*
X7885Y13342D02*
X8008D01*
X7885Y12835D02*
Y13149D01*
X7680Y12990D02*
X7730D01*
X7680D02*
X7688Y12998D01*
Y13145D01*
X7730Y12990D02*
X7885Y12835D01*
X7885Y13538D02*
X8238D01*
X8392Y13340D02*
Y13385D01*
X8238Y13538D02*
X8392Y13385D01*
X7492Y13735D02*
Y13922D01*
X6751Y13342D02*
X7295D01*
X7885Y13735D02*
X7885Y13875D01*
D11*
X11786Y9103D02*
D03*
X12314Y9196D02*
D03*
D12*
X10984Y8582D02*
D03*
X10716Y8118D02*
D03*
X10384Y7732D02*
D03*
X10116Y7268D02*
D03*
X9604Y6892D02*
D03*
X9336Y6428D02*
D03*
D13*
X-3690Y8140D02*
D03*
D14*
X11940Y10420D02*
D03*
D15*
X7190Y15288D02*
D03*
Y14752D02*
D03*
X7870Y11912D02*
D03*
Y12448D02*
D03*
X6300Y15288D02*
D03*
Y14752D02*
D03*
X6135Y13066D02*
D03*
X6135Y12531D02*
D03*
X4615Y15727D02*
D03*
Y16262D02*
D03*
X6750Y13802D02*
D03*
Y13267D02*
D03*
Y12217D02*
D03*
Y12752D02*
D03*
X1020Y11788D02*
D03*
Y11252D02*
D03*
D16*
X6771Y11440D02*
D03*
X7150D02*
D03*
D17*
X7850Y11349D02*
D03*
X7850Y10970D02*
D03*
X11260Y9569D02*
D03*
Y9190D02*
D03*
D18*
X11700Y2219D02*
D03*
X12330Y3310D02*
D03*
X12730Y3999D02*
D03*
X13360Y5090D02*
D03*
D19*
X-2195Y2204D02*
D03*
X-2825Y3296D02*
D03*
X-3240Y4029D02*
D03*
X-3870Y5120D02*
D03*
D20*
X8313Y5777D02*
D03*
X7408Y4485D02*
D03*
D21*
X2585Y13510D02*
D03*
X1995Y13510D02*
D03*
D22*
X2781Y14279D02*
D03*
X2781Y15461D02*
D03*
X2791Y12731D02*
D03*
X2791Y11549D02*
D03*
D23*
X2820Y14870D02*
D03*
X2830Y12140D02*
D03*
D24*
X3918Y13650D02*
D03*
X3382Y13650D02*
D03*
X8392Y13340D02*
D03*
X8928D02*
D03*
X8392Y13980D02*
D03*
X8928D02*
D03*
X5713Y16154D02*
D03*
X5177Y16154D02*
D03*
X5283Y14074D02*
D03*
X4747Y14074D02*
D03*
X4742Y13410D02*
D03*
X5278Y13410D02*
D03*
D25*
X3790Y15504D02*
D03*
Y14750D02*
D03*
X3700Y12834D02*
D03*
X3700Y12080D02*
D03*
D26*
X5395Y3389D02*
D03*
X4666D02*
D03*
X5394Y4130D02*
D03*
X4666D02*
D03*
D27*
X4050Y3476D02*
D03*
X4050Y4204D02*
D03*
D28*
X578Y6375D02*
D03*
X942Y5745D02*
D03*
X281Y6870D02*
D03*
X-84Y7500D02*
D03*
D29*
X4881Y14681D02*
D03*
X5635Y14681D02*
D03*
X5255Y15514D02*
D03*
X7771Y14720D02*
D03*
X8525Y14720D02*
D03*
X8145Y15554D02*
D03*
D30*
X5564Y12066D02*
D03*
X5564Y12820D02*
D03*
X4730Y12440D02*
D03*
D31*
X7885Y13149D02*
D03*
X7295D02*
D03*
X7885Y13342D02*
D03*
X7295D02*
D03*
X7885Y13538D02*
D03*
X7295Y13538D02*
D03*
X7885Y13731D02*
D03*
X7295Y13731D02*
D03*
D32*
X7688Y13145D02*
D03*
X7492Y13145D02*
D03*
X7688Y13735D02*
D03*
X7492D02*
D03*
D33*
X10095Y8265D02*
D03*
X9906Y7936D02*
D03*
D34*
X12314Y9196D02*
X12669Y9250D01*
X12670Y9250D01*
Y9240D02*
Y9250D01*
X10230Y6930D02*
X10240Y6910D01*
X10116Y7268D02*
X10230Y6930D01*
X-82Y6370D02*
X290Y5750D01*
X-570Y6370D02*
X-82D01*
X-1820Y5630D02*
X-570Y6370D01*
X290Y5750D02*
X942Y5745D01*
X-3340Y3490D02*
X-1810Y4370D01*
X-1820Y5630D02*
X-1810Y4370D01*
Y4370D02*
Y4370D01*
X-3420Y3280D02*
X-3340Y3490D01*
X-3420Y3280D02*
X-3310Y3090D01*
X-2880Y2340D01*
X-2220Y2229D01*
X3280Y12826D02*
X4184D01*
X6800Y15020D02*
Y15330D01*
X6410Y15720D02*
X6800Y15330D01*
X5630Y15720D02*
X6410D01*
X5460Y15890D02*
X5630Y15720D01*
X5460Y15890D02*
Y16540D01*
X2791Y12731D02*
X2801Y12720D01*
X3174D01*
X3280Y12826D01*
X8525Y14720D02*
X8908D01*
X8518Y14726D02*
X8525Y14720D01*
X8928Y13980D02*
X9300D01*
X8928Y12942D02*
X8930Y12940D01*
X8928Y12942D02*
Y13340D01*
X7158Y12217D02*
X7160Y12214D01*
X6750Y12217D02*
X7158D01*
D35*
X10201Y4386D02*
X11089Y4386D01*
X10170D02*
X10201Y4386D01*
X12365Y4203D02*
X12723Y3986D01*
X6856Y1794D02*
X7665D01*
X5929Y2721D02*
X6856Y1794D01*
X5929Y2721D02*
Y3595D01*
X5394Y4130D02*
X5929Y3595D01*
X3620Y1890D02*
X3810Y2080D01*
X3407Y1890D02*
X3620D01*
X2477Y959D02*
X3407Y1890D01*
X3810Y2080D02*
Y2350D01*
X4050Y2590D01*
Y3476D01*
X3464D02*
X4050D01*
X-2060Y4730D02*
Y6350D01*
X-3240Y4029D02*
X-2060Y4730D01*
Y6350D02*
X-84Y7500D01*
X-2231Y2249D02*
X-2214Y2239D01*
X-2483Y6711D02*
X-2181Y7013D01*
X-2483Y5929D02*
Y6711D01*
X3210Y2210D02*
X3510Y2200D01*
X2657Y3149D02*
X3210Y2210D01*
X8331Y759D02*
X9127D01*
X8400Y1059D02*
X8937D01*
X7665Y1794D02*
X8400Y1059D01*
X3380Y14750D02*
X3790D01*
X3260Y14870D02*
X3380Y14750D01*
X2820Y14870D02*
X3260D01*
X12723Y3986D02*
X12723Y3986D01*
X12725Y3985D01*
X11090Y4384D02*
X11421Y4918D01*
X11089Y4386D02*
X11090Y4384D01*
X11421Y4918D02*
X12985Y5285D01*
X11450Y3638D02*
X11838Y4184D01*
X11838D02*
X11856Y4203D01*
X12365D01*
X8937Y1059D02*
X9992Y2689D01*
X10124Y2821D01*
X9992Y2689D02*
X9992Y2689D01*
X10124Y2821D02*
X11075D01*
X10186Y2410D02*
X10319Y2543D01*
X11145D01*
X11700Y2219D01*
X11731Y2277D02*
X11731D01*
X9127Y759D02*
X10186Y2410D01*
X11075Y2821D02*
X11380Y2948D01*
X11600Y3298D01*
X11731Y2277D02*
X11755Y2265D01*
X11731Y2277D02*
X11731Y2277D01*
X11450Y3638D02*
X11600Y3298D01*
X-3833Y5149D02*
X-2483Y5929D01*
X12985Y5285D02*
X13360Y5090D01*
D36*
X11310Y9569D02*
Y9630D01*
X5713Y16214D02*
X5773Y16154D01*
X9704Y13700D02*
Y14366D01*
X9361Y13357D02*
X9704Y13700D01*
X9361Y12117D02*
Y13357D01*
X8760Y11516D02*
X9361Y12117D01*
X9810Y11130D02*
X11310Y9630D01*
X8760Y11516D02*
X9146Y11130D01*
X9810D01*
X11470Y8980D02*
X11520Y8930D01*
X11312Y9138D02*
X11470Y8980D01*
X11550Y9060D01*
X11786Y9103D01*
X9714Y3545D02*
X11200Y3248D01*
X10984Y8582D02*
X11230Y8437D01*
X10384Y7732D02*
X10670Y7543D01*
Y7556D01*
Y5253D02*
Y7543D01*
X10693Y5230D02*
X10693D01*
X10670Y5253D02*
X10693Y5230D01*
X11230Y7270D02*
Y8437D01*
X11185Y6082D02*
X11185D01*
Y6685D01*
X11160Y6710D02*
X11185Y6685D01*
X11160Y6710D02*
Y7200D01*
X11230Y7270D01*
X11634Y7488D02*
X11749Y7058D01*
X11520Y8930D02*
X11634Y7488D01*
X11677Y6935D01*
X11312Y9138D02*
Y9168D01*
X11260Y9190D02*
X11312Y9138D01*
X11677Y6935D02*
X11749Y7058D01*
X9709Y3546D02*
X9709D01*
X9977Y3546D01*
X9708D02*
X9709Y3546D01*
X11850Y3598D02*
X12331Y3312D01*
X11010Y8850D02*
Y9720D01*
X9760Y10970D02*
X11010Y9720D01*
X7850Y10970D02*
X9760D01*
X10776Y8968D02*
Y9754D01*
X9820Y10710D02*
X10776Y9754D01*
X7690Y10710D02*
X9820D01*
X4410Y12840D02*
X4644Y13074D01*
X4410Y12000D02*
Y12840D01*
X4644Y13074D02*
X4870Y13074D01*
X10950Y8700D02*
X11010Y8850D01*
X10950Y8700D02*
X10984Y8582D01*
X10250Y8050D02*
X10384Y7732D01*
X10250Y8050D02*
X10776Y8968D01*
X7190Y14752D02*
X7490D01*
X7190Y15288D02*
X7538D01*
X7502Y11912D02*
X7870D01*
X7850Y11349D02*
Y11892D01*
X6621Y11590D02*
X6771Y11440D01*
X6080Y13062D02*
Y13138D01*
X4851Y14711D02*
X5161Y15020D01*
X5147Y16184D02*
X5177Y16214D01*
X5117Y16154D02*
X5147Y16184D01*
X8145Y15554D02*
X8516D01*
X9704Y14366D01*
X6800Y15020D02*
X8040D01*
X5431Y15020D02*
X6800Y15020D01*
X5773Y16154D02*
X6236D01*
X5431Y15020D02*
X5600D01*
X5161D02*
X5431D01*
X7490Y14349D02*
X7492Y14348D01*
Y13922D02*
Y14348D01*
X8310Y14314D02*
X9355D01*
X7850Y11892D02*
X7870Y11912D01*
X7440Y12462D02*
Y12820D01*
Y12462D02*
X7440Y12104D01*
X7856Y12462D02*
X7870Y12448D01*
X7440Y12462D02*
X7856D01*
X3095Y14279D02*
X3382Y13992D01*
X2781Y14279D02*
X3095D01*
X7150Y11250D02*
X7690Y10710D01*
X11290Y9190D02*
X11312Y9168D01*
X7150Y11250D02*
Y11440D01*
X4820Y11590D02*
X6621D01*
X7350Y11760D02*
X7502Y11912D01*
X4920Y11760D02*
X7350D01*
X8145Y15554D02*
X8166Y15475D01*
X12331Y3312D02*
X12384Y3281D01*
X12331Y3312D02*
X12331D01*
X12284Y3233D02*
X12307Y3219D01*
X9714Y3545D02*
X9924Y3493D01*
X9714Y3545D02*
X9714Y3545D01*
X9714Y3545D02*
X9714Y3545D01*
X9714Y3545D02*
X9714D01*
X4975Y16154D02*
X5117D01*
X4865Y16264D02*
X4975Y16154D01*
X4617Y16264D02*
X4865D01*
X4615Y16262D02*
X4617Y16264D01*
X4796Y14374D02*
X4845D01*
X4747Y14074D02*
Y14325D01*
X4796Y14374D01*
X4881Y14410D02*
Y14681D01*
X4845Y14374D02*
X4881Y14410D01*
X5283Y14074D02*
X7175D01*
X7295Y13954D01*
X6080Y13138D02*
Y13434D01*
X8392Y13660D02*
X9361Y13660D01*
X9565Y13864D01*
Y14104D01*
X9355Y14314D02*
X9565Y14104D01*
X7885Y13875D02*
X7990Y13980D01*
X8392D01*
Y13385D02*
Y13660D01*
Y13980D01*
X4353Y16262D02*
X4615D01*
X4300Y16209D02*
X4353Y16262D01*
X4300Y14300D02*
Y16209D01*
X4775Y15334D02*
X4945Y15504D01*
X4470Y15029D02*
X4775Y15334D01*
X4615Y15494D02*
X4775Y15334D01*
X4615Y15494D02*
Y15727D01*
X4945Y15504D02*
X5185D01*
X4470Y15029D02*
X4470Y13840D01*
X5283Y14388D02*
X5565Y14671D01*
X6135Y13489D02*
X6448Y13802D01*
X3382Y13992D02*
X3710Y14320D01*
X6135Y12229D02*
X6440Y11924D01*
X3382Y13650D02*
Y13992D01*
X6080Y13434D02*
X6135Y13489D01*
Y13066D02*
Y13489D01*
Y12229D02*
Y12531D01*
X7295Y12965D02*
X7440Y12820D01*
X6448Y13802D02*
X6750D01*
X6440Y11924D02*
X7260D01*
X6750Y12752D02*
Y13267D01*
X6751Y13266D01*
X3317Y13655D02*
X3322Y13650D01*
X4730Y11950D02*
X4920Y11760D01*
X4870Y13074D02*
X4998Y13202D01*
Y13608D01*
X5010Y13620D01*
X5170Y12460D02*
Y12950D01*
X5148Y13168D02*
X5278Y13298D01*
X5298Y13078D02*
X5323Y13103D01*
X5298Y13077D02*
Y13078D01*
X5170Y12950D02*
X5298Y13077D01*
X5148Y13140D02*
Y13168D01*
X5020Y13012D02*
X5148Y13140D01*
X5020Y12730D02*
X5020Y13012D01*
X4730Y12440D02*
X5020Y12730D01*
X5278Y13298D02*
Y13410D01*
X5323Y13103D02*
X5463D01*
X4890Y13740D02*
X5010Y13620D01*
X4570Y13740D02*
X4890D01*
X5123Y13727D02*
X5463D01*
X5020Y13830D02*
X5123Y13727D01*
X5020Y13830D02*
Y14010D01*
X4956Y14074D02*
X5020Y14010D01*
X4747Y14074D02*
X4956D01*
X5564Y12820D02*
X5781Y12602D01*
X6080D01*
X5640Y13280D02*
X5782Y13138D01*
X5550Y13370D02*
X5640Y13280D01*
X5170Y12460D02*
X5564Y12066D01*
X5463Y13103D02*
X5640Y13280D01*
X4730Y11950D02*
Y12440D01*
X5782Y13138D02*
X6080D01*
X5550Y13370D02*
Y13640D01*
X5463Y13727D02*
X5550Y13640D01*
X5283Y14074D02*
Y14388D01*
X4470Y13840D02*
X4570Y13740D01*
X3710Y14320D02*
X4280D01*
X4300Y14300D01*
X4518Y13410D02*
X4742D01*
X4300Y13628D02*
Y14300D01*
Y13628D02*
X4518Y13410D01*
X4410Y12000D02*
X4820Y11590D01*
X7260Y11924D02*
X7440Y12104D01*
X8040Y15020D02*
X8135Y14925D01*
Y14490D02*
Y14925D01*
X5713Y16154D02*
X5773D01*
X7538Y15288D02*
X7804Y15554D01*
X8145Y15554D01*
X6073Y15514D02*
X6300Y15288D01*
X5255Y15514D02*
X6073D01*
X5707Y14752D02*
X6300D01*
X5635Y14681D02*
X5707Y14752D01*
X7490Y14349D02*
Y14752D01*
X7738Y14752D02*
X7771Y14720D01*
X7490Y14752D02*
X7738Y14752D01*
X8135Y14490D02*
X8310Y14314D01*
X6236Y16154D02*
X7102Y15288D01*
X7190Y15288D01*
D37*
X-2842Y3325D02*
X-977Y4381D01*
X-2850Y3320D02*
X-2842Y3325D01*
X3590Y4210D02*
X4586D01*
X4666Y4130D02*
X4666Y4129D01*
Y3389D02*
Y4129D01*
X4586Y4210D02*
X4666Y4130D01*
X9150Y6000D02*
Y6100D01*
X9220Y6170D01*
X9336Y6428D01*
X3254Y15504D02*
X3790D01*
X3211Y15461D02*
X3254Y15504D01*
X2781Y15461D02*
X3211D01*
D38*
X7995Y3895D02*
X8196Y3694D01*
X7336Y4553D02*
X7995Y3895D01*
X8345Y3545D02*
X9217Y2673D01*
X8196Y3694D02*
X8345Y3545D01*
X8510Y4724D02*
X9070Y4164D01*
X8437Y4797D02*
X8510Y4724D01*
X8005Y5524D02*
X8053Y5477D01*
X7743Y5491D02*
X7887Y5347D01*
X8407Y4827D02*
X8437Y4797D01*
X8209Y5024D02*
X8407Y4827D01*
X8196Y3694D02*
X8196Y3694D01*
X7828Y5701D02*
X7830Y5699D01*
X7914Y5616D01*
X8005Y5524D01*
X8053Y5477D02*
X8058Y5472D01*
X7743Y5612D02*
X7830Y5699D01*
X7904Y5330D02*
X7910Y5324D01*
X7887Y5347D02*
X7904Y5330D01*
X8058Y5472D02*
X8437Y5092D01*
X7743Y5491D02*
Y5613D01*
X7910Y5324D02*
X7918Y5316D01*
X8209Y5024D01*
X8437Y4797D02*
X8437Y5068D01*
Y5092D01*
X9070Y4164D02*
X9709Y3525D01*
D39*
X10716Y8118D02*
X10930Y7810D01*
X10540Y9037D02*
Y9730D01*
X9840Y10430D02*
X10540Y9730D01*
X7400Y10430D02*
X9840D01*
X4184Y11716D02*
Y12826D01*
X4020Y13280D02*
X4184Y13116D01*
X10125Y8305D02*
X10540Y9037D01*
X5400Y16600D02*
X5460Y16540D01*
X4170Y16600D02*
X5400D01*
X3410Y15840D02*
X4170Y16600D01*
X1290Y15840D02*
X3410D01*
X950Y15500D02*
X1290Y15840D01*
X950Y14200D02*
Y15500D01*
Y14200D02*
X1250Y13900D01*
Y13410D02*
Y13900D01*
Y13410D02*
X1380Y13280D01*
Y12680D02*
Y13280D01*
X650Y11950D02*
X1380Y12680D01*
X650Y11622D02*
Y11950D01*
Y11622D02*
X1020Y11252D01*
X2585Y13510D02*
Y13925D01*
X2260Y14250D02*
X2585Y13925D01*
X1440Y14250D02*
X2260D01*
X1220Y14470D02*
X1440Y14250D01*
X1220Y14470D02*
Y15290D01*
X1391Y15461D01*
X2781D01*
X1317Y11549D02*
X2791D01*
X1020Y11252D02*
X1317Y11549D01*
X1020Y11788D02*
X1342Y12110D01*
X1960D01*
X3640Y12140D02*
X3700Y12080D01*
X2830Y12140D02*
X3640D01*
X2585Y13510D02*
X2970D01*
X3200Y13280D01*
X4020D01*
X4184Y12826D02*
Y13116D01*
X4500Y11400D02*
X6280D01*
X6585Y11095D01*
X4184Y11716D02*
X4500Y11400D01*
X3918Y14028D02*
X3920Y14030D01*
X3918Y13650D02*
Y14028D01*
X6585Y11095D02*
X6735D01*
X7400Y10430D01*
D40*
X6690Y1534D02*
X7556D01*
X5395Y2830D02*
Y3389D01*
Y2830D02*
X6690Y1534D01*
X7556D02*
X8331Y759D01*
D41*
X281Y6870D02*
X425Y6630D01*
X578Y6375D01*
D42*
X6770Y4200D02*
X8080Y2890D01*
Y2465D02*
X8725Y1820D01*
X8080Y2465D02*
Y2890D01*
X6496Y4200D02*
X6770D01*
X-720Y4527D02*
X-274Y3737D01*
X-977Y4381D02*
X-720Y4527D01*
X-1231Y5373D02*
X-720Y4527D01*
X583Y5271D01*
X6070Y4626D02*
X6496Y4200D01*
X1844Y4626D02*
X6070D01*
X1199Y5271D02*
X1844Y4626D01*
X583Y5271D02*
X1199D01*
D43*
X9210Y5359D02*
X9281Y5378D01*
X3700Y11580D02*
Y12080D01*
X9604Y6892D02*
X9729Y7113D01*
X9630Y7411D02*
X9729Y7113D01*
X9630Y7411D02*
X9906Y7936D01*
X9699Y6855D02*
X9836Y6341D01*
X9281Y5378D02*
X9836Y6341D01*
X1600Y13510D02*
X1995D01*
X3670Y14870D02*
X3790Y14750D01*
X3260Y14870D02*
X3670D01*
X1995Y13510D02*
X1995Y13510D01*
D44*
X6957Y4754D02*
X7395D01*
D45*
X8760Y12303D02*
D03*
X2263Y3831D02*
D03*
X6640Y2686D02*
D03*
X669Y2103D02*
D03*
X-2181Y7013D02*
D03*
X-1231Y5373D02*
D03*
X-281Y3733D02*
D03*
D46*
X8760Y11516D02*
D03*
X6640Y3474D02*
D03*
D47*
X2657Y3149D02*
D03*
D48*
X6957Y959D02*
D03*
D49*
X2477D02*
D03*
D50*
X-103Y9479D02*
D03*
X9557Y9479D02*
D03*
D51*
X4717Y8169D02*
D03*
D52*
X8725Y1820D02*
D03*
X9217Y2673D02*
D03*
X9709Y3525D02*
D03*
X10201Y4377D02*
D03*
X10693Y5230D02*
D03*
X11185Y6082D02*
D03*
X11677Y6935D02*
D03*
X12170Y7787D02*
D03*
D53*
X1351Y2497D02*
D03*
X-1499Y7407D02*
D03*
X-549Y5767D02*
D03*
X401Y4127D02*
D03*
D54*
X12670Y9240D02*
D03*
X10240Y6910D02*
D03*
X10930Y7810D02*
D03*
X3440Y3330D02*
D03*
X3510Y2200D02*
D03*
X3210Y2210D02*
D03*
X11200Y3248D02*
D03*
X9150Y6000D02*
D03*
X9210Y5359D02*
D03*
X3700Y11580D02*
D03*
X1600Y13510D02*
D03*
X3260Y14870D02*
D03*
X11850Y3598D02*
D03*
X8908Y14720D02*
D03*
X7885Y12835D02*
D03*
X8930Y12940D02*
D03*
X7160Y12290D02*
D03*
X3920Y14030D02*
D03*
X9300Y13980D02*
D03*
D55*
X3590Y4210D02*
D03*
X425Y6630D02*
D03*
D56*
X680Y8020D02*
D03*
X8510Y4724D02*
D03*
X8250Y3450D02*
D03*
X8100Y4000D02*
D03*
X6814Y4682D02*
D03*
X8680Y5100D02*
D03*
X8660Y4360D02*
D03*
X9070Y4164D02*
D03*
M02*
