G04 Layer_Color=16711935*
%FSLAX24Y24*%
%MOIN*%
G70*
G01*
G75*
G04:AMPARAMS|DCode=94|XSize=118.7mil|YSize=118.7mil|CornerRadius=59.4mil|HoleSize=0mil|Usage=FLASHONLY|Rotation=45.000|XOffset=0mil|YOffset=0mil|HoleType=Round|Shape=RoundedRectangle|*
%AMROUNDEDRECTD94*
21,1,0.1187,0.0000,0,0,45.0*
21,1,0.0000,0.1187,0,0,45.0*
1,1,0.1187,0.0000,0.0000*
1,1,0.1187,0.0000,0.0000*
1,1,0.1187,0.0000,0.0000*
1,1,0.1187,0.0000,0.0000*
%
%ADD94ROUNDEDRECTD94*%
%ADD115C,0.0570*%
%ADD116R,0.0570X0.0570*%
%ADD117P,0.0806X4X165.0*%
%ADD118C,0.0880*%
%ADD119P,0.0953X8X22.5*%
%ADD120C,0.1080*%
%ADD122C,0.0828*%
%ADD123P,0.0806X4X255.0*%
G04:AMPARAMS|DCode=124|XSize=118.7mil|YSize=118.7mil|CornerRadius=59.4mil|HoleSize=0mil|Usage=FLASHONLY|Rotation=135.000|XOffset=0mil|YOffset=0mil|HoleType=Round|Shape=RoundedRectangle|*
%AMROUNDEDRECTD124*
21,1,0.1187,0.0000,0,0,135.0*
21,1,0.0000,0.1187,0,0,135.0*
1,1,0.1187,0.0000,0.0000*
1,1,0.1187,0.0000,0.0000*
1,1,0.1187,0.0000,0.0000*
1,1,0.1187,0.0000,0.0000*
%
%ADD124ROUNDEDRECTD124*%
%ADD125C,0.4017*%
D94*
X-3690Y8140D02*
D03*
D115*
X8760Y12303D02*
D03*
X2263Y3831D02*
D03*
X6640Y2686D02*
D03*
X669Y2103D02*
D03*
X-2181Y7013D02*
D03*
X-1231Y5373D02*
D03*
X-281Y3733D02*
D03*
D116*
X8760Y11516D02*
D03*
X6640Y3474D02*
D03*
D117*
X2657Y3149D02*
D03*
D118*
X6957Y959D02*
D03*
D119*
X2477D02*
D03*
D120*
X-103Y9479D02*
D03*
X9557Y9479D02*
D03*
D122*
X8725Y1820D02*
D03*
X9217Y2673D02*
D03*
X9709Y3525D02*
D03*
X10201Y4377D02*
D03*
X10693Y5230D02*
D03*
X11185Y6082D02*
D03*
X11677Y6935D02*
D03*
X12170Y7787D02*
D03*
D123*
X1351Y2497D02*
D03*
X-1499Y7407D02*
D03*
X-549Y5767D02*
D03*
X401Y4127D02*
D03*
D124*
X11940Y10420D02*
D03*
D125*
X4717Y8169D02*
D03*
M02*
