G04 Layer_Color=65535*
%FSLAX24Y24*%
%MOIN*%
G70*
G01*
G75*
%ADD33C,0.0080*%
%ADD35C,0.0100*%
%ADD39C,0.0160*%
%ADD58C,0.0098*%
%ADD59C,0.0157*%
%ADD60C,0.0433*%
%ADD61C,0.0079*%
%ADD62C,0.0020*%
%ADD63C,0.0077*%
%ADD64C,0.0123*%
G04:AMPARAMS|DCode=65|XSize=29.5mil|YSize=87.9mil|CornerRadius=0mil|HoleSize=0mil|Usage=FLASHONLY|Rotation=55.000|XOffset=0mil|YOffset=0mil|HoleType=Round|Shape=Rectangle|*
%AMROTATEDRECTD65*
4,1,4,0.0275,-0.0373,-0.0445,0.0131,-0.0275,0.0373,0.0445,-0.0131,0.0275,-0.0373,0.0*
%
%ADD65ROTATEDRECTD65*%

D33*
X7594Y15394D02*
X7830Y15394D01*
X7594Y15394D02*
X7594Y15074D01*
X8465Y15394D02*
X8705Y15394D01*
Y15074D02*
Y15394D01*
X4890Y11889D02*
Y12125D01*
Y11889D02*
X5209D01*
X4890Y12760D02*
Y13000D01*
X5209D01*
X4704Y15354D02*
X4940D01*
X4704Y15035D02*
Y15354D01*
X5575D02*
X5815D01*
X5815Y15035D02*
X5815Y15354D01*
D35*
X7555Y1358D02*
G03*
X7555Y1358I-313J0D01*
G01*
X9164Y612D02*
X13435Y8011D01*
X7919Y1331D02*
X7987Y1291D01*
X7885Y1350D02*
X7919Y1331D01*
X11485Y8569D02*
X12157Y8749D01*
X13435Y8011D01*
X7705Y2023D02*
X11485Y8569D01*
X7705Y2023D02*
X7885Y1350D01*
X9164Y612D01*
X6942Y4691D02*
X7961Y6146D01*
X7755Y4122D02*
X8774Y5577D01*
X-3407Y4948D02*
X-3282Y4732D01*
X-3952Y4634D02*
X-3827Y4417D01*
X-3924Y4585D02*
X-3379Y4900D01*
X-3952Y4634D02*
X-3407Y4948D01*
X-4322Y5314D02*
X-3802Y5614D01*
X-2387Y3148D02*
X-2262Y2932D01*
X-2932Y2834D02*
X-2807Y2617D01*
X-2904Y2785D02*
X-2359Y3100D01*
X-2932Y2834D02*
X-2387Y3148D01*
X-3302Y3514D02*
X-2782Y3814D01*
X13318Y4387D02*
X13443Y4604D01*
X12773Y4702D02*
X12898Y4918D01*
X12870Y4870D02*
X13415Y4555D01*
X12898Y4918D02*
X13443Y4604D01*
X13302Y5579D02*
X13821Y5279D01*
X12288Y2607D02*
X12413Y2824D01*
X11743Y2922D02*
X11868Y3138D01*
X11840Y3090D02*
X12385Y2775D01*
X11868Y3138D02*
X12413Y2824D01*
X12272Y3799D02*
X12791Y3499D01*
D39*
X7106Y13962D02*
G03*
X7106Y13962I-77J0D01*
G01*
D58*
X2899Y11234D02*
G03*
X2899Y11234I-49J0D01*
G01*
X2889Y13964D02*
G03*
X2889Y13964I-49J0D01*
G01*
D59*
X-390Y5880D02*
X1076Y6727D01*
X722Y7340D02*
X1076Y6727D01*
X328Y8022D02*
X722Y7340D01*
X-27Y8636D02*
X328Y8022D01*
X-1493Y7789D02*
X-27Y8636D01*
X-823Y6630D02*
X-390Y5880D01*
X-823Y6630D02*
X-551Y6788D01*
X-787Y7197D02*
X-551Y6788D01*
X-1060Y7039D02*
X-787Y7197D01*
X-1493Y7789D02*
X-1060Y7039D01*
X-233Y5639D02*
X200Y4889D01*
X473Y5047D01*
X709Y4638D01*
X437Y4480D02*
X709Y4638D01*
X437Y4480D02*
X870Y3730D01*
X-233Y5639D02*
X1233Y6486D01*
X1588Y5872D01*
X1982Y5190D01*
X2336Y4577D01*
X870Y3730D02*
X2336Y4577D01*
X-3113Y6839D02*
X-2680Y6089D01*
X-2407Y6247D01*
X-2171Y5838D01*
X-2443Y5680D02*
X-2171Y5838D01*
X-2443Y5680D02*
X-2010Y4930D01*
X-3113Y6839D02*
X-1647Y7686D01*
X-1292Y7072D01*
X-898Y6390D01*
X-544Y5777D01*
X-2010Y4930D02*
X-544Y5777D01*
X-740Y2790D02*
X726Y3637D01*
X372Y4250D02*
X726Y3637D01*
X-22Y4932D02*
X372Y4250D01*
X-377Y5546D02*
X-22Y4932D01*
X-1843Y4699D02*
X-377Y5546D01*
X-1173Y3540D02*
X-740Y2790D01*
X-1173Y3540D02*
X-901Y3698D01*
X-1137Y4107D02*
X-901Y3698D01*
X-1410Y3949D02*
X-1137Y4107D01*
X-1843Y4699D02*
X-1410Y3949D01*
D60*
X1284Y7074D02*
X1304Y7040D01*
X2544Y4924D02*
X2564Y4890D01*
X-336Y6124D02*
X-316Y6090D01*
X934Y3984D02*
X954Y3950D01*
D61*
X1570Y11234D02*
X2594Y11234D01*
X1570Y11234D02*
X1570Y11668D01*
Y13046D02*
X2594Y13046D01*
X1570Y12612D02*
Y13046D01*
X3436Y4336D02*
X3514D01*
X3436Y3923D02*
X3514D01*
X3436Y3586D02*
X3514D01*
X3436Y3173D02*
X3514D01*
X3436Y2443D02*
X3514D01*
X3436Y2856D02*
X3514D01*
X4691Y3606D02*
X4770D01*
X4691Y3193D02*
X4770D01*
X4691Y2856D02*
X4770D01*
X4691Y2443D02*
X4770D01*
X1560Y15342D02*
X1560Y15776D01*
X2584Y15776D01*
X1560Y14398D02*
X1560Y13964D01*
X2584D01*
D62*
X9799Y7693D02*
X10208Y7457D01*
X10232Y8443D02*
X10641Y8207D01*
X9799Y7693D02*
X10232Y8443D01*
X10208Y7457D02*
X10641Y8207D01*
D63*
X692Y3224D02*
X388Y3048D01*
X452Y3288D02*
X628Y2984D01*
X5912Y17173D02*
X5951Y17134D01*
X6009Y17114D01*
X6087D01*
X6146Y17134D01*
X6185Y17173D01*
Y17212D01*
X6166Y17251D01*
X6146Y17270D01*
X6107Y17290D01*
X5990Y17329D01*
X5951Y17349D01*
X5931Y17368D01*
X5912Y17407D01*
Y17466D01*
X5951Y17505D01*
X6009Y17524D01*
X6087D01*
X6146Y17505D01*
X6185Y17466D01*
X5820Y17368D02*
X5586D01*
Y17329D01*
X5605Y17290D01*
X5625Y17270D01*
X5664Y17251D01*
X5722D01*
X5761Y17270D01*
X5800Y17310D01*
X5820Y17368D01*
Y17407D01*
X5800Y17466D01*
X5761Y17505D01*
X5722Y17524D01*
X5664D01*
X5625Y17505D01*
X5586Y17466D01*
X5498Y17368D02*
X5264D01*
Y17329D01*
X5283Y17290D01*
X5303Y17270D01*
X5342Y17251D01*
X5400D01*
X5439Y17270D01*
X5478Y17310D01*
X5498Y17368D01*
Y17407D01*
X5478Y17466D01*
X5439Y17505D01*
X5400Y17524D01*
X5342D01*
X5303Y17505D01*
X5264Y17466D01*
X5176Y17114D02*
Y17524D01*
Y17114D02*
X5019Y17524D01*
X4863Y17114D02*
X5019Y17524D01*
X4863Y17114D02*
Y17524D01*
X4746Y17368D02*
X4512D01*
Y17329D01*
X4531Y17290D01*
X4551Y17270D01*
X4590Y17251D01*
X4649D01*
X4688Y17270D01*
X4727Y17310D01*
X4746Y17368D01*
Y17407D01*
X4727Y17466D01*
X4688Y17505D01*
X4649Y17524D01*
X4590D01*
X4551Y17505D01*
X4512Y17466D01*
X4131Y17212D02*
X4151Y17173D01*
X4190Y17134D01*
X4229Y17114D01*
X4307D01*
X4346Y17134D01*
X4385Y17173D01*
X4404Y17212D01*
X4424Y17270D01*
Y17368D01*
X4404Y17427D01*
X4385Y17466D01*
X4346Y17505D01*
X4307Y17524D01*
X4229D01*
X4190Y17505D01*
X4151Y17466D01*
X4131Y17427D01*
X4016Y17114D02*
Y17524D01*
Y17114D02*
X3743Y17524D01*
Y17114D02*
Y17524D01*
X3336Y17212D02*
X3356Y17173D01*
X3395Y17134D01*
X3434Y17114D01*
X3512D01*
X3551Y17134D01*
X3590Y17173D01*
X3610Y17212D01*
X3629Y17270D01*
Y17368D01*
X3610Y17427D01*
X3590Y17466D01*
X3551Y17505D01*
X3512Y17524D01*
X3434D01*
X3395Y17505D01*
X3356Y17466D01*
X3336Y17427D01*
X3271Y1836D02*
Y1484D01*
X3095Y1660D02*
X3447D01*
X-31Y2998D02*
X57Y2845D01*
X103Y2804D01*
X130Y2797D01*
X173Y2800D01*
X224Y2829D01*
X248Y2866D01*
X255Y2892D01*
X243Y2953D01*
X155Y3105D01*
X-200Y2900D01*
X139Y2313D02*
X416Y2654D01*
X-17Y2584D01*
X130Y2601D02*
X228Y2432D01*
X542Y2435D02*
X187Y2230D01*
X542Y2435D02*
X630Y2283D01*
X642Y2223D01*
X635Y2196D01*
X611Y2160D01*
X577Y2140D01*
X533Y2137D01*
X507Y2145D01*
X460Y2186D01*
X373Y2338D01*
X441Y2219D02*
X323Y1994D01*
X793Y2001D02*
X437Y1796D01*
X724Y2119D02*
X861Y1882D01*
X369Y8748D02*
X457Y8595D01*
X503Y8554D01*
X530Y8547D01*
X573Y8550D01*
X624Y8579D01*
X648Y8616D01*
X655Y8642D01*
X643Y8703D01*
X555Y8855D01*
X200Y8650D01*
X539Y8063D02*
X816Y8404D01*
X383Y8334D01*
X530Y8351D02*
X628Y8182D01*
X942Y8185D02*
X587Y7980D01*
X942Y8185D02*
X1030Y8033D01*
X1042Y7973D01*
X1035Y7946D01*
X1011Y7910D01*
X977Y7890D01*
X933Y7887D01*
X907Y7895D01*
X860Y7936D01*
X773Y8088D01*
X841Y7969D02*
X723Y7744D01*
X1193Y7751D02*
X837Y7546D01*
X1124Y7869D02*
X1261Y7632D01*
X3263Y1846D02*
Y1495D01*
X3087Y1670D02*
X3439D01*
X-900Y10710D02*
Y10300D01*
X-627Y10710D02*
Y10300D01*
X-900Y10515D02*
X-627D01*
X-260Y10710D02*
X-513D01*
Y10300D01*
X-260D01*
X-513Y10515D02*
X-357D01*
X1719Y6448D02*
X1807Y6295D01*
X1853Y6254D01*
X1880Y6247D01*
X1923Y6250D01*
X1974Y6279D01*
X1998Y6316D01*
X2005Y6342D01*
X1993Y6403D01*
X1905Y6555D01*
X1550Y6350D01*
X1889Y5763D02*
X2166Y6104D01*
X1733Y6034D01*
X1880Y6051D02*
X1978Y5882D01*
X2292Y5885D02*
X1937Y5680D01*
X2292Y5885D02*
X2380Y5733D01*
X2392Y5673D01*
X2385Y5646D01*
X2361Y5610D01*
X2327Y5590D01*
X2283Y5587D01*
X2257Y5595D01*
X2210Y5636D01*
X2123Y5788D01*
X2191Y5669D02*
X2073Y5444D01*
X2543Y5451D02*
X2187Y5246D01*
X2474Y5569D02*
X2611Y5332D01*
X-3145Y6605D02*
X-3500Y6400D01*
X-3008Y6368D02*
X-3363Y6163D01*
X-3314Y6507D02*
X-3177Y6271D01*
X-2893Y6169D02*
X-2929Y6193D01*
X-2983Y6207D01*
X-3026Y6204D01*
X-3087Y6192D01*
X-3171Y6143D01*
X-3212Y6097D01*
X-3236Y6061D01*
X-3251Y6007D01*
X-3248Y5964D01*
X-3209Y5896D01*
X-3173Y5872D01*
X-3119Y5858D01*
X-3076Y5860D01*
X-3015Y5873D01*
X-2931Y5922D01*
X-2890Y5968D01*
X-2866Y6004D01*
X-2851Y6058D01*
X-2854Y6101D01*
X-2893Y6169D01*
X-2679Y5798D02*
X-3034Y5593D01*
X-2748Y5917D02*
X-2611Y5680D01*
X-2460Y5418D02*
X-2586Y5638D01*
X-2942Y5433D01*
X-2815Y5213D01*
X-2756Y5540D02*
X-2677Y5405D01*
X-2425Y5359D02*
X-2781Y5154D01*
X-2425Y5359D02*
X-2644Y4917D01*
X-2289Y5122D02*
X-2644Y4917D01*
X-2232Y5024D02*
X-2587Y4819D01*
X-2232Y5024D02*
X-2164Y4906D01*
X-2151Y4845D01*
X-2166Y4792D01*
X-2190Y4755D01*
X-2231Y4709D01*
X-2315Y4660D01*
X-2376Y4648D01*
X-2419Y4645D01*
X-2473Y4660D01*
X-2519Y4701D01*
X-2587Y4819D01*
X8600Y8910D02*
Y8500D01*
X8873Y8910D02*
Y8500D01*
X8600Y8715D02*
X8873D01*
X9240Y8910D02*
X8987D01*
Y8500D01*
X9240D01*
X8987Y8715D02*
X9143D01*
X10495Y2405D02*
X10850Y2200D01*
X10632Y2642D02*
X10987Y2437D01*
X10664Y2307D02*
X10801Y2544D01*
X10815Y2960D02*
X10688Y2740D01*
X11043Y2535D01*
X11170Y2755D01*
X10857Y2642D02*
X10935Y2777D01*
X11361Y3084D02*
X10927Y3154D01*
X11204Y2814D01*
X11115Y2933D02*
X11213Y3102D01*
X11122Y3491D02*
X11477Y3286D01*
X11053Y3372D02*
X11190Y3609D01*
X11341Y3871D02*
X11214Y3651D01*
X11569Y3446D01*
X11696Y3666D01*
X11384Y3554D02*
X11462Y3689D01*
X11375Y3930D02*
X11731Y3725D01*
X11375Y3930D02*
X11463Y4082D01*
X11510Y4123D01*
X11536Y4131D01*
X11580Y4128D01*
X11614Y4108D01*
X11638Y4072D01*
X11645Y4045D01*
X11632Y3985D01*
X11545Y3833D01*
X11613Y3951D02*
X11867Y3962D01*
X-2505Y7955D02*
X-2300Y7600D01*
X-2505Y7955D02*
X-2285Y8082D01*
X-2407Y7786D02*
X-2272Y7864D01*
X-1769Y7907D02*
X-2109Y8184D01*
X-2040Y7750D01*
X-2057Y7898D02*
X-1888Y7996D01*
X-1891Y8309D02*
X-1686Y7954D01*
X-1891Y8309D02*
X-1449Y8091D01*
X-1654Y8446D02*
X-1449Y8091D01*
X-1290Y8589D02*
X-1344Y8603D01*
X-1404Y8591D01*
X-1472Y8552D01*
X-1513Y8505D01*
X-1527Y8452D01*
X-1508Y8418D01*
X-1471Y8394D01*
X-1444Y8387D01*
X-1401Y8390D01*
X-1280Y8414D01*
X-1236Y8417D01*
X-1210Y8410D01*
X-1173Y8386D01*
X-1144Y8335D01*
X-1158Y8282D01*
X-1199Y8236D01*
X-1267Y8196D01*
X-1327Y8184D01*
X-1381Y8198D01*
X-1795Y3705D02*
X-2150Y3500D01*
X-1795Y3705D02*
X-1668Y3485D01*
X-1964Y3607D02*
X-1886Y3472D01*
X-1843Y2969D02*
X-1566Y3309D01*
X-2000Y3240D01*
X-1852Y3257D02*
X-1754Y3088D01*
X-1441Y3091D02*
X-1796Y2886D01*
X-1441Y3091D02*
X-1659Y2649D01*
X-1304Y2854D02*
X-1659Y2649D01*
D64*
X366Y10817D02*
Y10254D01*
X85Y10535D02*
X647D01*
X9535Y8685D02*
X10097D01*
D65*
X7749Y4972D02*
D03*
M02*
