G04 Layer_Color=65535*
%FSLAX24Y24*%
%MOIN*%
G70*
G01*
G75*
%ADD34C,0.0100*%
%ADD36C,0.0080*%
%ADD39C,0.0160*%
%ADD62C,0.0098*%
%ADD63C,0.0079*%
%ADD64C,0.0157*%
%ADD65C,0.0433*%
%ADD66C,0.0077*%
%ADD67C,0.0123*%
G04:AMPARAMS|DCode=68|XSize=29.5mil|YSize=87.9mil|CornerRadius=0mil|HoleSize=0mil|Usage=FLASHONLY|Rotation=55.000|XOffset=0mil|YOffset=0mil|HoleType=Round|Shape=Rectangle|*
%AMROTATEDRECTD68*
4,1,4,0.0275,-0.0373,-0.0445,0.0131,-0.0275,0.0373,0.0445,-0.0131,0.0275,-0.0373,0.0*
%
%ADD68ROTATEDRECTD68*%

D34*
X7555Y1358D02*
G03*
X7555Y1358I-313J0D01*
G01*
X12272Y3799D02*
X12791Y3499D01*
X11868Y3138D02*
X12413Y2824D01*
X11840Y3090D02*
X12385Y2775D01*
X11743Y2922D02*
X11868Y3138D01*
X12288Y2607D02*
X12413Y2824D01*
X13302Y5579D02*
X13821Y5279D01*
X12898Y4918D02*
X13443Y4604D01*
X12870Y4870D02*
X13415Y4555D01*
X12773Y4702D02*
X12898Y4918D01*
X13318Y4387D02*
X13443Y4604D01*
X-3277Y3489D02*
X-2758Y3789D01*
X-2907Y2809D02*
X-2363Y3124D01*
X-2879Y2760D02*
X-2334Y3075D01*
X-2907Y2809D02*
X-2782Y2593D01*
X-2363Y3124D02*
X-2238Y2907D01*
X-4322Y5314D02*
X-3802Y5614D01*
X-3952Y4634D02*
X-3407Y4948D01*
X-3924Y4585D02*
X-3379Y4900D01*
X-3952Y4634D02*
X-3827Y4417D01*
X-3407Y4948D02*
X-3282Y4732D01*
X7755Y4122D02*
X8774Y5577D01*
X6942Y4691D02*
X7961Y6146D01*
X7885Y1350D02*
X9164Y612D01*
X7705Y2023D02*
X7885Y1350D01*
X7705Y2023D02*
X11485Y8569D01*
X12157Y8749D02*
X13435Y8011D01*
X11485Y8569D02*
X12157Y8749D01*
X7885Y1350D02*
X7919Y1331D01*
X7987Y1291D01*
X9164Y612D02*
X13435Y8011D01*
D36*
X5815Y15035D02*
X5815Y15354D01*
X5575D02*
X5815D01*
X4704Y15035D02*
Y15354D01*
X4940D01*
X4890Y13000D02*
X5209D01*
X4890Y12760D02*
Y13000D01*
Y11889D02*
X5209D01*
X4890D02*
Y12125D01*
X8705Y15074D02*
Y15394D01*
X8465Y15394D02*
X8705Y15394D01*
X7594Y15394D02*
X7594Y15074D01*
X7594Y15394D02*
X7830Y15394D01*
D39*
X7106Y13962D02*
G03*
X7106Y13962I-77J0D01*
G01*
X2260Y2340D02*
X3850Y3290D01*
X1140Y8000D02*
X3860Y3330D01*
X-487Y7076D02*
X1140Y8000D01*
D62*
X2889Y13964D02*
G03*
X2889Y13964I-49J0D01*
G01*
X2899Y11234D02*
G03*
X2899Y11234I-49J0D01*
G01*
D63*
X1560Y13964D02*
X2584D01*
X1560Y14398D02*
X1560Y13964D01*
Y15776D02*
X2584Y15776D01*
X1560Y15342D02*
X1560Y15776D01*
X4991Y3183D02*
X5070D01*
X4991Y3596D02*
X5070D01*
X4991Y3923D02*
X5069D01*
X4991Y4337D02*
X5069D01*
X3843Y3801D02*
Y3879D01*
X4257Y3801D02*
Y3879D01*
X919Y6197D02*
X959Y6129D01*
X561Y5991D02*
X601Y5923D01*
X-100Y7116D02*
X-61Y7048D01*
X258Y7322D02*
X297Y7254D01*
X1570Y12612D02*
Y13046D01*
X2594Y13046D01*
X1570Y11234D02*
X1570Y11668D01*
X1570Y11234D02*
X2594Y11234D01*
D64*
X351Y1237D02*
X1101Y1670D01*
X943Y1943D02*
X1101Y1670D01*
X943Y1943D02*
X1352Y2179D01*
X1510Y1907D01*
X2260Y2340D01*
X-496Y2703D02*
X351Y1237D01*
X-496Y2703D02*
X118Y3058D01*
X800Y3452D01*
X1413Y3806D01*
X2260Y2340D01*
X-1437Y8716D02*
X-590Y7250D01*
X-2050Y8362D02*
X-1437Y8716D01*
X-2732Y7968D02*
X-2050Y8362D01*
X-3346Y7613D02*
X-2732Y7968D01*
X-3346Y7613D02*
X-2499Y6147D01*
X-1340Y6817D02*
X-590Y7250D01*
X-1498Y7089D02*
X-1340Y6817D01*
X-1907Y6853D02*
X-1498Y7089D01*
X-1907Y6853D02*
X-1749Y6580D01*
X-2499Y6147D02*
X-1749Y6580D01*
X-487Y7076D02*
X360Y5610D01*
X-1100Y6722D02*
X-487Y7076D01*
X-1782Y6328D02*
X-1100Y6722D01*
X-2396Y5973D02*
X-1782Y6328D01*
X-2396Y5973D02*
X-1549Y4507D01*
X-390Y5177D02*
X360Y5610D01*
X-548Y5449D02*
X-390Y5177D01*
X-957Y5213D02*
X-548Y5449D01*
X-957Y5213D02*
X-799Y4940D01*
X-1549Y4507D02*
X-799Y4940D01*
X-599Y2867D02*
X151Y3300D01*
X-7Y3573D02*
X151Y3300D01*
X-7Y3573D02*
X402Y3809D01*
X560Y3537D01*
X1310Y3970D01*
X-1446Y4333D02*
X-599Y2867D01*
X-1446Y4333D02*
X-832Y4688D01*
X-150Y5082D01*
X463Y5436D01*
X1310Y3970D01*
D65*
X1066Y4014D02*
X1100Y4034D01*
X-1784Y8924D02*
X-1750Y8944D01*
X-834Y7284D02*
X-800Y7304D01*
X116Y5644D02*
X150Y5664D01*
D66*
X2463Y1846D02*
Y1495D01*
X2287Y1670D02*
X2639D01*
X-1795Y3705D02*
X-2150Y3500D01*
X-1795Y3705D02*
X-1668Y3485D01*
X-1964Y3607D02*
X-1886Y3472D01*
X-1843Y2969D02*
X-1566Y3309D01*
X-2000Y3240D01*
X-1852Y3257D02*
X-1754Y3088D01*
X-1441Y3091D02*
X-1796Y2886D01*
X-1441Y3091D02*
X-1659Y2649D01*
X-1304Y2854D02*
X-1659Y2649D01*
X2235Y5415D02*
X1880Y5210D01*
X2235Y5415D02*
X2362Y5195D01*
X2066Y5317D02*
X2144Y5182D01*
X2187Y4679D02*
X2464Y5019D01*
X2030Y4950D01*
X2178Y4967D02*
X2276Y4798D01*
X2589Y4801D02*
X2234Y4596D01*
X2589Y4801D02*
X2371Y4359D01*
X2726Y4564D02*
X2371Y4359D01*
X2869Y4200D02*
X2883Y4254D01*
X2871Y4314D01*
X2832Y4382D01*
X2785Y4423D01*
X2732Y4437D01*
X2698Y4418D01*
X2674Y4381D01*
X2667Y4354D01*
X2670Y4311D01*
X2694Y4190D01*
X2697Y4146D01*
X2690Y4120D01*
X2666Y4083D01*
X2615Y4054D01*
X2562Y4068D01*
X2516Y4109D01*
X2476Y4177D01*
X2464Y4237D01*
X2478Y4291D01*
X10495Y2405D02*
X10850Y2200D01*
X10632Y2642D02*
X10987Y2437D01*
X10664Y2307D02*
X10801Y2544D01*
X10815Y2960D02*
X10688Y2740D01*
X11043Y2535D01*
X11170Y2755D01*
X10857Y2642D02*
X10935Y2777D01*
X11361Y3084D02*
X10927Y3154D01*
X11204Y2814D01*
X11115Y2933D02*
X11213Y3102D01*
X11122Y3491D02*
X11477Y3286D01*
X11053Y3372D02*
X11190Y3609D01*
X11341Y3871D02*
X11214Y3651D01*
X11569Y3446D01*
X11696Y3666D01*
X11384Y3554D02*
X11462Y3689D01*
X11375Y3930D02*
X11731Y3725D01*
X11375Y3930D02*
X11463Y4082D01*
X11510Y4123D01*
X11536Y4131D01*
X11580Y4128D01*
X11614Y4108D01*
X11638Y4072D01*
X11645Y4045D01*
X11632Y3985D01*
X11545Y3833D01*
X11613Y3951D02*
X11867Y3962D01*
X7950Y10450D02*
Y10040D01*
X8223Y10450D02*
Y10040D01*
X7950Y10255D02*
X8223D01*
X8590Y10450D02*
X8337D01*
Y10040D01*
X8590D01*
X8337Y10255D02*
X8493D01*
X8971Y10040D02*
X8815Y10450D01*
X8659Y10040D01*
X8717Y10177D02*
X8913D01*
X9204Y10450D02*
Y10040D01*
X9067Y10450D02*
X9340D01*
X-3735Y9185D02*
X-3530Y8830D01*
X-3498Y9322D02*
X-3293Y8967D01*
X-3637Y9016D02*
X-3401Y9153D01*
X-3299Y9437D02*
X-3323Y9401D01*
X-3337Y9347D01*
X-3334Y9304D01*
X-3322Y9243D01*
X-3273Y9159D01*
X-3227Y9118D01*
X-3191Y9094D01*
X-3137Y9079D01*
X-3094Y9082D01*
X-3026Y9121D01*
X-3002Y9157D01*
X-2988Y9211D01*
X-2990Y9254D01*
X-3003Y9315D01*
X-3052Y9399D01*
X-3098Y9440D01*
X-3134Y9464D01*
X-3188Y9479D01*
X-3231Y9476D01*
X-3299Y9437D01*
X-2928Y9651D02*
X-2723Y9296D01*
X-3047Y9582D02*
X-2810Y9719D01*
X-2548Y9870D02*
X-2768Y9744D01*
X-2563Y9388D01*
X-2343Y9515D01*
X-2670Y9574D02*
X-2535Y9653D01*
X-2489Y9905D02*
X-2284Y9549D01*
X-2489Y9905D02*
X-2047Y9686D01*
X-2252Y10041D02*
X-2047Y9686D01*
X-2154Y10098D02*
X-1949Y9743D01*
X-2154Y10098D02*
X-2036Y10166D01*
X-1975Y10179D01*
X-1922Y10164D01*
X-1885Y10140D01*
X-1839Y10099D01*
X-1790Y10015D01*
X-1778Y9954D01*
X-1775Y9911D01*
X-1790Y9857D01*
X-1831Y9811D01*
X-1949Y9743D01*
X1099Y6948D02*
X1187Y6795D01*
X1233Y6754D01*
X1260Y6747D01*
X1303Y6750D01*
X1354Y6779D01*
X1378Y6816D01*
X1385Y6842D01*
X1373Y6903D01*
X1285Y7055D01*
X930Y6850D01*
X1269Y6263D02*
X1546Y6604D01*
X1113Y6534D01*
X1260Y6551D02*
X1358Y6382D01*
X1672Y6385D02*
X1317Y6180D01*
X1672Y6385D02*
X1760Y6233D01*
X1772Y6173D01*
X1765Y6146D01*
X1741Y6110D01*
X1707Y6090D01*
X1663Y6087D01*
X1637Y6095D01*
X1590Y6136D01*
X1503Y6288D01*
X1571Y6169D02*
X1453Y5944D01*
X1923Y5951D02*
X1567Y5746D01*
X1854Y6069D02*
X1991Y5832D01*
X170Y10610D02*
Y10200D01*
X443Y10610D02*
Y10200D01*
X170Y10415D02*
X443D01*
X810Y10610D02*
X557D01*
Y10200D01*
X810D01*
X557Y10415D02*
X713D01*
X1191Y10200D02*
X1035Y10610D01*
X879Y10200D01*
X937Y10337D02*
X1133D01*
X1424Y10610D02*
Y10200D01*
X1287Y10610D02*
X1560D01*
X-3155Y8705D02*
X-2950Y8350D01*
X-3155Y8705D02*
X-2935Y8832D01*
X-3057Y8536D02*
X-2922Y8614D01*
X-2419Y8657D02*
X-2759Y8934D01*
X-2690Y8500D01*
X-2707Y8648D02*
X-2538Y8746D01*
X-2541Y9059D02*
X-2336Y8704D01*
X-2541Y9059D02*
X-2099Y8841D01*
X-2304Y9196D02*
X-2099Y8841D01*
X-31Y2998D02*
X57Y2845D01*
X103Y2804D01*
X130Y2797D01*
X173Y2800D01*
X224Y2829D01*
X248Y2866D01*
X255Y2892D01*
X243Y2953D01*
X155Y3105D01*
X-200Y2900D01*
X139Y2313D02*
X416Y2654D01*
X-17Y2584D01*
X130Y2601D02*
X228Y2432D01*
X542Y2435D02*
X187Y2230D01*
X542Y2435D02*
X630Y2283D01*
X642Y2223D01*
X635Y2196D01*
X611Y2160D01*
X577Y2140D01*
X533Y2137D01*
X507Y2145D01*
X460Y2186D01*
X373Y2338D01*
X441Y2219D02*
X323Y1994D01*
X793Y2001D02*
X437Y1796D01*
X724Y2119D02*
X861Y1882D01*
X2471Y1836D02*
Y1484D01*
X2295Y1660D02*
X2647D01*
X5912Y17173D02*
X5951Y17134D01*
X6009Y17114D01*
X6087D01*
X6146Y17134D01*
X6185Y17173D01*
Y17212D01*
X6166Y17251D01*
X6146Y17270D01*
X6107Y17290D01*
X5990Y17329D01*
X5951Y17349D01*
X5931Y17368D01*
X5912Y17407D01*
Y17466D01*
X5951Y17505D01*
X6009Y17524D01*
X6087D01*
X6146Y17505D01*
X6185Y17466D01*
X5820Y17368D02*
X5586D01*
Y17329D01*
X5605Y17290D01*
X5625Y17270D01*
X5664Y17251D01*
X5722D01*
X5761Y17270D01*
X5800Y17310D01*
X5820Y17368D01*
Y17407D01*
X5800Y17466D01*
X5761Y17505D01*
X5722Y17524D01*
X5664D01*
X5625Y17505D01*
X5586Y17466D01*
X5498Y17368D02*
X5264D01*
Y17329D01*
X5283Y17290D01*
X5303Y17270D01*
X5342Y17251D01*
X5400D01*
X5439Y17270D01*
X5478Y17310D01*
X5498Y17368D01*
Y17407D01*
X5478Y17466D01*
X5439Y17505D01*
X5400Y17524D01*
X5342D01*
X5303Y17505D01*
X5264Y17466D01*
X5176Y17114D02*
Y17524D01*
Y17114D02*
X5019Y17524D01*
X4863Y17114D02*
X5019Y17524D01*
X4863Y17114D02*
Y17524D01*
X4746Y17368D02*
X4512D01*
Y17329D01*
X4531Y17290D01*
X4551Y17270D01*
X4590Y17251D01*
X4649D01*
X4688Y17270D01*
X4727Y17310D01*
X4746Y17368D01*
Y17407D01*
X4727Y17466D01*
X4688Y17505D01*
X4649Y17524D01*
X4590D01*
X4551Y17505D01*
X4512Y17466D01*
X4131Y17212D02*
X4151Y17173D01*
X4190Y17134D01*
X4229Y17114D01*
X4307D01*
X4346Y17134D01*
X4385Y17173D01*
X4404Y17212D01*
X4424Y17270D01*
Y17368D01*
X4404Y17427D01*
X4385Y17466D01*
X4346Y17505D01*
X4307Y17524D01*
X4229D01*
X4190Y17505D01*
X4151Y17466D01*
X4131Y17427D01*
X4016Y17114D02*
Y17524D01*
Y17114D02*
X3743Y17524D01*
Y17114D02*
Y17524D01*
X3336Y17212D02*
X3356Y17173D01*
X3395Y17134D01*
X3434Y17114D01*
X3512D01*
X3551Y17134D01*
X3590Y17173D01*
X3610Y17212D01*
X3629Y17270D01*
Y17368D01*
X3610Y17427D01*
X3590Y17466D01*
X3551Y17505D01*
X3512Y17524D01*
X3434D01*
X3395Y17505D01*
X3356Y17466D01*
X3336Y17427D01*
X692Y3224D02*
X388Y3048D01*
X452Y3288D02*
X628Y2984D01*
D67*
X8180Y9541D02*
X8742D01*
X911Y9942D02*
Y9380D01*
X630Y9661D02*
X1192D01*
D68*
X7749Y4972D02*
D03*
M02*
