G04 Layer_Color=32896*
%FSLAX24Y24*%
%MOIN*%
G70*
G01*
G75*
%ADD35C,0.0100*%
G04:AMPARAMS|DCode=65|XSize=29.5mil|YSize=87.9mil|CornerRadius=0mil|HoleSize=0mil|Usage=FLASHONLY|Rotation=55.000|XOffset=0mil|YOffset=0mil|HoleType=Round|Shape=Rectangle|*
%AMROTATEDRECTD65*
4,1,4,0.0275,-0.0373,-0.0445,0.0131,-0.0275,0.0373,0.0445,-0.0131,0.0275,-0.0373,0.0*
%
%ADD65ROTATEDRECTD65*%

%ADD116C,0.0039*%
%ADD117C,0.0040*%
%ADD118C,0.0060*%
%ADD119R,0.0315X0.0138*%
%ADD120R,0.0575X0.0300*%
%ADD121R,0.0575X0.0295*%
%ADD122R,0.0138X0.0315*%
G04:AMPARAMS|DCode=123|XSize=13.8mil|YSize=31.5mil|CornerRadius=0mil|HoleSize=0mil|Usage=FLASHONLY|Rotation=240.000|XOffset=0mil|YOffset=0mil|HoleType=Round|Shape=Rectangle|*
%AMROTATEDRECTD123*
4,1,4,-0.0102,0.0138,0.0171,-0.0019,0.0102,-0.0138,-0.0171,0.0019,-0.0102,0.0138,0.0*
%
%ADD123ROTATEDRECTD123*%

G04:AMPARAMS|DCode=124|XSize=17mil|YSize=64.5mil|CornerRadius=0mil|HoleSize=0mil|Usage=FLASHONLY|Rotation=55.000|XOffset=0mil|YOffset=0mil|HoleType=Round|Shape=Rectangle|*
%AMROTATEDRECTD124*
4,1,4,0.0215,-0.0255,-0.0313,0.0115,-0.0215,0.0255,0.0313,-0.0115,0.0215,-0.0255,0.0*
%
%ADD124ROTATEDRECTD124*%

G04:AMPARAMS|DCode=125|XSize=16.5mil|YSize=63.5mil|CornerRadius=0mil|HoleSize=0mil|Usage=FLASHONLY|Rotation=55.000|XOffset=0mil|YOffset=0mil|HoleType=Round|Shape=Rectangle|*
%AMROTATEDRECTD125*
4,1,4,0.0213,-0.0250,-0.0307,0.0114,-0.0213,0.0250,0.0307,-0.0114,0.0213,-0.0250,0.0*
%
%ADD125ROTATEDRECTD125*%

%ADD126R,0.0240X0.0118*%
%ADD127R,0.0240X0.0110*%
%ADD128R,0.0118X0.0240*%
%ADD129R,0.0110X0.0240*%
D35*
X7961Y6146D02*
X8774Y5577D01*
X6942Y4691D02*
X7755Y4122D01*
D65*
X7749Y4972D02*
D03*
D116*
X882Y11697D02*
X882Y11343D01*
X6612Y12307D02*
Y12661D01*
Y13357D02*
Y13711D01*
X4477Y15817D02*
X4477Y16171D01*
X4833Y13272D02*
X5187D01*
X4838Y13936D02*
X5192Y13936D01*
X5997Y12621D02*
Y12976D01*
X5268Y16016D02*
X5622Y16016D01*
X8483Y14118D02*
X8837Y14118D01*
X8483Y13478D02*
X8837D01*
X3473Y13788D02*
X3827D01*
X9701Y6888D02*
X9878Y7195D01*
X6162Y14843D02*
Y15197D01*
X7052Y14843D02*
Y15197D01*
X8008Y12003D02*
Y12357D01*
D117*
X1158Y11697D02*
X1158Y11343D01*
X6888Y12307D02*
X6888Y12661D01*
X6888Y13357D02*
Y13711D01*
X3440Y12310D02*
Y12600D01*
X3960Y12310D02*
Y12610D01*
X4753Y15817D02*
Y16171D01*
X4833Y13548D02*
X5187D01*
X4838Y14212D02*
X5192D01*
X6273Y12621D02*
Y12976D01*
X5268Y16292D02*
X5622Y16292D01*
X8483Y13842D02*
X8837D01*
X8483Y13202D02*
X8837Y13202D01*
X3530Y14980D02*
X3530Y15270D01*
X4050Y14980D02*
X4050Y15280D01*
X3473Y13512D02*
X3827Y13512D01*
X9462Y7025D02*
X9639Y7332D01*
X6438Y14843D02*
Y15197D01*
X7328Y14843D02*
Y15197D01*
X7732Y12003D02*
Y12357D01*
D118*
X8705Y14854D02*
Y15374D01*
X7585Y14854D02*
X8705D01*
X7585D02*
Y15374D01*
X8705D01*
X4910Y13000D02*
X5430D01*
Y11880D02*
Y13000D01*
X4910Y11880D02*
X5430D01*
X4910D02*
X4910Y13000D01*
X5815Y14814D02*
X5815Y15334D01*
X4695Y14814D02*
X5815Y14814D01*
X4695Y14814D02*
Y15334D01*
X5815D01*
X11350Y9280D02*
X11350Y9476D01*
X11172D02*
X11172Y9280D01*
X6864Y11530D02*
X7060D01*
X6864Y11352D02*
X7060D01*
X7940Y11060D02*
X7940Y11256D01*
X7762Y11060D02*
Y11256D01*
D119*
X1020Y11274D02*
D03*
X1020Y11766D02*
D03*
X6750Y12730D02*
D03*
X6750Y12238D02*
D03*
X6750Y13288D02*
D03*
X6750Y13780D02*
D03*
X4615Y16240D02*
D03*
X4615Y15748D02*
D03*
X6135Y12553D02*
D03*
X6135Y13045D02*
D03*
X6300Y14774D02*
D03*
X6300Y15266D02*
D03*
X7190Y14774D02*
D03*
X7190Y15266D02*
D03*
X7870Y12426D02*
D03*
X7870Y11934D02*
D03*
D120*
X3702Y12170D02*
D03*
X3792Y14840D02*
D03*
D121*
X3702Y12742D02*
D03*
X3792Y15412D02*
D03*
D122*
X5256Y13410D02*
D03*
X4764Y13410D02*
D03*
X4769Y14074D02*
D03*
X5261Y14074D02*
D03*
X5199Y16154D02*
D03*
X5691Y16154D02*
D03*
X8906Y13980D02*
D03*
X8414D02*
D03*
X8906Y13340D02*
D03*
X8414Y13340D02*
D03*
X3404Y13650D02*
D03*
X3896D02*
D03*
D123*
X9547Y6897D02*
D03*
X9793Y7323D02*
D03*
D124*
X8450Y5968D02*
D03*
D125*
X7273Y4296D02*
D03*
D126*
X11260Y9539D02*
D03*
X7850Y11319D02*
D03*
D127*
X11260Y9215D02*
D03*
X7850Y10995D02*
D03*
D128*
X6801Y11440D02*
D03*
D129*
X7125Y11440D02*
D03*
M02*
