M48
;Layer_Color=9474304
;FILE_FORMAT=2:4
INCH,TZ
;TYPE=PLATED
T1F00S00C0.0150
T2F00S00C0.0191
T3F00S00C0.0200
T4F00S00C0.0300
T5F00S00C0.0430
T6F00S00C0.0433
T7F00S00C0.0492
T8F00S00C0.1378
T9F00S00C0.1380
T10F00S00C0.2835
;TYPE=NON_PLATED
T11F00S00C0.1181
%
T01
X3787Y6059
X3017Y7409
X8645Y6394
X9165
X11205Y4684
X16000Y5787
X16650Y6137
X13965Y8094
X24276Y7409
X25046Y6059
X29905Y6394
X30425
X32465Y4684
X37260Y5787
X37910Y6137
X35225Y8094
X45536Y7409
X46306Y6059
X51165Y6394
X51685
X53725Y4684
X58520Y5787
X59170Y6137
X56485Y8094
X66796Y7409
X67566Y6059
X72425Y6394
X72945
X74985Y4684
X79780Y5787
X77745Y8094
X80430Y6137
X77510Y15479
X76465Y15374
X75740Y14829
X76018Y17270
X77880Y16519
X72500Y16569
X71820Y16789
X71870Y14179
X70770Y13979
X56250Y15479
X55205Y15374
X54480Y14829
X54759Y17270
X56620Y16519
X51240Y16569
X50560Y16789
X50610Y14179
X49510Y13979
X34990Y15479
X33945Y15374
X33220Y14829
X33499Y17270
X35360Y16519
X29980Y16569
X29300Y16789
X29350Y14179
X28250Y13979
X13730Y15479
X12685Y15374
X11960Y14829
X12239Y17270
X14100Y16519
X8720Y16569
X8040Y16789
X8090Y14179
X6990Y13979
T02
X11175Y5434
X11215Y6894
X11615Y6734
X11614Y7222
X12015Y6984
X12594Y7759
X12504Y8191
X12923Y8060
X13053Y7607
X32475Y6894
X32875Y6734
X32874Y7222
X32435Y5434
X33275Y6984
X33854Y7759
X33764Y8191
X34183Y8060
X34312Y7607
X53735Y6894
X54135Y6734
X54134Y7222
X54535Y6984
X55114Y7759
X55024Y8191
X55443Y8060
X55572Y7607
X53695Y5434
X74955
X74995Y6894
X75395Y6734
X75394Y7222
X75795Y6984
X76374Y7759
X76284Y8191
X76703Y8060
X76832Y7607
T03
X4085Y7524
X25345
X46605
X67865
T04
X6097Y5069
X6847Y5459
X27356Y5069
X28106Y5459
X48616Y5069
X49366Y5459
X69876Y5069
X70626Y5459
T05
X8077Y3499
X10957
X29336
X32216
X50596
X53476
X71856
X74736
T06
X5387Y6036
X4887Y6902
X3907Y8586
X3407Y9452
X16477Y9474
X15985Y8622
X15493Y7769
X15001Y6917
X14509Y6064
X14017Y5212
X13525Y4360
X16970Y10326
X24666Y9452
X25166Y8586
X26146Y6902
X26646Y6036
X35769Y6064
X35277Y5212
X34785Y4360
X36261Y6917
X36753Y7769
X37245Y8622
X37737Y9474
X38229Y10326
X45926Y9452
X46426Y8586
X47406Y6902
X47906Y6036
X57029Y6064
X56537Y5212
X56044Y4360
X57521Y6917
X58013Y7769
X58505Y8622
X58997Y9474
X59489Y10326
X67186Y9452
X67686Y8586
X68666Y6902
X69166Y6036
X78288Y6064
X77796Y5212
X77304Y4360
X78781Y6917
X79273Y7769
X79765Y8622
X80257Y9474
X80749Y10326
T07
X68476Y12019
X78136
X56876
X47216
X35616
X25956
X14357
X4697
T08
X9517Y3619
X30776
X52036
X73296
X79436Y14249
X58176
X36916
X15657
T09
X67156Y14249
X45896
X24636
X3377
T10
X73296Y10709
X52036
X30776
X9517
T11
X1329Y1329
X81499Y1358
Y21917
X1329Y21888
M30
