M48
;Layer_Color=9474304
;FILE_FORMAT=2:4
INCH,TZ
;TYPE=PLATED
T1F00S00C0.0150
T2F00S00C0.0191
T3F00S00C0.0303
T4F00S00C0.0430
T5F00S00C0.0433
T6F00S00C0.0520
T7F00S00C0.1378
T8F00S00C0.2835
;TYPE=NON_PLATED
T9F00S00C0.1181
%
T01
X8010Y4749
X8310Y4739
X8240Y5869
X8390Y6749
X5225Y9169
X13950Y8539
X14010Y7899
X15040Y9449
X15730Y10349
X16000Y5787
X16650Y6137
X26485Y9169
X29650Y6749
X29500Y5869
X29570Y4739
X29270Y4749
X37260Y5787
X37910Y6137
X35270Y7899
X35210Y8539
X36300Y9449
X36990Y10349
X47744Y9169
X50910Y6749
X50760Y5869
X50830Y4739
X50530Y4749
X58520Y5787
X59170Y6137
X56530Y7899
X56470Y8539
X57560Y9449
X58250Y10349
X69004Y9169
X72170Y6749
X72020Y5869
X72090Y4739
X71790Y4749
X79780Y5787
X77790Y7899
X77730Y8539
X78820Y9449
X79510Y10349
X80430Y6137
X81250Y11779
X77510Y15479
X76465Y15374
X75740Y14829
X77880Y16519
X77488Y17259
X72500Y16569
X71840Y17409
X70180Y16049
X72280Y14119
X59990Y11779
X56250Y15479
X55205Y15374
X54480Y14829
X56620Y16519
X56228Y17259
X51240Y16569
X50580Y17409
X48920Y16049
X51020Y14119
X38730Y11779
X34990Y15479
X33945Y15374
X33220Y14829
X35360Y16519
X34968Y17259
X29980Y16569
X29320Y17409
X27660Y16049
X29760Y14119
X17470Y11779
X13730Y15479
X12685Y15374
X11960Y14829
X14100Y16519
X13708Y17259
X8720Y16569
X8060Y17409
X6400Y16049
X8500Y14119
T02
X11614Y7222
X13310Y7263
X13460Y6899
X13870Y6703
X12900Y6539
X13050Y5989
X13480Y7639
X32874Y7222
X34570Y7263
X34720Y6899
X35130Y6703
X34160Y6539
X34310Y5989
X34740Y7639
X54134Y7222
X55830Y7263
X55980Y6899
X56390Y6703
X55420Y6539
X55570Y5989
X56000Y7639
X75394Y7222
X77090Y7263
X77240Y6899
X77650Y6703
X76680Y6539
X76830Y5989
X77260Y7639
T03
X5469Y4643
X6151Y5036
X7457Y5688
X7063Y6370
X5201Y6666
X4519Y6273
X4251Y8306
X3569Y7913
X3301Y9946
X2619Y9553
X11440Y6013
X11440Y5226
X25779Y6273
X26461Y6666
X28323Y6370
X28717Y5688
X27411Y5036
X26729Y4643
X25511Y8306
X24829Y7913
X24561Y9946
X23879Y9553
X32700Y6013
X32700Y5226
X47039Y6273
X47721Y6666
X47989Y4643
X46771Y8306
X46089Y7913
X45821Y9946
X45139Y9553
X49583Y6370
X49977Y5688
X48671Y5036
X53960Y5226
X53960Y6013
X68299Y6273
X68980Y6666
X70843Y6370
X71236Y5688
X69930Y5036
X69249Y4643
X68030Y8306
X67349Y7913
X67080Y9946
X66399Y9553
X75220Y6013
X75220Y5226
X77339Y14055
X77339Y14843
X56080
X56080Y14055
X34820
X34820Y14843
X13560
X13560Y14055
T04
X7280Y3499
X11760
X28540
X33020
X49800
X54280
X71060
X75540
T05
X13525Y4360
X14017Y5212
X14509Y6064
X15001Y6917
X15493Y7769
X15985Y8622
X16477Y9474
X16970Y10326
X38229
X37737Y9474
X37245Y8622
X36753Y7769
X36261Y6917
X35769Y6064
X35277Y5212
X34785Y4360
X56044
X56537Y5212
X57029Y6064
X57521Y6917
X58013Y7769
X58505Y8622
X58997Y9474
X59489Y10326
X79765Y8622
X79273Y7769
X78781Y6917
X78288Y6064
X77796Y5212
X77304Y4360
X80257Y9474
X80749Y10326
T06
X68476Y11428
X78136
X56876
X47216
X35616
X25956
X14357
X4697
T07
X9517Y3619
X30776
X52036
X73296
X79436Y14249
X67156
X58176
X45896
X36916
X24636
X15657
X3377
T08
X73296Y10709
X52036
X30776
X9517
T09
X1329Y1329
X81499Y1358
Y21917
X1329Y21888
M30
