G04 Layer_Color=32896*
%FSLAX24Y24*%
%MOIN*%
G70*
G01*
G75*
%ADD63C,0.0157*%
%ADD64C,0.0433*%
%ADD66C,0.0077*%
D63*
X12457Y13346D02*
X14150D01*
X12457D02*
X12457Y14055D01*
X12457Y14843D01*
X12457Y15551D02*
X12457Y14843D01*
X12457Y15551D02*
X14150D01*
Y13346D02*
Y14213D01*
X13835D02*
X14150D01*
X13835Y14685D02*
X13835Y14213D01*
X13835Y14685D02*
X14150Y14685D01*
Y15551D01*
X6857Y4524D02*
X8323Y5370D01*
X6502Y5137D02*
X6857Y4524D01*
X6108Y5819D02*
X6502Y5137D01*
X5754Y6433D02*
X6108Y5819D01*
X5754Y6433D02*
X7220Y7279D01*
X7890Y6120D02*
X8323Y5370D01*
X7617Y5963D02*
X7890Y6120D01*
X7381Y6372D02*
X7617Y5963D01*
X7381Y6372D02*
X7653Y6529D01*
X7220Y7279D02*
X7653Y6529D01*
X10849Y6722D02*
X12542D01*
Y6013D02*
Y6722D01*
Y5226D02*
Y6013D01*
Y4517D02*
Y5226D01*
X10849Y4517D02*
X12542D01*
X10849Y5856D02*
Y6722D01*
Y5856D02*
X11164Y5856D01*
Y5383D02*
Y5856D01*
X10849Y5383D02*
X11164D01*
X10849Y4517D02*
Y5383D01*
X33717Y13346D02*
X35410D01*
X33717D02*
X33717Y14055D01*
X33717Y14843D01*
X33717Y15551D02*
X33717Y14843D01*
X33717Y15551D02*
X35410D01*
Y13346D02*
Y14213D01*
X35095D02*
X35410D01*
X35095Y14685D02*
X35095Y14213D01*
X35095Y14685D02*
X35410Y14685D01*
Y15551D01*
X28116Y4524D02*
X29582Y5370D01*
X27762Y5137D02*
X28116Y4524D01*
X27368Y5819D02*
X27762Y5137D01*
X27014Y6433D02*
X27368Y5819D01*
X27014Y6433D02*
X28480Y7279D01*
X29149Y6120D02*
X29582Y5370D01*
X28877Y5963D02*
X29149Y6120D01*
X28640Y6372D02*
X28877Y5963D01*
X28640Y6372D02*
X28913Y6529D01*
X28480Y7279D02*
X28913Y6529D01*
X32109Y6722D02*
X33802D01*
Y6013D02*
Y6722D01*
Y5226D02*
Y6013D01*
Y4517D02*
Y5226D01*
X32109Y4517D02*
X33802D01*
X32109Y5856D02*
Y6722D01*
Y5856D02*
X32424Y5856D01*
Y5383D02*
Y5856D01*
X32109Y5383D02*
X32424D01*
X32109Y4517D02*
Y5383D01*
X54977Y13346D02*
X56670D01*
X54977D02*
X54977Y14055D01*
X54977Y14843D01*
X54977Y15551D02*
X54977Y14843D01*
X54977Y15551D02*
X56670D01*
Y13346D02*
Y14213D01*
X56355D02*
X56670D01*
X56355Y14685D02*
X56355Y14213D01*
X56355Y14685D02*
X56670Y14685D01*
Y15551D01*
X49376Y4524D02*
X50842Y5370D01*
X49022Y5137D02*
X49376Y4524D01*
X48628Y5819D02*
X49022Y5137D01*
X48274Y6433D02*
X48628Y5819D01*
X48274Y6433D02*
X49740Y7279D01*
X50409Y6120D02*
X50842Y5370D01*
X50136Y5963D02*
X50409Y6120D01*
X49900Y6372D02*
X50136Y5963D01*
X49900Y6372D02*
X50173Y6529D01*
X49740Y7279D02*
X50173Y6529D01*
X53369Y6722D02*
X55062D01*
Y6013D02*
Y6722D01*
Y5226D02*
Y6013D01*
Y4517D02*
Y5226D01*
X53369Y4517D02*
X55062D01*
X53369Y5856D02*
Y6722D01*
Y5856D02*
X53684Y5856D01*
Y5383D02*
Y5856D01*
X53369Y5383D02*
X53684D01*
X53369Y4517D02*
Y5383D01*
X76237Y13346D02*
X77930D01*
X76237D02*
X76237Y14055D01*
X76237Y14843D01*
X76237Y15551D02*
X76237Y14843D01*
X76237Y15551D02*
X77930D01*
Y13346D02*
Y14213D01*
X77615D02*
X77930D01*
X77615Y14685D02*
X77615Y14213D01*
X77615Y14685D02*
X77930Y14685D01*
Y15551D01*
X70636Y4524D02*
X72102Y5370D01*
X70282Y5137D02*
X70636Y4524D01*
X69888Y5819D02*
X70282Y5137D01*
X69534Y6433D02*
X69888Y5819D01*
X69534Y6433D02*
X71000Y7279D01*
X71669Y6120D02*
X72102Y5370D01*
X71396Y5963D02*
X71669Y6120D01*
X71160Y6372D02*
X71396Y5963D01*
X71160Y6372D02*
X71433Y6529D01*
X71000Y7279D02*
X71433Y6529D01*
X74629Y6722D02*
X76322D01*
Y6013D02*
Y6722D01*
Y5226D02*
Y6013D01*
Y4517D02*
Y5226D01*
X74629Y4517D02*
X76322D01*
X74629Y5856D02*
Y6722D01*
Y5856D02*
X74944Y5856D01*
Y5383D02*
Y5856D01*
X74629Y5383D02*
X74944D01*
X74629Y4517D02*
Y5383D01*
D64*
X12103Y13504D02*
X12103Y13543D01*
X6451Y4517D02*
X6471Y4483D01*
X12897Y6525D02*
Y6564D01*
X33363Y13504D02*
X33363Y13543D01*
X27711Y4517D02*
X27731Y4483D01*
X34157Y6525D02*
Y6564D01*
X54623Y13504D02*
X54623Y13543D01*
X48971Y4517D02*
X48991Y4483D01*
X55416Y6525D02*
Y6564D01*
X75883Y13504D02*
X75883Y13543D01*
X70231Y4517D02*
X70250Y4483D01*
X76676Y6525D02*
Y6564D01*
D66*
X12100Y17243D02*
Y16833D01*
Y17243D02*
X11924D01*
X11866Y17223D01*
X11846Y17204D01*
X11827Y17165D01*
Y17126D01*
X11846Y17087D01*
X11866Y17067D01*
X11924Y17047D01*
X12100D01*
X11963D02*
X11827Y16833D01*
X11481Y17243D02*
X11735D01*
Y16833D01*
X11481D01*
X11735Y17047D02*
X11579D01*
X11413Y17243D02*
X11257Y16833D01*
X11100Y17243D02*
X11257Y16833D01*
X11048Y16696D02*
X10735D01*
X10448Y17184D02*
X10468Y17223D01*
X10526Y17243D01*
X10565D01*
X10624Y17223D01*
X10663Y17165D01*
X10682Y17067D01*
Y16969D01*
X10663Y16891D01*
X10624Y16852D01*
X10565Y16833D01*
X10546D01*
X10487Y16852D01*
X10448Y16891D01*
X10429Y16950D01*
Y16969D01*
X10448Y17028D01*
X10487Y17067D01*
X10546Y17087D01*
X10565D01*
X10624Y17067D01*
X10663Y17028D01*
X10682Y16969D01*
X10026Y16833D02*
X10183Y17243D01*
X10339Y16833D01*
X10280Y16969D02*
X10085D01*
X12489Y17849D02*
Y17439D01*
X12215Y17849D02*
Y17439D01*
X12489Y17654D02*
X12215D01*
X11848Y17849D02*
X12102D01*
Y17439D01*
X11848D01*
X12102Y17654D02*
X11946D01*
X11760Y17752D02*
Y17771D01*
X11741Y17810D01*
X11721Y17830D01*
X11682Y17849D01*
X11604D01*
X11565Y17830D01*
X11545Y17810D01*
X11526Y17771D01*
Y17732D01*
X11545Y17693D01*
X11585Y17635D01*
X11780Y17439D01*
X11506D01*
X11317Y17849D02*
X11376Y17830D01*
X11395Y17791D01*
Y17752D01*
X11376Y17713D01*
X11337Y17693D01*
X11258Y17674D01*
X11200Y17654D01*
X11161Y17615D01*
X11141Y17576D01*
Y17517D01*
X11161Y17478D01*
X11180Y17459D01*
X11239Y17439D01*
X11317D01*
X11376Y17459D01*
X11395Y17478D01*
X11415Y17517D01*
Y17576D01*
X11395Y17615D01*
X11356Y17654D01*
X11298Y17674D01*
X11219Y17693D01*
X11180Y17713D01*
X11161Y17752D01*
Y17791D01*
X11180Y17830D01*
X11239Y17849D01*
X11317D01*
X10932D02*
X10991Y17830D01*
X11030Y17771D01*
X11050Y17674D01*
Y17615D01*
X11030Y17517D01*
X10991Y17459D01*
X10932Y17439D01*
X10893D01*
X10835Y17459D01*
X10796Y17517D01*
X10776Y17615D01*
Y17674D01*
X10796Y17771D01*
X10835Y17830D01*
X10893Y17849D01*
X10932D01*
X10684Y17635D02*
X10509D01*
X10450Y17654D01*
X10431Y17674D01*
X10411Y17713D01*
Y17771D01*
X10431Y17810D01*
X10450Y17830D01*
X10509Y17849D01*
X10684D01*
Y17439D01*
X10026Y17752D02*
X10046Y17791D01*
X10085Y17830D01*
X10124Y17849D01*
X10202D01*
X10241Y17830D01*
X10280Y17791D01*
X10300Y17752D01*
X10319Y17693D01*
Y17596D01*
X10300Y17537D01*
X10280Y17498D01*
X10241Y17459D01*
X10202Y17439D01*
X10124D01*
X10085Y17459D01*
X10046Y17498D01*
X10026Y17537D01*
X9911Y17849D02*
Y17439D01*
Y17849D02*
X9736D01*
X9677Y17830D01*
X9657Y17810D01*
X9638Y17771D01*
Y17732D01*
X9657Y17693D01*
X9677Y17674D01*
X9736Y17654D01*
X9911D02*
X9736D01*
X9677Y17635D01*
X9657Y17615D01*
X9638Y17576D01*
Y17517D01*
X9657Y17478D01*
X9677Y17459D01*
X9736Y17439D01*
X9911D01*
X12961Y16499D02*
Y16089D01*
X12738Y16499D02*
Y16089D01*
X12875Y16499D02*
X12602D01*
X12299D02*
X12553D01*
Y16089D01*
X12299D01*
X12553Y16304D02*
X12397D01*
X12231Y16499D02*
Y16089D01*
Y16499D02*
X12075Y16089D01*
X11918Y16499D02*
X12075Y16089D01*
X11918Y16499D02*
Y16089D01*
X11323Y16499D02*
X11460Y15953D01*
X11206Y16499D02*
X11342Y15953D01*
X11460Y16285D02*
X11186D01*
X11479Y16167D02*
X11206D01*
X10497Y16499D02*
X10692Y16089D01*
X10770Y16499D02*
X10497D01*
X10405Y16421D02*
X10366Y16441D01*
X10308Y16499D01*
Y16089D01*
X10085Y16402D02*
Y16421D01*
X10065Y16460D01*
X10046Y16480D01*
X10007Y16499D01*
X9929D01*
X9890Y16480D01*
X9870Y16460D01*
X9851Y16421D01*
Y16382D01*
X9870Y16343D01*
X9909Y16285D01*
X10105Y16089D01*
X9831D01*
X9739Y16421D02*
X9700Y16441D01*
X9642Y16499D01*
Y16089D01*
X9322Y16499D02*
X9380Y16480D01*
X9419Y16421D01*
X9439Y16324D01*
Y16265D01*
X9419Y16167D01*
X9380Y16109D01*
X9322Y16089D01*
X9283D01*
X9224Y16109D01*
X9185Y16167D01*
X9165Y16265D01*
Y16324D01*
X9185Y16421D01*
X9224Y16480D01*
X9283Y16499D01*
X9322D01*
X12120Y14335D02*
X11944D01*
X11886Y14354D01*
X11866Y14374D01*
X11847Y14413D01*
Y14471D01*
X11866Y14510D01*
X11886Y14530D01*
X11944Y14549D01*
X12120D01*
Y14139D01*
X11755Y14549D02*
Y14139D01*
Y14549D02*
X11579D01*
X11521Y14530D01*
X11501Y14510D01*
X11482Y14471D01*
Y14432D01*
X11501Y14393D01*
X11521Y14374D01*
X11579Y14354D01*
X11755D01*
X11618D02*
X11482Y14139D01*
X11273Y14549D02*
X11312Y14530D01*
X11351Y14491D01*
X11370Y14452D01*
X11390Y14393D01*
Y14296D01*
X11370Y14237D01*
X11351Y14198D01*
X11312Y14159D01*
X11273Y14139D01*
X11195D01*
X11155Y14159D01*
X11116Y14198D01*
X11097Y14237D01*
X11077Y14296D01*
Y14393D01*
X11097Y14452D01*
X11116Y14491D01*
X11155Y14530D01*
X11195Y14549D01*
X11273D01*
X10982D02*
Y14139D01*
Y14549D02*
X10806D01*
X10747Y14530D01*
X10728Y14510D01*
X10708Y14471D01*
Y14432D01*
X10728Y14393D01*
X10747Y14374D01*
X10806Y14354D01*
X10982D02*
X10806D01*
X10747Y14335D01*
X10728Y14315D01*
X10708Y14276D01*
Y14217D01*
X10728Y14178D01*
X10747Y14159D01*
X10806Y14139D01*
X10982D01*
X10363Y14549D02*
X10617D01*
Y14139D01*
X10363D01*
X10617Y14354D02*
X10460D01*
X9323Y6429D02*
Y6019D01*
X9460Y6429D02*
X9187D01*
X8884D02*
X9138D01*
Y6019D01*
X8884D01*
X9138Y6234D02*
X8982D01*
X8816Y6429D02*
Y6019D01*
Y6429D02*
X8659Y6019D01*
X8503Y6429D02*
X8659Y6019D01*
X8503Y6429D02*
Y6019D01*
X8386Y6215D02*
X8210D01*
X8152Y6234D01*
X8132Y6254D01*
X8113Y6293D01*
Y6351D01*
X8132Y6390D01*
X8152Y6410D01*
X8210Y6429D01*
X8386D01*
Y6019D01*
X11270Y4289D02*
Y3879D01*
X11036D01*
X10737Y4289D02*
X10991D01*
Y3879D01*
X10737D01*
X10991Y4094D02*
X10835D01*
X10669Y4289D02*
Y3879D01*
Y4289D02*
X10532D01*
X10473Y4270D01*
X10434Y4231D01*
X10415Y4192D01*
X10395Y4133D01*
Y4036D01*
X10415Y3977D01*
X10434Y3938D01*
X10473Y3899D01*
X10532Y3879D01*
X10669D01*
X33360Y17243D02*
Y16833D01*
Y17243D02*
X33184D01*
X33126Y17223D01*
X33106Y17204D01*
X33086Y17165D01*
Y17126D01*
X33106Y17087D01*
X33126Y17067D01*
X33184Y17047D01*
X33360D01*
X33223D02*
X33086Y16833D01*
X32741Y17243D02*
X32995D01*
Y16833D01*
X32741D01*
X32995Y17047D02*
X32839D01*
X32673Y17243D02*
X32516Y16833D01*
X32360Y17243D02*
X32516Y16833D01*
X32307Y16696D02*
X31995D01*
X31708Y17184D02*
X31728Y17223D01*
X31786Y17243D01*
X31825D01*
X31884Y17223D01*
X31923Y17165D01*
X31942Y17067D01*
Y16969D01*
X31923Y16891D01*
X31884Y16852D01*
X31825Y16833D01*
X31806D01*
X31747Y16852D01*
X31708Y16891D01*
X31688Y16950D01*
Y16969D01*
X31708Y17028D01*
X31747Y17067D01*
X31806Y17087D01*
X31825D01*
X31884Y17067D01*
X31923Y17028D01*
X31942Y16969D01*
X31286Y16833D02*
X31442Y17243D01*
X31599Y16833D01*
X31540Y16969D02*
X31345D01*
X33748Y17849D02*
Y17439D01*
X33475Y17849D02*
Y17439D01*
X33748Y17654D02*
X33475D01*
X33108Y17849D02*
X33362D01*
Y17439D01*
X33108D01*
X33362Y17654D02*
X33206D01*
X33020Y17752D02*
Y17771D01*
X33001Y17810D01*
X32981Y17830D01*
X32942Y17849D01*
X32864D01*
X32825Y17830D01*
X32805Y17810D01*
X32786Y17771D01*
Y17732D01*
X32805Y17693D01*
X32844Y17635D01*
X33040Y17439D01*
X32766D01*
X32577Y17849D02*
X32635Y17830D01*
X32655Y17791D01*
Y17752D01*
X32635Y17713D01*
X32596Y17693D01*
X32518Y17674D01*
X32460Y17654D01*
X32421Y17615D01*
X32401Y17576D01*
Y17517D01*
X32421Y17478D01*
X32440Y17459D01*
X32499Y17439D01*
X32577D01*
X32635Y17459D01*
X32655Y17478D01*
X32675Y17517D01*
Y17576D01*
X32655Y17615D01*
X32616Y17654D01*
X32557Y17674D01*
X32479Y17693D01*
X32440Y17713D01*
X32421Y17752D01*
Y17791D01*
X32440Y17830D01*
X32499Y17849D01*
X32577D01*
X32192D02*
X32251Y17830D01*
X32290Y17771D01*
X32309Y17674D01*
Y17615D01*
X32290Y17517D01*
X32251Y17459D01*
X32192Y17439D01*
X32153D01*
X32095Y17459D01*
X32056Y17517D01*
X32036Y17615D01*
Y17674D01*
X32056Y17771D01*
X32095Y17830D01*
X32153Y17849D01*
X32192D01*
X31944Y17635D02*
X31769D01*
X31710Y17654D01*
X31690Y17674D01*
X31671Y17713D01*
Y17771D01*
X31690Y17810D01*
X31710Y17830D01*
X31769Y17849D01*
X31944D01*
Y17439D01*
X31286Y17752D02*
X31306Y17791D01*
X31345Y17830D01*
X31384Y17849D01*
X31462D01*
X31501Y17830D01*
X31540Y17791D01*
X31560Y17752D01*
X31579Y17693D01*
Y17596D01*
X31560Y17537D01*
X31540Y17498D01*
X31501Y17459D01*
X31462Y17439D01*
X31384D01*
X31345Y17459D01*
X31306Y17498D01*
X31286Y17537D01*
X31171Y17849D02*
Y17439D01*
Y17849D02*
X30995D01*
X30937Y17830D01*
X30917Y17810D01*
X30898Y17771D01*
Y17732D01*
X30917Y17693D01*
X30937Y17674D01*
X30995Y17654D01*
X31171D02*
X30995D01*
X30937Y17635D01*
X30917Y17615D01*
X30898Y17576D01*
Y17517D01*
X30917Y17478D01*
X30937Y17459D01*
X30995Y17439D01*
X31171D01*
X34221Y16499D02*
Y16089D01*
X33998Y16499D02*
Y16089D01*
X34135Y16499D02*
X33862D01*
X33559D02*
X33813D01*
Y16089D01*
X33559D01*
X33813Y16304D02*
X33657D01*
X33491Y16499D02*
Y16089D01*
Y16499D02*
X33334Y16089D01*
X33178Y16499D02*
X33334Y16089D01*
X33178Y16499D02*
Y16089D01*
X32583Y16499D02*
X32719Y15953D01*
X32466Y16499D02*
X32602Y15953D01*
X32719Y16285D02*
X32446D01*
X32739Y16167D02*
X32466D01*
X31757Y16499D02*
X31952Y16089D01*
X32030Y16499D02*
X31757D01*
X31665Y16421D02*
X31626Y16441D01*
X31567Y16499D01*
Y16089D01*
X31345Y16402D02*
Y16421D01*
X31325Y16460D01*
X31306Y16480D01*
X31267Y16499D01*
X31189D01*
X31150Y16480D01*
X31130Y16460D01*
X31111Y16421D01*
Y16382D01*
X31130Y16343D01*
X31169Y16285D01*
X31364Y16089D01*
X31091D01*
X30999Y16421D02*
X30960Y16441D01*
X30902Y16499D01*
Y16089D01*
X30581Y16499D02*
X30640Y16480D01*
X30679Y16421D01*
X30699Y16324D01*
Y16265D01*
X30679Y16167D01*
X30640Y16109D01*
X30581Y16089D01*
X30542D01*
X30484Y16109D01*
X30445Y16167D01*
X30425Y16265D01*
Y16324D01*
X30445Y16421D01*
X30484Y16480D01*
X30542Y16499D01*
X30581D01*
X33380Y14335D02*
X33204D01*
X33146Y14354D01*
X33126Y14374D01*
X33106Y14413D01*
Y14471D01*
X33126Y14510D01*
X33146Y14530D01*
X33204Y14549D01*
X33380D01*
Y14139D01*
X33015Y14549D02*
Y14139D01*
Y14549D02*
X32839D01*
X32780Y14530D01*
X32761Y14510D01*
X32741Y14471D01*
Y14432D01*
X32761Y14393D01*
X32780Y14374D01*
X32839Y14354D01*
X33015D01*
X32878D02*
X32741Y14139D01*
X32532Y14549D02*
X32572Y14530D01*
X32611Y14491D01*
X32630Y14452D01*
X32650Y14393D01*
Y14296D01*
X32630Y14237D01*
X32611Y14198D01*
X32572Y14159D01*
X32532Y14139D01*
X32454D01*
X32415Y14159D01*
X32376Y14198D01*
X32357Y14237D01*
X32337Y14296D01*
Y14393D01*
X32357Y14452D01*
X32376Y14491D01*
X32415Y14530D01*
X32454Y14549D01*
X32532D01*
X32242D02*
Y14139D01*
Y14549D02*
X32066D01*
X32007Y14530D01*
X31988Y14510D01*
X31968Y14471D01*
Y14432D01*
X31988Y14393D01*
X32007Y14374D01*
X32066Y14354D01*
X32242D02*
X32066D01*
X32007Y14335D01*
X31988Y14315D01*
X31968Y14276D01*
Y14217D01*
X31988Y14178D01*
X32007Y14159D01*
X32066Y14139D01*
X32242D01*
X31623Y14549D02*
X31876D01*
Y14139D01*
X31623D01*
X31876Y14354D02*
X31720D01*
X30583Y6429D02*
Y6019D01*
X30720Y6429D02*
X30446D01*
X30144D02*
X30398D01*
Y6019D01*
X30144D01*
X30398Y6234D02*
X30241D01*
X30076Y6429D02*
Y6019D01*
Y6429D02*
X29919Y6019D01*
X29763Y6429D02*
X29919Y6019D01*
X29763Y6429D02*
Y6019D01*
X29646Y6215D02*
X29470D01*
X29412Y6234D01*
X29392Y6254D01*
X29373Y6293D01*
Y6351D01*
X29392Y6390D01*
X29412Y6410D01*
X29470Y6429D01*
X29646D01*
Y6019D01*
X32530Y4289D02*
Y3879D01*
X32296D01*
X31997Y4289D02*
X32251D01*
Y3879D01*
X31997D01*
X32251Y4094D02*
X32094D01*
X31928Y4289D02*
Y3879D01*
Y4289D02*
X31792D01*
X31733Y4270D01*
X31694Y4231D01*
X31675Y4192D01*
X31655Y4133D01*
Y4036D01*
X31675Y3977D01*
X31694Y3938D01*
X31733Y3899D01*
X31792Y3879D01*
X31928D01*
X54620Y17243D02*
Y16833D01*
Y17243D02*
X54444D01*
X54385Y17223D01*
X54366Y17204D01*
X54346Y17165D01*
Y17126D01*
X54366Y17087D01*
X54385Y17067D01*
X54444Y17047D01*
X54620D01*
X54483D02*
X54346Y16833D01*
X54001Y17243D02*
X54255D01*
Y16833D01*
X54001D01*
X54255Y17047D02*
X54098D01*
X53932Y17243D02*
X53776Y16833D01*
X53620Y17243D02*
X53776Y16833D01*
X53567Y16696D02*
X53255D01*
X52968Y17184D02*
X52987Y17223D01*
X53046Y17243D01*
X53085D01*
X53144Y17223D01*
X53183Y17165D01*
X53202Y17067D01*
Y16969D01*
X53183Y16891D01*
X53144Y16852D01*
X53085Y16833D01*
X53065D01*
X53007Y16852D01*
X52968Y16891D01*
X52948Y16950D01*
Y16969D01*
X52968Y17028D01*
X53007Y17067D01*
X53065Y17087D01*
X53085D01*
X53144Y17067D01*
X53183Y17028D01*
X53202Y16969D01*
X52546Y16833D02*
X52702Y17243D01*
X52859Y16833D01*
X52800Y16969D02*
X52605D01*
X55008Y17849D02*
Y17439D01*
X54735Y17849D02*
Y17439D01*
X55008Y17654D02*
X54735D01*
X54368Y17849D02*
X54622D01*
Y17439D01*
X54368D01*
X54622Y17654D02*
X54465D01*
X54280Y17752D02*
Y17771D01*
X54260Y17810D01*
X54241Y17830D01*
X54202Y17849D01*
X54124D01*
X54085Y17830D01*
X54065Y17810D01*
X54046Y17771D01*
Y17732D01*
X54065Y17693D01*
X54104Y17635D01*
X54299Y17439D01*
X54026D01*
X53837Y17849D02*
X53895Y17830D01*
X53915Y17791D01*
Y17752D01*
X53895Y17713D01*
X53856Y17693D01*
X53778Y17674D01*
X53720Y17654D01*
X53681Y17615D01*
X53661Y17576D01*
Y17517D01*
X53681Y17478D01*
X53700Y17459D01*
X53759Y17439D01*
X53837D01*
X53895Y17459D01*
X53915Y17478D01*
X53934Y17517D01*
Y17576D01*
X53915Y17615D01*
X53876Y17654D01*
X53817Y17674D01*
X53739Y17693D01*
X53700Y17713D01*
X53681Y17752D01*
Y17791D01*
X53700Y17830D01*
X53759Y17849D01*
X53837D01*
X53452D02*
X53511Y17830D01*
X53550Y17771D01*
X53569Y17674D01*
Y17615D01*
X53550Y17517D01*
X53511Y17459D01*
X53452Y17439D01*
X53413D01*
X53354Y17459D01*
X53315Y17517D01*
X53296Y17615D01*
Y17674D01*
X53315Y17771D01*
X53354Y17830D01*
X53413Y17849D01*
X53452D01*
X53204Y17635D02*
X53028D01*
X52970Y17654D01*
X52950Y17674D01*
X52931Y17713D01*
Y17771D01*
X52950Y17810D01*
X52970Y17830D01*
X53028Y17849D01*
X53204D01*
Y17439D01*
X52546Y17752D02*
X52566Y17791D01*
X52605Y17830D01*
X52644Y17849D01*
X52722D01*
X52761Y17830D01*
X52800Y17791D01*
X52819Y17752D01*
X52839Y17693D01*
Y17596D01*
X52819Y17537D01*
X52800Y17498D01*
X52761Y17459D01*
X52722Y17439D01*
X52644D01*
X52605Y17459D01*
X52566Y17498D01*
X52546Y17537D01*
X52431Y17849D02*
Y17439D01*
Y17849D02*
X52255D01*
X52197Y17830D01*
X52177Y17810D01*
X52158Y17771D01*
Y17732D01*
X52177Y17693D01*
X52197Y17674D01*
X52255Y17654D01*
X52431D02*
X52255D01*
X52197Y17635D01*
X52177Y17615D01*
X52158Y17576D01*
Y17517D01*
X52177Y17478D01*
X52197Y17459D01*
X52255Y17439D01*
X52431D01*
X55481Y16499D02*
Y16089D01*
X55258Y16499D02*
Y16089D01*
X55395Y16499D02*
X55121D01*
X54819D02*
X55073D01*
Y16089D01*
X54819D01*
X55073Y16304D02*
X54916D01*
X54750Y16499D02*
Y16089D01*
Y16499D02*
X54594Y16089D01*
X54438Y16499D02*
X54594Y16089D01*
X54438Y16499D02*
Y16089D01*
X53843Y16499D02*
X53979Y15953D01*
X53725Y16499D02*
X53862Y15953D01*
X53979Y16285D02*
X53706D01*
X53999Y16167D02*
X53725D01*
X53017Y16499D02*
X53212Y16089D01*
X53290Y16499D02*
X53017D01*
X52925Y16421D02*
X52886Y16441D01*
X52827Y16499D01*
Y16089D01*
X52605Y16402D02*
Y16421D01*
X52585Y16460D01*
X52566Y16480D01*
X52527Y16499D01*
X52449D01*
X52409Y16480D01*
X52390Y16460D01*
X52370Y16421D01*
Y16382D01*
X52390Y16343D01*
X52429Y16285D01*
X52624Y16089D01*
X52351D01*
X52259Y16421D02*
X52220Y16441D01*
X52161Y16499D01*
Y16089D01*
X51841Y16499D02*
X51900Y16480D01*
X51939Y16421D01*
X51958Y16324D01*
Y16265D01*
X51939Y16167D01*
X51900Y16109D01*
X51841Y16089D01*
X51802D01*
X51744Y16109D01*
X51705Y16167D01*
X51685Y16265D01*
Y16324D01*
X51705Y16421D01*
X51744Y16480D01*
X51802Y16499D01*
X51841D01*
X54640Y14335D02*
X54464D01*
X54405Y14354D01*
X54386Y14374D01*
X54366Y14413D01*
Y14471D01*
X54386Y14510D01*
X54405Y14530D01*
X54464Y14549D01*
X54640D01*
Y14139D01*
X54275Y14549D02*
Y14139D01*
Y14549D02*
X54099D01*
X54040Y14530D01*
X54021Y14510D01*
X54001Y14471D01*
Y14432D01*
X54021Y14393D01*
X54040Y14374D01*
X54099Y14354D01*
X54275D01*
X54138D02*
X54001Y14139D01*
X53792Y14549D02*
X53831Y14530D01*
X53870Y14491D01*
X53890Y14452D01*
X53909Y14393D01*
Y14296D01*
X53890Y14237D01*
X53870Y14198D01*
X53831Y14159D01*
X53792Y14139D01*
X53714D01*
X53675Y14159D01*
X53636Y14198D01*
X53617Y14237D01*
X53597Y14296D01*
Y14393D01*
X53617Y14452D01*
X53636Y14491D01*
X53675Y14530D01*
X53714Y14549D01*
X53792D01*
X53501D02*
Y14139D01*
Y14549D02*
X53326D01*
X53267Y14530D01*
X53248Y14510D01*
X53228Y14471D01*
Y14432D01*
X53248Y14393D01*
X53267Y14374D01*
X53326Y14354D01*
X53501D02*
X53326D01*
X53267Y14335D01*
X53248Y14315D01*
X53228Y14276D01*
Y14217D01*
X53248Y14178D01*
X53267Y14159D01*
X53326Y14139D01*
X53501D01*
X52882Y14549D02*
X53136D01*
Y14139D01*
X52882D01*
X53136Y14354D02*
X52980D01*
X51843Y6429D02*
Y6019D01*
X51980Y6429D02*
X51706D01*
X51404D02*
X51658D01*
Y6019D01*
X51404D01*
X51658Y6234D02*
X51501D01*
X51335Y6429D02*
Y6019D01*
Y6429D02*
X51179Y6019D01*
X51023Y6429D02*
X51179Y6019D01*
X51023Y6429D02*
Y6019D01*
X50906Y6215D02*
X50730D01*
X50672Y6234D01*
X50652Y6254D01*
X50632Y6293D01*
Y6351D01*
X50652Y6390D01*
X50672Y6410D01*
X50730Y6429D01*
X50906D01*
Y6019D01*
X53790Y4289D02*
Y3879D01*
X53555D01*
X53257Y4289D02*
X53510D01*
Y3879D01*
X53257D01*
X53510Y4094D02*
X53354D01*
X53188Y4289D02*
Y3879D01*
Y4289D02*
X53052D01*
X52993Y4270D01*
X52954Y4231D01*
X52934Y4192D01*
X52915Y4133D01*
Y4036D01*
X52934Y3977D01*
X52954Y3938D01*
X52993Y3899D01*
X53052Y3879D01*
X53188D01*
X75880Y17243D02*
Y16833D01*
Y17243D02*
X75704D01*
X75645Y17223D01*
X75626Y17204D01*
X75606Y17165D01*
Y17126D01*
X75626Y17087D01*
X75645Y17067D01*
X75704Y17047D01*
X75880D01*
X75743D02*
X75606Y16833D01*
X75261Y17243D02*
X75514D01*
Y16833D01*
X75261D01*
X75514Y17047D02*
X75358D01*
X75192Y17243D02*
X75036Y16833D01*
X74880Y17243D02*
X75036Y16833D01*
X74827Y16696D02*
X74515D01*
X74228Y17184D02*
X74247Y17223D01*
X74306Y17243D01*
X74345D01*
X74403Y17223D01*
X74442Y17165D01*
X74462Y17067D01*
Y16969D01*
X74442Y16891D01*
X74403Y16852D01*
X74345Y16833D01*
X74325D01*
X74267Y16852D01*
X74228Y16891D01*
X74208Y16950D01*
Y16969D01*
X74228Y17028D01*
X74267Y17067D01*
X74325Y17087D01*
X74345D01*
X74403Y17067D01*
X74442Y17028D01*
X74462Y16969D01*
X73806Y16833D02*
X73962Y17243D01*
X74118Y16833D01*
X74060Y16969D02*
X73865D01*
X76268Y17849D02*
Y17439D01*
X75995Y17849D02*
Y17439D01*
X76268Y17654D02*
X75995D01*
X75628Y17849D02*
X75881D01*
Y17439D01*
X75628D01*
X75881Y17654D02*
X75725D01*
X75540Y17752D02*
Y17771D01*
X75520Y17810D01*
X75501Y17830D01*
X75462Y17849D01*
X75384D01*
X75345Y17830D01*
X75325Y17810D01*
X75305Y17771D01*
Y17732D01*
X75325Y17693D01*
X75364Y17635D01*
X75559Y17439D01*
X75286D01*
X75097Y17849D02*
X75155Y17830D01*
X75175Y17791D01*
Y17752D01*
X75155Y17713D01*
X75116Y17693D01*
X75038Y17674D01*
X74979Y17654D01*
X74940Y17615D01*
X74921Y17576D01*
Y17517D01*
X74940Y17478D01*
X74960Y17459D01*
X75018Y17439D01*
X75097D01*
X75155Y17459D01*
X75175Y17478D01*
X75194Y17517D01*
Y17576D01*
X75175Y17615D01*
X75136Y17654D01*
X75077Y17674D01*
X74999Y17693D01*
X74960Y17713D01*
X74940Y17752D01*
Y17791D01*
X74960Y17830D01*
X75018Y17849D01*
X75097D01*
X74712D02*
X74771Y17830D01*
X74810Y17771D01*
X74829Y17674D01*
Y17615D01*
X74810Y17517D01*
X74771Y17459D01*
X74712Y17439D01*
X74673D01*
X74614Y17459D01*
X74575Y17517D01*
X74556Y17615D01*
Y17674D01*
X74575Y17771D01*
X74614Y17830D01*
X74673Y17849D01*
X74712D01*
X74464Y17635D02*
X74288D01*
X74230Y17654D01*
X74210Y17674D01*
X74191Y17713D01*
Y17771D01*
X74210Y17810D01*
X74230Y17830D01*
X74288Y17849D01*
X74464D01*
Y17439D01*
X73806Y17752D02*
X73825Y17791D01*
X73865Y17830D01*
X73904Y17849D01*
X73982D01*
X74021Y17830D01*
X74060Y17791D01*
X74079Y17752D01*
X74099Y17693D01*
Y17596D01*
X74079Y17537D01*
X74060Y17498D01*
X74021Y17459D01*
X73982Y17439D01*
X73904D01*
X73865Y17459D01*
X73825Y17498D01*
X73806Y17537D01*
X73691Y17849D02*
Y17439D01*
Y17849D02*
X73515D01*
X73456Y17830D01*
X73437Y17810D01*
X73417Y17771D01*
Y17732D01*
X73437Y17693D01*
X73456Y17674D01*
X73515Y17654D01*
X73691D02*
X73515D01*
X73456Y17635D01*
X73437Y17615D01*
X73417Y17576D01*
Y17517D01*
X73437Y17478D01*
X73456Y17459D01*
X73515Y17439D01*
X73691D01*
X76741Y16499D02*
Y16089D01*
X76518Y16499D02*
Y16089D01*
X76655Y16499D02*
X76381D01*
X76079D02*
X76333D01*
Y16089D01*
X76079D01*
X76333Y16304D02*
X76176D01*
X76010Y16499D02*
Y16089D01*
Y16499D02*
X75854Y16089D01*
X75698Y16499D02*
X75854Y16089D01*
X75698Y16499D02*
Y16089D01*
X75102Y16499D02*
X75239Y15953D01*
X74985Y16499D02*
X75122Y15953D01*
X75239Y16285D02*
X74966D01*
X75259Y16167D02*
X74985D01*
X74277Y16499D02*
X74472Y16089D01*
X74550Y16499D02*
X74277D01*
X74185Y16421D02*
X74146Y16441D01*
X74087Y16499D01*
Y16089D01*
X73865Y16402D02*
Y16421D01*
X73845Y16460D01*
X73825Y16480D01*
X73786Y16499D01*
X73708D01*
X73669Y16480D01*
X73650Y16460D01*
X73630Y16421D01*
Y16382D01*
X73650Y16343D01*
X73689Y16285D01*
X73884Y16089D01*
X73611D01*
X73519Y16421D02*
X73480Y16441D01*
X73421Y16499D01*
Y16089D01*
X73101Y16499D02*
X73160Y16480D01*
X73199Y16421D01*
X73218Y16324D01*
Y16265D01*
X73199Y16167D01*
X73160Y16109D01*
X73101Y16089D01*
X73062D01*
X73003Y16109D01*
X72964Y16167D01*
X72945Y16265D01*
Y16324D01*
X72964Y16421D01*
X73003Y16480D01*
X73062Y16499D01*
X73101D01*
X75900Y14335D02*
X75724D01*
X75665Y14354D01*
X75646Y14374D01*
X75626Y14413D01*
Y14471D01*
X75646Y14510D01*
X75665Y14530D01*
X75724Y14549D01*
X75900D01*
Y14139D01*
X75534Y14549D02*
Y14139D01*
Y14549D02*
X75359D01*
X75300Y14530D01*
X75281Y14510D01*
X75261Y14471D01*
Y14432D01*
X75281Y14393D01*
X75300Y14374D01*
X75359Y14354D01*
X75534D01*
X75398D02*
X75261Y14139D01*
X75052Y14549D02*
X75091Y14530D01*
X75130Y14491D01*
X75150Y14452D01*
X75169Y14393D01*
Y14296D01*
X75150Y14237D01*
X75130Y14198D01*
X75091Y14159D01*
X75052Y14139D01*
X74974D01*
X74935Y14159D01*
X74896Y14198D01*
X74876Y14237D01*
X74857Y14296D01*
Y14393D01*
X74876Y14452D01*
X74896Y14491D01*
X74935Y14530D01*
X74974Y14549D01*
X75052D01*
X74761D02*
Y14139D01*
Y14549D02*
X74585D01*
X74527Y14530D01*
X74507Y14510D01*
X74488Y14471D01*
Y14432D01*
X74507Y14393D01*
X74527Y14374D01*
X74585Y14354D01*
X74761D02*
X74585D01*
X74527Y14335D01*
X74507Y14315D01*
X74488Y14276D01*
Y14217D01*
X74507Y14178D01*
X74527Y14159D01*
X74585Y14139D01*
X74761D01*
X74142Y14549D02*
X74396D01*
Y14139D01*
X74142D01*
X74396Y14354D02*
X74240D01*
X73103Y6429D02*
Y6019D01*
X73240Y6429D02*
X72966D01*
X72664D02*
X72917D01*
Y6019D01*
X72664D01*
X72917Y6234D02*
X72761D01*
X72595Y6429D02*
Y6019D01*
Y6429D02*
X72439Y6019D01*
X72283Y6429D02*
X72439Y6019D01*
X72283Y6429D02*
Y6019D01*
X72166Y6215D02*
X71990D01*
X71931Y6234D01*
X71912Y6254D01*
X71892Y6293D01*
Y6351D01*
X71912Y6390D01*
X71931Y6410D01*
X71990Y6429D01*
X72166D01*
Y6019D01*
X75050Y4289D02*
Y3879D01*
X74815D01*
X74517Y4289D02*
X74770D01*
Y3879D01*
X74517D01*
X74770Y4094D02*
X74614D01*
X74448Y4289D02*
Y3879D01*
Y4289D02*
X74311D01*
X74253Y4270D01*
X74214Y4231D01*
X74194Y4192D01*
X74175Y4133D01*
Y4036D01*
X74194Y3977D01*
X74214Y3938D01*
X74253Y3899D01*
X74311Y3879D01*
X74448D01*
M02*
