G04 Layer_Color=0*
%FSLAX24Y24*%
%MOIN*%
G70*
G01*
G75*
%ADD36C,0.0080*%
%ADD148C,0.0055*%
D36*
X0Y2539D02*
X4800D01*
X14233D02*
X26060D01*
X35493D02*
X47320D01*
X56753D02*
X68580D01*
X78013D02*
X82828D01*
X75100Y20559D02*
X82828D01*
X53808D02*
X71524D01*
X32548D02*
X50265D01*
X11300D02*
X29000D01*
X0D02*
X7745D01*
D148*
X7154Y19969D02*
X7154Y19469D01*
X7134Y19316D02*
X7154Y19469D01*
X7075Y19173D02*
X7134Y19316D01*
X6981Y19051D02*
X7075Y19173D01*
X6859Y18957D02*
X6981Y19051D01*
X6717Y18898D02*
X6859Y18957D01*
X6564Y18878D02*
X6717Y18898D01*
X4800Y18878D02*
X6564Y18878D01*
X3834Y17206D02*
X4800Y18878D01*
X3834Y17206D02*
X5530Y16227D01*
X5783Y15974D01*
X5875Y15630D01*
X5783Y15285D02*
X5875Y15630D01*
X5530Y15033D02*
X5783Y15285D01*
X5186Y14941D02*
X5530Y15033D01*
X4841Y15033D02*
X5186Y14941D01*
X3146Y16012D02*
X4841Y15033D01*
X83Y10709D02*
X3146Y16012D01*
X83Y10709D02*
X965Y9181D01*
X1024Y9039D01*
X1044Y8886D01*
X1024Y8733D02*
X1044Y8886D01*
X965Y8591D02*
X1024Y8733D01*
X871Y8468D02*
X965Y8591D01*
X749Y8374D02*
X871Y8468D01*
X316Y8124D02*
X749Y8374D01*
X194Y8031D02*
X316Y8124D01*
X100Y7908D02*
X194Y8031D01*
X41Y7766D02*
X100Y7908D01*
X21Y7613D02*
X41Y7766D01*
X21Y7613D02*
X41Y7460D01*
X100Y7318D01*
X1872Y4249D01*
X1965Y4127D01*
X2088Y4033D01*
X2230Y3974D01*
X2383Y3954D01*
X2536Y3974D01*
X2678Y4033D01*
X3111Y4283D01*
X3254Y4342D01*
X3407Y4362D01*
X3560Y4342D01*
X3702Y4283D01*
X3824Y4189D01*
X3918Y4067D01*
X4800Y2539D01*
X14233D02*
X15115Y4067D01*
X15209Y4189D01*
X15331Y4283D01*
X15474Y4342D01*
X15626Y4362D01*
X15779Y4342D01*
X15922Y4283D01*
X16355Y4033D01*
X16497Y3974D01*
X16650Y3954D01*
X16803Y3974D01*
X16945Y4033D01*
X17068Y4127D01*
X17161Y4249D01*
X18933Y7318D01*
X18992Y7460D01*
X19012Y7613D01*
X18992Y7766D02*
X19012Y7613D01*
X18933Y7908D02*
X18992Y7766D01*
X18839Y8031D02*
X18933Y7908D01*
X18717Y8124D02*
X18839Y8031D01*
X18284Y8374D02*
X18717Y8124D01*
X18162Y8468D02*
X18284Y8374D01*
X18068Y8591D02*
X18162Y8468D01*
X18009Y8733D02*
X18068Y8591D01*
X17989Y8886D02*
X18009Y8733D01*
X17989Y8886D02*
X18009Y9039D01*
X18068Y9181D01*
X18950Y10709D01*
X14233Y18878D02*
X18950Y10709D01*
X12469Y18878D02*
X14233D01*
X12316Y18898D02*
X12469Y18878D01*
X12174Y18957D02*
X12316Y18898D01*
X12052Y19051D02*
X12174Y18957D01*
X11958Y19173D02*
X12052Y19051D01*
X11899Y19316D02*
X11958Y19173D01*
X11879Y19468D02*
X11899Y19316D01*
X11879Y19468D02*
Y19969D01*
X11859Y20121D02*
X11879Y19969D01*
X11800Y20264D02*
X11859Y20121D01*
X11706Y20386D02*
X11800Y20264D01*
X11583Y20480D02*
X11706Y20386D01*
X11441Y20539D02*
X11583Y20480D01*
X7450D02*
X7592Y20539D01*
X7327Y20386D02*
X7450Y20480D01*
X7233Y20264D02*
X7327Y20386D01*
X7174Y20121D02*
X7233Y20264D01*
X7154Y19969D02*
X7174Y20121D01*
X11288Y20559D02*
X11441Y20539D01*
X7592D02*
X7745Y20559D01*
X28414Y19969D02*
X28414Y19469D01*
X28394Y19316D02*
X28414Y19469D01*
X28335Y19173D02*
X28394Y19316D01*
X28241Y19051D02*
X28335Y19173D01*
X28119Y18957D02*
X28241Y19051D01*
X27976Y18898D02*
X28119Y18957D01*
X27824Y18878D02*
X27976Y18898D01*
X26060Y18878D02*
X27824Y18878D01*
X25094Y17206D02*
X26060Y18878D01*
X25094Y17206D02*
X26790Y16227D01*
X27042Y15974D01*
X27135Y15630D01*
X27042Y15285D02*
X27135Y15630D01*
X26790Y15033D02*
X27042Y15285D01*
X26446Y14941D02*
X26790Y15033D01*
X26101Y15033D02*
X26446Y14941D01*
X24405Y16012D02*
X26101Y15033D01*
X21343Y10709D02*
X24405Y16012D01*
X21343Y10709D02*
X22225Y9181D01*
X22284Y9039D01*
X22304Y8886D01*
X22284Y8733D02*
X22304Y8886D01*
X22225Y8591D02*
X22284Y8733D01*
X22131Y8468D02*
X22225Y8591D01*
X22009Y8374D02*
X22131Y8468D01*
X21576Y8124D02*
X22009Y8374D01*
X21454Y8031D02*
X21576Y8124D01*
X21360Y7908D02*
X21454Y8031D01*
X21301Y7766D02*
X21360Y7908D01*
X21281Y7613D02*
X21301Y7766D01*
X21281Y7613D02*
X21301Y7460D01*
X21360Y7318D01*
X23131Y4249D01*
X23225Y4127D01*
X23348Y4033D01*
X23490Y3974D01*
X23643Y3954D01*
X23796Y3974D01*
X23938Y4033D01*
X24371Y4283D01*
X24514Y4342D01*
X24667Y4362D01*
X24819Y4342D01*
X24962Y4283D01*
X25084Y4189D01*
X25178Y4067D01*
X26060Y2539D01*
X35493D02*
X36375Y4067D01*
X36469Y4189D01*
X36591Y4283D01*
X36733Y4342D01*
X36886Y4362D01*
X37039Y4342D01*
X37181Y4283D01*
X37615Y4033D01*
X37757Y3974D01*
X37910Y3954D01*
X38063Y3974D01*
X38205Y4033D01*
X38327Y4127D01*
X38421Y4249D01*
X40193Y7318D01*
X40252Y7460D01*
X40272Y7613D01*
X40252Y7766D02*
X40272Y7613D01*
X40193Y7908D02*
X40252Y7766D01*
X40099Y8031D02*
X40193Y7908D01*
X39977Y8124D02*
X40099Y8031D01*
X39544Y8374D02*
X39977Y8124D01*
X39421Y8468D02*
X39544Y8374D01*
X39328Y8591D02*
X39421Y8468D01*
X39269Y8733D02*
X39328Y8591D01*
X39248Y8886D02*
X39269Y8733D01*
X39248Y8886D02*
X39269Y9039D01*
X39328Y9181D01*
X40209Y10709D01*
X35493Y18878D02*
X40209Y10709D01*
X33729Y18878D02*
X35493D01*
X33576Y18898D02*
X33729Y18878D01*
X33434Y18957D02*
X33576Y18898D01*
X33312Y19051D02*
X33434Y18957D01*
X33218Y19173D02*
X33312Y19051D01*
X33159Y19316D02*
X33218Y19173D01*
X33139Y19468D02*
X33159Y19316D01*
X33139Y19468D02*
Y19969D01*
X33118Y20121D02*
X33139Y19969D01*
X33059Y20264D02*
X33118Y20121D01*
X32966Y20386D02*
X33059Y20264D01*
X32843Y20480D02*
X32966Y20386D01*
X32701Y20539D02*
X32843Y20480D01*
X28709D02*
X28852Y20539D01*
X28587Y20386D02*
X28709Y20480D01*
X28493Y20264D02*
X28587Y20386D01*
X28434Y20121D02*
X28493Y20264D01*
X28414Y19969D02*
X28434Y20121D01*
X32548Y20559D02*
X32701Y20539D01*
X28852D02*
X29005Y20559D01*
X49674Y19969D02*
X49674Y19469D01*
X49654Y19316D02*
X49674Y19469D01*
X49595Y19173D02*
X49654Y19316D01*
X49501Y19051D02*
X49595Y19173D01*
X49379Y18957D02*
X49501Y19051D01*
X49236Y18898D02*
X49379Y18957D01*
X49083Y18878D02*
X49236Y18898D01*
X47320Y18878D02*
X49083Y18878D01*
X46354Y17206D02*
X47320Y18878D01*
X46354Y17206D02*
X48050Y16227D01*
X48302Y15974D01*
X48395Y15630D01*
X48302Y15285D02*
X48395Y15630D01*
X48050Y15033D02*
X48302Y15285D01*
X47706Y14941D02*
X48050Y15033D01*
X47361Y15033D02*
X47706Y14941D01*
X45665Y16012D02*
X47361Y15033D01*
X42603Y10709D02*
X45665Y16012D01*
X42603Y10709D02*
X43485Y9181D01*
X43544Y9039D01*
X43564Y8886D01*
X43544Y8733D02*
X43564Y8886D01*
X43485Y8591D02*
X43544Y8733D01*
X43391Y8468D02*
X43485Y8591D01*
X43269Y8374D02*
X43391Y8468D01*
X42836Y8124D02*
X43269Y8374D01*
X42714Y8031D02*
X42836Y8124D01*
X42620Y7908D02*
X42714Y8031D01*
X42561Y7766D02*
X42620Y7908D01*
X42541Y7613D02*
X42561Y7766D01*
X42541Y7613D02*
X42561Y7460D01*
X42620Y7318D01*
X44391Y4249D01*
X44485Y4127D01*
X44607Y4033D01*
X44750Y3974D01*
X44903Y3954D01*
X45056Y3974D01*
X45198Y4033D01*
X45631Y4283D01*
X45774Y4342D01*
X45926Y4362D01*
X46079Y4342D01*
X46222Y4283D01*
X46344Y4189D01*
X46438Y4067D01*
X47320Y2539D01*
X56753D02*
X57635Y4067D01*
X57728Y4189D01*
X57851Y4283D01*
X57993Y4342D01*
X58146Y4362D01*
X58299Y4342D01*
X58441Y4283D01*
X58874Y4033D01*
X59017Y3974D01*
X59170Y3954D01*
X59323Y3974D01*
X59465Y4033D01*
X59587Y4127D01*
X59681Y4249D01*
X61453Y7318D01*
X61512Y7460D01*
X61532Y7613D01*
X61512Y7766D02*
X61532Y7613D01*
X61453Y7908D02*
X61512Y7766D01*
X61359Y8031D02*
X61453Y7908D01*
X61237Y8124D02*
X61359Y8031D01*
X60804Y8374D02*
X61237Y8124D01*
X60681Y8468D02*
X60804Y8374D01*
X60587Y8591D02*
X60681Y8468D01*
X60528Y8733D02*
X60587Y8591D01*
X60508Y8886D02*
X60528Y8733D01*
X60508Y8886D02*
X60528Y9039D01*
X60587Y9181D01*
X61469Y10709D01*
X56753Y18878D02*
X61469Y10709D01*
X54989Y18878D02*
X56753D01*
X54836Y18898D02*
X54989Y18878D01*
X54694Y18957D02*
X54836Y18898D01*
X54571Y19051D02*
X54694Y18957D01*
X54478Y19173D02*
X54571Y19051D01*
X54419Y19316D02*
X54478Y19173D01*
X54398Y19468D02*
X54419Y19316D01*
X54398Y19468D02*
Y19969D01*
X54378Y20121D02*
X54398Y19969D01*
X54319Y20264D02*
X54378Y20121D01*
X54225Y20386D02*
X54319Y20264D01*
X54103Y20480D02*
X54225Y20386D01*
X53961Y20539D02*
X54103Y20480D01*
X49969D02*
X50112Y20539D01*
X49847Y20386D02*
X49969Y20480D01*
X49753Y20264D02*
X49847Y20386D01*
X49694Y20121D02*
X49753Y20264D01*
X49674Y19969D02*
X49694Y20121D01*
X53808Y20559D02*
X53961Y20539D01*
X50112D02*
X50265Y20559D01*
X70934Y19969D02*
X70934Y19469D01*
X70914Y19316D02*
X70934Y19469D01*
X70855Y19173D02*
X70914Y19316D01*
X70761Y19051D02*
X70855Y19173D01*
X70639Y18957D02*
X70761Y19051D01*
X70496Y18898D02*
X70639Y18957D01*
X70343Y18878D02*
X70496Y18898D01*
X68580Y18878D02*
X70343Y18878D01*
X67614Y17206D02*
X68580Y18878D01*
X67614Y17206D02*
X69310Y16227D01*
X69562Y15974D01*
X69654Y15630D01*
X69562Y15285D02*
X69654Y15630D01*
X69310Y15033D02*
X69562Y15285D01*
X68965Y14941D02*
X69310Y15033D01*
X68621Y15033D02*
X68965Y14941D01*
X66925Y16012D02*
X68621Y15033D01*
X63863Y10709D02*
X66925Y16012D01*
X63863Y10709D02*
X64745Y9181D01*
X64804Y9039D01*
X64824Y8886D01*
X64804Y8733D02*
X64824Y8886D01*
X64745Y8591D02*
X64804Y8733D01*
X64651Y8468D02*
X64745Y8591D01*
X64529Y8374D02*
X64651Y8468D01*
X64096Y8124D02*
X64529Y8374D01*
X63973Y8031D02*
X64096Y8124D01*
X63880Y7908D02*
X63973Y8031D01*
X63821Y7766D02*
X63880Y7908D01*
X63800Y7613D02*
X63821Y7766D01*
X63800Y7613D02*
X63821Y7460D01*
X63880Y7318D01*
X65651Y4249D01*
X65745Y4127D01*
X65867Y4033D01*
X66010Y3974D01*
X66163Y3954D01*
X66315Y3974D01*
X66458Y4033D01*
X66891Y4283D01*
X67033Y4342D01*
X67186Y4362D01*
X67339Y4342D01*
X67481Y4283D01*
X67604Y4189D01*
X67698Y4067D01*
X68580Y2539D01*
X78013D02*
X78894Y4067D01*
X78988Y4189D01*
X79111Y4283D01*
X79253Y4342D01*
X79406Y4362D01*
X79559Y4342D01*
X79701Y4283D01*
X80134Y4033D01*
X80277Y3974D01*
X80430Y3954D01*
X80582Y3974D01*
X80725Y4033D01*
X80847Y4127D01*
X80941Y4249D01*
X82713Y7318D01*
X82772Y7460D01*
X82792Y7613D01*
X82772Y7766D02*
X82792Y7613D01*
X82713Y7908D02*
X82772Y7766D01*
X82619Y8031D02*
X82713Y7908D01*
X82496Y8124D02*
X82619Y8031D01*
X82063Y8374D02*
X82496Y8124D01*
X81941Y8468D02*
X82063Y8374D01*
X81847Y8591D02*
X81941Y8468D01*
X81788Y8733D02*
X81847Y8591D01*
X81768Y8886D02*
X81788Y8733D01*
X81768Y8886D02*
X81788Y9039D01*
X81847Y9181D01*
X82729Y10709D01*
X78013Y18878D02*
X82729Y10709D01*
X76249Y18878D02*
X78013D01*
X76096Y18898D02*
X76249Y18878D01*
X75954Y18957D02*
X76096Y18898D01*
X75831Y19051D02*
X75954Y18957D01*
X75737Y19173D02*
X75831Y19051D01*
X75678Y19316D02*
X75737Y19173D01*
X75658Y19468D02*
X75678Y19316D01*
X75658Y19468D02*
Y19969D01*
X75638Y20121D02*
X75658Y19969D01*
X75579Y20264D02*
X75638Y20121D01*
X75485Y20386D02*
X75579Y20264D01*
X75363Y20480D02*
X75485Y20386D01*
X75221Y20539D02*
X75363Y20480D01*
X71229D02*
X71372Y20539D01*
X71107Y20386D02*
X71229Y20480D01*
X71013Y20264D02*
X71107Y20386D01*
X70954Y20121D02*
X71013Y20264D01*
X70934Y19969D02*
X70954Y20121D01*
X75068Y20559D02*
X75221Y20539D01*
X71372D02*
X71524Y20559D01*
M02*
