G04 Layer_Color=32768*
%FSLAX24Y24*%
%MOIN*%
G70*
G01*
G75*
%ADD128C,0.0039*%
%ADD146C,0.0020*%
%ADD147C,0.0020*%
D128*
X7641Y16364D02*
X7641Y15734D01*
X6539Y16364D02*
X6539Y15734D01*
X7641Y15734D01*
X6539Y16364D02*
X7641Y16364D01*
X6893Y16049D02*
X7287D01*
X7090Y15853D02*
Y16246D01*
X9831Y5732D02*
Y6126D01*
X9634Y5929D02*
X10027Y5929D01*
X9830Y6473D02*
Y6866D01*
X9633Y6669D02*
X10027D01*
X8653Y6379D02*
X9047D01*
X8850Y6183D02*
Y6576D01*
X5390Y8501D02*
X5730Y8698D01*
X5462Y8770D02*
X5658Y8429D01*
X4728Y9626D02*
X5069Y9823D01*
X4800Y9895D02*
X4997Y9554D01*
X12390Y15783D02*
Y16176D01*
X12193Y15979D02*
X12587Y15979D01*
X6872Y17213D02*
Y17606D01*
X6675Y17409D02*
X7069D01*
X6685Y14679D02*
X7079D01*
X6882Y14483D02*
Y14876D01*
X28901Y16364D02*
X28901Y15734D01*
X27799Y16364D02*
X27799Y15734D01*
X28901Y15734D01*
X27799Y16364D02*
X28901Y16364D01*
X28153Y16049D02*
X28547D01*
X28350Y15853D02*
Y16246D01*
X31090Y5732D02*
Y6126D01*
X30894Y5929D02*
X31287Y5929D01*
X31090Y6473D02*
Y6866D01*
X30893Y6669D02*
X31287D01*
X29913Y6379D02*
X30307D01*
X30110Y6183D02*
Y6576D01*
X26649Y8501D02*
X26990Y8698D01*
X26721Y8770D02*
X26918Y8429D01*
X25988Y9626D02*
X26329Y9823D01*
X26060Y9895D02*
X26257Y9554D01*
X33650Y15783D02*
Y16176D01*
X33453Y15979D02*
X33847Y15979D01*
X28132Y17213D02*
Y17606D01*
X27935Y17409D02*
X28329D01*
X27945Y14679D02*
X28339D01*
X28142Y14483D02*
Y14876D01*
X50161Y16364D02*
X50161Y15734D01*
X49058Y16364D02*
X49058Y15734D01*
X50161Y15734D01*
X49058Y16364D02*
X50161Y16364D01*
X49413Y16049D02*
X49807D01*
X49610Y15853D02*
Y16246D01*
X52350Y5732D02*
Y6126D01*
X52153Y5929D02*
X52547Y5929D01*
X52350Y6473D02*
Y6866D01*
X52153Y6669D02*
X52547D01*
X51173Y6379D02*
X51567D01*
X51370Y6183D02*
Y6576D01*
X47909Y8501D02*
X48250Y8698D01*
X47981Y8770D02*
X48178Y8429D01*
X47248Y9626D02*
X47589Y9823D01*
X47320Y9895D02*
X47517Y9554D01*
X54910Y15783D02*
Y16176D01*
X54713Y15979D02*
X55107Y15979D01*
X49392Y17213D02*
Y17606D01*
X49195Y17409D02*
X49589D01*
X49205Y14679D02*
X49599D01*
X49402Y14483D02*
Y14876D01*
X71421Y16364D02*
X71421Y15734D01*
X70318Y16364D02*
X70318Y15734D01*
X71421Y15734D01*
X70318Y16364D02*
X71421Y16364D01*
X70673Y16049D02*
X71066D01*
X70870Y15853D02*
Y16246D01*
X73610Y5732D02*
Y6126D01*
X73413Y5929D02*
X73807Y5929D01*
X73610Y6473D02*
Y6866D01*
X73413Y6669D02*
X73806D01*
X72433Y6379D02*
X72826D01*
X72630Y6183D02*
Y6576D01*
X69169Y8501D02*
X69510Y8698D01*
X69241Y8770D02*
X69438Y8429D01*
X68507Y9626D02*
X68848Y9823D01*
X68580Y9895D02*
X68776Y9554D01*
X76170Y15783D02*
Y16176D01*
X75973Y15979D02*
X76366Y15979D01*
X70652Y17213D02*
Y17606D01*
X70455Y17409D02*
X70849D01*
X70465Y14679D02*
X70859D01*
X70662Y14483D02*
Y14876D01*
D146*
X17296Y12048D02*
X17392Y11505D01*
X16308Y11874D02*
X17296Y12048D01*
X16308Y11874D02*
X16403Y11331D01*
X17392Y11505D01*
X15160Y10592D02*
X15638Y10317D01*
X16140Y11186D01*
X15662Y11462D02*
X16140Y11186D01*
X15160Y10592D02*
X15662Y11462D01*
X14560Y9742D02*
X15038Y9467D01*
X15540Y10336D01*
X15062Y10612D02*
X15540Y10336D01*
X14560Y9742D02*
X15062Y10612D01*
X11714Y17057D02*
X12266D01*
Y18061D01*
X11714D02*
X12266D01*
X11714Y17057D02*
Y18061D01*
X12394Y15221D02*
X12946D01*
X12394Y14217D02*
Y15221D01*
Y14217D02*
X12946D01*
Y15221D01*
X10824Y17057D02*
X11376D01*
Y18061D01*
X10824D02*
X11376D01*
X10824Y17057D02*
Y18061D01*
X11380Y14179D02*
X12140D01*
Y13789D02*
Y14179D01*
X11380Y13789D02*
X12140D01*
X11380D02*
Y14179D01*
X12850Y13319D02*
Y14079D01*
X12460Y13319D02*
X12850D01*
X12460D02*
Y14079D01*
X12850D01*
X16260Y11539D02*
Y12299D01*
X15870Y11539D02*
X16260D01*
X15870D02*
Y12299D01*
X16260D01*
X14258Y8627D02*
X14760Y9496D01*
X13780Y8902D02*
X14258Y8627D01*
X13780Y8902D02*
X14282Y9772D01*
X14760Y9496D01*
X7948Y15914D02*
X7948Y16465D01*
X7948Y15914D02*
X8952D01*
X8952Y16465D01*
X7948D02*
X8952D01*
X8980Y16889D02*
Y18446D01*
X8203Y16889D02*
Y18446D01*
X8980D01*
X8203Y16889D02*
X8980D01*
X12958Y16155D02*
X13962D01*
X13962Y15604D01*
X12958D02*
X13962D01*
X12958Y16155D02*
X12958Y15604D01*
X12958Y16795D02*
X13962D01*
X13962Y16244D01*
X12958D02*
X13962D01*
X12958Y16795D02*
X12958Y16244D01*
X9743Y18418D02*
X10747D01*
X9743D02*
Y18969D01*
X10747D01*
Y18418D02*
Y18969D01*
X10659Y14836D02*
X11211D01*
Y15840D01*
X10659D02*
X11211D01*
X10659Y14836D02*
Y15840D01*
X9313Y16338D02*
X10317D01*
X9313D02*
Y16889D01*
X10317D01*
Y16338D02*
Y16889D01*
X10312Y15674D02*
Y16225D01*
X9308D02*
X10312D01*
X9308Y15674D02*
Y16225D01*
Y15674D02*
X10312D01*
X9139Y18032D02*
Y19036D01*
X9691Y19036D01*
X9691Y18032D01*
X9139Y18032D02*
X9691Y18032D01*
X8890Y14219D02*
Y15776D01*
X8113Y14219D02*
Y15776D01*
X8890D01*
X8113Y14219D02*
X8890D01*
X11274Y15572D02*
X11826D01*
Y16576D01*
X11274D02*
X11826D01*
X11274Y15572D02*
Y16576D01*
Y14522D02*
Y15526D01*
X11826D01*
X11826Y14522D02*
X11826Y15526D01*
X11274Y14522D02*
X11826D01*
X5544Y13557D02*
X6096D01*
Y14561D01*
X5544Y14561D02*
X6096Y14561D01*
X5544Y14561D02*
X5544Y13557D01*
X14187Y9940D02*
X14525Y9745D01*
X14905Y10403D01*
X14567Y10598D02*
X14905Y10403D01*
X14187Y9940D02*
X14567Y10598D01*
X13609Y8956D02*
X13804Y9294D01*
X13146Y9674D02*
X13804Y9294D01*
X12951Y9336D02*
X13146Y9674D01*
X12951Y9336D02*
X13609Y8956D01*
X38556Y12048D02*
X38652Y11505D01*
X37568Y11874D02*
X38556Y12048D01*
X37568Y11874D02*
X37663Y11331D01*
X38652Y11505D01*
X36420Y10592D02*
X36898Y10317D01*
X37399Y11186D01*
X36922Y11462D02*
X37399Y11186D01*
X36420Y10592D02*
X36922Y11462D01*
X35820Y9742D02*
X36298Y9467D01*
X36799Y10336D01*
X36322Y10612D02*
X36799Y10336D01*
X35820Y9742D02*
X36322Y10612D01*
X32974Y17057D02*
X33525D01*
Y18061D01*
X32974D02*
X33525D01*
X32974Y17057D02*
Y18061D01*
X33654Y15221D02*
X34205D01*
X33654Y14217D02*
Y15221D01*
Y14217D02*
X34205D01*
Y15221D01*
X32084Y17057D02*
X32635D01*
Y18061D01*
X32084D02*
X32635D01*
X32084Y17057D02*
Y18061D01*
X32640Y14179D02*
X33400D01*
Y13789D02*
Y14179D01*
X32640Y13789D02*
X33400D01*
X32640D02*
Y14179D01*
X34110Y13319D02*
Y14079D01*
X33720Y13319D02*
X34110D01*
X33720D02*
Y14079D01*
X34110D01*
X37520Y11539D02*
Y12299D01*
X37130Y11539D02*
X37520D01*
X37130D02*
Y12299D01*
X37520D01*
X35518Y8627D02*
X36019Y9496D01*
X35040Y8902D02*
X35518Y8627D01*
X35040Y8902D02*
X35542Y9772D01*
X36019Y9496D01*
X29208Y15914D02*
X29208Y16465D01*
X29208Y15914D02*
X30212D01*
X30212Y16465D01*
X29208D02*
X30212D01*
X30240Y16889D02*
Y18446D01*
X29463Y16889D02*
Y18446D01*
X30240D01*
X29463Y16889D02*
X30240D01*
X34218Y16155D02*
X35222D01*
X35222Y15604D01*
X34218D02*
X35222D01*
X34218Y16155D02*
X34218Y15604D01*
X34218Y16795D02*
X35222D01*
X35222Y16244D01*
X34218D02*
X35222D01*
X34218Y16795D02*
X34218Y16244D01*
X31003Y18418D02*
X32007D01*
X31003D02*
Y18969D01*
X32007D01*
Y18418D02*
Y18969D01*
X31919Y14836D02*
X32471D01*
Y15840D01*
X31919D02*
X32471D01*
X31919Y14836D02*
Y15840D01*
X30573Y16338D02*
X31577D01*
X30573D02*
Y16889D01*
X31577D01*
Y16338D02*
Y16889D01*
X31572Y15674D02*
Y16225D01*
X30568D02*
X31572D01*
X30568Y15674D02*
Y16225D01*
Y15674D02*
X31572D01*
X30399Y18032D02*
Y19036D01*
X30951Y19036D01*
X30951Y18032D01*
X30399Y18032D02*
X30951Y18032D01*
X30150Y14219D02*
Y15776D01*
X29373Y14219D02*
Y15776D01*
X30150D01*
X29373Y14219D02*
X30150D01*
X32534Y15572D02*
X33085D01*
Y16576D01*
X32534D02*
X33085D01*
X32534Y15572D02*
Y16576D01*
Y14522D02*
Y15526D01*
X33085D01*
X33085Y14522D02*
X33085Y15526D01*
X32534Y14522D02*
X33085D01*
X26804Y13557D02*
X27355D01*
Y14561D01*
X26804Y14561D02*
X27355Y14561D01*
X26804Y14561D02*
X26804Y13557D01*
X35447Y9940D02*
X35785Y9745D01*
X36165Y10403D01*
X35827Y10598D02*
X36165Y10403D01*
X35447Y9940D02*
X35827Y10598D01*
X34869Y8956D02*
X35064Y9294D01*
X34406Y9674D02*
X35064Y9294D01*
X34211Y9336D02*
X34406Y9674D01*
X34211Y9336D02*
X34869Y8956D01*
X59816Y12048D02*
X59912Y11505D01*
X58827Y11874D02*
X59816Y12048D01*
X58827Y11874D02*
X58923Y11331D01*
X59912Y11505D01*
X57680Y10592D02*
X58157Y10317D01*
X58659Y11186D01*
X58182Y11462D02*
X58659Y11186D01*
X57680Y10592D02*
X58182Y11462D01*
X57080Y9742D02*
X57557Y9467D01*
X58059Y10336D01*
X57582Y10612D02*
X58059Y10336D01*
X57080Y9742D02*
X57582Y10612D01*
X54234Y17057D02*
X54785D01*
Y18061D01*
X54234D02*
X54785D01*
X54234Y17057D02*
Y18061D01*
X54914Y15221D02*
X55465D01*
X54914Y14217D02*
Y15221D01*
Y14217D02*
X55465D01*
Y15221D01*
X53344Y17057D02*
X53895D01*
Y18061D01*
X53344D02*
X53895D01*
X53344Y17057D02*
Y18061D01*
X53900Y14179D02*
X54660D01*
Y13789D02*
Y14179D01*
X53900Y13789D02*
X54660D01*
X53900D02*
Y14179D01*
X55370Y13319D02*
Y14079D01*
X54980Y13319D02*
X55370D01*
X54980D02*
Y14079D01*
X55370D01*
X58780Y11539D02*
Y12299D01*
X58390Y11539D02*
X58780D01*
X58390D02*
Y12299D01*
X58780D01*
X56777Y8627D02*
X57279Y9496D01*
X56300Y8902D02*
X56777Y8627D01*
X56300Y8902D02*
X56802Y9772D01*
X57279Y9496D01*
X50468Y15914D02*
X50468Y16465D01*
X50468Y15914D02*
X51472D01*
X51472Y16465D01*
X50468D02*
X51472D01*
X51500Y16889D02*
Y18446D01*
X50723Y16889D02*
Y18446D01*
X51500D01*
X50723Y16889D02*
X51500D01*
X55478Y16155D02*
X56482D01*
X56482Y15604D01*
X55478D02*
X56482D01*
X55478Y16155D02*
X55478Y15604D01*
X55478Y16795D02*
X56482D01*
X56482Y16244D01*
X55478D02*
X56482D01*
X55478Y16795D02*
X55478Y16244D01*
X52263Y18418D02*
X53267D01*
X52263D02*
Y18969D01*
X53267D01*
Y18418D02*
Y18969D01*
X53179Y14836D02*
X53730D01*
Y15840D01*
X53179D02*
X53730D01*
X53179Y14836D02*
Y15840D01*
X51833Y16338D02*
X52837D01*
X51833D02*
Y16889D01*
X52837D01*
Y16338D02*
Y16889D01*
X52832Y15674D02*
Y16225D01*
X51828D02*
X52832D01*
X51828Y15674D02*
Y16225D01*
Y15674D02*
X52832D01*
X51659Y18032D02*
Y19036D01*
X52210Y19036D01*
X52210Y18032D01*
X51659Y18032D02*
X52210Y18032D01*
X51410Y14219D02*
Y15776D01*
X50633Y14219D02*
Y15776D01*
X51410D01*
X50633Y14219D02*
X51410D01*
X53794Y15572D02*
X54345D01*
Y16576D01*
X53794D02*
X54345D01*
X53794Y15572D02*
Y16576D01*
Y14522D02*
Y15526D01*
X54345D01*
X54345Y14522D02*
X54345Y15526D01*
X53794Y14522D02*
X54345D01*
X48064Y13557D02*
X48615D01*
Y14561D01*
X48064Y14561D02*
X48615Y14561D01*
X48064Y14561D02*
X48064Y13557D01*
X56707Y9940D02*
X57044Y9745D01*
X57424Y10403D01*
X57086Y10598D02*
X57424Y10403D01*
X56707Y9940D02*
X57086Y10598D01*
X56129Y8956D02*
X56324Y9294D01*
X55666Y9674D02*
X56324Y9294D01*
X55471Y9336D02*
X55666Y9674D01*
X55471Y9336D02*
X56129Y8956D01*
X81076Y12048D02*
X81172Y11505D01*
X80087Y11874D02*
X81076Y12048D01*
X80087Y11874D02*
X80183Y11331D01*
X81172Y11505D01*
X78940Y10592D02*
X79417Y10317D01*
X79919Y11186D01*
X79442Y11462D02*
X79919Y11186D01*
X78940Y10592D02*
X79442Y11462D01*
X78340Y9742D02*
X78817Y9467D01*
X79319Y10336D01*
X78842Y10612D02*
X79319Y10336D01*
X78340Y9742D02*
X78842Y10612D01*
X75494Y17057D02*
X76045D01*
Y18061D01*
X75494D02*
X76045D01*
X75494Y17057D02*
Y18061D01*
X76174Y15221D02*
X76725D01*
X76174Y14217D02*
Y15221D01*
Y14217D02*
X76725D01*
Y15221D01*
X74604Y17057D02*
X75155D01*
Y18061D01*
X74604D02*
X75155D01*
X74604Y17057D02*
Y18061D01*
X75160Y14179D02*
X75920D01*
Y13789D02*
Y14179D01*
X75160Y13789D02*
X75920D01*
X75160D02*
Y14179D01*
X76630Y13319D02*
Y14079D01*
X76239Y13319D02*
X76630D01*
X76239D02*
Y14079D01*
X76630D01*
X80040Y11539D02*
Y12299D01*
X79649Y11539D02*
X80040D01*
X79649D02*
Y12299D01*
X80040D01*
X78037Y8627D02*
X78539Y9496D01*
X77560Y8902D02*
X78037Y8627D01*
X77560Y8902D02*
X78062Y9772D01*
X78539Y9496D01*
X71728Y15914D02*
X71728Y16465D01*
X71728Y15914D02*
X72731D01*
X72731Y16465D01*
X71728D02*
X72731D01*
X72760Y16889D02*
Y18446D01*
X71983Y16889D02*
Y18446D01*
X72760D01*
X71983Y16889D02*
X72760D01*
X76738Y16155D02*
X77741D01*
X77741Y15604D01*
X76738D02*
X77741D01*
X76738Y16155D02*
X76738Y15604D01*
X76738Y16795D02*
X77741D01*
X77741Y16244D01*
X76738D02*
X77741D01*
X76738Y16795D02*
X76738Y16244D01*
X73523Y18418D02*
X74527D01*
X73523D02*
Y18969D01*
X74527D01*
Y18418D02*
Y18969D01*
X74439Y14836D02*
X74990D01*
Y15840D01*
X74439D02*
X74990D01*
X74439Y14836D02*
Y15840D01*
X73093Y16338D02*
X74097D01*
X73093D02*
Y16889D01*
X74097D01*
Y16338D02*
Y16889D01*
X74091Y15674D02*
Y16225D01*
X73088D02*
X74091D01*
X73088Y15674D02*
Y16225D01*
Y15674D02*
X74091D01*
X72919Y18032D02*
Y19036D01*
X73470Y19036D01*
X73470Y18032D01*
X72919Y18032D02*
X73470Y18032D01*
X72670Y14219D02*
Y15776D01*
X71893Y14219D02*
Y15776D01*
X72670D01*
X71893Y14219D02*
X72670D01*
X75054Y15572D02*
X75605D01*
Y16576D01*
X75054D02*
X75605D01*
X75054Y15572D02*
Y16576D01*
Y14522D02*
Y15526D01*
X75605D01*
X75605Y14522D02*
X75605Y15526D01*
X75054Y14522D02*
X75605D01*
X69324Y13557D02*
X69875D01*
Y14561D01*
X69324Y14561D02*
X69875Y14561D01*
X69324Y14561D02*
X69324Y13557D01*
X77966Y9940D02*
X78304Y9745D01*
X78684Y10403D01*
X78346Y10598D02*
X78684Y10403D01*
X77966Y9940D02*
X78346Y10598D01*
X77389Y8956D02*
X77584Y9294D01*
X76926Y9674D02*
X77584Y9294D01*
X76730Y9336D02*
X76926Y9674D01*
X76730Y9336D02*
X77389Y8956D01*
D147*
X9260Y5614D02*
X10401D01*
X9260Y6244D02*
X10401D01*
X10401Y5614D01*
X9260Y6244D02*
X9260Y5614D01*
X9259Y6354D02*
X10401D01*
X9259Y6984D02*
X10401D01*
X10401Y6354D02*
X10401Y6984D01*
X9259Y6354D02*
X9259Y6984D01*
X8535Y5809D02*
Y6950D01*
X9165Y5809D02*
Y6950D01*
X8535Y5809D02*
X9165Y5809D01*
X8535Y6950D02*
X9165Y6950D01*
X5547Y9251D02*
X6118Y8262D01*
X5002Y8936D02*
X5573Y7947D01*
X5002Y8936D02*
X5547Y9251D01*
X5573Y7947D02*
X6118Y8262D01*
X4340Y10061D02*
X4911Y9073D01*
X4886Y10376D02*
X5457Y9388D01*
X4911Y9073D02*
X5457Y9388D01*
X4340Y10061D02*
X4886Y10376D01*
X11898Y15487D02*
X12882D01*
X11898Y16472D02*
X12882D01*
Y15487D02*
Y16472D01*
X11898Y15487D02*
Y16472D01*
X6164Y18354D02*
X7856D01*
X6164Y16464D02*
X7856D01*
X6164D02*
Y18354D01*
X7856Y16464D02*
Y18354D01*
X7866Y13734D02*
Y15624D01*
X6174Y13734D02*
Y15624D01*
Y13734D02*
X7866D01*
X6174Y15624D02*
X7866D01*
X30520Y5614D02*
X31661D01*
X30520Y6244D02*
X31661D01*
X31661Y5614D01*
X30520Y6244D02*
X30520Y5614D01*
X30519Y6354D02*
X31661D01*
X30519Y6984D02*
X31661D01*
X31661Y6354D02*
X31661Y6984D01*
X30519Y6354D02*
X30519Y6984D01*
X29795Y5809D02*
Y6950D01*
X30425Y5809D02*
Y6950D01*
X29795Y5809D02*
X30425Y5809D01*
X29795Y6950D02*
X30425Y6950D01*
X26807Y9251D02*
X27378Y8262D01*
X26262Y8936D02*
X26833Y7947D01*
X26262Y8936D02*
X26807Y9251D01*
X26833Y7947D02*
X27378Y8262D01*
X25600Y10061D02*
X26171Y9073D01*
X26146Y10376D02*
X26716Y9388D01*
X26171Y9073D02*
X26716Y9388D01*
X25600Y10061D02*
X26146Y10376D01*
X33158Y15487D02*
X34142D01*
X33158Y16472D02*
X34142D01*
Y15487D02*
Y16472D01*
X33158Y15487D02*
Y16472D01*
X27423Y18354D02*
X29116D01*
X27423Y16464D02*
X29116D01*
X27423D02*
Y18354D01*
X29116Y16464D02*
Y18354D01*
X29126Y13734D02*
Y15624D01*
X27433Y13734D02*
Y15624D01*
Y13734D02*
X29126D01*
X27433Y15624D02*
X29126D01*
X51779Y5614D02*
X52921D01*
X51779Y6244D02*
X52921D01*
X52921Y5614D01*
X51779Y6244D02*
X51779Y5614D01*
X51779Y6354D02*
X52921D01*
X51779Y6984D02*
X52921D01*
X52921Y6354D02*
X52921Y6984D01*
X51779Y6354D02*
X51779Y6984D01*
X51055Y5809D02*
Y6950D01*
X51685Y5809D02*
Y6950D01*
X51055Y5809D02*
X51685Y5809D01*
X51055Y6950D02*
X51685Y6950D01*
X48067Y9251D02*
X48638Y8262D01*
X47521Y8936D02*
X48092Y7947D01*
X47521Y8936D02*
X48067Y9251D01*
X48092Y7947D02*
X48638Y8262D01*
X46860Y10061D02*
X47431Y9073D01*
X47405Y10376D02*
X47976Y9388D01*
X47431Y9073D02*
X47976Y9388D01*
X46860Y10061D02*
X47405Y10376D01*
X54418Y15487D02*
X55402D01*
X54418Y16472D02*
X55402D01*
Y15487D02*
Y16472D01*
X54418Y15487D02*
Y16472D01*
X48683Y18354D02*
X50376D01*
X48683Y16464D02*
X50376D01*
X48683D02*
Y18354D01*
X50376Y16464D02*
Y18354D01*
X50386Y13734D02*
Y15624D01*
X48693Y13734D02*
Y15624D01*
Y13734D02*
X50386D01*
X48693Y15624D02*
X50386D01*
X73039Y5614D02*
X74181D01*
X73039Y6244D02*
X74181D01*
X74181Y5614D01*
X73039Y6244D02*
X73039Y5614D01*
X73039Y6354D02*
X74180D01*
X73039Y6984D02*
X74180D01*
X74180Y6354D02*
X74180Y6984D01*
X73039Y6354D02*
X73039Y6984D01*
X72315Y5809D02*
Y6950D01*
X72944Y5809D02*
Y6950D01*
X72315Y5809D02*
X72944Y5809D01*
X72315Y6950D02*
X72944Y6950D01*
X69327Y9251D02*
X69898Y8262D01*
X68781Y8936D02*
X69352Y7947D01*
X68781Y8936D02*
X69327Y9251D01*
X69352Y7947D02*
X69898Y8262D01*
X68120Y10061D02*
X68691Y9073D01*
X68665Y10376D02*
X69236Y9388D01*
X68691Y9073D02*
X69236Y9388D01*
X68120Y10061D02*
X68665Y10376D01*
X75677Y15487D02*
X76662D01*
X75677Y16472D02*
X76662D01*
Y15487D02*
Y16472D01*
X75677Y15487D02*
Y16472D01*
X69943Y18354D02*
X71636D01*
X69943Y16464D02*
X71636D01*
X69943D02*
Y18354D01*
X71636Y16464D02*
Y18354D01*
X71646Y13734D02*
Y15624D01*
X69953Y13734D02*
Y15624D01*
Y13734D02*
X71646D01*
X69953Y15624D02*
X71646D01*
M02*
