G04 Layer_Color=8388736*
%FSLAX24Y24*%
%MOIN*%
G70*
G01*
G75*
%ADD92R,0.0827X0.0827*%
G04:AMPARAMS|DCode=93|XSize=118.7mil|YSize=118.7mil|CornerRadius=59.4mil|HoleSize=0mil|Usage=FLASHONLY|Rotation=90.000|XOffset=0mil|YOffset=0mil|HoleType=Round|Shape=RoundedRectangle|*
%AMROUNDEDRECTD93*
21,1,0.1187,0.0000,0,0,90.0*
21,1,0.0000,0.1187,0,0,90.0*
1,1,0.1187,0.0000,0.0000*
1,1,0.1187,0.0000,0.0000*
1,1,0.1187,0.0000,0.0000*
1,1,0.1187,0.0000,0.0000*
%
%ADD93ROUNDEDRECTD93*%
G04:AMPARAMS|DCode=94|XSize=37.1mil|YSize=47.4mil|CornerRadius=9.8mil|HoleSize=0mil|Usage=FLASHONLY|Rotation=190.000|XOffset=0mil|YOffset=0mil|HoleType=Round|Shape=RoundedRectangle|*
%AMROUNDEDRECTD94*
21,1,0.0371,0.0277,0,0,190.0*
21,1,0.0175,0.0474,0,0,190.0*
1,1,0.0197,-0.0110,0.0121*
1,1,0.0197,0.0062,0.0152*
1,1,0.0197,0.0110,-0.0121*
1,1,0.0197,-0.0062,-0.0152*
%
%ADD94ROUNDEDRECTD94*%
G04:AMPARAMS|DCode=95|XSize=37.1mil|YSize=47.4mil|CornerRadius=9.8mil|HoleSize=0mil|Usage=FLASHONLY|Rotation=60.000|XOffset=0mil|YOffset=0mil|HoleType=Round|Shape=RoundedRectangle|*
%AMROUNDEDRECTD95*
21,1,0.0371,0.0277,0,0,60.0*
21,1,0.0175,0.0474,0,0,60.0*
1,1,0.0197,0.0164,0.0006*
1,1,0.0197,0.0076,-0.0145*
1,1,0.0197,-0.0164,-0.0006*
1,1,0.0197,-0.0076,0.0145*
%
%ADD95ROUNDEDRECTD95*%
G04:AMPARAMS|DCode=96|XSize=37.1mil|YSize=47.4mil|CornerRadius=9.8mil|HoleSize=0mil|Usage=FLASHONLY|Rotation=90.000|XOffset=0mil|YOffset=0mil|HoleType=Round|Shape=RoundedRectangle|*
%AMROUNDEDRECTD96*
21,1,0.0371,0.0277,0,0,90.0*
21,1,0.0175,0.0474,0,0,90.0*
1,1,0.0197,0.0139,0.0087*
1,1,0.0197,0.0139,-0.0087*
1,1,0.0197,-0.0139,-0.0087*
1,1,0.0197,-0.0139,0.0087*
%
%ADD96ROUNDEDRECTD96*%
G04:AMPARAMS|DCode=97|XSize=30mil|YSize=32mil|CornerRadius=8.4mil|HoleSize=0mil|Usage=FLASHONLY|Rotation=0.000|XOffset=0mil|YOffset=0mil|HoleType=Round|Shape=RoundedRectangle|*
%AMROUNDEDRECTD97*
21,1,0.0300,0.0152,0,0,0.0*
21,1,0.0132,0.0320,0,0,0.0*
1,1,0.0168,0.0066,-0.0076*
1,1,0.0168,-0.0066,-0.0076*
1,1,0.0168,-0.0066,0.0076*
1,1,0.0168,0.0066,0.0076*
%
%ADD97ROUNDEDRECTD97*%
G04:AMPARAMS|DCode=98|XSize=30mil|YSize=32mil|CornerRadius=8.4mil|HoleSize=0mil|Usage=FLASHONLY|Rotation=270.000|XOffset=0mil|YOffset=0mil|HoleType=Round|Shape=RoundedRectangle|*
%AMROUNDEDRECTD98*
21,1,0.0300,0.0152,0,0,270.0*
21,1,0.0132,0.0320,0,0,270.0*
1,1,0.0168,-0.0076,-0.0066*
1,1,0.0168,-0.0076,0.0066*
1,1,0.0168,0.0076,0.0066*
1,1,0.0168,0.0076,-0.0066*
%
%ADD98ROUNDEDRECTD98*%
G04:AMPARAMS|DCode=99|XSize=55.2mil|YSize=67.1mil|CornerRadius=0mil|HoleSize=0mil|Usage=FLASHONLY|Rotation=240.000|XOffset=0mil|YOffset=0mil|HoleType=Round|Shape=Rectangle|*
%AMROTATEDRECTD99*
4,1,4,-0.0152,0.0407,0.0428,0.0072,0.0152,-0.0407,-0.0428,-0.0072,-0.0152,0.0407,0.0*
%
%ADD99ROTATEDRECTD99*%

G04:AMPARAMS|DCode=100|XSize=55.2mil|YSize=67.1mil|CornerRadius=0mil|HoleSize=0mil|Usage=FLASHONLY|Rotation=300.000|XOffset=0mil|YOffset=0mil|HoleType=Round|Shape=Rectangle|*
%AMROTATEDRECTD100*
4,1,4,-0.0428,0.0072,0.0152,0.0407,0.0428,-0.0072,-0.0152,-0.0407,-0.0428,0.0072,0.0*
%
%ADD100ROTATEDRECTD100*%

%ADD101P,0.1230X4X100.0*%
%ADD102R,0.0513X0.0631*%
G04:AMPARAMS|DCode=103|XSize=37.1mil|YSize=47.4mil|CornerRadius=9.8mil|HoleSize=0mil|Usage=FLASHONLY|Rotation=0.000|XOffset=0mil|YOffset=0mil|HoleType=Round|Shape=RoundedRectangle|*
%AMROUNDEDRECTD103*
21,1,0.0371,0.0277,0,0,0.0*
21,1,0.0175,0.0474,0,0,0.0*
1,1,0.0197,0.0087,-0.0139*
1,1,0.0197,-0.0087,-0.0139*
1,1,0.0197,-0.0087,0.0139*
1,1,0.0197,0.0087,0.0139*
%
%ADD103ROUNDEDRECTD103*%
G04:AMPARAMS|DCode=104|XSize=60mil|YSize=68mil|CornerRadius=17mil|HoleSize=0mil|Usage=FLASHONLY|Rotation=270.000|XOffset=0mil|YOffset=0mil|HoleType=Round|Shape=RoundedRectangle|*
%AMROUNDEDRECTD104*
21,1,0.0600,0.0340,0,0,270.0*
21,1,0.0260,0.0680,0,0,270.0*
1,1,0.0340,-0.0170,-0.0130*
1,1,0.0340,-0.0170,0.0130*
1,1,0.0340,0.0170,0.0130*
1,1,0.0340,0.0170,-0.0130*
%
%ADD104ROUNDEDRECTD104*%
%ADD105R,0.0415X0.0572*%
%ADD106R,0.0572X0.0415*%
G04:AMPARAMS|DCode=107|XSize=57.2mil|YSize=41.5mil|CornerRadius=0mil|HoleSize=0mil|Usage=FLASHONLY|Rotation=210.000|XOffset=0mil|YOffset=0mil|HoleType=Round|Shape=Rectangle|*
%AMROTATEDRECTD107*
4,1,4,0.0144,0.0323,0.0351,-0.0037,-0.0144,-0.0323,-0.0351,0.0037,0.0144,0.0323,0.0*
%
%ADD107ROTATEDRECTD107*%

%ADD108R,0.0400X0.0440*%
%ADD109R,0.0440X0.0400*%
%ADD110R,0.0228X0.0218*%
%ADD111R,0.0218X0.0228*%
G04:AMPARAMS|DCode=112|XSize=30mil|YSize=32mil|CornerRadius=8.4mil|HoleSize=0mil|Usage=FLASHONLY|Rotation=60.000|XOffset=0mil|YOffset=0mil|HoleType=Round|Shape=RoundedRectangle|*
%AMROUNDEDRECTD112*
21,1,0.0300,0.0152,0,0,60.0*
21,1,0.0132,0.0320,0,0,60.0*
1,1,0.0168,0.0099,0.0019*
1,1,0.0168,0.0033,-0.0095*
1,1,0.0168,-0.0099,-0.0019*
1,1,0.0168,-0.0033,0.0095*
%
%ADD112ROUNDEDRECTD112*%
G04:AMPARAMS|DCode=113|XSize=118.7mil|YSize=118.7mil|CornerRadius=59.4mil|HoleSize=0mil|Usage=FLASHONLY|Rotation=0.000|XOffset=0mil|YOffset=0mil|HoleType=Round|Shape=RoundedRectangle|*
%AMROUNDEDRECTD113*
21,1,0.1187,0.0000,0,0,0.0*
21,1,0.0000,0.1187,0,0,0.0*
1,1,0.1187,0.0000,0.0000*
1,1,0.1187,0.0000,0.0000*
1,1,0.1187,0.0000,0.0000*
1,1,0.1187,0.0000,0.0000*
%
%ADD113ROUNDEDRECTD113*%
G04:AMPARAMS|DCode=114|XSize=30mil|YSize=32mil|CornerRadius=8.4mil|HoleSize=0mil|Usage=FLASHONLY|Rotation=150.000|XOffset=0mil|YOffset=0mil|HoleType=Round|Shape=RoundedRectangle|*
%AMROUNDEDRECTD114*
21,1,0.0300,0.0152,0,0,150.0*
21,1,0.0132,0.0320,0,0,150.0*
1,1,0.0168,-0.0019,0.0099*
1,1,0.0168,0.0095,0.0033*
1,1,0.0168,0.0019,-0.0099*
1,1,0.0168,-0.0095,-0.0033*
%
%ADD114ROUNDEDRECTD114*%
%ADD115R,0.0631X0.0304*%
%ADD116R,0.0631X0.0336*%
%ADD117C,0.0570*%
%ADD118R,0.0570X0.0570*%
%ADD119P,0.0806X4X165.0*%
%ADD120C,0.1080*%
%ADD121C,0.6080*%
%ADD122C,0.0828*%
%ADD123P,0.0806X4X255.0*%
%ADD124P,0.0953X8X22.5*%
%ADD125C,0.0880*%
G36*
X69982Y17784D02*
X70967Y17784D01*
X70972Y17784D01*
X70977Y17783D01*
X70982Y17781D01*
X70987Y17779D01*
X70991Y17776D01*
X70995Y17772D01*
X71231Y17536D01*
X71235Y17532D01*
X71238Y17528D01*
X71240Y17523D01*
X71242Y17518D01*
X71243Y17513D01*
X71243Y17508D01*
Y17311D01*
X71243Y17306D01*
X71242Y17301D01*
X71240Y17296D01*
X71238Y17291D01*
X71235Y17287D01*
X71231Y17283D01*
X70995Y17046D01*
X70991Y17043D01*
X70987Y17040D01*
X70982Y17038D01*
X70977Y17036D01*
X70972Y17035D01*
X70967Y17035D01*
X69982Y17035D01*
D01*
X69982D01*
X69977Y17035D01*
X69972Y17036D01*
X69967Y17038D01*
X69965Y17039D01*
X69962Y17040D01*
X69958Y17043D01*
X69954Y17046D01*
Y17046D01*
X69954D01*
X69951Y17050D01*
X69948Y17055D01*
X69947Y17057D01*
X69945Y17059D01*
X69944Y17064D01*
X69943Y17069D01*
X69942Y17075D01*
Y17075D01*
D01*
X69942Y17744D01*
X69943Y17749D01*
X69944Y17754D01*
X69945Y17759D01*
X69947Y17762D01*
X69948Y17764D01*
X69951Y17768D01*
X69954Y17772D01*
X69954D01*
Y17772D01*
X69958Y17776D01*
X69962Y17779D01*
X69965Y17780D01*
X69967Y17781D01*
X69972Y17783D01*
X69977Y17784D01*
X69982Y17784D01*
X69982D01*
D01*
D01*
D02*
G37*
G36*
X48723D02*
X49707Y17784D01*
X49712Y17784D01*
X49717Y17783D01*
X49722Y17781D01*
X49727Y17779D01*
X49731Y17776D01*
X49735Y17772D01*
X49971Y17536D01*
X49975Y17532D01*
X49978Y17528D01*
X49980Y17523D01*
X49982Y17518D01*
X49983Y17513D01*
X49983Y17508D01*
Y17311D01*
X49983Y17306D01*
X49982Y17301D01*
X49980Y17296D01*
X49978Y17291D01*
X49975Y17287D01*
X49971Y17283D01*
X49735Y17046D01*
X49731Y17043D01*
X49727Y17040D01*
X49722Y17038D01*
X49717Y17036D01*
X49712Y17035D01*
X49707Y17035D01*
X48723Y17035D01*
X48723D01*
D01*
X48717Y17035D01*
X48712Y17036D01*
X48707Y17038D01*
X48705Y17039D01*
X48703Y17040D01*
X48698Y17043D01*
X48694Y17046D01*
Y17046D01*
X48694D01*
X48691Y17050D01*
X48688Y17055D01*
X48687Y17057D01*
X48686Y17059D01*
X48684Y17064D01*
X48683Y17069D01*
X48683Y17075D01*
Y17075D01*
D01*
X48683Y17744D01*
X48683Y17749D01*
X48684Y17754D01*
X48686Y17759D01*
X48687Y17762D01*
X48688Y17764D01*
X48691Y17768D01*
X48694Y17772D01*
X48694D01*
Y17772D01*
X48698Y17776D01*
X48703Y17779D01*
X48705Y17780D01*
X48707Y17781D01*
X48712Y17783D01*
X48717Y17784D01*
X48723Y17784D01*
X48723D01*
D01*
D01*
D02*
G37*
G36*
X27463D02*
X28447Y17784D01*
X28452Y17784D01*
X28457Y17783D01*
X28462Y17781D01*
X28467Y17779D01*
X28471Y17776D01*
X28475Y17772D01*
X28712Y17536D01*
X28715Y17532D01*
X28718Y17528D01*
X28720Y17523D01*
X28722Y17518D01*
X28723Y17513D01*
X28723Y17508D01*
Y17311D01*
X28723Y17306D01*
X28722Y17301D01*
X28720Y17296D01*
X28718Y17291D01*
X28715Y17287D01*
X28712Y17283D01*
X28475Y17046D01*
X28471Y17043D01*
X28467Y17040D01*
X28462Y17038D01*
X28457Y17036D01*
X28452Y17035D01*
X28447Y17035D01*
X27463Y17035D01*
D01*
X27463D01*
X27458Y17035D01*
X27452Y17036D01*
X27447Y17038D01*
X27445Y17039D01*
X27443Y17040D01*
X27438Y17043D01*
X27434Y17046D01*
Y17046D01*
X27434D01*
X27431Y17050D01*
X27428Y17055D01*
X27427Y17057D01*
X27426Y17059D01*
X27424Y17064D01*
X27423Y17069D01*
X27423Y17075D01*
Y17075D01*
D01*
X27423Y17744D01*
X27423Y17749D01*
X27424Y17754D01*
X27426Y17759D01*
X27427Y17762D01*
X27428Y17764D01*
X27431Y17768D01*
X27434Y17772D01*
X27434D01*
Y17772D01*
X27438Y17776D01*
X27443Y17779D01*
X27445Y17780D01*
X27447Y17781D01*
X27452Y17783D01*
X27458Y17784D01*
X27463Y17784D01*
X27463D01*
D01*
D01*
D02*
G37*
G36*
X6203D02*
X7187Y17784D01*
X7192Y17784D01*
X7198Y17783D01*
X7203Y17781D01*
X7207Y17779D01*
X7212Y17776D01*
X7216Y17772D01*
X7452Y17536D01*
X7455Y17532D01*
X7458Y17528D01*
X7460Y17523D01*
X7462Y17518D01*
X7463Y17513D01*
X7463Y17508D01*
Y17311D01*
X7463Y17306D01*
X7462Y17301D01*
X7460Y17296D01*
X7458Y17291D01*
X7455Y17287D01*
X7452Y17283D01*
X7216Y17046D01*
X7212Y17043D01*
X7207Y17040D01*
X7203Y17038D01*
X7198Y17036D01*
X7192Y17035D01*
X7187Y17035D01*
X6203Y17035D01*
X6203D01*
D01*
X6198Y17035D01*
X6193Y17036D01*
X6188Y17038D01*
X6185Y17039D01*
X6183Y17040D01*
X6179Y17043D01*
X6175Y17046D01*
Y17046D01*
X6175D01*
X6171Y17050D01*
X6168Y17055D01*
X6167Y17057D01*
X6166Y17059D01*
X6164Y17064D01*
X6163Y17069D01*
X6163Y17075D01*
Y17075D01*
D01*
X6163Y17744D01*
X6163Y17749D01*
X6164Y17754D01*
X6166Y17759D01*
X6167Y17762D01*
X6168Y17764D01*
X6171Y17768D01*
X6175Y17772D01*
X6175D01*
Y17772D01*
X6179Y17776D01*
X6183Y17779D01*
X6185Y17780D01*
X6188Y17781D01*
X6193Y17783D01*
X6198Y17784D01*
X6203Y17784D01*
X6203D01*
D01*
D01*
D02*
G37*
G36*
X69992Y15054D02*
X70977Y15054D01*
X70982Y15054D01*
X70987Y15053D01*
X70992Y15051D01*
X70997Y15049D01*
X71001Y15046D01*
X71005Y15042D01*
X71241Y14806D01*
X71245Y14802D01*
X71248Y14798D01*
X71250Y14793D01*
X71252Y14788D01*
X71253Y14783D01*
X71253Y14778D01*
Y14581D01*
X71253Y14576D01*
X71252Y14571D01*
X71250Y14566D01*
X71248Y14561D01*
X71245Y14557D01*
X71241Y14553D01*
X71005Y14316D01*
X71001Y14313D01*
X70997Y14310D01*
X70992Y14308D01*
X70987Y14306D01*
X70982Y14305D01*
X70977Y14305D01*
X69992Y14305D01*
D01*
X69992D01*
X69987Y14305D01*
X69982Y14306D01*
X69977Y14308D01*
X69975Y14309D01*
X69972Y14310D01*
X69968Y14313D01*
X69964Y14316D01*
Y14316D01*
X69964D01*
X69961Y14320D01*
X69958Y14325D01*
X69957Y14327D01*
X69955Y14329D01*
X69954Y14334D01*
X69953Y14339D01*
X69952Y14345D01*
Y14345D01*
D01*
X69952Y15014D01*
X69953Y15019D01*
X69954Y15024D01*
X69955Y15029D01*
X69957Y15032D01*
X69958Y15034D01*
X69961Y15038D01*
X69964Y15042D01*
X69964D01*
Y15042D01*
X69968Y15046D01*
X69972Y15049D01*
X69975Y15050D01*
X69977Y15051D01*
X69982Y15053D01*
X69987Y15054D01*
X69992Y15054D01*
X69992D01*
D01*
D01*
D02*
G37*
G36*
X48733D02*
X49717Y15054D01*
X49722Y15054D01*
X49727Y15053D01*
X49732Y15051D01*
X49737Y15049D01*
X49741Y15046D01*
X49745Y15042D01*
X49981Y14806D01*
X49985Y14802D01*
X49988Y14798D01*
X49990Y14793D01*
X49992Y14788D01*
X49993Y14783D01*
X49993Y14778D01*
Y14581D01*
X49993Y14576D01*
X49992Y14571D01*
X49990Y14566D01*
X49988Y14561D01*
X49985Y14557D01*
X49981Y14553D01*
X49745Y14316D01*
X49741Y14313D01*
X49737Y14310D01*
X49732Y14308D01*
X49727Y14306D01*
X49722Y14305D01*
X49717Y14305D01*
X48733Y14305D01*
X48733D01*
D01*
X48727Y14305D01*
X48722Y14306D01*
X48717Y14308D01*
X48715Y14309D01*
X48713Y14310D01*
X48708Y14313D01*
X48704Y14316D01*
Y14316D01*
X48704D01*
X48701Y14320D01*
X48698Y14325D01*
X48697Y14327D01*
X48696Y14329D01*
X48694Y14334D01*
X48693Y14339D01*
X48693Y14345D01*
Y14345D01*
D01*
X48693Y15014D01*
X48693Y15019D01*
X48694Y15024D01*
X48696Y15029D01*
X48697Y15032D01*
X48698Y15034D01*
X48701Y15038D01*
X48704Y15042D01*
X48704D01*
Y15042D01*
X48708Y15046D01*
X48713Y15049D01*
X48715Y15050D01*
X48717Y15051D01*
X48722Y15053D01*
X48727Y15054D01*
X48733Y15054D01*
X48733D01*
D01*
D01*
D02*
G37*
G36*
X27473D02*
X28457Y15054D01*
X28462Y15054D01*
X28467Y15053D01*
X28472Y15051D01*
X28477Y15049D01*
X28481Y15046D01*
X28485Y15042D01*
X28722Y14806D01*
X28725Y14802D01*
X28728Y14798D01*
X28730Y14793D01*
X28732Y14788D01*
X28733Y14783D01*
X28733Y14778D01*
Y14581D01*
X28733Y14576D01*
X28732Y14571D01*
X28730Y14566D01*
X28728Y14561D01*
X28725Y14557D01*
X28722Y14553D01*
X28485Y14316D01*
X28481Y14313D01*
X28477Y14310D01*
X28472Y14308D01*
X28467Y14306D01*
X28462Y14305D01*
X28457Y14305D01*
X27473Y14305D01*
D01*
X27473D01*
X27468Y14305D01*
X27462Y14306D01*
X27457Y14308D01*
X27455Y14309D01*
X27453Y14310D01*
X27448Y14313D01*
X27444Y14316D01*
Y14316D01*
X27444D01*
X27441Y14320D01*
X27438Y14325D01*
X27437Y14327D01*
X27436Y14329D01*
X27434Y14334D01*
X27433Y14339D01*
X27433Y14345D01*
Y14345D01*
D01*
X27433Y15014D01*
X27433Y15019D01*
X27434Y15024D01*
X27436Y15029D01*
X27437Y15032D01*
X27438Y15034D01*
X27441Y15038D01*
X27444Y15042D01*
X27444D01*
Y15042D01*
X27448Y15046D01*
X27453Y15049D01*
X27455Y15050D01*
X27457Y15051D01*
X27462Y15053D01*
X27468Y15054D01*
X27473Y15054D01*
X27473D01*
D01*
D01*
D02*
G37*
G36*
X6213D02*
X7197Y15054D01*
X7202Y15054D01*
X7208Y15053D01*
X7213Y15051D01*
X7217Y15049D01*
X7222Y15046D01*
X7226Y15042D01*
X7462Y14806D01*
X7465Y14802D01*
X7468Y14798D01*
X7470Y14793D01*
X7472Y14788D01*
X7473Y14783D01*
X7473Y14778D01*
Y14581D01*
X7473Y14576D01*
X7472Y14571D01*
X7470Y14566D01*
X7468Y14561D01*
X7465Y14557D01*
X7462Y14553D01*
X7226Y14316D01*
X7222Y14313D01*
X7217Y14310D01*
X7212Y14308D01*
X7208Y14306D01*
X7202Y14305D01*
X7197Y14305D01*
X6213Y14305D01*
X6213D01*
D01*
X6208Y14305D01*
X6203Y14306D01*
X6198Y14308D01*
X6195Y14309D01*
X6193Y14310D01*
X6188Y14313D01*
X6185Y14316D01*
Y14316D01*
X6185D01*
X6181Y14320D01*
X6178Y14325D01*
X6177Y14327D01*
X6176Y14329D01*
X6174Y14334D01*
X6173Y14339D01*
X6173Y14345D01*
Y14345D01*
D01*
X6173Y15014D01*
X6173Y15019D01*
X6174Y15024D01*
X6176Y15029D01*
X6177Y15032D01*
X6178Y15034D01*
X6181Y15038D01*
X6185Y15042D01*
X6185D01*
Y15042D01*
X6189Y15046D01*
X6193Y15049D01*
X6195Y15050D01*
X6198Y15051D01*
X6203Y15053D01*
X6208Y15054D01*
X6213Y15054D01*
X6213D01*
D01*
D01*
D02*
G37*
D92*
X12390Y15979D02*
D03*
X33650D02*
D03*
X54910D02*
D03*
X76170D02*
D03*
D93*
X79078Y1319D02*
D03*
X3789Y21848D02*
D03*
X79078Y21878D02*
D03*
X3789Y1289D02*
D03*
D94*
X16586Y11643D02*
D03*
X17114Y11736D02*
D03*
X37846Y11643D02*
D03*
X38373Y11736D02*
D03*
X59106Y11643D02*
D03*
X59633Y11736D02*
D03*
X80366Y11643D02*
D03*
X80893Y11736D02*
D03*
D95*
X15784Y11121D02*
D03*
X15516Y10658D02*
D03*
X15184Y10271D02*
D03*
X14916Y9808D02*
D03*
X14404Y9431D02*
D03*
X14136Y8968D02*
D03*
X37044Y11121D02*
D03*
X36776Y10658D02*
D03*
X36444Y10271D02*
D03*
X36176Y9808D02*
D03*
X35664Y9431D02*
D03*
X35396Y8968D02*
D03*
X58304Y11121D02*
D03*
X58036Y10658D02*
D03*
X57704Y10271D02*
D03*
X57436Y9808D02*
D03*
X56924Y9431D02*
D03*
X56656Y8968D02*
D03*
X79563Y11121D02*
D03*
X79296Y10658D02*
D03*
X78963Y10271D02*
D03*
X78696Y9808D02*
D03*
X78183Y9431D02*
D03*
X77916Y8968D02*
D03*
D96*
X11990Y17827D02*
D03*
Y17292D02*
D03*
X12670Y14452D02*
D03*
Y14987D02*
D03*
X11100Y17827D02*
D03*
Y17292D02*
D03*
X10935Y15606D02*
D03*
X10935Y15070D02*
D03*
X9415Y18266D02*
D03*
Y18801D02*
D03*
X11550Y16341D02*
D03*
Y15806D02*
D03*
Y14756D02*
D03*
Y15291D02*
D03*
X5820Y14327D02*
D03*
Y13792D02*
D03*
X33250Y17827D02*
D03*
Y17292D02*
D03*
X33930Y14452D02*
D03*
Y14987D02*
D03*
X32360Y17827D02*
D03*
Y17292D02*
D03*
X32195Y15606D02*
D03*
X32195Y15070D02*
D03*
X30675Y18266D02*
D03*
Y18801D02*
D03*
X32810Y16341D02*
D03*
Y15806D02*
D03*
Y14756D02*
D03*
Y15291D02*
D03*
X27080Y14327D02*
D03*
Y13792D02*
D03*
X54510Y17827D02*
D03*
Y17292D02*
D03*
X55190Y14452D02*
D03*
Y14987D02*
D03*
X53620Y17827D02*
D03*
Y17292D02*
D03*
X53455Y15606D02*
D03*
X53455Y15070D02*
D03*
X51935Y18266D02*
D03*
Y18801D02*
D03*
X54070Y16341D02*
D03*
Y15806D02*
D03*
Y14756D02*
D03*
Y15291D02*
D03*
X48340Y14327D02*
D03*
Y13792D02*
D03*
X75770Y17827D02*
D03*
Y17292D02*
D03*
X76450Y14452D02*
D03*
Y14987D02*
D03*
X74879Y17827D02*
D03*
Y17292D02*
D03*
X74715Y15606D02*
D03*
X74715Y15070D02*
D03*
X73195Y18266D02*
D03*
Y18801D02*
D03*
X75329Y16341D02*
D03*
Y15806D02*
D03*
Y14756D02*
D03*
Y15291D02*
D03*
X69600Y14327D02*
D03*
Y13792D02*
D03*
D97*
X11571Y13979D02*
D03*
X11950D02*
D03*
X32831D02*
D03*
X33210D02*
D03*
X54091D02*
D03*
X54470D02*
D03*
X75351D02*
D03*
X75730D02*
D03*
D98*
X12650Y13888D02*
D03*
X12650Y13509D02*
D03*
X16060Y12108D02*
D03*
Y11729D02*
D03*
X33910Y13888D02*
D03*
X33910Y13509D02*
D03*
X37320Y12108D02*
D03*
Y11729D02*
D03*
X55170Y13888D02*
D03*
X55170Y13509D02*
D03*
X58580Y12108D02*
D03*
Y11729D02*
D03*
X76430Y13888D02*
D03*
X76430Y13509D02*
D03*
X79840Y12108D02*
D03*
Y11729D02*
D03*
D99*
X16500Y4758D02*
D03*
X17130Y5850D02*
D03*
X17530Y6538D02*
D03*
X18160Y7630D02*
D03*
X37760Y4758D02*
D03*
X38390Y5850D02*
D03*
X38790Y6538D02*
D03*
X39420Y7630D02*
D03*
X59020Y4758D02*
D03*
X59650Y5850D02*
D03*
X60050Y6538D02*
D03*
X60680Y7630D02*
D03*
X80280Y4758D02*
D03*
X80910Y5850D02*
D03*
X81310Y6538D02*
D03*
X81940Y7630D02*
D03*
D100*
X2605Y4744D02*
D03*
X1975Y5835D02*
D03*
X1560Y6568D02*
D03*
X930Y7660D02*
D03*
X23865Y4744D02*
D03*
X23235Y5835D02*
D03*
X22820Y6568D02*
D03*
X22190Y7660D02*
D03*
X45125Y4744D02*
D03*
X44495Y5835D02*
D03*
X44080Y6568D02*
D03*
X43450Y7660D02*
D03*
X66384Y4744D02*
D03*
X65755Y5835D02*
D03*
X65340Y6568D02*
D03*
X64710Y7660D02*
D03*
D101*
X13113Y8317D02*
D03*
X12208Y7024D02*
D03*
X34373Y8317D02*
D03*
X33468Y7024D02*
D03*
X55633Y8317D02*
D03*
X54728Y7024D02*
D03*
X76893Y8317D02*
D03*
X75988Y7024D02*
D03*
D102*
X7385Y16049D02*
D03*
X6795Y16049D02*
D03*
X28645Y16049D02*
D03*
X28055Y16049D02*
D03*
X49905Y16049D02*
D03*
X49314Y16049D02*
D03*
X71165Y16049D02*
D03*
X70574Y16049D02*
D03*
D103*
X8718Y16189D02*
D03*
X8182Y16189D02*
D03*
X13192Y15879D02*
D03*
X13728D02*
D03*
X13192Y16519D02*
D03*
X13728D02*
D03*
X10513Y18694D02*
D03*
X9977Y18694D02*
D03*
X10083Y16613D02*
D03*
X9547Y16613D02*
D03*
X9542Y15949D02*
D03*
X10078Y15949D02*
D03*
X29978Y16189D02*
D03*
X29442Y16189D02*
D03*
X34452Y15879D02*
D03*
X34988D02*
D03*
X34452Y16519D02*
D03*
X34988D02*
D03*
X31773Y18694D02*
D03*
X31237Y18694D02*
D03*
X31343Y16613D02*
D03*
X30807Y16613D02*
D03*
X30802Y15949D02*
D03*
X31338Y15949D02*
D03*
X51237Y16189D02*
D03*
X50702Y16189D02*
D03*
X55712Y15879D02*
D03*
X56247D02*
D03*
X55712Y16519D02*
D03*
X56247D02*
D03*
X53032Y18694D02*
D03*
X52497Y18694D02*
D03*
X52602Y16613D02*
D03*
X52067Y16613D02*
D03*
X52062Y15949D02*
D03*
X52597Y15949D02*
D03*
X72497Y16189D02*
D03*
X71962Y16189D02*
D03*
X76972Y15879D02*
D03*
X77507D02*
D03*
X76972Y16519D02*
D03*
X77507D02*
D03*
X74292Y18694D02*
D03*
X73757Y18694D02*
D03*
X73862Y16613D02*
D03*
X73327Y16613D02*
D03*
X73322Y15949D02*
D03*
X73857Y15949D02*
D03*
D104*
X8590Y18043D02*
D03*
Y17289D02*
D03*
X8500Y15373D02*
D03*
X8500Y14619D02*
D03*
X29850Y18043D02*
D03*
Y17289D02*
D03*
X29760Y15373D02*
D03*
X29760Y14619D02*
D03*
X51110Y18043D02*
D03*
Y17289D02*
D03*
X51020Y15373D02*
D03*
X51020Y14619D02*
D03*
X72370Y18043D02*
D03*
Y17289D02*
D03*
X72280Y15373D02*
D03*
X72280Y14619D02*
D03*
D105*
X10195Y5929D02*
D03*
X9466D02*
D03*
X10194Y6669D02*
D03*
X9466D02*
D03*
X31455Y5929D02*
D03*
X30726D02*
D03*
X31454Y6669D02*
D03*
X30726D02*
D03*
X52714Y5929D02*
D03*
X51986D02*
D03*
X52714Y6669D02*
D03*
X51986D02*
D03*
X73974Y5929D02*
D03*
X73246D02*
D03*
X73974Y6669D02*
D03*
X73245D02*
D03*
D106*
X8850Y6015D02*
D03*
X8850Y6744D02*
D03*
X30110Y6015D02*
D03*
X30110Y6744D02*
D03*
X51370Y6015D02*
D03*
X51370Y6744D02*
D03*
X72630Y6015D02*
D03*
X72630Y6744D02*
D03*
D107*
X5378Y8915D02*
D03*
X5742Y8284D02*
D03*
X5081Y9409D02*
D03*
X4716Y10040D02*
D03*
X26638Y8915D02*
D03*
X27002Y8284D02*
D03*
X26340Y9409D02*
D03*
X25976Y10040D02*
D03*
X47898Y8915D02*
D03*
X48262Y8284D02*
D03*
X47600Y9409D02*
D03*
X47236Y10040D02*
D03*
X69157Y8915D02*
D03*
X69522Y8284D02*
D03*
X68860Y9409D02*
D03*
X68496Y10040D02*
D03*
D108*
X9681Y17220D02*
D03*
X10435Y17220D02*
D03*
X10055Y18054D02*
D03*
X12571Y17259D02*
D03*
X13325Y17259D02*
D03*
X12945Y18093D02*
D03*
X30941Y17220D02*
D03*
X31695Y17220D02*
D03*
X31315Y18054D02*
D03*
X33831Y17259D02*
D03*
X34585Y17259D02*
D03*
X34205Y18093D02*
D03*
X52201Y17220D02*
D03*
X52955Y17220D02*
D03*
X52575Y18054D02*
D03*
X55090Y17259D02*
D03*
X55844Y17259D02*
D03*
X55464Y18093D02*
D03*
X73461Y17220D02*
D03*
X74215Y17220D02*
D03*
X73835Y18054D02*
D03*
X76350Y17259D02*
D03*
X77104Y17259D02*
D03*
X76724Y18093D02*
D03*
D109*
X10364Y14605D02*
D03*
X10364Y15359D02*
D03*
X9530Y14979D02*
D03*
X31624Y14605D02*
D03*
X31624Y15359D02*
D03*
X30790Y14979D02*
D03*
X52883Y14605D02*
D03*
X52883Y15359D02*
D03*
X52050Y14979D02*
D03*
X74143Y14605D02*
D03*
X74143Y15359D02*
D03*
X73310Y14979D02*
D03*
D110*
X12685Y15689D02*
D03*
X12095D02*
D03*
X12685Y15881D02*
D03*
X12095D02*
D03*
X12685Y16078D02*
D03*
X12095Y16078D02*
D03*
X12685Y16270D02*
D03*
X12095Y16270D02*
D03*
X33945Y15689D02*
D03*
X33355D02*
D03*
X33945Y15881D02*
D03*
X33355D02*
D03*
X33945Y16078D02*
D03*
X33355Y16078D02*
D03*
X33945Y16270D02*
D03*
X33355Y16270D02*
D03*
X55205Y15689D02*
D03*
X54614D02*
D03*
X55205Y15881D02*
D03*
X54614D02*
D03*
X55205Y16078D02*
D03*
X54614Y16078D02*
D03*
X55205Y16270D02*
D03*
X54614Y16270D02*
D03*
X76465Y15689D02*
D03*
X75874D02*
D03*
X76465Y15881D02*
D03*
X75874D02*
D03*
X76465Y16078D02*
D03*
X75874Y16078D02*
D03*
X76465Y16270D02*
D03*
X75874Y16270D02*
D03*
D111*
X12488Y15684D02*
D03*
X12292Y15684D02*
D03*
X12488Y16275D02*
D03*
X12292D02*
D03*
X33748Y15684D02*
D03*
X33551Y15684D02*
D03*
X33748Y16275D02*
D03*
X33551D02*
D03*
X55008Y15684D02*
D03*
X54811Y15684D02*
D03*
X55008Y16275D02*
D03*
X54811D02*
D03*
X76268Y15684D02*
D03*
X76071Y15684D02*
D03*
X76268Y16275D02*
D03*
X76071D02*
D03*
D112*
X14645Y10334D02*
D03*
X14456Y10006D02*
D03*
X35905Y10334D02*
D03*
X35715Y10006D02*
D03*
X57165Y10334D02*
D03*
X56975Y10006D02*
D03*
X78425Y10334D02*
D03*
X78235Y10006D02*
D03*
D113*
X16740Y12959D02*
D03*
X1110Y10679D02*
D03*
X38000Y12959D02*
D03*
X22370Y10679D02*
D03*
X59260Y12959D02*
D03*
X43630Y10679D02*
D03*
X80520Y12959D02*
D03*
X64890Y10679D02*
D03*
D114*
X13215Y9414D02*
D03*
X13544Y9225D02*
D03*
X34475Y9414D02*
D03*
X34804Y9225D02*
D03*
X55735Y9414D02*
D03*
X56063Y9225D02*
D03*
X76995Y9414D02*
D03*
X77323Y9225D02*
D03*
D115*
X7581Y18000D02*
D03*
Y16819D02*
D03*
X7591Y14089D02*
D03*
Y15270D02*
D03*
X28841Y18000D02*
D03*
Y16819D02*
D03*
X28851Y14089D02*
D03*
Y15270D02*
D03*
X50101Y18000D02*
D03*
Y16819D02*
D03*
X50111Y14089D02*
D03*
Y15270D02*
D03*
X71360Y18000D02*
D03*
Y16819D02*
D03*
X71370Y14089D02*
D03*
Y15270D02*
D03*
D116*
X7581Y17409D02*
D03*
X7591Y14679D02*
D03*
X28841Y17409D02*
D03*
X28851Y14679D02*
D03*
X50101Y17409D02*
D03*
X50111Y14679D02*
D03*
X71360Y17409D02*
D03*
X71370Y14679D02*
D03*
D117*
X13560Y14843D02*
D03*
X7063Y6370D02*
D03*
X11440Y5226D02*
D03*
X5469Y4643D02*
D03*
X2619Y9553D02*
D03*
X3569Y7913D02*
D03*
X4519Y6273D02*
D03*
X34820Y14843D02*
D03*
X28323Y6370D02*
D03*
X32700Y5226D02*
D03*
X26729Y4643D02*
D03*
X23879Y9553D02*
D03*
X24829Y7913D02*
D03*
X25779Y6273D02*
D03*
X56080Y14843D02*
D03*
X49583Y6370D02*
D03*
X53960Y5226D02*
D03*
X47989Y4643D02*
D03*
X45139Y9553D02*
D03*
X46089Y7913D02*
D03*
X47039Y6273D02*
D03*
X77339Y14843D02*
D03*
X70843Y6370D02*
D03*
X75220Y5226D02*
D03*
X69249Y4643D02*
D03*
X66399Y9553D02*
D03*
X67349Y7913D02*
D03*
X68299Y6273D02*
D03*
D118*
X13560Y14055D02*
D03*
X11440Y6013D02*
D03*
X34820Y14055D02*
D03*
X32700Y6013D02*
D03*
X56080Y14055D02*
D03*
X53960Y6013D02*
D03*
X77339Y14055D02*
D03*
X75220Y6013D02*
D03*
D119*
X7457Y5688D02*
D03*
X28717D02*
D03*
X49977D02*
D03*
X71236D02*
D03*
D120*
X4697Y11428D02*
D03*
X14357D02*
D03*
X25956D02*
D03*
X35616D02*
D03*
X47216D02*
D03*
X56876D02*
D03*
X68476D02*
D03*
X78136D02*
D03*
D121*
X9517Y10709D02*
D03*
X30776D02*
D03*
X52036D02*
D03*
X73296D02*
D03*
D122*
X13525Y4360D02*
D03*
X14017Y5212D02*
D03*
X14509Y6064D02*
D03*
X15001Y6917D02*
D03*
X15493Y7769D02*
D03*
X15985Y8622D02*
D03*
X16477Y9474D02*
D03*
X16970Y10326D02*
D03*
X34785Y4360D02*
D03*
X35277Y5212D02*
D03*
X35769Y6064D02*
D03*
X36261Y6917D02*
D03*
X36753Y7769D02*
D03*
X37245Y8622D02*
D03*
X37737Y9474D02*
D03*
X38229Y10326D02*
D03*
X56044Y4360D02*
D03*
X56537Y5212D02*
D03*
X57029Y6064D02*
D03*
X57521Y6917D02*
D03*
X58013Y7769D02*
D03*
X58505Y8622D02*
D03*
X58997Y9474D02*
D03*
X59489Y10326D02*
D03*
X77304Y4360D02*
D03*
X77796Y5212D02*
D03*
X78288Y6064D02*
D03*
X78781Y6917D02*
D03*
X79273Y7769D02*
D03*
X79765Y8622D02*
D03*
X80257Y9474D02*
D03*
X80749Y10326D02*
D03*
D123*
X6151Y5036D02*
D03*
X3301Y9946D02*
D03*
X4251Y8306D02*
D03*
X5201Y6666D02*
D03*
X27411Y5036D02*
D03*
X24561Y9946D02*
D03*
X25511Y8306D02*
D03*
X26461Y6666D02*
D03*
X48671Y5036D02*
D03*
X45821Y9946D02*
D03*
X46771Y8306D02*
D03*
X47721Y6666D02*
D03*
X69930Y5036D02*
D03*
X67080Y9946D02*
D03*
X68030Y8306D02*
D03*
X68980Y6666D02*
D03*
D124*
X7280Y3499D02*
D03*
X28540D02*
D03*
X49800D02*
D03*
X71060D02*
D03*
D125*
X11760D02*
D03*
X33020D02*
D03*
X54280D02*
D03*
X75540D02*
D03*
M02*
