G04 Layer_Physical_Order=1*
G04 Layer_Color=255*
%FSLAX24Y24*%
%MOIN*%
G70*
G01*
G75*
%ADD10C,0.0070*%
G04:AMPARAMS|DCode=11|XSize=78.7mil|YSize=78.7mil|CornerRadius=39.4mil|HoleSize=0mil|Usage=FLASHONLY|Rotation=90.000|XOffset=0mil|YOffset=0mil|HoleType=Round|Shape=RoundedRectangle|*
%AMROUNDEDRECTD11*
21,1,0.0787,0.0000,0,0,90.0*
21,1,0.0000,0.0787,0,0,90.0*
1,1,0.0787,0.0000,0.0000*
1,1,0.0787,0.0000,0.0000*
1,1,0.0787,0.0000,0.0000*
1,1,0.0787,0.0000,0.0000*
%
%ADD11ROUNDEDRECTD11*%
%ADD12C,0.0100*%
G04:AMPARAMS|DCode=13|XSize=29.1mil|YSize=39.4mil|CornerRadius=5.8mil|HoleSize=0mil|Usage=FLASHONLY|Rotation=190.000|XOffset=0mil|YOffset=0mil|HoleType=Round|Shape=RoundedRectangle|*
%AMROUNDEDRECTD13*
21,1,0.0291,0.0277,0,0,190.0*
21,1,0.0175,0.0394,0,0,190.0*
1,1,0.0117,-0.0110,0.0121*
1,1,0.0117,0.0062,0.0152*
1,1,0.0117,0.0110,-0.0121*
1,1,0.0117,-0.0062,-0.0152*
%
%ADD13ROUNDEDRECTD13*%
G04:AMPARAMS|DCode=14|XSize=29.1mil|YSize=39.4mil|CornerRadius=5.8mil|HoleSize=0mil|Usage=FLASHONLY|Rotation=60.000|XOffset=0mil|YOffset=0mil|HoleType=Round|Shape=RoundedRectangle|*
%AMROUNDEDRECTD14*
21,1,0.0291,0.0277,0,0,60.0*
21,1,0.0175,0.0394,0,0,60.0*
1,1,0.0117,0.0164,0.0006*
1,1,0.0117,0.0076,-0.0145*
1,1,0.0117,-0.0164,-0.0006*
1,1,0.0117,-0.0076,0.0145*
%
%ADD14ROUNDEDRECTD14*%
G04:AMPARAMS|DCode=15|XSize=29.1mil|YSize=39.4mil|CornerRadius=5.8mil|HoleSize=0mil|Usage=FLASHONLY|Rotation=90.000|XOffset=0mil|YOffset=0mil|HoleType=Round|Shape=RoundedRectangle|*
%AMROUNDEDRECTD15*
21,1,0.0291,0.0277,0,0,90.0*
21,1,0.0175,0.0394,0,0,90.0*
1,1,0.0117,0.0139,0.0087*
1,1,0.0117,0.0139,-0.0087*
1,1,0.0117,-0.0139,-0.0087*
1,1,0.0117,-0.0139,0.0087*
%
%ADD15ROUNDEDRECTD15*%
G04:AMPARAMS|DCode=16|XSize=22mil|YSize=24mil|CornerRadius=4.4mil|HoleSize=0mil|Usage=FLASHONLY|Rotation=0.000|XOffset=0mil|YOffset=0mil|HoleType=Round|Shape=RoundedRectangle|*
%AMROUNDEDRECTD16*
21,1,0.0220,0.0152,0,0,0.0*
21,1,0.0132,0.0240,0,0,0.0*
1,1,0.0088,0.0066,-0.0076*
1,1,0.0088,-0.0066,-0.0076*
1,1,0.0088,-0.0066,0.0076*
1,1,0.0088,0.0066,0.0076*
%
%ADD16ROUNDEDRECTD16*%
G04:AMPARAMS|DCode=17|XSize=22mil|YSize=24mil|CornerRadius=4.4mil|HoleSize=0mil|Usage=FLASHONLY|Rotation=270.000|XOffset=0mil|YOffset=0mil|HoleType=Round|Shape=RoundedRectangle|*
%AMROUNDEDRECTD17*
21,1,0.0220,0.0152,0,0,270.0*
21,1,0.0132,0.0240,0,0,270.0*
1,1,0.0088,-0.0076,-0.0066*
1,1,0.0088,-0.0076,0.0066*
1,1,0.0088,0.0076,0.0066*
1,1,0.0088,0.0076,-0.0066*
%
%ADD17ROUNDEDRECTD17*%
G04:AMPARAMS|DCode=18|XSize=47.2mil|YSize=59.1mil|CornerRadius=0mil|HoleSize=0mil|Usage=FLASHONLY|Rotation=240.000|XOffset=0mil|YOffset=0mil|HoleType=Round|Shape=Rectangle|*
%AMROTATEDRECTD18*
4,1,4,-0.0138,0.0352,0.0374,0.0057,0.0138,-0.0352,-0.0374,-0.0057,-0.0138,0.0352,0.0*
%
%ADD18ROTATEDRECTD18*%

G04:AMPARAMS|DCode=19|XSize=47.2mil|YSize=59.1mil|CornerRadius=0mil|HoleSize=0mil|Usage=FLASHONLY|Rotation=300.000|XOffset=0mil|YOffset=0mil|HoleType=Round|Shape=Rectangle|*
%AMROTATEDRECTD19*
4,1,4,-0.0374,0.0057,0.0138,0.0352,0.0374,-0.0057,-0.0138,-0.0352,-0.0374,0.0057,0.0*
%
%ADD19ROTATEDRECTD19*%

%ADD20P,0.1117X4X100.0*%
%ADD21R,0.0433X0.0551*%
G04:AMPARAMS|DCode=22|XSize=29.1mil|YSize=39.4mil|CornerRadius=5.8mil|HoleSize=0mil|Usage=FLASHONLY|Rotation=0.000|XOffset=0mil|YOffset=0mil|HoleType=Round|Shape=RoundedRectangle|*
%AMROUNDEDRECTD22*
21,1,0.0291,0.0277,0,0,0.0*
21,1,0.0175,0.0394,0,0,0.0*
1,1,0.0117,0.0087,-0.0139*
1,1,0.0117,-0.0087,-0.0139*
1,1,0.0117,-0.0087,0.0139*
1,1,0.0117,0.0087,0.0139*
%
%ADD22ROUNDEDRECTD22*%
G04:AMPARAMS|DCode=23|XSize=52mil|YSize=60mil|CornerRadius=13mil|HoleSize=0mil|Usage=FLASHONLY|Rotation=270.000|XOffset=0mil|YOffset=0mil|HoleType=Round|Shape=RoundedRectangle|*
%AMROUNDEDRECTD23*
21,1,0.0520,0.0340,0,0,270.0*
21,1,0.0260,0.0600,0,0,270.0*
1,1,0.0260,-0.0170,-0.0130*
1,1,0.0260,-0.0170,0.0130*
1,1,0.0260,0.0170,0.0130*
1,1,0.0260,0.0170,-0.0130*
%
%ADD23ROUNDEDRECTD23*%
%ADD24R,0.0335X0.0492*%
%ADD25R,0.0492X0.0335*%
G04:AMPARAMS|DCode=26|XSize=49.2mil|YSize=33.5mil|CornerRadius=0mil|HoleSize=0mil|Usage=FLASHONLY|Rotation=210.000|XOffset=0mil|YOffset=0mil|HoleType=Round|Shape=Rectangle|*
%AMROTATEDRECTD26*
4,1,4,0.0129,0.0268,0.0297,-0.0022,-0.0129,-0.0268,-0.0297,0.0022,0.0129,0.0268,0.0*
%
%ADD26ROTATEDRECTD26*%

%ADD27R,0.0320X0.0360*%
%ADD28R,0.0360X0.0320*%
%ADD29R,0.0148X0.0138*%
%ADD30R,0.0138X0.0148*%
G04:AMPARAMS|DCode=31|XSize=22mil|YSize=24mil|CornerRadius=4.4mil|HoleSize=0mil|Usage=FLASHONLY|Rotation=60.000|XOffset=0mil|YOffset=0mil|HoleType=Round|Shape=RoundedRectangle|*
%AMROUNDEDRECTD31*
21,1,0.0220,0.0152,0,0,60.0*
21,1,0.0132,0.0240,0,0,60.0*
1,1,0.0088,0.0099,0.0019*
1,1,0.0088,0.0033,-0.0095*
1,1,0.0088,-0.0099,-0.0019*
1,1,0.0088,-0.0033,0.0095*
%
%ADD31ROUNDEDRECTD31*%
G04:AMPARAMS|DCode=32|XSize=78.7mil|YSize=78.7mil|CornerRadius=39.4mil|HoleSize=0mil|Usage=FLASHONLY|Rotation=0.000|XOffset=0mil|YOffset=0mil|HoleType=Round|Shape=RoundedRectangle|*
%AMROUNDEDRECTD32*
21,1,0.0787,0.0000,0,0,0.0*
21,1,0.0000,0.0787,0,0,0.0*
1,1,0.0787,0.0000,0.0000*
1,1,0.0787,0.0000,0.0000*
1,1,0.0787,0.0000,0.0000*
1,1,0.0787,0.0000,0.0000*
%
%ADD32ROUNDEDRECTD32*%
G04:AMPARAMS|DCode=33|XSize=22mil|YSize=24mil|CornerRadius=4.4mil|HoleSize=0mil|Usage=FLASHONLY|Rotation=150.000|XOffset=0mil|YOffset=0mil|HoleType=Round|Shape=RoundedRectangle|*
%AMROUNDEDRECTD33*
21,1,0.0220,0.0152,0,0,150.0*
21,1,0.0132,0.0240,0,0,150.0*
1,1,0.0088,-0.0019,0.0099*
1,1,0.0088,0.0095,0.0033*
1,1,0.0088,0.0019,-0.0099*
1,1,0.0088,-0.0095,-0.0033*
%
%ADD33ROUNDEDRECTD33*%
%ADD34R,0.0551X0.0224*%
%ADD35R,0.0551X0.0256*%
%ADD36C,0.0080*%
%ADD37C,0.0120*%
%ADD38C,0.0160*%
%ADD39C,0.0130*%
%ADD40C,0.0130*%
%ADD41C,0.0200*%
%ADD42C,0.0300*%
%ADD43C,0.0800*%
%ADD44C,0.0240*%
%ADD45C,0.0400*%
%ADD46C,0.0490*%
%ADD47R,0.0490X0.0490*%
%ADD48P,0.0693X4X165.0*%
%ADD49C,0.1000*%
%ADD50C,0.6000*%
%ADD51C,0.0748*%
%ADD52P,0.0693X4X255.0*%
%ADD53P,0.0866X8X22.5*%
%ADD54C,0.0800*%
%ADD55C,0.0300*%
%ADD56C,0.0290*%
%ADD57C,0.0400*%
G36*
X80319Y22843D02*
Y20845D01*
X2755Y20845D01*
Y22843D01*
X80319Y22843D01*
D02*
G37*
G36*
X70967Y17744D02*
X71203Y17508D01*
Y17311D01*
X70967Y17075D01*
X69982Y17075D01*
X69982Y17744D01*
X70967Y17744D01*
D02*
G37*
G36*
X49707D02*
X49943Y17508D01*
Y17311D01*
X49707Y17075D01*
X48723Y17075D01*
X48723Y17744D01*
X49707Y17744D01*
D02*
G37*
G36*
X28447D02*
X28683Y17508D01*
Y17311D01*
X28447Y17075D01*
X27463Y17075D01*
X27463Y17744D01*
X28447Y17744D01*
D02*
G37*
G36*
X7187D02*
X7423Y17508D01*
Y17311D01*
X7187Y17075D01*
X6203Y17075D01*
X6203Y17744D01*
X7187Y17744D01*
D02*
G37*
G36*
X70977Y15014D02*
X71213Y14778D01*
Y14581D01*
X70977Y14345D01*
X69992Y14345D01*
X69992Y15014D01*
X70977Y15014D01*
D02*
G37*
G36*
X49717D02*
X49953Y14778D01*
Y14581D01*
X49717Y14345D01*
X48733Y14345D01*
X48733Y15014D01*
X49717Y15014D01*
D02*
G37*
G36*
X28457D02*
X28693Y14778D01*
Y14581D01*
X28457Y14345D01*
X27473Y14345D01*
X27473Y15014D01*
X28457Y15014D01*
D02*
G37*
G36*
X7197D02*
X7433Y14778D01*
Y14581D01*
X7197Y14345D01*
X6213Y14345D01*
X6213Y15014D01*
X7197Y15014D01*
D02*
G37*
G36*
X80300Y2333D02*
Y335D01*
X2736Y335D01*
Y2333D01*
X80300Y2333D01*
D02*
G37*
%LPC*%
G36*
X79669Y22671D02*
Y22670D01*
X78487D01*
Y22671D01*
X78410Y22656D01*
X78344Y22612D01*
X78300Y22546D01*
X78285Y22469D01*
X78286D01*
Y21287D01*
X78285D01*
X78300Y21210D01*
X78344Y21144D01*
X78410Y21100D01*
X78487Y21085D01*
Y21086D01*
X79669D01*
Y21085D01*
X79746Y21100D01*
X79812Y21144D01*
X79856Y21210D01*
X79871Y21287D01*
X79870D01*
Y22469D01*
X79871D01*
X79856Y22546D01*
X79812Y22612D01*
X79746Y22656D01*
X79669Y22671D01*
D02*
G37*
G36*
X4380Y22642D02*
Y22640D01*
X3199D01*
Y22642D01*
X3121Y22626D01*
X3056Y22582D01*
X3012Y22517D01*
X2996Y22439D01*
X2998D01*
Y21258D01*
X2996D01*
X3012Y21180D01*
X3056Y21115D01*
X3121Y21071D01*
X3199Y21055D01*
Y21057D01*
X4380D01*
Y21055D01*
X4457Y21071D01*
X4523Y21115D01*
X4567Y21180D01*
X4583Y21258D01*
X4581D01*
Y22439D01*
X4583D01*
X4567Y22517D01*
X4523Y22582D01*
X4457Y22626D01*
X4380Y22642D01*
D02*
G37*
G36*
X79669Y2112D02*
Y2111D01*
X78487D01*
Y2112D01*
X78410Y2097D01*
X78344Y2053D01*
X78300Y1987D01*
X78285Y1909D01*
X78286D01*
Y728D01*
X78285D01*
X78300Y651D01*
X78344Y585D01*
X78410Y541D01*
X78487Y526D01*
Y527D01*
X79669D01*
Y526D01*
X79746Y541D01*
X79812Y585D01*
X79856Y651D01*
X79871Y728D01*
X79870D01*
Y1909D01*
X79871D01*
X79856Y1987D01*
X79812Y2053D01*
X79746Y2097D01*
X79669Y2112D01*
D02*
G37*
G36*
X4380Y2083D02*
Y2081D01*
X3199D01*
Y2083D01*
X3121Y2067D01*
X3056Y2023D01*
X3012Y1957D01*
X2996Y1880D01*
X2998D01*
Y699D01*
X2996D01*
X3012Y621D01*
X3056Y556D01*
X3121Y512D01*
X3199Y496D01*
Y498D01*
X4380D01*
Y496D01*
X4457Y512D01*
X4523Y556D01*
X4567Y621D01*
X4583Y699D01*
X4581D01*
Y1880D01*
X4583D01*
X4567Y1957D01*
X4523Y2023D01*
X4457Y2067D01*
X4380Y2083D01*
D02*
G37*
%LPD*%
D10*
X79747Y1319D02*
G03*
X79747Y1319I-669J0D01*
G01*
X4459Y21848D02*
G03*
X4459Y21848I-669J0D01*
G01*
X79747Y21878D02*
G03*
X79747Y21878I-669J0D01*
G01*
X4459Y1289D02*
G03*
X4459Y1289I-669J0D01*
G01*
X17409Y12959D02*
G03*
X17409Y12959I-669J0D01*
G01*
X1779Y10679D02*
G03*
X1779Y10679I-669J0D01*
G01*
X12095Y16275D02*
Y16494D01*
X11550Y16341D02*
X11607D01*
X11871Y16078D01*
X12095D01*
X12320Y15529D02*
X12480D01*
X12292Y15558D02*
X12320Y15529D01*
X12292Y15558D02*
Y15684D01*
X12095Y15505D02*
Y15684D01*
X12685Y15374D02*
X12870Y15559D01*
Y15819D01*
X12808Y15881D02*
X12870Y15819D01*
X12685Y15881D02*
X12808D01*
X12685Y15374D02*
Y15689D01*
X12480Y15529D02*
X12530D01*
X12480D02*
X12488Y15538D01*
Y15684D01*
X12530Y15529D02*
X12685Y15374D01*
X12685Y16078D02*
X13038D01*
X13192Y15879D02*
Y15924D01*
X13038Y16078D02*
X13192Y15924D01*
X12292Y16275D02*
Y16461D01*
X11551Y15881D02*
X12095D01*
X12685Y16275D02*
X12685Y16415D01*
X38669Y12959D02*
G03*
X38669Y12959I-669J0D01*
G01*
X23039Y10679D02*
G03*
X23039Y10679I-669J0D01*
G01*
X33355Y16275D02*
Y16494D01*
X32810Y16341D02*
X32867D01*
X33131Y16078D01*
X33355D01*
X33580Y15529D02*
X33740D01*
X33551Y15558D02*
X33580Y15529D01*
X33551Y15558D02*
Y15684D01*
X33355Y15505D02*
Y15684D01*
X33945Y15374D02*
X34130Y15559D01*
Y15819D01*
X34068Y15881D02*
X34130Y15819D01*
X33945Y15881D02*
X34068D01*
X33945Y15374D02*
Y15689D01*
X33740Y15529D02*
X33790D01*
X33740D02*
X33748Y15538D01*
Y15684D01*
X33790Y15529D02*
X33945Y15374D01*
X33945Y16078D02*
X34298D01*
X34452Y15879D02*
Y15924D01*
X34298Y16078D02*
X34452Y15924D01*
X33551Y16275D02*
Y16461D01*
X32811Y15881D02*
X33355D01*
X33945Y16275D02*
X33945Y16415D01*
X59929Y12959D02*
G03*
X59929Y12959I-669J0D01*
G01*
X44299Y10679D02*
G03*
X44299Y10679I-669J0D01*
G01*
X54614Y16275D02*
Y16494D01*
X54070Y16341D02*
X54127D01*
X54391Y16078D01*
X54614D01*
X54840Y15529D02*
X55000D01*
X54811Y15558D02*
X54840Y15529D01*
X54811Y15558D02*
Y15684D01*
X54614Y15505D02*
Y15684D01*
X55205Y15374D02*
X55390Y15559D01*
Y15819D01*
X55328Y15881D02*
X55390Y15819D01*
X55205Y15881D02*
X55328D01*
X55205Y15374D02*
Y15689D01*
X55000Y15529D02*
X55050D01*
X55000D02*
X55008Y15538D01*
Y15684D01*
X55050Y15529D02*
X55205Y15374D01*
X55205Y16078D02*
X55558D01*
X55712Y15879D02*
Y15924D01*
X55558Y16078D02*
X55712Y15924D01*
X54811Y16275D02*
Y16461D01*
X54070Y15881D02*
X54614D01*
X55205Y16275D02*
X55205Y16415D01*
X81189Y12959D02*
G03*
X81189Y12959I-669J0D01*
G01*
X65559Y10679D02*
G03*
X65559Y10679I-669J0D01*
G01*
X75874Y16275D02*
Y16494D01*
X75329Y16341D02*
X75387D01*
X75651Y16078D01*
X75874D01*
X76100Y15529D02*
X76260D01*
X76071Y15558D02*
X76100Y15529D01*
X76071Y15558D02*
Y15684D01*
X75874Y15505D02*
Y15684D01*
X76465Y15374D02*
X76650Y15559D01*
Y15819D01*
X76588Y15881D02*
X76650Y15819D01*
X76465Y15881D02*
X76588D01*
X76465Y15374D02*
Y15689D01*
X76260Y15529D02*
X76310D01*
X76260D02*
X76268Y15538D01*
Y15684D01*
X76310Y15529D02*
X76465Y15374D01*
X76465Y16078D02*
X76818D01*
X76972Y15879D02*
Y15924D01*
X76818Y16078D02*
X76972Y15924D01*
X76071Y16275D02*
Y16461D01*
X75330Y15881D02*
X75874D01*
X76465Y16275D02*
X76465Y16415D01*
D11*
X79078Y1319D02*
D03*
X3789Y21848D02*
D03*
X79078Y21878D02*
D03*
X3789Y1289D02*
D03*
D12*
X433Y384D02*
X2274D01*
X433D02*
Y2244D01*
X2274Y384D02*
Y2244D01*
X433D02*
X2274D01*
X82444Y413D02*
Y2274D01*
X80604D02*
X82444D01*
X80604Y413D02*
X82444D01*
X80604D02*
Y2274D01*
Y20972D02*
Y22833D01*
Y20972D02*
X82444D01*
X80604Y22833D02*
X82444D01*
Y20972D02*
Y22833D01*
X433Y22803D02*
X2274D01*
Y20943D02*
Y22803D01*
X433Y20943D02*
Y22803D01*
Y20943D02*
X2274D01*
X17469Y11789D02*
X17470Y11789D01*
Y11779D02*
Y11789D01*
X15030Y9469D02*
X15040Y9449D01*
X14916Y9808D02*
X15030Y9469D01*
X4718Y8909D02*
X5090Y8289D01*
X4230Y8909D02*
X4718D01*
X2980Y8169D02*
X4230Y8909D01*
X5090Y8289D02*
X5742Y8284D01*
X1460Y6029D02*
X2990Y6909D01*
X2980Y8169D02*
X2990Y6909D01*
Y6909D02*
Y6909D01*
X1380Y5819D02*
X1460Y6029D01*
X1380Y5819D02*
X1490Y5629D01*
X1920Y4879D01*
X2580Y4768D01*
X11600Y17559D02*
Y17869D01*
X11210Y18259D02*
X11600Y17869D01*
X10430Y18259D02*
X11210D01*
X10260Y18429D02*
X10430Y18259D01*
X10260Y18429D02*
Y19079D01*
X7591Y15270D02*
X7601Y15259D01*
X7974D01*
X8080Y15366D01*
X13325Y17259D02*
X13708D01*
X13318Y17266D02*
X13325Y17259D01*
X13728Y16519D02*
X14100D01*
X13728Y15482D02*
X13730Y15479D01*
X13728Y15482D02*
Y15879D01*
X11958Y14756D02*
X11960Y14754D01*
X11550Y14756D02*
X11958D01*
X13544Y8946D02*
Y9225D01*
Y8946D02*
X13950Y8539D01*
X8080Y15366D02*
X8984D01*
X17114Y11736D02*
X17469Y11789D01*
X38728D02*
X38730Y11789D01*
Y11779D02*
Y11789D01*
X36290Y9469D02*
X36300Y9449D01*
X36176Y9808D02*
X36290Y9469D01*
X25978Y8909D02*
X26350Y8289D01*
X25490Y8909D02*
X25978D01*
X24240Y8169D02*
X25490Y8909D01*
X26350Y8289D02*
X27002Y8284D01*
X22720Y6029D02*
X24250Y6909D01*
X24240Y8169D02*
X24250Y6909D01*
Y6909D02*
Y6909D01*
X22640Y5819D02*
X22720Y6029D01*
X22640Y5819D02*
X22750Y5629D01*
X23180Y4879D01*
X23840Y4768D01*
X32860Y17559D02*
Y17869D01*
X32470Y18259D02*
X32860Y17869D01*
X31690Y18259D02*
X32470D01*
X31520Y18429D02*
X31690Y18259D01*
X31520Y18429D02*
Y19079D01*
X28851Y15270D02*
X28861Y15259D01*
X29233D01*
X29340Y15366D01*
X34585Y17259D02*
X34968D01*
X34578Y17266D02*
X34585Y17259D01*
X34988Y16519D02*
X35360D01*
X34988Y15482D02*
X34990Y15479D01*
X34988Y15482D02*
Y15879D01*
X33218Y14756D02*
X33220Y14754D01*
X32810Y14756D02*
X33218D01*
X34804Y8946D02*
Y9225D01*
Y8946D02*
X35210Y8539D01*
X29340Y15366D02*
X30243D01*
X38373Y11736D02*
X38728Y11789D01*
X59988D02*
X59990Y11789D01*
Y11779D02*
Y11789D01*
X57550Y9469D02*
X57560Y9449D01*
X57436Y9808D02*
X57550Y9469D01*
X47238Y8909D02*
X47610Y8289D01*
X46750Y8909D02*
X47238D01*
X45500Y8169D02*
X46750Y8909D01*
X47610Y8289D02*
X48262Y8284D01*
X43980Y6029D02*
X45510Y6909D01*
X45500Y8169D02*
X45510Y6909D01*
Y6909D02*
Y6909D01*
X43900Y5819D02*
X43980Y6029D01*
X43900Y5819D02*
X44010Y5629D01*
X44440Y4879D01*
X45100Y4768D01*
X54120Y17559D02*
Y17869D01*
X53730Y18259D02*
X54120Y17869D01*
X52950Y18259D02*
X53730D01*
X52780Y18429D02*
X52950Y18259D01*
X52780Y18429D02*
Y19079D01*
X50111Y15270D02*
X50121Y15259D01*
X50493D01*
X50600Y15366D01*
X55844Y17259D02*
X56228D01*
X55838Y17266D02*
X55844Y17259D01*
X56247Y16519D02*
X56620D01*
X56247Y15482D02*
X56250Y15479D01*
X56247Y15482D02*
Y15879D01*
X54477Y14756D02*
X54480Y14754D01*
X54070Y14756D02*
X54477D01*
X56063Y8946D02*
Y9225D01*
Y8946D02*
X56470Y8539D01*
X50600Y15366D02*
X51503D01*
X59633Y11736D02*
X59988Y11789D01*
X81248D02*
X81250Y11789D01*
Y11779D02*
Y11789D01*
X78810Y9469D02*
X78820Y9449D01*
X78696Y9808D02*
X78810Y9469D01*
X68498Y8909D02*
X68870Y8289D01*
X68010Y8909D02*
X68498D01*
X66760Y8169D02*
X68010Y8909D01*
X68870Y8289D02*
X69522Y8284D01*
X65240Y6029D02*
X66770Y6909D01*
X66760Y8169D02*
X66770Y6909D01*
Y6909D02*
Y6909D01*
X65160Y5819D02*
X65240Y6029D01*
X65160Y5819D02*
X65270Y5629D01*
X65700Y4879D01*
X66360Y4768D01*
X75380Y17559D02*
Y17869D01*
X74990Y18259D02*
X75380Y17869D01*
X74210Y18259D02*
X74990D01*
X74040Y18429D02*
X74210Y18259D01*
X74040Y18429D02*
Y19079D01*
X71370Y15270D02*
X71381Y15259D01*
X71753D01*
X71860Y15366D01*
X77104Y17259D02*
X77488D01*
X77098Y17266D02*
X77104Y17259D01*
X77507Y16519D02*
X77880D01*
X77507Y15482D02*
X77510Y15479D01*
X77507Y15482D02*
Y15879D01*
X75737Y14756D02*
X75740Y14754D01*
X75329Y14756D02*
X75737D01*
X77323Y8946D02*
Y9225D01*
Y8946D02*
X77730Y8539D01*
X71860Y15366D02*
X72763D01*
X80893Y11736D02*
X81248Y11789D01*
D13*
X16586Y11643D02*
D03*
X17114Y11736D02*
D03*
X37846Y11643D02*
D03*
X38373Y11736D02*
D03*
X59106Y11643D02*
D03*
X59633Y11736D02*
D03*
X80366Y11643D02*
D03*
X80893Y11736D02*
D03*
D14*
X15784Y11121D02*
D03*
X15516Y10658D02*
D03*
X15184Y10271D02*
D03*
X14916Y9808D02*
D03*
X14404Y9431D02*
D03*
X14136Y8968D02*
D03*
X37044Y11121D02*
D03*
X36776Y10658D02*
D03*
X36444Y10271D02*
D03*
X36176Y9808D02*
D03*
X35664Y9431D02*
D03*
X35396Y8968D02*
D03*
X58304Y11121D02*
D03*
X58036Y10658D02*
D03*
X57704Y10271D02*
D03*
X57436Y9808D02*
D03*
X56924Y9431D02*
D03*
X56656Y8968D02*
D03*
X79563Y11121D02*
D03*
X79296Y10658D02*
D03*
X78963Y10271D02*
D03*
X78696Y9808D02*
D03*
X78183Y9431D02*
D03*
X77916Y8968D02*
D03*
D15*
X11990Y17827D02*
D03*
Y17292D02*
D03*
X12670Y14452D02*
D03*
Y14987D02*
D03*
X11100Y17827D02*
D03*
Y17292D02*
D03*
X10935Y15606D02*
D03*
X10935Y15070D02*
D03*
X9415Y18266D02*
D03*
Y18801D02*
D03*
X11550Y16341D02*
D03*
Y15806D02*
D03*
Y14756D02*
D03*
Y15291D02*
D03*
X5820Y14327D02*
D03*
Y13792D02*
D03*
X33250Y17827D02*
D03*
Y17292D02*
D03*
X33930Y14452D02*
D03*
Y14987D02*
D03*
X32360Y17827D02*
D03*
Y17292D02*
D03*
X32195Y15606D02*
D03*
X32195Y15070D02*
D03*
X30675Y18266D02*
D03*
Y18801D02*
D03*
X32810Y16341D02*
D03*
Y15806D02*
D03*
Y14756D02*
D03*
Y15291D02*
D03*
X27080Y14327D02*
D03*
Y13792D02*
D03*
X54510Y17827D02*
D03*
Y17292D02*
D03*
X55190Y14452D02*
D03*
Y14987D02*
D03*
X53620Y17827D02*
D03*
Y17292D02*
D03*
X53455Y15606D02*
D03*
X53455Y15070D02*
D03*
X51935Y18266D02*
D03*
Y18801D02*
D03*
X54070Y16341D02*
D03*
Y15806D02*
D03*
Y14756D02*
D03*
Y15291D02*
D03*
X48340Y14327D02*
D03*
Y13792D02*
D03*
X75770Y17827D02*
D03*
Y17292D02*
D03*
X76450Y14452D02*
D03*
Y14987D02*
D03*
X74879Y17827D02*
D03*
Y17292D02*
D03*
X74715Y15606D02*
D03*
X74715Y15070D02*
D03*
X73195Y18266D02*
D03*
Y18801D02*
D03*
X75329Y16341D02*
D03*
Y15806D02*
D03*
Y14756D02*
D03*
Y15291D02*
D03*
X69600Y14327D02*
D03*
Y13792D02*
D03*
D16*
X11571Y13979D02*
D03*
X11950D02*
D03*
X32831D02*
D03*
X33210D02*
D03*
X54091D02*
D03*
X54470D02*
D03*
X75351D02*
D03*
X75730D02*
D03*
D17*
X12650Y13888D02*
D03*
X12650Y13509D02*
D03*
X16060Y12108D02*
D03*
Y11729D02*
D03*
X33910Y13888D02*
D03*
X33910Y13509D02*
D03*
X37320Y12108D02*
D03*
Y11729D02*
D03*
X55170Y13888D02*
D03*
X55170Y13509D02*
D03*
X58580Y12108D02*
D03*
Y11729D02*
D03*
X76430Y13888D02*
D03*
X76430Y13509D02*
D03*
X79840Y12108D02*
D03*
Y11729D02*
D03*
D18*
X16500Y4758D02*
D03*
X17130Y5850D02*
D03*
X17530Y6538D02*
D03*
X18160Y7630D02*
D03*
X37760Y4758D02*
D03*
X38390Y5850D02*
D03*
X38790Y6538D02*
D03*
X39420Y7630D02*
D03*
X59020Y4758D02*
D03*
X59650Y5850D02*
D03*
X60050Y6538D02*
D03*
X60680Y7630D02*
D03*
X80280Y4758D02*
D03*
X80910Y5850D02*
D03*
X81310Y6538D02*
D03*
X81940Y7630D02*
D03*
D19*
X2605Y4744D02*
D03*
X1975Y5835D02*
D03*
X1560Y6568D02*
D03*
X930Y7660D02*
D03*
X23865Y4744D02*
D03*
X23235Y5835D02*
D03*
X22820Y6568D02*
D03*
X22190Y7660D02*
D03*
X45125Y4744D02*
D03*
X44495Y5835D02*
D03*
X44080Y6568D02*
D03*
X43450Y7660D02*
D03*
X66384Y4744D02*
D03*
X65755Y5835D02*
D03*
X65340Y6568D02*
D03*
X64710Y7660D02*
D03*
D20*
X13113Y8317D02*
D03*
X12208Y7024D02*
D03*
X34373Y8317D02*
D03*
X33468Y7024D02*
D03*
X55633Y8317D02*
D03*
X54728Y7024D02*
D03*
X76893Y8317D02*
D03*
X75988Y7024D02*
D03*
D21*
X7385Y16049D02*
D03*
X6795Y16049D02*
D03*
X28645Y16049D02*
D03*
X28055Y16049D02*
D03*
X49905Y16049D02*
D03*
X49314Y16049D02*
D03*
X71165Y16049D02*
D03*
X70574Y16049D02*
D03*
D22*
X8718Y16189D02*
D03*
X8182Y16189D02*
D03*
X13192Y15879D02*
D03*
X13728D02*
D03*
X13192Y16519D02*
D03*
X13728D02*
D03*
X10513Y18694D02*
D03*
X9977Y18694D02*
D03*
X10083Y16613D02*
D03*
X9547Y16613D02*
D03*
X9542Y15949D02*
D03*
X10078Y15949D02*
D03*
X29978Y16189D02*
D03*
X29442Y16189D02*
D03*
X34452Y15879D02*
D03*
X34988D02*
D03*
X34452Y16519D02*
D03*
X34988D02*
D03*
X31773Y18694D02*
D03*
X31237Y18694D02*
D03*
X31343Y16613D02*
D03*
X30807Y16613D02*
D03*
X30802Y15949D02*
D03*
X31338Y15949D02*
D03*
X51237Y16189D02*
D03*
X50702Y16189D02*
D03*
X55712Y15879D02*
D03*
X56247D02*
D03*
X55712Y16519D02*
D03*
X56247D02*
D03*
X53032Y18694D02*
D03*
X52497Y18694D02*
D03*
X52602Y16613D02*
D03*
X52067Y16613D02*
D03*
X52062Y15949D02*
D03*
X52597Y15949D02*
D03*
X72497Y16189D02*
D03*
X71962Y16189D02*
D03*
X76972Y15879D02*
D03*
X77507D02*
D03*
X76972Y16519D02*
D03*
X77507D02*
D03*
X74292Y18694D02*
D03*
X73757Y18694D02*
D03*
X73862Y16613D02*
D03*
X73327Y16613D02*
D03*
X73322Y15949D02*
D03*
X73857Y15949D02*
D03*
D23*
X8590Y18043D02*
D03*
Y17289D02*
D03*
X8500Y15373D02*
D03*
X8500Y14619D02*
D03*
X29850Y18043D02*
D03*
Y17289D02*
D03*
X29760Y15373D02*
D03*
X29760Y14619D02*
D03*
X51110Y18043D02*
D03*
Y17289D02*
D03*
X51020Y15373D02*
D03*
X51020Y14619D02*
D03*
X72370Y18043D02*
D03*
Y17289D02*
D03*
X72280Y15373D02*
D03*
X72280Y14619D02*
D03*
D24*
X10195Y5929D02*
D03*
X9466D02*
D03*
X10194Y6669D02*
D03*
X9466D02*
D03*
X31455Y5929D02*
D03*
X30726D02*
D03*
X31454Y6669D02*
D03*
X30726D02*
D03*
X52714Y5929D02*
D03*
X51986D02*
D03*
X52714Y6669D02*
D03*
X51986D02*
D03*
X73974Y5929D02*
D03*
X73246D02*
D03*
X73974Y6669D02*
D03*
X73245D02*
D03*
D25*
X8850Y6015D02*
D03*
X8850Y6744D02*
D03*
X30110Y6015D02*
D03*
X30110Y6744D02*
D03*
X51370Y6015D02*
D03*
X51370Y6744D02*
D03*
X72630Y6015D02*
D03*
X72630Y6744D02*
D03*
D26*
X5378Y8915D02*
D03*
X5742Y8284D02*
D03*
X5081Y9409D02*
D03*
X4716Y10040D02*
D03*
X26638Y8915D02*
D03*
X27002Y8284D02*
D03*
X26340Y9409D02*
D03*
X25976Y10040D02*
D03*
X47898Y8915D02*
D03*
X48262Y8284D02*
D03*
X47600Y9409D02*
D03*
X47236Y10040D02*
D03*
X69157Y8915D02*
D03*
X69522Y8284D02*
D03*
X68860Y9409D02*
D03*
X68496Y10040D02*
D03*
D27*
X9681Y17220D02*
D03*
X10435Y17220D02*
D03*
X10055Y18054D02*
D03*
X12571Y17259D02*
D03*
X13325Y17259D02*
D03*
X12945Y18093D02*
D03*
X30941Y17220D02*
D03*
X31695Y17220D02*
D03*
X31315Y18054D02*
D03*
X33831Y17259D02*
D03*
X34585Y17259D02*
D03*
X34205Y18093D02*
D03*
X52201Y17220D02*
D03*
X52955Y17220D02*
D03*
X52575Y18054D02*
D03*
X55090Y17259D02*
D03*
X55844Y17259D02*
D03*
X55464Y18093D02*
D03*
X73461Y17220D02*
D03*
X74215Y17220D02*
D03*
X73835Y18054D02*
D03*
X76350Y17259D02*
D03*
X77104Y17259D02*
D03*
X76724Y18093D02*
D03*
D28*
X10364Y14605D02*
D03*
X10364Y15359D02*
D03*
X9530Y14979D02*
D03*
X31624Y14605D02*
D03*
X31624Y15359D02*
D03*
X30790Y14979D02*
D03*
X52883Y14605D02*
D03*
X52883Y15359D02*
D03*
X52050Y14979D02*
D03*
X74143Y14605D02*
D03*
X74143Y15359D02*
D03*
X73310Y14979D02*
D03*
D29*
X12685Y15689D02*
D03*
X12095D02*
D03*
X12685Y15881D02*
D03*
X12095D02*
D03*
X12685Y16078D02*
D03*
X12095Y16078D02*
D03*
X12685Y16270D02*
D03*
X12095Y16270D02*
D03*
X33945Y15689D02*
D03*
X33355D02*
D03*
X33945Y15881D02*
D03*
X33355D02*
D03*
X33945Y16078D02*
D03*
X33355Y16078D02*
D03*
X33945Y16270D02*
D03*
X33355Y16270D02*
D03*
X55205Y15689D02*
D03*
X54614D02*
D03*
X55205Y15881D02*
D03*
X54614D02*
D03*
X55205Y16078D02*
D03*
X54614Y16078D02*
D03*
X55205Y16270D02*
D03*
X54614Y16270D02*
D03*
X76465Y15689D02*
D03*
X75874D02*
D03*
X76465Y15881D02*
D03*
X75874D02*
D03*
X76465Y16078D02*
D03*
X75874Y16078D02*
D03*
X76465Y16270D02*
D03*
X75874Y16270D02*
D03*
D30*
X12488Y15684D02*
D03*
X12292Y15684D02*
D03*
X12488Y16275D02*
D03*
X12292D02*
D03*
X33748Y15684D02*
D03*
X33551Y15684D02*
D03*
X33748Y16275D02*
D03*
X33551D02*
D03*
X55008Y15684D02*
D03*
X54811Y15684D02*
D03*
X55008Y16275D02*
D03*
X54811D02*
D03*
X76268Y15684D02*
D03*
X76071Y15684D02*
D03*
X76268Y16275D02*
D03*
X76071D02*
D03*
D31*
X14645Y10334D02*
D03*
X14456Y10006D02*
D03*
X35905Y10334D02*
D03*
X35715Y10006D02*
D03*
X57165Y10334D02*
D03*
X56975Y10006D02*
D03*
X78425Y10334D02*
D03*
X78235Y10006D02*
D03*
D32*
X16740Y12959D02*
D03*
X1110Y10679D02*
D03*
X38000Y12959D02*
D03*
X22370Y10679D02*
D03*
X59260Y12959D02*
D03*
X43630Y10679D02*
D03*
X80520Y12959D02*
D03*
X64890Y10679D02*
D03*
D33*
X13215Y9414D02*
D03*
X13544Y9225D02*
D03*
X34475Y9414D02*
D03*
X34804Y9225D02*
D03*
X55735Y9414D02*
D03*
X56063Y9225D02*
D03*
X76995Y9414D02*
D03*
X77323Y9225D02*
D03*
D34*
X7581Y18000D02*
D03*
Y16819D02*
D03*
X7591Y14089D02*
D03*
Y15270D02*
D03*
X28841Y18000D02*
D03*
Y16819D02*
D03*
X28851Y14089D02*
D03*
Y15270D02*
D03*
X50101Y18000D02*
D03*
Y16819D02*
D03*
X50111Y14089D02*
D03*
Y15270D02*
D03*
X71360Y18000D02*
D03*
Y16819D02*
D03*
X71370Y14089D02*
D03*
Y15270D02*
D03*
D35*
X7581Y17409D02*
D03*
X7591Y14679D02*
D03*
X28841Y17409D02*
D03*
X28851Y14679D02*
D03*
X50101Y17409D02*
D03*
X50111Y14679D02*
D03*
X71360Y17409D02*
D03*
X71370Y14679D02*
D03*
D36*
X16110Y12108D02*
Y12169D01*
X10513Y18754D02*
X10573Y18694D01*
X14504Y16239D02*
Y16906D01*
X14161Y15897D02*
X14504Y16239D01*
X14161Y14656D02*
Y15897D01*
X13560Y14055D02*
X14161Y14656D01*
X14610Y13669D02*
X16110Y12169D01*
X13560Y14055D02*
X13946Y13669D01*
X14610D01*
X16270Y11519D02*
X16320Y11469D01*
X16112Y11678D02*
X16270Y11519D01*
X16350Y11599D01*
X16586Y11643D01*
X14514Y6084D02*
X16000Y5787D01*
X15784Y11121D02*
X16030Y10976D01*
X15184Y10271D02*
X15470Y10082D01*
Y10096D01*
Y7792D02*
Y10082D01*
X15493Y7769D02*
X15493D01*
X15470Y7792D02*
X15493Y7769D01*
X16030Y9809D02*
Y10976D01*
X15985Y8622D02*
X15985D01*
Y9224D01*
X15960Y9249D02*
X15985Y9224D01*
X15960Y9249D02*
Y9739D01*
X16030Y9809D01*
X16434Y10027D02*
X16549Y9598D01*
X16320Y11469D02*
X16434Y10027D01*
X16477Y9474D01*
X16112Y11678D02*
Y11708D01*
X16060Y11729D02*
X16112Y11678D01*
X16477Y9474D02*
X16549Y9598D01*
X15810Y11389D02*
Y12259D01*
X14560Y13509D02*
X15810Y12259D01*
X12650Y13509D02*
X14560D01*
X15576Y11507D02*
Y12293D01*
X14620Y13249D02*
X15576Y12293D01*
X12490Y13249D02*
X14620D01*
X9210Y15379D02*
X9444Y15613D01*
X9210Y14539D02*
Y15379D01*
X9444Y15613D02*
X9670Y15613D01*
X15750Y11239D02*
X15810Y11389D01*
X15750Y11239D02*
X15784Y11121D01*
X15050Y10589D02*
X15184Y10271D01*
X15050Y10589D02*
X15576Y11507D01*
X11990Y17292D02*
X12290D01*
X11990Y17827D02*
X12338D01*
X12302Y14452D02*
X12670D01*
X12650Y13888D02*
Y14432D01*
X11421Y14129D02*
X11571Y13979D01*
X12945Y18093D02*
X13316D01*
X14504Y16906D01*
X11600Y17559D02*
X12840D01*
X10231Y17559D02*
X11600Y17559D01*
X10573Y18694D02*
X11036D01*
X10231Y17559D02*
X10400D01*
X9961D02*
X10231D01*
X12290Y16889D02*
X12292Y16887D01*
Y16461D02*
Y16887D01*
X13110Y16854D02*
X14155D01*
X12650Y14432D02*
X12670Y14452D01*
X12240Y15002D02*
Y15359D01*
Y15002D02*
X12240Y14644D01*
X12656Y15002D02*
X12670Y14987D01*
X12240Y15002D02*
X12656D01*
X7895Y16819D02*
X8182Y16532D01*
X7581Y16819D02*
X7895D01*
X11950Y13789D02*
X12490Y13249D01*
X16090Y11729D02*
X16112Y11708D01*
X11950Y13789D02*
Y13979D01*
X9620Y14129D02*
X11421D01*
X12150Y14299D02*
X12302Y14452D01*
X9720Y14299D02*
X12150D01*
X12945Y18093D02*
X12966Y18015D01*
X17131Y5851D02*
X17184Y5820D01*
X17131Y5851D02*
X17131D01*
X17084Y5772D02*
X17107Y5759D01*
X14514Y6084D02*
X14724Y6032D01*
X14514Y6084D02*
X14514Y6084D01*
X14514Y6084D02*
X14514Y6084D01*
X14514Y6084D02*
X14514D01*
X9775Y18694D02*
X9917D01*
X9665Y18804D02*
X9775Y18694D01*
X9417Y18804D02*
X9665D01*
X9415Y18801D02*
X9417Y18804D01*
X9596Y16914D02*
X9645D01*
X9547Y16613D02*
Y16865D01*
X9596Y16914D01*
X9681Y16950D02*
Y17220D01*
X9645Y16914D02*
X9681Y16950D01*
X10083Y16613D02*
X11975D01*
X12095Y16494D01*
X10880Y15677D02*
Y15974D01*
X13192Y16199D02*
X14161Y16199D01*
X14365Y16404D01*
Y16644D01*
X14155Y16854D02*
X14365Y16644D01*
X12685Y16415D02*
X12790Y16519D01*
X13192D01*
Y15924D02*
Y16199D01*
Y16519D01*
X9153Y18801D02*
X9415D01*
X9100Y18749D02*
X9153Y18801D01*
X9100Y16839D02*
Y18749D01*
X9575Y17874D02*
X9745Y18044D01*
X9270Y17569D02*
X9575Y17874D01*
X9415Y18034D02*
X9575Y17874D01*
X9415Y18034D02*
Y18266D01*
X9745Y18044D02*
X9985D01*
X9270Y17569D02*
X9270Y16379D01*
X10083Y16928D02*
X10365Y17210D01*
X10935Y16029D02*
X11248Y16341D01*
X8182Y16532D02*
X8510Y16859D01*
X10935Y14769D02*
X11240Y14464D01*
X8182Y16189D02*
Y16532D01*
X10880Y15974D02*
X10935Y16029D01*
Y15606D02*
Y16029D01*
Y14769D02*
Y15070D01*
X12095Y15505D02*
X12240Y15359D01*
X11248Y16341D02*
X11550D01*
X11240Y14464D02*
X12060D01*
X11550Y15291D02*
Y15806D01*
X11551Y15805D01*
X8117Y16195D02*
X8122Y16189D01*
X9530Y14489D02*
X9720Y14299D01*
X9670Y15613D02*
X9798Y15741D01*
Y16147D01*
X9810Y16159D01*
X9970Y14999D02*
Y15489D01*
X9948Y15707D02*
X10078Y15837D01*
X10098Y15617D02*
X10123Y15642D01*
X10098Y15617D02*
Y15617D01*
X9970Y15489D02*
X10098Y15617D01*
X9948Y15679D02*
Y15707D01*
X9820Y15551D02*
X9948Y15679D01*
X9820Y15269D02*
X9820Y15551D01*
X9530Y14979D02*
X9820Y15269D01*
X10078Y15837D02*
Y15949D01*
X10123Y15642D02*
X10263D01*
X9690Y16279D02*
X9810Y16159D01*
X9370Y16279D02*
X9690D01*
X9923Y16266D02*
X10263D01*
X9820Y16369D02*
X9923Y16266D01*
X9820Y16369D02*
Y16549D01*
X9756Y16613D02*
X9820Y16549D01*
X9547Y16613D02*
X9756D01*
X10364Y15359D02*
X10581Y15142D01*
X10880D01*
X10440Y15819D02*
X10582Y15677D01*
X10350Y15909D02*
X10440Y15819D01*
X9970Y14999D02*
X10364Y14605D01*
X10263Y15642D02*
X10440Y15819D01*
X9530Y14489D02*
Y14979D01*
X10582Y15677D02*
X10880D01*
X10350Y15909D02*
Y16179D01*
X10263Y16266D02*
X10350Y16179D01*
X10083Y16613D02*
Y16928D01*
X9270Y16379D02*
X9370Y16279D01*
X8510Y16859D02*
X9080D01*
X9100Y16839D01*
X9318Y15949D02*
X9542D01*
X9100Y16167D02*
Y16839D01*
Y16167D02*
X9318Y15949D01*
X9210Y14539D02*
X9620Y14129D01*
X12060Y14464D02*
X12240Y14644D01*
X12840Y17559D02*
X12935Y17465D01*
Y17029D02*
Y17465D01*
X10513Y18694D02*
X10573D01*
X12338Y17827D02*
X12604Y18093D01*
X12945Y18093D01*
X10873Y18054D02*
X11100Y17827D01*
X10055Y18054D02*
X10873D01*
X10507Y17292D02*
X11100D01*
X10435Y17220D02*
X10507Y17292D01*
X12290Y16889D02*
Y17292D01*
X12538Y17292D02*
X12571Y17259D01*
X12290Y17292D02*
X12538Y17292D01*
X12935Y17029D02*
X13110Y16854D01*
X11036Y18694D02*
X11902Y17827D01*
X11990Y17827D01*
X16650Y6137D02*
X17131Y5851D01*
X14508Y6086D02*
X14509Y6086D01*
X14509D01*
X14777Y6086D01*
X12690Y9729D02*
X13215Y9414D01*
X9517Y10709D02*
X12690Y9729D01*
X9651Y17250D02*
X9961Y17559D01*
X10880Y15601D02*
Y15677D01*
X9917Y18694D02*
X9947Y18724D01*
X9977Y18754D01*
X37370Y12108D02*
Y12169D01*
X31773Y18754D02*
X31833Y18694D01*
X35764Y16239D02*
Y16906D01*
X35421Y15897D02*
X35764Y16239D01*
X35421Y14656D02*
Y15897D01*
X34820Y14055D02*
X35421Y14656D01*
X35870Y13669D02*
X37370Y12169D01*
X34820Y14055D02*
X35205Y13669D01*
X35870D01*
X37530Y11519D02*
X37580Y11469D01*
X37372Y11678D02*
X37530Y11519D01*
X37610Y11599D01*
X37846Y11643D01*
X35774Y6084D02*
X37260Y5787D01*
X37044Y11121D02*
X37290Y10976D01*
X36444Y10271D02*
X36730Y10082D01*
Y10096D01*
Y7792D02*
Y10082D01*
X36753Y7769D02*
X36753D01*
X36730Y7792D02*
X36753Y7769D01*
X37290Y9809D02*
Y10976D01*
X37245Y8622D02*
X37245D01*
Y9224D01*
X37220Y9249D02*
X37245Y9224D01*
X37220Y9249D02*
Y9739D01*
X37290Y9809D01*
X37694Y10027D02*
X37809Y9598D01*
X37580Y11469D02*
X37694Y10027D01*
X37737Y9474D01*
X37372Y11678D02*
Y11708D01*
X37320Y11729D02*
X37372Y11678D01*
X37737Y9474D02*
X37809Y9598D01*
X37070Y11389D02*
Y12259D01*
X35820Y13509D02*
X37070Y12259D01*
X33910Y13509D02*
X35820D01*
X36836Y11507D02*
Y12293D01*
X35880Y13249D02*
X36836Y12293D01*
X33750Y13249D02*
X35880D01*
X30470Y15379D02*
X30704Y15613D01*
X30470Y14539D02*
Y15379D01*
X30704Y15613D02*
X30930Y15613D01*
X37010Y11239D02*
X37070Y11389D01*
X37010Y11239D02*
X37044Y11121D01*
X36310Y10589D02*
X36444Y10271D01*
X36310Y10589D02*
X36836Y11507D01*
X33250Y17292D02*
X33550D01*
X33250Y17827D02*
X33598D01*
X33562Y14452D02*
X33930D01*
X33910Y13888D02*
Y14432D01*
X32681Y14129D02*
X32831Y13979D01*
X34205Y18093D02*
X34576D01*
X35764Y16906D01*
X32860Y17559D02*
X34100D01*
X31490Y17559D02*
X32860Y17559D01*
X31833Y18694D02*
X32296D01*
X31490Y17559D02*
X31660D01*
X31220D02*
X31490D01*
X33550Y16889D02*
X33551Y16887D01*
Y16461D02*
Y16887D01*
X34370Y16854D02*
X35415D01*
X33910Y14432D02*
X33930Y14452D01*
X33500Y15002D02*
Y15359D01*
Y15002D02*
X33500Y14644D01*
X33915Y15002D02*
X33930Y14987D01*
X33500Y15002D02*
X33915D01*
X29155Y16819D02*
X29442Y16532D01*
X28841Y16819D02*
X29155D01*
X33210Y13789D02*
X33750Y13249D01*
X37350Y11729D02*
X37372Y11708D01*
X33210Y13789D02*
Y13979D01*
X30880Y14129D02*
X32681D01*
X33410Y14299D02*
X33562Y14452D01*
X30980Y14299D02*
X33410D01*
X34205Y18093D02*
X34226Y18015D01*
X38391Y5851D02*
X38444Y5820D01*
X38391Y5851D02*
X38391D01*
X38344Y5772D02*
X38366Y5759D01*
X35774Y6084D02*
X35984Y6032D01*
X35774Y6084D02*
X35774Y6084D01*
X35774Y6084D02*
X35774Y6084D01*
X35774Y6084D02*
X35774D01*
X31035Y18694D02*
X31177D01*
X30925Y18804D02*
X31035Y18694D01*
X30677Y18804D02*
X30925D01*
X30675Y18801D02*
X30677Y18804D01*
X30856Y16914D02*
X30905D01*
X30807Y16613D02*
Y16865D01*
X30856Y16914D01*
X30941Y16950D02*
Y17220D01*
X30905Y16914D02*
X30941Y16950D01*
X31343Y16613D02*
X33235D01*
X33355Y16494D01*
X32140Y15677D02*
Y15974D01*
X34452Y16199D02*
X35421Y16199D01*
X35625Y16404D01*
Y16644D01*
X35415Y16854D02*
X35625Y16644D01*
X33945Y16415D02*
X34050Y16519D01*
X34452D01*
Y15924D02*
Y16199D01*
Y16519D01*
X30413Y18801D02*
X30675D01*
X30360Y18749D02*
X30413Y18801D01*
X30360Y16839D02*
Y18749D01*
X30835Y17874D02*
X31005Y18044D01*
X30530Y17569D02*
X30835Y17874D01*
X30675Y18034D02*
X30835Y17874D01*
X30675Y18034D02*
Y18266D01*
X31005Y18044D02*
X31245D01*
X30530Y17569D02*
X30530Y16379D01*
X31343Y16928D02*
X31625Y17210D01*
X32195Y16029D02*
X32508Y16341D01*
X29442Y16532D02*
X29770Y16859D01*
X32195Y14769D02*
X32500Y14464D01*
X29442Y16189D02*
Y16532D01*
X32140Y15974D02*
X32195Y16029D01*
Y15606D02*
Y16029D01*
Y14769D02*
Y15070D01*
X33355Y15505D02*
X33500Y15359D01*
X32508Y16341D02*
X32810D01*
X32500Y14464D02*
X33320D01*
X32810Y15291D02*
Y15806D01*
X32811Y15805D01*
X29377Y16195D02*
X29382Y16189D01*
X30790Y14489D02*
X30980Y14299D01*
X30930Y15613D02*
X31058Y15741D01*
Y16147D01*
X31070Y16159D01*
X31230Y14999D02*
Y15489D01*
X31208Y15707D02*
X31338Y15837D01*
X31358Y15617D02*
X31383Y15642D01*
X31358Y15617D02*
Y15617D01*
X31230Y15489D02*
X31358Y15617D01*
X31208Y15679D02*
Y15707D01*
X31080Y15551D02*
X31208Y15679D01*
X31080Y15269D02*
X31080Y15551D01*
X30790Y14979D02*
X31080Y15269D01*
X31338Y15837D02*
Y15949D01*
X31383Y15642D02*
X31523D01*
X30950Y16279D02*
X31070Y16159D01*
X30630Y16279D02*
X30950D01*
X31183Y16266D02*
X31523D01*
X31080Y16369D02*
X31183Y16266D01*
X31080Y16369D02*
Y16549D01*
X31016Y16613D02*
X31080Y16549D01*
X30807Y16613D02*
X31016D01*
X31624Y15359D02*
X31841Y15142D01*
X32140D01*
X31700Y15819D02*
X31842Y15677D01*
X31610Y15909D02*
X31700Y15819D01*
X31230Y14999D02*
X31624Y14605D01*
X31523Y15642D02*
X31700Y15819D01*
X30790Y14489D02*
Y14979D01*
X31842Y15677D02*
X32140D01*
X31610Y15909D02*
Y16179D01*
X31523Y16266D02*
X31610Y16179D01*
X31343Y16613D02*
Y16928D01*
X30530Y16379D02*
X30630Y16279D01*
X29770Y16859D02*
X30340D01*
X30360Y16839D01*
X30578Y15949D02*
X30802D01*
X30360Y16167D02*
Y16839D01*
Y16167D02*
X30578Y15949D01*
X30470Y14539D02*
X30880Y14129D01*
X33320Y14464D02*
X33500Y14644D01*
X34100Y17559D02*
X34195Y17465D01*
Y17029D02*
Y17465D01*
X31773Y18694D02*
X31833D01*
X33598Y17827D02*
X33864Y18093D01*
X34205Y18093D01*
X32133Y18054D02*
X32360Y17827D01*
X31315Y18054D02*
X32133D01*
X31767Y17292D02*
X32360D01*
X31695Y17220D02*
X31767Y17292D01*
X33550Y16889D02*
Y17292D01*
X33798Y17292D02*
X33831Y17259D01*
X33550Y17292D02*
X33798Y17292D01*
X34195Y17029D02*
X34370Y16854D01*
X32296Y18694D02*
X33162Y17827D01*
X33250Y17827D01*
X37910Y6137D02*
X38391Y5851D01*
X35768Y6086D02*
X35769Y6086D01*
X35769D01*
X36037Y6086D01*
X33950Y9729D02*
X34475Y9414D01*
X30776Y10709D02*
X33950Y9729D01*
X30911Y17250D02*
X31220Y17559D01*
X32140Y15601D02*
Y15677D01*
X31177Y18694D02*
X31207Y18724D01*
X31237Y18754D01*
X58630Y12108D02*
Y12169D01*
X53032Y18754D02*
X53092Y18694D01*
X57023Y16239D02*
Y16906D01*
X56681Y15897D02*
X57023Y16239D01*
X56681Y14656D02*
Y15897D01*
X56080Y14055D02*
X56681Y14656D01*
X57130Y13669D02*
X58630Y12169D01*
X56080Y14055D02*
X56465Y13669D01*
X57130D01*
X58790Y11519D02*
X58840Y11469D01*
X58632Y11678D02*
X58790Y11519D01*
X58870Y11599D01*
X59106Y11643D01*
X57034Y6084D02*
X58520Y5787D01*
X58304Y11121D02*
X58550Y10976D01*
X57704Y10271D02*
X57990Y10082D01*
Y10096D01*
Y7792D02*
Y10082D01*
X58013Y7769D02*
X58013D01*
X57990Y7792D02*
X58013Y7769D01*
X58550Y9809D02*
Y10976D01*
X58505Y8622D02*
X58505D01*
Y9224D01*
X58480Y9249D02*
X58505Y9224D01*
X58480Y9249D02*
Y9739D01*
X58550Y9809D01*
X58953Y10027D02*
X59069Y9598D01*
X58840Y11469D02*
X58953Y10027D01*
X58997Y9474D01*
X58632Y11678D02*
Y11708D01*
X58580Y11729D02*
X58632Y11678D01*
X58997Y9474D02*
X59069Y9598D01*
X58330Y11389D02*
Y12259D01*
X57080Y13509D02*
X58330Y12259D01*
X55170Y13509D02*
X57080D01*
X58096Y11507D02*
Y12293D01*
X57140Y13249D02*
X58096Y12293D01*
X55010Y13249D02*
X57140D01*
X51730Y15379D02*
X51963Y15613D01*
X51730Y14539D02*
Y15379D01*
X51963Y15613D02*
X52190Y15613D01*
X58270Y11239D02*
X58330Y11389D01*
X58270Y11239D02*
X58304Y11121D01*
X57570Y10589D02*
X57704Y10271D01*
X57570Y10589D02*
X58096Y11507D01*
X54510Y17292D02*
X54810D01*
X54510Y17827D02*
X54857D01*
X54822Y14452D02*
X55190D01*
X55170Y13888D02*
Y14432D01*
X53941Y14129D02*
X54091Y13979D01*
X55464Y18093D02*
X55836D01*
X57023Y16906D01*
X54120Y17559D02*
X55360D01*
X52750Y17559D02*
X54120Y17559D01*
X53092Y18694D02*
X53555D01*
X52750Y17559D02*
X52920D01*
X52480D02*
X52750D01*
X54810Y16889D02*
X54811Y16887D01*
Y16461D02*
Y16887D01*
X55630Y16854D02*
X56675D01*
X55170Y14432D02*
X55190Y14452D01*
X54760Y15002D02*
Y15359D01*
Y15002D02*
X54760Y14644D01*
X55175Y15002D02*
X55190Y14987D01*
X54760Y15002D02*
X55175D01*
X50415Y16819D02*
X50702Y16532D01*
X50101Y16819D02*
X50415D01*
X54470Y13789D02*
X55010Y13249D01*
X58610Y11729D02*
X58632Y11708D01*
X54470Y13789D02*
Y13979D01*
X52140Y14129D02*
X53941D01*
X54670Y14299D02*
X54822Y14452D01*
X52240Y14299D02*
X54670D01*
X55464Y18093D02*
X55485Y18015D01*
X59651Y5851D02*
X59704Y5820D01*
X59651Y5851D02*
X59651D01*
X59604Y5772D02*
X59626Y5759D01*
X57034Y6084D02*
X57243Y6032D01*
X57034Y6084D02*
X57034Y6084D01*
X57034Y6084D02*
X57034Y6084D01*
X57034Y6084D02*
X57034D01*
X52295Y18694D02*
X52437D01*
X52185Y18804D02*
X52295Y18694D01*
X51937Y18804D02*
X52185D01*
X51935Y18801D02*
X51937Y18804D01*
X52116Y16914D02*
X52165D01*
X52067Y16613D02*
Y16865D01*
X52116Y16914D01*
X52201Y16950D02*
Y17220D01*
X52165Y16914D02*
X52201Y16950D01*
X52602Y16613D02*
X54495D01*
X54614Y16494D01*
X53400Y15677D02*
Y15974D01*
X55712Y16199D02*
X56681Y16199D01*
X56885Y16404D01*
Y16644D01*
X56675Y16854D02*
X56885Y16644D01*
X55205Y16415D02*
X55310Y16519D01*
X55712D01*
Y15924D02*
Y16199D01*
Y16519D01*
X51673Y18801D02*
X51935D01*
X51620Y18749D02*
X51673Y18801D01*
X51620Y16839D02*
Y18749D01*
X52095Y17874D02*
X52265Y18044D01*
X51790Y17569D02*
X52095Y17874D01*
X51935Y18034D02*
X52095Y17874D01*
X51935Y18034D02*
Y18266D01*
X52265Y18044D02*
X52505D01*
X51790Y17569D02*
X51790Y16379D01*
X52602Y16928D02*
X52885Y17210D01*
X53455Y16029D02*
X53767Y16341D01*
X50702Y16532D02*
X51030Y16859D01*
X53455Y14769D02*
X53760Y14464D01*
X50702Y16189D02*
Y16532D01*
X53400Y15974D02*
X53455Y16029D01*
Y15606D02*
Y16029D01*
Y14769D02*
Y15070D01*
X54614Y15505D02*
X54760Y15359D01*
X53767Y16341D02*
X54070D01*
X53760Y14464D02*
X54580D01*
X54070Y15291D02*
Y15806D01*
X54070Y15805D01*
X50637Y16195D02*
X50642Y16189D01*
X52050Y14489D02*
X52240Y14299D01*
X52190Y15613D02*
X52318Y15741D01*
Y16147D01*
X52330Y16159D01*
X52490Y14999D02*
Y15489D01*
X52468Y15707D02*
X52597Y15837D01*
X52618Y15617D02*
X52643Y15642D01*
X52618Y15617D02*
Y15617D01*
X52490Y15489D02*
X52618Y15617D01*
X52468Y15679D02*
Y15707D01*
X52340Y15551D02*
X52468Y15679D01*
X52340Y15269D02*
X52340Y15551D01*
X52050Y14979D02*
X52340Y15269D01*
X52597Y15837D02*
Y15949D01*
X52643Y15642D02*
X52783D01*
X52210Y16279D02*
X52330Y16159D01*
X51890Y16279D02*
X52210D01*
X52443Y16266D02*
X52783D01*
X52340Y16369D02*
X52443Y16266D01*
X52340Y16369D02*
Y16549D01*
X52276Y16613D02*
X52340Y16549D01*
X52067Y16613D02*
X52276D01*
X52883Y15359D02*
X53101Y15142D01*
X53400D01*
X52960Y15819D02*
X53102Y15677D01*
X52870Y15909D02*
X52960Y15819D01*
X52490Y14999D02*
X52883Y14605D01*
X52783Y15642D02*
X52960Y15819D01*
X52050Y14489D02*
Y14979D01*
X53102Y15677D02*
X53400D01*
X52870Y15909D02*
Y16179D01*
X52783Y16266D02*
X52870Y16179D01*
X52602Y16613D02*
Y16928D01*
X51790Y16379D02*
X51890Y16279D01*
X51030Y16859D02*
X51600D01*
X51620Y16839D01*
X51837Y15949D02*
X52062D01*
X51620Y16167D02*
Y16839D01*
Y16167D02*
X51837Y15949D01*
X51730Y14539D02*
X52140Y14129D01*
X54580Y14464D02*
X54760Y14644D01*
X55360Y17559D02*
X55454Y17465D01*
Y17029D02*
Y17465D01*
X53032Y18694D02*
X53092D01*
X54857Y17827D02*
X55123Y18093D01*
X55464Y18093D01*
X53393Y18054D02*
X53620Y17827D01*
X52575Y18054D02*
X53393D01*
X53027Y17292D02*
X53620D01*
X52955Y17220D02*
X53027Y17292D01*
X54810Y16889D02*
Y17292D01*
X55058Y17292D02*
X55090Y17259D01*
X54810Y17292D02*
X55058Y17292D01*
X55454Y17029D02*
X55630Y16854D01*
X53555Y18694D02*
X54422Y17827D01*
X54510Y17827D01*
X59170Y6137D02*
X59651Y5851D01*
X57028Y6086D02*
X57029Y6086D01*
X57029D01*
X57297Y6086D01*
X55210Y9729D02*
X55735Y9414D01*
X52036Y10709D02*
X55210Y9729D01*
X52171Y17250D02*
X52480Y17559D01*
X53400Y15601D02*
Y15677D01*
X52437Y18694D02*
X52467Y18724D01*
X52497Y18754D01*
X79890Y12108D02*
Y12169D01*
X74292Y18754D02*
X74352Y18694D01*
X78283Y16239D02*
Y16906D01*
X77940Y15897D02*
X78283Y16239D01*
X77940Y14656D02*
Y15897D01*
X77339Y14055D02*
X77940Y14656D01*
X78390Y13669D02*
X79890Y12169D01*
X77339Y14055D02*
X77725Y13669D01*
X78390D01*
X80050Y11519D02*
X80100Y11469D01*
X79891Y11678D02*
X80050Y11519D01*
X80130Y11599D01*
X80366Y11643D01*
X78293Y6084D02*
X79780Y5787D01*
X79563Y11121D02*
X79810Y10976D01*
X78963Y10271D02*
X79250Y10082D01*
Y10096D01*
Y7792D02*
Y10082D01*
X79273Y7769D02*
X79273D01*
X79250Y7792D02*
X79273Y7769D01*
X79810Y9809D02*
Y10976D01*
X79765Y8622D02*
X79765D01*
Y9224D01*
X79740Y9249D02*
X79765Y9224D01*
X79740Y9249D02*
Y9739D01*
X79810Y9809D01*
X80213Y10027D02*
X80328Y9598D01*
X80100Y11469D02*
X80213Y10027D01*
X80257Y9474D01*
X79891Y11678D02*
Y11708D01*
X79840Y11729D02*
X79891Y11678D01*
X80257Y9474D02*
X80328Y9598D01*
X79590Y11389D02*
Y12259D01*
X78340Y13509D02*
X79590Y12259D01*
X76430Y13509D02*
X78340D01*
X79355Y11507D02*
Y12293D01*
X78400Y13249D02*
X79355Y12293D01*
X76270Y13249D02*
X78400D01*
X72990Y15379D02*
X73223Y15613D01*
X72990Y14539D02*
Y15379D01*
X73223Y15613D02*
X73450Y15613D01*
X79530Y11239D02*
X79590Y11389D01*
X79530Y11239D02*
X79563Y11121D01*
X78830Y10589D02*
X78963Y10271D01*
X78830Y10589D02*
X79355Y11507D01*
X75770Y17292D02*
X76069D01*
X75770Y17827D02*
X76117D01*
X76082Y14452D02*
X76450D01*
X76430Y13888D02*
Y14432D01*
X75201Y14129D02*
X75351Y13979D01*
X76724Y18093D02*
X77096D01*
X78283Y16906D01*
X75380Y17559D02*
X76620D01*
X74010Y17559D02*
X75380Y17559D01*
X74352Y18694D02*
X74815D01*
X74010Y17559D02*
X74180D01*
X73740D02*
X74010D01*
X76069Y16889D02*
X76071Y16887D01*
Y16461D02*
Y16887D01*
X76890Y16854D02*
X77935D01*
X76430Y14432D02*
X76450Y14452D01*
X76020Y15002D02*
Y15359D01*
Y15002D02*
X76020Y14644D01*
X76435Y15002D02*
X76450Y14987D01*
X76020Y15002D02*
X76435D01*
X71675Y16819D02*
X71962Y16532D01*
X71360Y16819D02*
X71675D01*
X75730Y13789D02*
X76270Y13249D01*
X79870Y11729D02*
X79891Y11708D01*
X75730Y13789D02*
Y13979D01*
X73400Y14129D02*
X75201D01*
X75930Y14299D02*
X76082Y14452D01*
X73500Y14299D02*
X75930D01*
X76724Y18093D02*
X76745Y18015D01*
X80911Y5851D02*
X80964Y5820D01*
X80911Y5851D02*
X80911D01*
X80864Y5772D02*
X80886Y5759D01*
X78293Y6084D02*
X78503Y6032D01*
X78293Y6084D02*
X78293Y6084D01*
X78293Y6084D02*
X78293Y6084D01*
X78293Y6084D02*
X78293D01*
X73555Y18694D02*
X73697D01*
X73445Y18804D02*
X73555Y18694D01*
X73197Y18804D02*
X73445D01*
X73195Y18801D02*
X73197Y18804D01*
X73376Y16914D02*
X73425D01*
X73327Y16613D02*
Y16865D01*
X73376Y16914D01*
X73461Y16950D02*
Y17220D01*
X73425Y16914D02*
X73461Y16950D01*
X73862Y16613D02*
X75755D01*
X75874Y16494D01*
X74660Y15677D02*
Y15974D01*
X76972Y16199D02*
X77940Y16199D01*
X78145Y16404D01*
Y16644D01*
X77935Y16854D02*
X78145Y16644D01*
X76465Y16415D02*
X76570Y16519D01*
X76972D01*
Y15924D02*
Y16199D01*
Y16519D01*
X72932Y18801D02*
X73195D01*
X72880Y18749D02*
X72932Y18801D01*
X72880Y16839D02*
Y18749D01*
X73355Y17874D02*
X73525Y18044D01*
X73050Y17569D02*
X73355Y17874D01*
X73195Y18034D02*
X73355Y17874D01*
X73195Y18034D02*
Y18266D01*
X73525Y18044D02*
X73765D01*
X73050Y17569D02*
X73050Y16379D01*
X73862Y16928D02*
X74145Y17210D01*
X74715Y16029D02*
X75027Y16341D01*
X71962Y16532D02*
X72290Y16859D01*
X74715Y14769D02*
X75020Y14464D01*
X71962Y16189D02*
Y16532D01*
X74660Y15974D02*
X74715Y16029D01*
Y15606D02*
Y16029D01*
Y14769D02*
Y15070D01*
X75874Y15505D02*
X76020Y15359D01*
X75027Y16341D02*
X75329D01*
X75020Y14464D02*
X75840D01*
X75329Y15291D02*
Y15806D01*
X75330Y15805D01*
X71897Y16195D02*
X71902Y16189D01*
X73310Y14489D02*
X73500Y14299D01*
X73450Y15613D02*
X73577Y15741D01*
Y16147D01*
X73590Y16159D01*
X73750Y14999D02*
Y15489D01*
X73727Y15707D02*
X73857Y15837D01*
X73877Y15617D02*
X73903Y15642D01*
X73877Y15617D02*
Y15617D01*
X73750Y15489D02*
X73877Y15617D01*
X73727Y15679D02*
Y15707D01*
X73600Y15551D02*
X73727Y15679D01*
X73600Y15269D02*
X73600Y15551D01*
X73310Y14979D02*
X73600Y15269D01*
X73857Y15837D02*
Y15949D01*
X73903Y15642D02*
X74043D01*
X73470Y16279D02*
X73590Y16159D01*
X73150Y16279D02*
X73470D01*
X73703Y16266D02*
X74043D01*
X73600Y16369D02*
X73703Y16266D01*
X73600Y16369D02*
Y16549D01*
X73536Y16613D02*
X73600Y16549D01*
X73327Y16613D02*
X73536D01*
X74143Y15359D02*
X74361Y15142D01*
X74660D01*
X74220Y15819D02*
X74362Y15677D01*
X74130Y15909D02*
X74220Y15819D01*
X73750Y14999D02*
X74143Y14605D01*
X74043Y15642D02*
X74220Y15819D01*
X73310Y14489D02*
Y14979D01*
X74362Y15677D02*
X74660D01*
X74130Y15909D02*
Y16179D01*
X74043Y16266D02*
X74130Y16179D01*
X73862Y16613D02*
Y16928D01*
X73050Y16379D02*
X73150Y16279D01*
X72290Y16859D02*
X72860D01*
X72880Y16839D01*
X73097Y15949D02*
X73322D01*
X72880Y16167D02*
Y16839D01*
Y16167D02*
X73097Y15949D01*
X72990Y14539D02*
X73400Y14129D01*
X75840Y14464D02*
X76020Y14644D01*
X76620Y17559D02*
X76714Y17465D01*
Y17029D02*
Y17465D01*
X74292Y18694D02*
X74352D01*
X76117Y17827D02*
X76383Y18093D01*
X76724Y18093D01*
X74653Y18054D02*
X74879Y17827D01*
X73835Y18054D02*
X74653D01*
X74286Y17292D02*
X74879D01*
X74215Y17220D02*
X74286Y17292D01*
X76069Y16889D02*
Y17292D01*
X76318Y17292D02*
X76350Y17259D01*
X76069Y17292D02*
X76318Y17292D01*
X76714Y17029D02*
X76890Y16854D01*
X74815Y18694D02*
X75682Y17827D01*
X75770Y17827D01*
X80430Y6137D02*
X80911Y5851D01*
X78288Y6086D02*
X78288Y6086D01*
X78288D01*
X78557Y6086D01*
X76470Y9729D02*
X76995Y9414D01*
X73296Y10709D02*
X76470Y9729D01*
X73431Y17250D02*
X73740Y17559D01*
X74660Y15601D02*
Y15677D01*
X73697Y18694D02*
X73727Y18724D01*
X73757Y18754D01*
D37*
X1958Y5864D02*
X3823Y6920D01*
X1950Y5860D02*
X1958Y5864D01*
X9466Y6669D02*
X9466Y6669D01*
Y5929D02*
Y6669D01*
X9386Y6749D02*
X9466Y6669D01*
X13950Y8539D02*
Y8639D01*
X14020Y8709D01*
X14136Y8968D01*
X8054Y18043D02*
X8590D01*
X8011Y18000D02*
X8054Y18043D01*
X7581Y18000D02*
X8011D01*
X8390Y6749D02*
X9386D01*
X23218Y5864D02*
X25083Y6920D01*
X23210Y5860D02*
X23218Y5864D01*
X30726Y6669D02*
X30726Y6669D01*
Y5929D02*
Y6669D01*
X30646Y6749D02*
X30726Y6669D01*
X35210Y8539D02*
Y8639D01*
X35280Y8709D01*
X35396Y8968D01*
X29314Y18043D02*
X29850D01*
X29270Y18000D02*
X29314Y18043D01*
X28841Y18000D02*
X29270D01*
X29650Y6749D02*
X30646D01*
X44478Y5864D02*
X46343Y6920D01*
X44470Y5860D02*
X44478Y5864D01*
X51986Y6669D02*
X51986Y6669D01*
Y5929D02*
Y6669D01*
X51906Y6749D02*
X51986Y6669D01*
X56470Y8539D02*
Y8639D01*
X56540Y8709D01*
X56656Y8968D01*
X50574Y18043D02*
X51110D01*
X50530Y18000D02*
X50574Y18043D01*
X50101Y18000D02*
X50530D01*
X50910Y6749D02*
X51906D01*
X65738Y5864D02*
X67603Y6920D01*
X65730Y5860D02*
X65738Y5864D01*
X73245Y6669D02*
X73246Y6669D01*
Y5929D02*
Y6669D01*
X73165Y6749D02*
X73245Y6669D01*
X77730Y8539D02*
Y8639D01*
X77800Y8709D01*
X77916Y8968D01*
X71834Y18043D02*
X72370D01*
X71790Y18000D02*
X71834Y18043D01*
X71360Y18000D02*
X71790D01*
X72170Y6749D02*
X73165D01*
D38*
X15516Y10658D02*
X15730Y10349D01*
X15340Y11577D02*
Y12269D01*
X14640Y12969D02*
X15340Y12269D01*
X12200Y12969D02*
X14640D01*
X8984Y14256D02*
Y15366D01*
X8820Y15819D02*
X8984Y15656D01*
X10200Y19139D02*
X10260Y19079D01*
X8970Y19139D02*
X10200D01*
X8210Y18379D02*
X8970Y19139D01*
X6090Y18379D02*
X8210D01*
X5750Y18039D02*
X6090Y18379D01*
X5750Y16739D02*
Y18039D01*
Y16739D02*
X6050Y16439D01*
Y15949D02*
Y16439D01*
Y15949D02*
X6180Y15819D01*
Y15219D02*
Y15819D01*
X5450Y14489D02*
X6180Y15219D01*
X5450Y14162D02*
Y14489D01*
Y14162D02*
X5820Y13792D01*
X6020Y17009D02*
X6240Y16789D01*
X6020Y17009D02*
Y17829D01*
X6191Y18000D01*
X7581D01*
X6117Y14089D02*
X7591D01*
X5820Y13792D02*
X6117Y14089D01*
X5820Y14327D02*
X6142Y14649D01*
X6760D01*
X8440Y14679D02*
X8500Y14619D01*
X7630Y14679D02*
X8440D01*
X7385Y16049D02*
X7770D01*
X8000Y15819D01*
X8820D01*
X8984Y15366D02*
Y15656D01*
X9300Y13939D02*
X11080D01*
X11385Y13634D01*
X8984Y14256D02*
X9300Y13939D01*
X8718Y16567D02*
X8720Y16569D01*
X8718Y16189D02*
Y16567D01*
X11385Y13634D02*
X11535D01*
X12200Y12969D01*
X14660Y10378D02*
X15340Y11577D01*
X6240Y16789D02*
X6990D01*
X7385Y16394D01*
Y16049D02*
Y16394D01*
X36776Y10658D02*
X36990Y10349D01*
X36600Y11577D02*
Y12269D01*
X35900Y12969D02*
X36600Y12269D01*
X33460Y12969D02*
X35900D01*
X30243Y14256D02*
Y15366D01*
X30080Y15819D02*
X30243Y15656D01*
X31460Y19139D02*
X31520Y19079D01*
X30230Y19139D02*
X31460D01*
X29470Y18379D02*
X30230Y19139D01*
X27350Y18379D02*
X29470D01*
X27010Y18039D02*
X27350Y18379D01*
X27010Y16739D02*
Y18039D01*
Y16739D02*
X27310Y16439D01*
Y15949D02*
Y16439D01*
Y15949D02*
X27440Y15819D01*
Y15219D02*
Y15819D01*
X26710Y14489D02*
X27440Y15219D01*
X26710Y14162D02*
Y14489D01*
Y14162D02*
X27080Y13792D01*
X27280Y17009D02*
X27500Y16789D01*
X27280Y17009D02*
Y17829D01*
X27450Y18000D01*
X28841D01*
X27377Y14089D02*
X28851D01*
X27080Y13792D02*
X27377Y14089D01*
X27080Y14327D02*
X27402Y14649D01*
X28020D01*
X29700Y14679D02*
X29760Y14619D01*
X28890Y14679D02*
X29700D01*
X28645Y16049D02*
X29030D01*
X29260Y15819D01*
X30080D01*
X30243Y15366D02*
Y15656D01*
X30560Y13939D02*
X32340D01*
X32645Y13634D01*
X30243Y14256D02*
X30560Y13939D01*
X29978Y16567D02*
X29980Y16569D01*
X29978Y16189D02*
Y16567D01*
X32645Y13634D02*
X32795D01*
X33460Y12969D01*
X35920Y10378D02*
X36600Y11577D01*
X27500Y16789D02*
X28250D01*
X28645Y16394D01*
Y16049D02*
Y16394D01*
X58036Y10658D02*
X58250Y10349D01*
X57860Y11577D02*
Y12269D01*
X57160Y12969D02*
X57860Y12269D01*
X54720Y12969D02*
X57160D01*
X51503Y14256D02*
Y15366D01*
X51340Y15819D02*
X51503Y15656D01*
X52720Y19139D02*
X52780Y19079D01*
X51490Y19139D02*
X52720D01*
X50730Y18379D02*
X51490Y19139D01*
X48610Y18379D02*
X50730D01*
X48270Y18039D02*
X48610Y18379D01*
X48270Y16739D02*
Y18039D01*
Y16739D02*
X48570Y16439D01*
Y15949D02*
Y16439D01*
Y15949D02*
X48700Y15819D01*
Y15219D02*
Y15819D01*
X47970Y14489D02*
X48700Y15219D01*
X47970Y14162D02*
Y14489D01*
Y14162D02*
X48340Y13792D01*
X48540Y17009D02*
X48760Y16789D01*
X48540Y17009D02*
Y17829D01*
X48710Y18000D01*
X50101D01*
X48637Y14089D02*
X50111D01*
X48340Y13792D02*
X48637Y14089D01*
X48340Y14327D02*
X48662Y14649D01*
X49280D01*
X50960Y14679D02*
X51020Y14619D01*
X50150Y14679D02*
X50960D01*
X49905Y16049D02*
X50290D01*
X50520Y15819D01*
X51340D01*
X51503Y15366D02*
Y15656D01*
X51820Y13939D02*
X53600D01*
X53905Y13634D01*
X51503Y14256D02*
X51820Y13939D01*
X51237Y16567D02*
X51240Y16569D01*
X51237Y16189D02*
Y16567D01*
X53905Y13634D02*
X54055D01*
X54720Y12969D01*
X57180Y10378D02*
X57860Y11577D01*
X48760Y16789D02*
X49510D01*
X49905Y16394D01*
Y16049D02*
Y16394D01*
X79296Y10658D02*
X79510Y10349D01*
X79120Y11577D02*
Y12269D01*
X78420Y12969D02*
X79120Y12269D01*
X75980Y12969D02*
X78420D01*
X72763Y14256D02*
Y15366D01*
X72600Y15819D02*
X72763Y15656D01*
X73980Y19139D02*
X74040Y19079D01*
X72750Y19139D02*
X73980D01*
X71990Y18379D02*
X72750Y19139D01*
X69870Y18379D02*
X71990D01*
X69530Y18039D02*
X69870Y18379D01*
X69530Y16739D02*
Y18039D01*
Y16739D02*
X69830Y16439D01*
Y15949D02*
Y16439D01*
Y15949D02*
X69960Y15819D01*
Y15219D02*
Y15819D01*
X69230Y14489D02*
X69960Y15219D01*
X69230Y14162D02*
Y14489D01*
Y14162D02*
X69600Y13792D01*
X69800Y17009D02*
X70020Y16789D01*
X69800Y17009D02*
Y17829D01*
X69970Y18000D01*
X71360D01*
X69897Y14089D02*
X71370D01*
X69600Y13792D02*
X69897Y14089D01*
X69600Y14327D02*
X69922Y14649D01*
X70540D01*
X72220Y14679D02*
X72280Y14619D01*
X71410Y14679D02*
X72220D01*
X71165Y16049D02*
X71550D01*
X71780Y15819D01*
X72600D01*
X72763Y15366D02*
Y15656D01*
X73080Y13939D02*
X74860D01*
X75165Y13634D01*
X72763Y14256D02*
X73080Y13939D01*
X72497Y16567D02*
X72500Y16569D01*
X72497Y16189D02*
Y16567D01*
X75165Y13634D02*
X75315D01*
X75980Y12969D01*
X78439Y10378D02*
X79120Y11577D01*
X70020Y16789D02*
X70770D01*
X71165Y16394D01*
Y16049D02*
Y16394D01*
D39*
X11490Y4074D02*
X12356D01*
X10195Y5369D02*
Y5929D01*
Y5369D02*
X11490Y4074D01*
X12356D02*
X13131Y3299D01*
X32750Y4074D02*
X33616D01*
X31455Y5369D02*
Y5929D01*
Y5369D02*
X32750Y4074D01*
X33616D02*
X34391Y3299D01*
X54010Y4074D02*
X54875D01*
X52714Y5369D02*
Y5929D01*
Y5369D02*
X54010Y4074D01*
X54875D02*
X55650Y3299D01*
X75270Y4074D02*
X76135D01*
X73974Y5369D02*
Y5929D01*
Y5369D02*
X75270Y4074D01*
X76135D02*
X76910Y3299D01*
D40*
X17165Y6742D02*
X17523Y6526D01*
X11656Y4334D02*
X12465D01*
X10729Y5260D02*
X11656Y4334D01*
X10729Y5260D02*
Y6134D01*
X10194Y6669D02*
X10729Y6134D01*
X8420Y4429D02*
X8610Y4619D01*
X8207Y4429D02*
X8420D01*
X8610Y4619D02*
Y4889D01*
X8850Y5129D01*
Y6015D01*
X8264D02*
X8850D01*
X2740Y7269D02*
Y8889D01*
X1560Y6568D02*
X2740Y7269D01*
Y8889D02*
X4716Y10040D01*
X2569Y4788D02*
X2586Y4778D01*
X2317Y9250D02*
X2619Y9553D01*
X2317Y8469D02*
Y9250D01*
X8010Y4749D02*
X8310Y4739D01*
X7457Y5688D02*
X8010Y4749D01*
X13131Y3299D02*
X13927D01*
X13200Y3599D02*
X13737D01*
X12465Y4334D02*
X13200Y3599D01*
X8180Y17289D02*
X8590D01*
X8060Y17409D02*
X8180Y17289D01*
X7620Y17409D02*
X8060D01*
X17523Y6526D02*
X17523Y6526D01*
X17525Y6524D01*
X15890Y6924D02*
X16221Y7457D01*
X15889Y6925D02*
X15890Y6924D01*
X16221Y7457D02*
X17785Y7824D01*
X16250Y6177D02*
X16638Y6724D01*
X16638D02*
X16656Y6742D01*
X17165D01*
X13737Y3599D02*
X14792Y5229D01*
X14924Y5360D01*
X14792Y5229D02*
X14792Y5229D01*
X14924Y5360D02*
X15875D01*
X14986Y4949D02*
X15119Y5083D01*
X15945D01*
X16500Y4758D01*
X16531Y4817D02*
X16531D01*
X13927Y3299D02*
X14986Y4949D01*
X15875Y5360D02*
X16180Y5487D01*
X16400Y5837D01*
X16531Y4817D02*
X16555Y4804D01*
X16531Y4817D02*
X16531Y4817D01*
X16250Y6177D02*
X16400Y5837D01*
X967Y7689D02*
X2317Y8469D01*
X17785Y7824D02*
X18160Y7630D01*
X7277Y3499D02*
X8207Y4429D01*
X14970Y6925D02*
X15001Y6925D01*
X15889Y6925D01*
X38425Y6742D02*
X38782Y6526D01*
X32916Y4334D02*
X33725D01*
X31989Y5260D02*
X32916Y4334D01*
X31989Y5260D02*
Y6134D01*
X31454Y6669D02*
X31989Y6134D01*
X29680Y4429D02*
X29870Y4619D01*
X29467Y4429D02*
X29680D01*
X29870Y4619D02*
Y4889D01*
X30110Y5129D01*
Y6015D01*
X29524D02*
X30110D01*
X24000Y7269D02*
Y8889D01*
X22820Y6568D02*
X24000Y7269D01*
Y8889D02*
X25976Y10040D01*
X23829Y4788D02*
X23846Y4778D01*
X23576Y9250D02*
X23879Y9553D01*
X23576Y8469D02*
Y9250D01*
X29270Y4749D02*
X29570Y4739D01*
X28717Y5688D02*
X29270Y4749D01*
X34391Y3299D02*
X35186D01*
X34460Y3599D02*
X34996D01*
X33725Y4334D02*
X34460Y3599D01*
X29440Y17289D02*
X29850D01*
X29320Y17409D02*
X29440Y17289D01*
X28880Y17409D02*
X29320D01*
X38782Y6526D02*
X38782Y6526D01*
X38785Y6524D01*
X37150Y6924D02*
X37481Y7457D01*
X37149Y6925D02*
X37150Y6924D01*
X37481Y7457D02*
X39045Y7824D01*
X37510Y6177D02*
X37898Y6724D01*
X37898D02*
X37916Y6742D01*
X38425D01*
X34996Y3599D02*
X36052Y5229D01*
X36183Y5360D01*
X36052Y5229D02*
X36052Y5229D01*
X36183Y5360D02*
X37135D01*
X36246Y4949D02*
X36379Y5083D01*
X37205D01*
X37760Y4758D01*
X37791Y4817D02*
X37791D01*
X35186Y3299D02*
X36246Y4949D01*
X37135Y5360D02*
X37440Y5487D01*
X37660Y5837D01*
X37791Y4817D02*
X37815Y4804D01*
X37791Y4817D02*
X37791Y4817D01*
X37510Y6177D02*
X37660Y5837D01*
X22226Y7689D02*
X23576Y8469D01*
X39045Y7824D02*
X39420Y7630D01*
X28536Y3499D02*
X29467Y4429D01*
X36230Y6925D02*
X36261Y6925D01*
X37149Y6925D01*
X59685Y6742D02*
X60042Y6526D01*
X54175Y4334D02*
X54985D01*
X53249Y5260D02*
X54175Y4334D01*
X53249Y5260D02*
Y6134D01*
X52714Y6669D02*
X53249Y6134D01*
X50940Y4429D02*
X51130Y4619D01*
X50727Y4429D02*
X50940D01*
X51130Y4619D02*
Y4889D01*
X51370Y5129D01*
Y6015D01*
X50784D02*
X51370D01*
X45260Y7269D02*
Y8889D01*
X44080Y6568D02*
X45260Y7269D01*
Y8889D02*
X47236Y10040D01*
X45089Y4788D02*
X45106Y4778D01*
X44836Y9250D02*
X45139Y9553D01*
X44836Y8469D02*
Y9250D01*
X50530Y4749D02*
X50830Y4739D01*
X49977Y5688D02*
X50530Y4749D01*
X55650Y3299D02*
X56446D01*
X55720Y3599D02*
X56256D01*
X54985Y4334D02*
X55720Y3599D01*
X50700Y17289D02*
X51110D01*
X50580Y17409D02*
X50700Y17289D01*
X50140Y17409D02*
X50580D01*
X60042Y6526D02*
X60042Y6526D01*
X60045Y6524D01*
X58410Y6924D02*
X58741Y7457D01*
X58408Y6925D02*
X58410Y6924D01*
X58741Y7457D02*
X60305Y7824D01*
X58770Y6177D02*
X59158Y6724D01*
X59158D02*
X59176Y6742D01*
X59685D01*
X56256Y3599D02*
X57312Y5229D01*
X57443Y5360D01*
X57311Y5229D02*
X57312Y5229D01*
X57443Y5360D02*
X58395D01*
X57506Y4949D02*
X57639Y5083D01*
X58465D01*
X59020Y4758D01*
X59051Y4817D02*
X59051D01*
X56446Y3299D02*
X57506Y4949D01*
X58395Y5360D02*
X58700Y5487D01*
X58920Y5837D01*
X59051Y4817D02*
X59075Y4804D01*
X59051Y4817D02*
X59051Y4817D01*
X58770Y6177D02*
X58920Y5837D01*
X43486Y7689D02*
X44836Y8469D01*
X60305Y7824D02*
X60680Y7630D01*
X49796Y3499D02*
X50727Y4429D01*
X57490Y6925D02*
X57521Y6925D01*
X58408Y6925D01*
X80945Y6742D02*
X81302Y6526D01*
X75435Y4334D02*
X76245D01*
X74509Y5260D02*
X75435Y4334D01*
X74509Y5260D02*
Y6134D01*
X73974Y6669D02*
X74509Y6134D01*
X72200Y4429D02*
X72390Y4619D01*
X71987Y4429D02*
X72200D01*
X72390Y4619D02*
Y4889D01*
X72630Y5129D01*
Y6015D01*
X72044D02*
X72630D01*
X66520Y7269D02*
Y8889D01*
X65340Y6568D02*
X66520Y7269D01*
Y8889D02*
X68496Y10040D01*
X66349Y4788D02*
X66365Y4778D01*
X66096Y9250D02*
X66399Y9553D01*
X66096Y8469D02*
Y9250D01*
X71790Y4749D02*
X72090Y4739D01*
X71236Y5688D02*
X71790Y4749D01*
X76910Y3299D02*
X77706D01*
X76980Y3599D02*
X77516D01*
X76245Y4334D02*
X76980Y3599D01*
X71960Y17289D02*
X72370D01*
X71840Y17409D02*
X71960Y17289D01*
X71400Y17409D02*
X71840D01*
X81302Y6526D02*
X81302Y6526D01*
X81305Y6524D01*
X79670Y6924D02*
X80000Y7457D01*
X79668Y6925D02*
X79670Y6924D01*
X80000Y7457D02*
X81565Y7824D01*
X80030Y6177D02*
X80418Y6724D01*
X80418D02*
X80436Y6742D01*
X80945D01*
X77516Y3599D02*
X78571Y5229D01*
X78703Y5360D01*
X78571Y5229D02*
X78571Y5229D01*
X78703Y5360D02*
X79655D01*
X78766Y4949D02*
X78899Y5083D01*
X79725D01*
X80280Y4758D01*
X80311Y4817D02*
X80311D01*
X77706Y3299D02*
X78766Y4949D01*
X79655Y5360D02*
X79960Y5487D01*
X80180Y5837D01*
X80311Y4817D02*
X80335Y4804D01*
X80311Y4817D02*
X80311Y4817D01*
X80030Y6177D02*
X80180Y5837D01*
X64746Y7689D02*
X66096Y8469D01*
X81565Y7824D02*
X81940Y7630D01*
X71056Y3499D02*
X71987Y4429D01*
X78750Y6925D02*
X78781Y6925D01*
X79668Y6925D01*
D41*
X5081Y9409D02*
X5225Y9169D01*
X5378Y8915D01*
X26340Y9409D02*
X26485Y9169D01*
X26638Y8915D01*
X47600Y9409D02*
X47744Y9169D01*
X47898Y8915D01*
X68860Y9409D02*
X69004Y9169D01*
X69157Y8915D01*
D42*
X11570Y6739D02*
X12880Y5429D01*
Y5004D02*
X13525Y4360D01*
X12880Y5004D02*
Y5429D01*
X11296Y6739D02*
X11570D01*
X4080Y7067D02*
X4526Y6276D01*
X3823Y6920D02*
X4080Y7067D01*
X3569Y7913D02*
X4080Y7067D01*
X5383Y7810D01*
X10870Y7165D02*
X11296Y6739D01*
X6644Y7165D02*
X10870D01*
X5999Y7810D02*
X6644Y7165D01*
X5383Y7810D02*
X5999D01*
X32830Y6739D02*
X34140Y5429D01*
Y5004D02*
X34785Y4360D01*
X34140Y5004D02*
Y5429D01*
X32556Y6739D02*
X32830D01*
X25340Y7067D02*
X25786Y6276D01*
X25083Y6920D02*
X25340Y7067D01*
X24829Y7913D02*
X25340Y7067D01*
X26643Y7810D01*
X32130Y7165D02*
X32556Y6739D01*
X27904Y7165D02*
X32130D01*
X27259Y7810D02*
X27904Y7165D01*
X26643Y7810D02*
X27259D01*
X54090Y6739D02*
X55400Y5429D01*
Y5004D02*
X56044Y4360D01*
X55400Y5004D02*
Y5429D01*
X53816Y6739D02*
X54090D01*
X46600Y7067D02*
X47045Y6276D01*
X46343Y6920D02*
X46600Y7067D01*
X46089Y7913D02*
X46600Y7067D01*
X47903Y7810D01*
X53390Y7165D02*
X53816Y6739D01*
X49164Y7165D02*
X53390D01*
X48519Y7810D02*
X49164Y7165D01*
X47903Y7810D02*
X48519D01*
X75350Y6739D02*
X76660Y5429D01*
Y5004D02*
X77304Y4360D01*
X76660Y5004D02*
Y5429D01*
X75076Y6739D02*
X75350D01*
X67860Y7067D02*
X68305Y6276D01*
X67603Y6920D02*
X67860Y7067D01*
X67349Y7913D02*
X67860Y7067D01*
X69163Y7810D01*
X74650Y7165D02*
X75076Y6739D01*
X70424Y7165D02*
X74650D01*
X69779Y7810D02*
X70424Y7165D01*
X69163Y7810D02*
X69779D01*
D43*
X13237Y7336D02*
X13310Y7263D01*
X12996Y6233D02*
X12996Y6233D01*
X12628Y8241D02*
X12630Y8239D01*
X12714Y8155D01*
X12805Y8064D01*
X12853Y8016D02*
X12858Y8011D01*
X12543Y8152D02*
X12630Y8239D01*
X12704Y7869D02*
X12710Y7863D01*
X12687Y7886D02*
X12704Y7869D01*
X12858Y8011D02*
X13237Y7631D01*
X12543Y8030D02*
Y8152D01*
X12710Y7863D02*
X12718Y7855D01*
X13009Y7564D01*
X13237Y7336D02*
X13237Y7607D01*
Y7631D01*
X13870Y6703D02*
X14509Y6064D01*
X13009Y7564D02*
X13207Y7366D01*
X13237Y7336D01*
X12543Y8030D02*
X12687Y7886D01*
X12805Y8064D02*
X12853Y8016D01*
X13310Y7263D02*
X13870Y6703D01*
X12996Y6233D02*
X13145Y6084D01*
X12136Y7092D02*
X12795Y6434D01*
X12996Y6233D01*
X13145Y6084D02*
X14017Y5212D01*
X34497Y7336D02*
X34570Y7263D01*
X34256Y6233D02*
X34256Y6233D01*
X33888Y8241D02*
X33890Y8239D01*
X33973Y8155D01*
X34065Y8064D01*
X34113Y8016D02*
X34118Y8011D01*
X33803Y8152D02*
X33890Y8239D01*
X33964Y7869D02*
X33970Y7863D01*
X33947Y7886D02*
X33964Y7869D01*
X34118Y8011D02*
X34497Y7631D01*
X33803Y8030D02*
Y8152D01*
X33970Y7863D02*
X33978Y7855D01*
X34269Y7564D01*
X34497Y7336D02*
X34497Y7607D01*
Y7631D01*
X35130Y6703D02*
X35769Y6064D01*
X34269Y7564D02*
X34467Y7366D01*
X34497Y7336D01*
X33803Y8030D02*
X33947Y7886D01*
X34065Y8064D02*
X34113Y8016D01*
X34570Y7263D02*
X35130Y6703D01*
X34256Y6233D02*
X34405Y6084D01*
X33396Y7092D02*
X34055Y6434D01*
X34256Y6233D01*
X34405Y6084D02*
X35277Y5212D01*
X55757Y7336D02*
X55830Y7263D01*
X55515Y6233D02*
X55515Y6233D01*
X55148Y8241D02*
X55150Y8239D01*
X55233Y8155D01*
X55325Y8064D01*
X55372Y8016D02*
X55377Y8011D01*
X55063Y8152D02*
X55150Y8239D01*
X55224Y7869D02*
X55230Y7863D01*
X55207Y7886D02*
X55224Y7869D01*
X55377Y8011D02*
X55757Y7631D01*
X55063Y8030D02*
Y8152D01*
X55230Y7863D02*
X55238Y7855D01*
X55529Y7564D01*
X55757Y7336D02*
X55757Y7607D01*
Y7631D01*
X56390Y6703D02*
X57029Y6064D01*
X55529Y7564D02*
X55727Y7366D01*
X55757Y7336D01*
X55063Y8030D02*
X55207Y7886D01*
X55325Y8064D02*
X55372Y8016D01*
X55830Y7263D02*
X56390Y6703D01*
X55515Y6233D02*
X55664Y6084D01*
X54656Y7092D02*
X55314Y6434D01*
X55515Y6233D01*
X55664Y6084D02*
X56537Y5212D01*
X77017Y7336D02*
X77090Y7263D01*
X76775Y6233D02*
X76775Y6233D01*
X76408Y8241D02*
X76410Y8239D01*
X76493Y8155D01*
X76585Y8064D01*
X76632Y8016D02*
X76637Y8011D01*
X76323Y8152D02*
X76410Y8239D01*
X76484Y7869D02*
X76489Y7863D01*
X76467Y7886D02*
X76484Y7869D01*
X76637Y8011D02*
X77017Y7631D01*
X76322Y8030D02*
Y8152D01*
X76489Y7863D02*
X76498Y7855D01*
X76789Y7564D01*
X77017Y7336D02*
X77017Y7607D01*
Y7631D01*
X77650Y6703D02*
X78288Y6064D01*
X76789Y7564D02*
X76986Y7366D01*
X77017Y7336D01*
X76322Y8030D02*
X76467Y7886D01*
X76585Y8064D02*
X76632Y8016D01*
X77090Y7263D02*
X77650Y6703D01*
X76775Y6233D02*
X76924Y6084D01*
X75916Y7092D02*
X76574Y6434D01*
X76775Y6233D01*
X76924Y6084D02*
X77796Y5212D01*
D44*
X14010Y7899D02*
X14081Y7918D01*
X8500Y14119D02*
Y14619D01*
X14404Y9431D02*
X14529Y9652D01*
X14430Y9951D02*
X14529Y9652D01*
X14499Y9395D02*
X14636Y8880D01*
X14081Y7918D02*
X14636Y8880D01*
X6400Y16049D02*
X6795D01*
X8470Y17409D02*
X8590Y17289D01*
X8060Y17409D02*
X8470D01*
X6795Y16049D02*
X6795Y16049D01*
X14430Y9951D02*
X14458Y10004D01*
X14479Y10044D01*
X35270Y7899D02*
X35341Y7918D01*
X29760Y14119D02*
Y14619D01*
X35664Y9431D02*
X35789Y9652D01*
X35689Y9951D02*
X35789Y9652D01*
X35758Y9395D02*
X35896Y8880D01*
X35341Y7918D02*
X35896Y8880D01*
X27660Y16049D02*
X28055D01*
X29730Y17409D02*
X29850Y17289D01*
X29320Y17409D02*
X29730D01*
X28055Y16049D02*
X28055Y16049D01*
X35689Y9951D02*
X35718Y10004D01*
X35739Y10044D01*
X56530Y7899D02*
X56600Y7918D01*
X51020Y14119D02*
Y14619D01*
X56924Y9431D02*
X57049Y9652D01*
X56949Y9951D02*
X57049Y9652D01*
X57018Y9395D02*
X57156Y8880D01*
X56600Y7918D02*
X57156Y8880D01*
X48920Y16049D02*
X49314D01*
X50990Y17409D02*
X51110Y17289D01*
X50580Y17409D02*
X50990D01*
X49314Y16049D02*
X49314Y16049D01*
X56949Y9951D02*
X56978Y10004D01*
X56999Y10044D01*
X77790Y7899D02*
X77860Y7918D01*
X72280Y14119D02*
Y14619D01*
X78183Y9431D02*
X78309Y9652D01*
X78209Y9951D02*
X78309Y9652D01*
X78278Y9395D02*
X78416Y8880D01*
X77860Y7918D02*
X78416Y8880D01*
X70180Y16049D02*
X70574D01*
X72250Y17409D02*
X72370Y17289D01*
X71840Y17409D02*
X72250D01*
X70574Y16049D02*
X70574Y16049D01*
X78209Y9951D02*
X78237Y10004D01*
X78258Y10044D01*
D45*
X11757Y7294D02*
X12195D01*
X33016D02*
X33455D01*
X54276D02*
X54715D01*
X75536D02*
X75975D01*
D46*
X13560Y14843D02*
D03*
X7063Y6370D02*
D03*
X11440Y5226D02*
D03*
X5469Y4643D02*
D03*
X2619Y9553D02*
D03*
X3569Y7913D02*
D03*
X4519Y6273D02*
D03*
X34820Y14843D02*
D03*
X28323Y6370D02*
D03*
X32700Y5226D02*
D03*
X26729Y4643D02*
D03*
X23879Y9553D02*
D03*
X24829Y7913D02*
D03*
X25779Y6273D02*
D03*
X56080Y14843D02*
D03*
X49583Y6370D02*
D03*
X53960Y5226D02*
D03*
X47989Y4643D02*
D03*
X45139Y9553D02*
D03*
X46089Y7913D02*
D03*
X47039Y6273D02*
D03*
X77339Y14843D02*
D03*
X70843Y6370D02*
D03*
X75220Y5226D02*
D03*
X69249Y4643D02*
D03*
X66399Y9553D02*
D03*
X67349Y7913D02*
D03*
X68299Y6273D02*
D03*
D47*
X13560Y14055D02*
D03*
X11440Y6013D02*
D03*
X34820Y14055D02*
D03*
X32700Y6013D02*
D03*
X56080Y14055D02*
D03*
X53960Y6013D02*
D03*
X77339Y14055D02*
D03*
X75220Y6013D02*
D03*
D48*
X7457Y5688D02*
D03*
X28717D02*
D03*
X49977D02*
D03*
X71236D02*
D03*
D49*
X4697Y11428D02*
D03*
X14357D02*
D03*
X25956D02*
D03*
X35616D02*
D03*
X47216D02*
D03*
X56876D02*
D03*
X68476D02*
D03*
X78136D02*
D03*
D50*
X9517Y10709D02*
D03*
X30776D02*
D03*
X52036D02*
D03*
X73296D02*
D03*
D51*
X13525Y4360D02*
D03*
X14017Y5212D02*
D03*
X14509Y6064D02*
D03*
X15001Y6917D02*
D03*
X15493Y7769D02*
D03*
X15985Y8622D02*
D03*
X16477Y9474D02*
D03*
X16970Y10326D02*
D03*
X34785Y4360D02*
D03*
X35277Y5212D02*
D03*
X35769Y6064D02*
D03*
X36261Y6917D02*
D03*
X36753Y7769D02*
D03*
X37245Y8622D02*
D03*
X37737Y9474D02*
D03*
X38229Y10326D02*
D03*
X56044Y4360D02*
D03*
X56537Y5212D02*
D03*
X57029Y6064D02*
D03*
X57521Y6917D02*
D03*
X58013Y7769D02*
D03*
X58505Y8622D02*
D03*
X58997Y9474D02*
D03*
X59489Y10326D02*
D03*
X77304Y4360D02*
D03*
X77796Y5212D02*
D03*
X78288Y6064D02*
D03*
X78781Y6917D02*
D03*
X79273Y7769D02*
D03*
X79765Y8622D02*
D03*
X80257Y9474D02*
D03*
X80749Y10326D02*
D03*
D52*
X6151Y5036D02*
D03*
X3301Y9946D02*
D03*
X4251Y8306D02*
D03*
X5201Y6666D02*
D03*
X27411Y5036D02*
D03*
X24561Y9946D02*
D03*
X25511Y8306D02*
D03*
X26461Y6666D02*
D03*
X48671Y5036D02*
D03*
X45821Y9946D02*
D03*
X46771Y8306D02*
D03*
X47721Y6666D02*
D03*
X69930Y5036D02*
D03*
X67080Y9946D02*
D03*
X68030Y8306D02*
D03*
X68980Y6666D02*
D03*
D53*
X7280Y3499D02*
D03*
X28540D02*
D03*
X49800D02*
D03*
X71060D02*
D03*
D54*
X11760D02*
D03*
X33020D02*
D03*
X54280D02*
D03*
X75540D02*
D03*
D55*
X17470Y11779D02*
D03*
X15040Y9449D02*
D03*
X15730Y10349D02*
D03*
X8240Y5869D02*
D03*
X8310Y4739D02*
D03*
X8010Y4749D02*
D03*
X16000Y5787D02*
D03*
X13950Y8539D02*
D03*
X14010Y7899D02*
D03*
X8500Y14119D02*
D03*
X6400Y16049D02*
D03*
X8060Y17409D02*
D03*
X16650Y6137D02*
D03*
X13708Y17259D02*
D03*
X12685Y15374D02*
D03*
X13730Y15479D02*
D03*
X11960Y14829D02*
D03*
X8720Y16569D02*
D03*
X14100Y16519D02*
D03*
X38730Y11779D02*
D03*
X36300Y9449D02*
D03*
X36990Y10349D02*
D03*
X29500Y5869D02*
D03*
X29570Y4739D02*
D03*
X29270Y4749D02*
D03*
X37260Y5787D02*
D03*
X35210Y8539D02*
D03*
X35270Y7899D02*
D03*
X29760Y14119D02*
D03*
X27660Y16049D02*
D03*
X29320Y17409D02*
D03*
X37910Y6137D02*
D03*
X34968Y17259D02*
D03*
X33945Y15374D02*
D03*
X34990Y15479D02*
D03*
X33220Y14829D02*
D03*
X29980Y16569D02*
D03*
X35360Y16519D02*
D03*
X59990Y11779D02*
D03*
X57560Y9449D02*
D03*
X58250Y10349D02*
D03*
X50760Y5869D02*
D03*
X50830Y4739D02*
D03*
X50530Y4749D02*
D03*
X58520Y5787D02*
D03*
X56470Y8539D02*
D03*
X56530Y7899D02*
D03*
X51020Y14119D02*
D03*
X48920Y16049D02*
D03*
X50580Y17409D02*
D03*
X59170Y6137D02*
D03*
X56228Y17259D02*
D03*
X55205Y15374D02*
D03*
X56250Y15479D02*
D03*
X54480Y14829D02*
D03*
X51240Y16569D02*
D03*
X56620Y16519D02*
D03*
X81250Y11779D02*
D03*
X78820Y9449D02*
D03*
X79510Y10349D02*
D03*
X72020Y5869D02*
D03*
X72090Y4739D02*
D03*
X71790Y4749D02*
D03*
X79780Y5787D02*
D03*
X77730Y8539D02*
D03*
X77790Y7899D02*
D03*
X72280Y14119D02*
D03*
X70180Y16049D02*
D03*
X71840Y17409D02*
D03*
X80430Y6137D02*
D03*
X77488Y17259D02*
D03*
X76465Y15374D02*
D03*
X77510Y15479D02*
D03*
X75740Y14829D02*
D03*
X72500Y16569D02*
D03*
X77880Y16519D02*
D03*
D56*
X8390Y6749D02*
D03*
X5225Y9169D02*
D03*
X29650Y6749D02*
D03*
X26485Y9169D02*
D03*
X50910Y6749D02*
D03*
X47744Y9169D02*
D03*
X72170Y6749D02*
D03*
X69004Y9169D02*
D03*
D57*
X13310Y7263D02*
D03*
X13050Y5989D02*
D03*
X12900Y6539D02*
D03*
X11614Y7222D02*
D03*
X13480Y7639D02*
D03*
X13460Y6899D02*
D03*
X13870Y6703D02*
D03*
X34570Y7263D02*
D03*
X34310Y5989D02*
D03*
X34160Y6539D02*
D03*
X32874Y7222D02*
D03*
X34740Y7639D02*
D03*
X34720Y6899D02*
D03*
X35130Y6703D02*
D03*
X55830Y7263D02*
D03*
X55570Y5989D02*
D03*
X55420Y6539D02*
D03*
X54134Y7222D02*
D03*
X56000Y7639D02*
D03*
X55980Y6899D02*
D03*
X56390Y6703D02*
D03*
X77090Y7263D02*
D03*
X76830Y5989D02*
D03*
X76680Y6539D02*
D03*
X75394Y7222D02*
D03*
X77260Y7639D02*
D03*
X77240Y6899D02*
D03*
X77650Y6703D02*
D03*
M02*
