G04 Layer_Color=65535*
%FSLAX24Y24*%
%MOIN*%
G70*
G01*
G75*
%ADD12C,0.0100*%
%ADD29C,0.0080*%
%ADD53C,0.0098*%
%ADD54C,0.0160*%
%ADD55C,0.0079*%
%ADD56C,0.0077*%
%ADD57C,0.0124*%
D12*
X12355Y3897D02*
G03*
X12355Y3897I-313J0D01*
G01*
X13964Y3151D02*
X18235Y10550D01*
X12719Y3870D02*
X12787Y3831D01*
X12685Y3890D02*
X12719Y3870D01*
X16285Y11108D02*
X16957Y11288D01*
X18235Y10550D01*
X12505Y4562D02*
X16285Y11108D01*
X12505Y4562D02*
X12685Y3890D01*
X13964Y3151D01*
X17088Y5147D02*
X17213Y5363D01*
X16543Y5461D02*
X16668Y5678D01*
X16640Y5629D02*
X17185Y5314D01*
X16668Y5678D02*
X17213Y5363D01*
X17072Y6338D02*
X17591Y6038D01*
X2413Y5688D02*
X2538Y5471D01*
X1868Y5373D02*
X1993Y5157D01*
X1896Y5324D02*
X2441Y5639D01*
X1868Y5373D02*
X2413Y5688D01*
X1498Y6053D02*
X2018Y6353D01*
X18118Y6927D02*
X18243Y7143D01*
X17573Y7241D02*
X17698Y7458D01*
X17670Y7409D02*
X18215Y7094D01*
X17698Y7458D02*
X18243Y7143D01*
X18102Y8118D02*
X18621Y7818D01*
X1393Y7488D02*
X1518Y7271D01*
X848Y7173D02*
X973Y6957D01*
X876Y7124D02*
X1421Y7439D01*
X848Y7173D02*
X1393Y7488D01*
X478Y7853D02*
X998Y8153D01*
X5204Y5352D02*
X6070Y5853D01*
X5070Y7585D02*
X6070Y5853D01*
X4203Y7085D02*
X5070Y7585D01*
X4203Y7085D02*
X5204Y5352D01*
X2723Y9635D02*
X3724Y7902D01*
X2723Y9635D02*
X3590Y10135D01*
X4590Y8403D01*
X3724Y7902D02*
X4590Y8403D01*
X33614Y3897D02*
G03*
X33614Y3897I-313J0D01*
G01*
X35224Y3151D02*
X39495Y10550D01*
X33979Y3870D02*
X34047Y3831D01*
X33945Y3890D02*
X33979Y3870D01*
X37544Y11108D02*
X38217Y11288D01*
X39495Y10550D01*
X33765Y4562D02*
X37544Y11108D01*
X33765Y4562D02*
X33945Y3890D01*
X35224Y3151D01*
X38348Y5147D02*
X38473Y5363D01*
X37803Y5461D02*
X37928Y5678D01*
X37900Y5629D02*
X38445Y5314D01*
X37928Y5678D02*
X38473Y5363D01*
X38332Y6338D02*
X38851Y6038D01*
X23673Y5688D02*
X23798Y5471D01*
X23128Y5373D02*
X23253Y5157D01*
X23156Y5324D02*
X23701Y5639D01*
X23128Y5373D02*
X23673Y5688D01*
X22758Y6053D02*
X23278Y6353D01*
X39378Y6927D02*
X39503Y7143D01*
X38833Y7241D02*
X38958Y7458D01*
X38930Y7409D02*
X39475Y7094D01*
X38958Y7458D02*
X39503Y7143D01*
X39362Y8118D02*
X39881Y7818D01*
X22653Y7488D02*
X22778Y7271D01*
X22108Y7173D02*
X22233Y6957D01*
X22136Y7124D02*
X22681Y7439D01*
X22108Y7173D02*
X22653Y7488D01*
X21738Y7853D02*
X22258Y8153D01*
X26463Y5352D02*
X27329Y5853D01*
X26329Y7585D02*
X27329Y5853D01*
X25463Y7085D02*
X26329Y7585D01*
X25463Y7085D02*
X26463Y5352D01*
X23983Y9635D02*
X24983Y7902D01*
X23983Y9635D02*
X24849Y10135D01*
X25849Y8403D01*
X24983Y7902D02*
X25849Y8403D01*
X54874Y3897D02*
G03*
X54874Y3897I-313J0D01*
G01*
X56483Y3151D02*
X60755Y10550D01*
X55239Y3870D02*
X55307Y3831D01*
X55205Y3890D02*
X55239Y3870D01*
X58804Y11108D02*
X59476Y11288D01*
X60755Y10550D01*
X55025Y4562D02*
X58804Y11108D01*
X55025Y4562D02*
X55205Y3890D01*
X56483Y3151D01*
X59607Y5147D02*
X59732Y5363D01*
X59063Y5461D02*
X59188Y5678D01*
X59159Y5629D02*
X59704Y5314D01*
X59188Y5678D02*
X59732Y5363D01*
X59591Y6338D02*
X60111Y6038D01*
X44933Y5688D02*
X45057Y5471D01*
X44388Y5373D02*
X44513Y5157D01*
X44416Y5324D02*
X44961Y5639D01*
X44388Y5373D02*
X44933Y5688D01*
X44018Y6053D02*
X44537Y6353D01*
X60637Y6927D02*
X60762Y7143D01*
X60093Y7241D02*
X60218Y7458D01*
X60189Y7409D02*
X60734Y7094D01*
X60218Y7458D02*
X60762Y7143D01*
X60621Y8118D02*
X61141Y7818D01*
X43913Y7488D02*
X44037Y7271D01*
X43368Y7173D02*
X43493Y6957D01*
X43396Y7124D02*
X43941Y7439D01*
X43368Y7173D02*
X43913Y7488D01*
X42998Y7853D02*
X43517Y8153D01*
X47723Y5352D02*
X48589Y5853D01*
X47589Y7585D02*
X48589Y5853D01*
X46723Y7085D02*
X47589Y7585D01*
X46723Y7085D02*
X47723Y5352D01*
X45243Y9635D02*
X46243Y7902D01*
X45243Y9635D02*
X46109Y10135D01*
X47109Y8403D01*
X46243Y7902D02*
X47109Y8403D01*
X76134Y3897D02*
G03*
X76134Y3897I-313J0D01*
G01*
X77743Y3151D02*
X82015Y10550D01*
X76499Y3870D02*
X76567Y3831D01*
X76465Y3890D02*
X76499Y3870D01*
X80064Y11108D02*
X80736Y11288D01*
X82015Y10550D01*
X76285Y4562D02*
X80064Y11108D01*
X76285Y4562D02*
X76465Y3890D01*
X77743Y3151D01*
X80867Y5147D02*
X80992Y5363D01*
X80322Y5461D02*
X80447Y5678D01*
X80419Y5629D02*
X80964Y5314D01*
X80447Y5678D02*
X80992Y5363D01*
X80851Y6338D02*
X81371Y6038D01*
X66192Y5688D02*
X66317Y5471D01*
X65647Y5373D02*
X65772Y5157D01*
X65676Y5324D02*
X66220Y5639D01*
X65647Y5373D02*
X66192Y5688D01*
X65278Y6053D02*
X65797Y6353D01*
X81897Y6927D02*
X82022Y7143D01*
X81352Y7241D02*
X81477Y7458D01*
X81449Y7409D02*
X81994Y7094D01*
X81477Y7458D02*
X82022Y7143D01*
X81881Y8118D02*
X82401Y7818D01*
X65172Y7488D02*
X65297Y7271D01*
X64627Y7173D02*
X64752Y6957D01*
X64656Y7124D02*
X65200Y7439D01*
X64627Y7173D02*
X65172Y7488D01*
X64258Y7853D02*
X64777Y8153D01*
X68983Y5352D02*
X69849Y5853D01*
X68849Y7585D02*
X69849Y5853D01*
X67983Y7085D02*
X68849Y7585D01*
X67983Y7085D02*
X68983Y5352D01*
X66503Y9635D02*
X67503Y7902D01*
X66503Y9635D02*
X67369Y10135D01*
X68369Y8403D01*
X67503Y7902D02*
X68369Y8403D01*
D29*
X10924Y17944D02*
X11160D01*
X10924Y17624D02*
Y17944D01*
X11795D02*
X12035D01*
Y17624D02*
Y17944D01*
X9690Y14428D02*
Y14664D01*
Y14428D02*
X10009D01*
X9690Y15299D02*
Y15539D01*
X10009D01*
X9504Y17894D02*
X9740D01*
X9504Y17574D02*
Y17894D01*
X10375D02*
X10615D01*
Y17574D02*
Y17894D01*
X13962Y8604D02*
X13895Y8489D01*
X13929Y8547D01*
X14217Y8380D01*
X14242Y8289D01*
X14208Y8231D01*
X14117Y8207D01*
X14086Y8687D02*
X14062Y8778D01*
X14129Y8893D01*
X14220Y8917D01*
X14277Y8884D01*
X14302Y8793D01*
X14269Y8735D01*
X14302Y8793D01*
X14393Y8817D01*
X14451Y8784D01*
X14475Y8693D01*
X14408Y8578D01*
X14317Y8553D01*
X6120Y18309D02*
Y17976D01*
X6187Y17909D01*
X6320D01*
X6387Y17976D01*
Y18309D01*
X6786Y17909D02*
X6520D01*
X6786Y18176D01*
Y18243D01*
X6720Y18309D01*
X6587D01*
X6520Y18243D01*
X8662Y16867D02*
X8595Y16934D01*
X8462D01*
X8395Y16867D01*
Y16600D01*
X8462Y16534D01*
X8595D01*
X8662Y16600D01*
X8795Y16867D02*
X8862Y16934D01*
X8995D01*
X9062Y16867D01*
Y16800D01*
X8995Y16734D01*
X8928D01*
X8995D01*
X9062Y16667D01*
Y16600D01*
X8995Y16534D01*
X8862D01*
X8795Y16600D01*
X7862Y18257D02*
X7795Y18324D01*
X7662D01*
X7595Y18257D01*
Y17990D01*
X7662Y17924D01*
X7795D01*
X7862Y17990D01*
X7995Y17924D02*
X8128D01*
X8062D01*
Y18324D01*
X7995Y18257D01*
X10285Y5034D02*
Y5434D01*
X10485D01*
X10552Y5367D01*
Y5234D01*
X10485Y5167D01*
X10285D01*
X10418D02*
X10552Y5034D01*
X10952Y5434D02*
X10685D01*
Y5234D01*
X10818Y5300D01*
X10885D01*
X10952Y5234D01*
Y5100D01*
X10885Y5034D01*
X10752D01*
X10685Y5100D01*
X10245Y5734D02*
Y6134D01*
X10445D01*
X10512Y6067D01*
Y5934D01*
X10445Y5867D01*
X10245D01*
X10378D02*
X10512Y5734D01*
X10845D02*
Y6134D01*
X10645Y5934D01*
X10912D01*
X11905Y5754D02*
X11505D01*
Y5954D01*
X11572Y6020D01*
X11705D01*
X11772Y5954D01*
Y5754D01*
Y5887D02*
X11905Y6020D01*
X11572Y6154D02*
X11505Y6220D01*
Y6353D01*
X11572Y6420D01*
X11639D01*
X11705Y6353D01*
Y6287D01*
Y6353D01*
X11772Y6420D01*
X11838D01*
X11905Y6353D01*
Y6220D01*
X11838Y6154D01*
X8235Y6474D02*
Y6874D01*
X8435D01*
X8502Y6807D01*
Y6674D01*
X8435Y6607D01*
X8235D01*
X8368D02*
X8502Y6474D01*
X8902D02*
X8635D01*
X8902Y6740D01*
Y6807D01*
X8835Y6874D01*
X8702D01*
X8635Y6807D01*
X8335Y6994D02*
Y7394D01*
X8535D01*
X8602Y7327D01*
Y7194D01*
X8535Y7127D01*
X8335D01*
X8468D02*
X8602Y6994D01*
X8735D02*
X8868D01*
X8802D01*
Y7394D01*
X8735Y7327D01*
X13512Y15337D02*
X13445Y15404D01*
X13312D01*
X13245Y15337D01*
Y15070D01*
X13312Y15004D01*
X13445D01*
X13512Y15070D01*
X13912Y15004D02*
X13645D01*
X13912Y15270D01*
Y15337D01*
X13845Y15404D01*
X13712D01*
X13645Y15337D01*
X13517Y17243D02*
X13450Y17309D01*
X13317D01*
X13250Y17243D01*
Y16976D01*
X13317Y16909D01*
X13450D01*
X13517Y16976D01*
X13916Y17309D02*
X13783Y17243D01*
X13650Y17109D01*
Y16976D01*
X13717Y16909D01*
X13850D01*
X13916Y16976D01*
Y17043D01*
X13850Y17109D01*
X13650D01*
X10602Y18080D02*
Y18347D01*
X10535Y18414D01*
X10402D01*
X10335Y18347D01*
Y18080D01*
X10402Y18014D01*
X10535D01*
X10468Y18147D02*
X10602Y18014D01*
X10535D02*
X10602Y18080D01*
X10735Y18014D02*
X10868D01*
X10802D01*
Y18414D01*
X10735Y18347D01*
X10082Y13920D02*
Y14187D01*
X10015Y14254D01*
X9882D01*
X9815Y14187D01*
Y13920D01*
X9882Y13854D01*
X10015D01*
X9948Y13987D02*
X10082Y13854D01*
X10015D02*
X10082Y13920D01*
X10482Y13854D02*
X10215D01*
X10482Y14120D01*
Y14187D01*
X10415Y14254D01*
X10282D01*
X10215Y14187D01*
X12502Y17610D02*
Y17877D01*
X12435Y17944D01*
X12302D01*
X12235Y17877D01*
Y17610D01*
X12302Y17544D01*
X12435D01*
X12368Y17677D02*
X12502Y17544D01*
X12435D02*
X12502Y17610D01*
X12635Y17877D02*
X12702Y17944D01*
X12835D01*
X12902Y17877D01*
Y17810D01*
X12835Y17744D01*
X12768D01*
X12835D01*
X12902Y17677D01*
Y17610D01*
X12835Y17544D01*
X12702D01*
X12635Y17610D01*
X10905Y18414D02*
Y18814D01*
X11105D01*
X11172Y18747D01*
Y18614D01*
X11105Y18547D01*
X10905D01*
X11038D02*
X11172Y18414D01*
X11305D02*
X11438D01*
X11372D01*
Y18814D01*
X11305Y18747D01*
X11638D02*
X11705Y18814D01*
X11838D01*
X11905Y18747D01*
Y18480D01*
X11838Y18414D01*
X11705D01*
X11638Y18480D01*
Y18747D01*
X11125Y14088D02*
X10725D01*
Y14288D01*
X10792Y14355D01*
X10925D01*
X10992Y14288D01*
Y14088D01*
Y14221D02*
X11125Y14355D01*
X10725Y14754D02*
X10792Y14621D01*
X10925Y14488D01*
X11058D01*
X11125Y14554D01*
Y14688D01*
X11058Y14754D01*
X10992D01*
X10925Y14688D01*
Y14488D01*
X10465Y16504D02*
Y16904D01*
X10665D01*
X10732Y16837D01*
Y16704D01*
X10665Y16637D01*
X10465D01*
X10598D02*
X10732Y16504D01*
X10865Y16904D02*
X11132D01*
Y16837D01*
X10865Y16570D01*
Y16504D01*
X10455Y15984D02*
Y16384D01*
X10655D01*
X10722Y16317D01*
Y16184D01*
X10655Y16117D01*
X10455D01*
X10588D02*
X10722Y15984D01*
X10855Y16317D02*
X10922Y16384D01*
X11055D01*
X11122Y16317D01*
Y16250D01*
X11055Y16184D01*
X11122Y16117D01*
Y16050D01*
X11055Y15984D01*
X10922D01*
X10855Y16050D01*
Y16117D01*
X10922Y16184D01*
X10855Y16250D01*
Y16317D01*
X10922Y16184D02*
X11055D01*
X8375Y18474D02*
Y18874D01*
X8575D01*
X8642Y18807D01*
Y18674D01*
X8575Y18607D01*
X8375D01*
X8508D02*
X8642Y18474D01*
X8775Y18540D02*
X8842Y18474D01*
X8975D01*
X9042Y18540D01*
Y18807D01*
X8975Y18874D01*
X8842D01*
X8775Y18807D01*
Y18740D01*
X8842Y18674D01*
X9042D01*
X9077Y14213D02*
X9010Y14279D01*
X8877D01*
X8810Y14213D01*
Y13946D01*
X8877Y13879D01*
X9010D01*
X9077Y13946D01*
X9210Y14279D02*
X9476D01*
Y14213D01*
X9210Y13946D01*
Y13879D01*
X7337Y13593D02*
X7270Y13659D01*
X7137D01*
X7070Y13593D01*
Y13326D01*
X7137Y13259D01*
X7270D01*
X7337Y13326D01*
X7470Y13593D02*
X7537Y13659D01*
X7670D01*
X7736Y13593D01*
Y13526D01*
X7670Y13459D01*
X7736Y13393D01*
Y13326D01*
X7670Y13259D01*
X7537D01*
X7470Y13326D01*
Y13393D01*
X7537Y13459D01*
X7470Y13526D01*
Y13593D01*
X7537Y13459D02*
X7670D01*
X5350Y14709D02*
Y14376D01*
X5417Y14309D01*
X5550D01*
X5617Y14376D01*
Y14709D01*
X5750Y14643D02*
X5817Y14709D01*
X5950D01*
X6016Y14643D01*
Y14576D01*
X5950Y14509D01*
X5883D01*
X5950D01*
X6016Y14443D01*
Y14376D01*
X5950Y14309D01*
X5817D01*
X5750Y14376D01*
X12025Y16604D02*
Y17004D01*
X12225D01*
X12292Y16937D01*
Y16804D01*
X12225Y16737D01*
X12025D01*
X12158D02*
X12292Y16604D01*
X12425D02*
X12558D01*
X12492D01*
Y17004D01*
X12425Y16937D01*
X12758Y16604D02*
X12891D01*
X12825D01*
Y17004D01*
X12758Y16937D01*
X12115Y14474D02*
Y14874D01*
X12315D01*
X12382Y14807D01*
Y14674D01*
X12315Y14607D01*
X12115D01*
X12248D02*
X12382Y14474D01*
X12515D02*
X12648D01*
X12582D01*
Y14874D01*
X12515Y14807D01*
X13115Y14474D02*
X12848D01*
X13115Y14740D01*
Y14807D01*
X13048Y14874D01*
X12915D01*
X12848Y14807D01*
X11955Y15424D02*
Y15090D01*
X12022Y15024D01*
X12155D01*
X12222Y15090D01*
Y15424D01*
X12355Y15024D02*
X12488D01*
X12422D01*
Y15424D01*
X12355Y15357D01*
X32184Y17944D02*
X32420D01*
X32184Y17624D02*
Y17944D01*
X33055D02*
X33295D01*
Y17624D02*
Y17944D01*
X30950Y14428D02*
Y14664D01*
Y14428D02*
X31269D01*
X30950Y15299D02*
Y15539D01*
X31269D01*
X30764Y17894D02*
X31000D01*
X30764Y17574D02*
Y17894D01*
X31635D02*
X31875D01*
Y17574D02*
Y17894D01*
X35222Y8604D02*
X35155Y8489D01*
X35189Y8547D01*
X35477Y8380D01*
X35502Y8289D01*
X35468Y8231D01*
X35377Y8207D01*
X35346Y8687D02*
X35322Y8778D01*
X35389Y8893D01*
X35480Y8917D01*
X35537Y8884D01*
X35562Y8793D01*
X35528Y8735D01*
X35562Y8793D01*
X35653Y8817D01*
X35710Y8784D01*
X35735Y8693D01*
X35668Y8578D01*
X35577Y8553D01*
X27380Y18309D02*
Y17976D01*
X27446Y17909D01*
X27580D01*
X27646Y17976D01*
Y18309D01*
X28046Y17909D02*
X27780D01*
X28046Y18176D01*
Y18243D01*
X27980Y18309D01*
X27846D01*
X27780Y18243D01*
X29922Y16867D02*
X29855Y16934D01*
X29722D01*
X29655Y16867D01*
Y16600D01*
X29722Y16534D01*
X29855D01*
X29922Y16600D01*
X30055Y16867D02*
X30121Y16934D01*
X30255D01*
X30321Y16867D01*
Y16800D01*
X30255Y16734D01*
X30188D01*
X30255D01*
X30321Y16667D01*
Y16600D01*
X30255Y16534D01*
X30121D01*
X30055Y16600D01*
X29122Y18257D02*
X29055Y18324D01*
X28922D01*
X28855Y18257D01*
Y17990D01*
X28922Y17924D01*
X29055D01*
X29122Y17990D01*
X29255Y17924D02*
X29388D01*
X29321D01*
Y18324D01*
X29255Y18257D01*
X31545Y5034D02*
Y5434D01*
X31745D01*
X31812Y5367D01*
Y5234D01*
X31745Y5167D01*
X31545D01*
X31678D02*
X31812Y5034D01*
X32211Y5434D02*
X31945D01*
Y5234D01*
X32078Y5300D01*
X32145D01*
X32211Y5234D01*
Y5100D01*
X32145Y5034D01*
X32011D01*
X31945Y5100D01*
X31505Y5734D02*
Y6134D01*
X31705D01*
X31772Y6067D01*
Y5934D01*
X31705Y5867D01*
X31505D01*
X31638D02*
X31772Y5734D01*
X32105D02*
Y6134D01*
X31905Y5934D01*
X32171D01*
X33165Y5754D02*
X32765D01*
Y5954D01*
X32832Y6020D01*
X32965D01*
X33032Y5954D01*
Y5754D01*
Y5887D02*
X33165Y6020D01*
X32832Y6154D02*
X32765Y6220D01*
Y6353D01*
X32832Y6420D01*
X32898D01*
X32965Y6353D01*
Y6287D01*
Y6353D01*
X33032Y6420D01*
X33098D01*
X33165Y6353D01*
Y6220D01*
X33098Y6154D01*
X29495Y6474D02*
Y6874D01*
X29695D01*
X29762Y6807D01*
Y6674D01*
X29695Y6607D01*
X29495D01*
X29628D02*
X29762Y6474D01*
X30161D02*
X29895D01*
X30161Y6740D01*
Y6807D01*
X30095Y6874D01*
X29961D01*
X29895Y6807D01*
X29595Y6994D02*
Y7394D01*
X29795D01*
X29862Y7327D01*
Y7194D01*
X29795Y7127D01*
X29595D01*
X29728D02*
X29862Y6994D01*
X29995D02*
X30128D01*
X30061D01*
Y7394D01*
X29995Y7327D01*
X34772Y15337D02*
X34705Y15404D01*
X34572D01*
X34505Y15337D01*
Y15070D01*
X34572Y15004D01*
X34705D01*
X34772Y15070D01*
X35171Y15004D02*
X34905D01*
X35171Y15270D01*
Y15337D01*
X35105Y15404D01*
X34971D01*
X34905Y15337D01*
X34776Y17243D02*
X34710Y17309D01*
X34576D01*
X34510Y17243D01*
Y16976D01*
X34576Y16909D01*
X34710D01*
X34776Y16976D01*
X35176Y17309D02*
X35043Y17243D01*
X34910Y17109D01*
Y16976D01*
X34976Y16909D01*
X35110D01*
X35176Y16976D01*
Y17043D01*
X35110Y17109D01*
X34910D01*
X31862Y18080D02*
Y18347D01*
X31795Y18414D01*
X31662D01*
X31595Y18347D01*
Y18080D01*
X31662Y18014D01*
X31795D01*
X31728Y18147D02*
X31862Y18014D01*
X31795D02*
X31862Y18080D01*
X31995Y18014D02*
X32128D01*
X32061D01*
Y18414D01*
X31995Y18347D01*
X31342Y13920D02*
Y14187D01*
X31275Y14254D01*
X31142D01*
X31075Y14187D01*
Y13920D01*
X31142Y13854D01*
X31275D01*
X31208Y13987D02*
X31342Y13854D01*
X31275D02*
X31342Y13920D01*
X31741Y13854D02*
X31475D01*
X31741Y14120D01*
Y14187D01*
X31675Y14254D01*
X31541D01*
X31475Y14187D01*
X33762Y17610D02*
Y17877D01*
X33695Y17944D01*
X33562D01*
X33495Y17877D01*
Y17610D01*
X33562Y17544D01*
X33695D01*
X33628Y17677D02*
X33762Y17544D01*
X33695D02*
X33762Y17610D01*
X33895Y17877D02*
X33961Y17944D01*
X34095D01*
X34161Y17877D01*
Y17810D01*
X34095Y17744D01*
X34028D01*
X34095D01*
X34161Y17677D01*
Y17610D01*
X34095Y17544D01*
X33961D01*
X33895Y17610D01*
X32165Y18414D02*
Y18814D01*
X32365D01*
X32432Y18747D01*
Y18614D01*
X32365Y18547D01*
X32165D01*
X32298D02*
X32432Y18414D01*
X32565D02*
X32698D01*
X32631D01*
Y18814D01*
X32565Y18747D01*
X32898D02*
X32965Y18814D01*
X33098D01*
X33165Y18747D01*
Y18480D01*
X33098Y18414D01*
X32965D01*
X32898Y18480D01*
Y18747D01*
X32385Y14088D02*
X31985D01*
Y14288D01*
X32052Y14355D01*
X32185D01*
X32252Y14288D01*
Y14088D01*
Y14221D02*
X32385Y14355D01*
X31985Y14754D02*
X32052Y14621D01*
X32185Y14488D01*
X32318D01*
X32385Y14554D01*
Y14688D01*
X32318Y14754D01*
X32252D01*
X32185Y14688D01*
Y14488D01*
X31725Y16504D02*
Y16904D01*
X31925D01*
X31992Y16837D01*
Y16704D01*
X31925Y16637D01*
X31725D01*
X31858D02*
X31992Y16504D01*
X32125Y16904D02*
X32391D01*
Y16837D01*
X32125Y16570D01*
Y16504D01*
X31715Y15984D02*
Y16384D01*
X31915D01*
X31982Y16317D01*
Y16184D01*
X31915Y16117D01*
X31715D01*
X31848D02*
X31982Y15984D01*
X32115Y16317D02*
X32181Y16384D01*
X32315D01*
X32381Y16317D01*
Y16250D01*
X32315Y16184D01*
X32381Y16117D01*
Y16050D01*
X32315Y15984D01*
X32181D01*
X32115Y16050D01*
Y16117D01*
X32181Y16184D01*
X32115Y16250D01*
Y16317D01*
X32181Y16184D02*
X32315D01*
X29635Y18474D02*
Y18874D01*
X29835D01*
X29902Y18807D01*
Y18674D01*
X29835Y18607D01*
X29635D01*
X29768D02*
X29902Y18474D01*
X30035Y18540D02*
X30101Y18474D01*
X30235D01*
X30301Y18540D01*
Y18807D01*
X30235Y18874D01*
X30101D01*
X30035Y18807D01*
Y18740D01*
X30101Y18674D01*
X30301D01*
X30336Y14213D02*
X30270Y14279D01*
X30136D01*
X30070Y14213D01*
Y13946D01*
X30136Y13879D01*
X30270D01*
X30336Y13946D01*
X30470Y14279D02*
X30736D01*
Y14213D01*
X30470Y13946D01*
Y13879D01*
X28596Y13593D02*
X28530Y13659D01*
X28396D01*
X28330Y13593D01*
Y13326D01*
X28396Y13259D01*
X28530D01*
X28596Y13326D01*
X28730Y13593D02*
X28796Y13659D01*
X28930D01*
X28996Y13593D01*
Y13526D01*
X28930Y13459D01*
X28996Y13393D01*
Y13326D01*
X28930Y13259D01*
X28796D01*
X28730Y13326D01*
Y13393D01*
X28796Y13459D01*
X28730Y13526D01*
Y13593D01*
X28796Y13459D02*
X28930D01*
X26610Y14709D02*
Y14376D01*
X26676Y14309D01*
X26810D01*
X26876Y14376D01*
Y14709D01*
X27010Y14643D02*
X27076Y14709D01*
X27210D01*
X27276Y14643D01*
Y14576D01*
X27210Y14509D01*
X27143D01*
X27210D01*
X27276Y14443D01*
Y14376D01*
X27210Y14309D01*
X27076D01*
X27010Y14376D01*
X33285Y16604D02*
Y17004D01*
X33485D01*
X33552Y16937D01*
Y16804D01*
X33485Y16737D01*
X33285D01*
X33418D02*
X33552Y16604D01*
X33685D02*
X33818D01*
X33751D01*
Y17004D01*
X33685Y16937D01*
X34018Y16604D02*
X34151D01*
X34085D01*
Y17004D01*
X34018Y16937D01*
X33375Y14474D02*
Y14874D01*
X33575D01*
X33642Y14807D01*
Y14674D01*
X33575Y14607D01*
X33375D01*
X33508D02*
X33642Y14474D01*
X33775D02*
X33908D01*
X33841D01*
Y14874D01*
X33775Y14807D01*
X34375Y14474D02*
X34108D01*
X34375Y14740D01*
Y14807D01*
X34308Y14874D01*
X34175D01*
X34108Y14807D01*
X33215Y15424D02*
Y15090D01*
X33282Y15024D01*
X33415D01*
X33482Y15090D01*
Y15424D01*
X33615Y15024D02*
X33748D01*
X33681D01*
Y15424D01*
X33615Y15357D01*
X53444Y17944D02*
X53680D01*
X53444Y17624D02*
Y17944D01*
X54315D02*
X54555D01*
Y17624D02*
Y17944D01*
X52210Y14428D02*
Y14664D01*
Y14428D02*
X52529D01*
X52210Y15299D02*
Y15539D01*
X52529D01*
X52024Y17894D02*
X52260D01*
X52024Y17574D02*
Y17894D01*
X52895D02*
X53135D01*
Y17574D02*
Y17894D01*
X56482Y8604D02*
X56415Y8489D01*
X56448Y8547D01*
X56737Y8380D01*
X56761Y8289D01*
X56728Y8231D01*
X56637Y8207D01*
X56606Y8687D02*
X56582Y8778D01*
X56648Y8893D01*
X56739Y8917D01*
X56797Y8884D01*
X56822Y8793D01*
X56788Y8735D01*
X56822Y8793D01*
X56913Y8817D01*
X56970Y8784D01*
X56995Y8693D01*
X56928Y8578D01*
X56837Y8553D01*
X48640Y18309D02*
Y17976D01*
X48706Y17909D01*
X48840D01*
X48906Y17976D01*
Y18309D01*
X49306Y17909D02*
X49040D01*
X49306Y18176D01*
Y18243D01*
X49239Y18309D01*
X49106D01*
X49040Y18243D01*
X51181Y16867D02*
X51115Y16934D01*
X50981D01*
X50915Y16867D01*
Y16600D01*
X50981Y16534D01*
X51115D01*
X51181Y16600D01*
X51315Y16867D02*
X51381Y16934D01*
X51515D01*
X51581Y16867D01*
Y16800D01*
X51515Y16734D01*
X51448D01*
X51515D01*
X51581Y16667D01*
Y16600D01*
X51515Y16534D01*
X51381D01*
X51315Y16600D01*
X50381Y18257D02*
X50315Y18324D01*
X50181D01*
X50115Y18257D01*
Y17990D01*
X50181Y17924D01*
X50315D01*
X50381Y17990D01*
X50515Y17924D02*
X50648D01*
X50581D01*
Y18324D01*
X50515Y18257D01*
X52805Y5034D02*
Y5434D01*
X53005D01*
X53071Y5367D01*
Y5234D01*
X53005Y5167D01*
X52805D01*
X52938D02*
X53071Y5034D01*
X53471Y5434D02*
X53205D01*
Y5234D01*
X53338Y5300D01*
X53405D01*
X53471Y5234D01*
Y5100D01*
X53405Y5034D01*
X53271D01*
X53205Y5100D01*
X52765Y5734D02*
Y6134D01*
X52965D01*
X53031Y6067D01*
Y5934D01*
X52965Y5867D01*
X52765D01*
X52898D02*
X53031Y5734D01*
X53365D02*
Y6134D01*
X53165Y5934D01*
X53431D01*
X54425Y5754D02*
X54025D01*
Y5954D01*
X54092Y6020D01*
X54225D01*
X54292Y5954D01*
Y5754D01*
Y5887D02*
X54425Y6020D01*
X54092Y6154D02*
X54025Y6220D01*
Y6353D01*
X54092Y6420D01*
X54158D01*
X54225Y6353D01*
Y6287D01*
Y6353D01*
X54292Y6420D01*
X54358D01*
X54425Y6353D01*
Y6220D01*
X54358Y6154D01*
X50755Y6474D02*
Y6874D01*
X50955D01*
X51021Y6807D01*
Y6674D01*
X50955Y6607D01*
X50755D01*
X50888D02*
X51021Y6474D01*
X51421D02*
X51155D01*
X51421Y6740D01*
Y6807D01*
X51355Y6874D01*
X51221D01*
X51155Y6807D01*
X50855Y6994D02*
Y7394D01*
X51055D01*
X51121Y7327D01*
Y7194D01*
X51055Y7127D01*
X50855D01*
X50988D02*
X51121Y6994D01*
X51255D02*
X51388D01*
X51321D01*
Y7394D01*
X51255Y7327D01*
X56031Y15337D02*
X55965Y15404D01*
X55831D01*
X55765Y15337D01*
Y15070D01*
X55831Y15004D01*
X55965D01*
X56031Y15070D01*
X56431Y15004D02*
X56165D01*
X56431Y15270D01*
Y15337D01*
X56365Y15404D01*
X56231D01*
X56165Y15337D01*
X56036Y17243D02*
X55970Y17309D01*
X55836D01*
X55770Y17243D01*
Y16976D01*
X55836Y16909D01*
X55970D01*
X56036Y16976D01*
X56436Y17309D02*
X56303Y17243D01*
X56170Y17109D01*
Y16976D01*
X56236Y16909D01*
X56369D01*
X56436Y16976D01*
Y17043D01*
X56369Y17109D01*
X56170D01*
X53121Y18080D02*
Y18347D01*
X53055Y18414D01*
X52921D01*
X52855Y18347D01*
Y18080D01*
X52921Y18014D01*
X53055D01*
X52988Y18147D02*
X53121Y18014D01*
X53055D02*
X53121Y18080D01*
X53255Y18014D02*
X53388D01*
X53321D01*
Y18414D01*
X53255Y18347D01*
X52601Y13920D02*
Y14187D01*
X52535Y14254D01*
X52401D01*
X52335Y14187D01*
Y13920D01*
X52401Y13854D01*
X52535D01*
X52468Y13987D02*
X52601Y13854D01*
X52535D02*
X52601Y13920D01*
X53001Y13854D02*
X52735D01*
X53001Y14120D01*
Y14187D01*
X52935Y14254D01*
X52801D01*
X52735Y14187D01*
X55021Y17610D02*
Y17877D01*
X54955Y17944D01*
X54821D01*
X54755Y17877D01*
Y17610D01*
X54821Y17544D01*
X54955D01*
X54888Y17677D02*
X55021Y17544D01*
X54955D02*
X55021Y17610D01*
X55155Y17877D02*
X55221Y17944D01*
X55355D01*
X55421Y17877D01*
Y17810D01*
X55355Y17744D01*
X55288D01*
X55355D01*
X55421Y17677D01*
Y17610D01*
X55355Y17544D01*
X55221D01*
X55155Y17610D01*
X53425Y18414D02*
Y18814D01*
X53625D01*
X53691Y18747D01*
Y18614D01*
X53625Y18547D01*
X53425D01*
X53558D02*
X53691Y18414D01*
X53825D02*
X53958D01*
X53891D01*
Y18814D01*
X53825Y18747D01*
X54158D02*
X54225Y18814D01*
X54358D01*
X54424Y18747D01*
Y18480D01*
X54358Y18414D01*
X54225D01*
X54158Y18480D01*
Y18747D01*
X53645Y14088D02*
X53245D01*
Y14288D01*
X53312Y14355D01*
X53445D01*
X53512Y14288D01*
Y14088D01*
Y14221D02*
X53645Y14355D01*
X53245Y14754D02*
X53312Y14621D01*
X53445Y14488D01*
X53578D01*
X53645Y14554D01*
Y14688D01*
X53578Y14754D01*
X53512D01*
X53445Y14688D01*
Y14488D01*
X52985Y16504D02*
Y16904D01*
X53185D01*
X53251Y16837D01*
Y16704D01*
X53185Y16637D01*
X52985D01*
X53118D02*
X53251Y16504D01*
X53385Y16904D02*
X53651D01*
Y16837D01*
X53385Y16570D01*
Y16504D01*
X52975Y15984D02*
Y16384D01*
X53175D01*
X53241Y16317D01*
Y16184D01*
X53175Y16117D01*
X52975D01*
X53108D02*
X53241Y15984D01*
X53375Y16317D02*
X53441Y16384D01*
X53575D01*
X53641Y16317D01*
Y16250D01*
X53575Y16184D01*
X53641Y16117D01*
Y16050D01*
X53575Y15984D01*
X53441D01*
X53375Y16050D01*
Y16117D01*
X53441Y16184D01*
X53375Y16250D01*
Y16317D01*
X53441Y16184D02*
X53575D01*
X50895Y18474D02*
Y18874D01*
X51095D01*
X51161Y18807D01*
Y18674D01*
X51095Y18607D01*
X50895D01*
X51028D02*
X51161Y18474D01*
X51295Y18540D02*
X51361Y18474D01*
X51495D01*
X51561Y18540D01*
Y18807D01*
X51495Y18874D01*
X51361D01*
X51295Y18807D01*
Y18740D01*
X51361Y18674D01*
X51561D01*
X51596Y14213D02*
X51530Y14279D01*
X51396D01*
X51330Y14213D01*
Y13946D01*
X51396Y13879D01*
X51530D01*
X51596Y13946D01*
X51730Y14279D02*
X51996D01*
Y14213D01*
X51730Y13946D01*
Y13879D01*
X49856Y13593D02*
X49790Y13659D01*
X49656D01*
X49590Y13593D01*
Y13326D01*
X49656Y13259D01*
X49790D01*
X49856Y13326D01*
X49990Y13593D02*
X50056Y13659D01*
X50189D01*
X50256Y13593D01*
Y13526D01*
X50189Y13459D01*
X50256Y13393D01*
Y13326D01*
X50189Y13259D01*
X50056D01*
X49990Y13326D01*
Y13393D01*
X50056Y13459D01*
X49990Y13526D01*
Y13593D01*
X50056Y13459D02*
X50189D01*
X47870Y14709D02*
Y14376D01*
X47936Y14309D01*
X48070D01*
X48136Y14376D01*
Y14709D01*
X48270Y14643D02*
X48336Y14709D01*
X48469D01*
X48536Y14643D01*
Y14576D01*
X48469Y14509D01*
X48403D01*
X48469D01*
X48536Y14443D01*
Y14376D01*
X48469Y14309D01*
X48336D01*
X48270Y14376D01*
X54545Y16604D02*
Y17004D01*
X54745D01*
X54811Y16937D01*
Y16804D01*
X54745Y16737D01*
X54545D01*
X54678D02*
X54811Y16604D01*
X54945D02*
X55078D01*
X55011D01*
Y17004D01*
X54945Y16937D01*
X55278Y16604D02*
X55411D01*
X55345D01*
Y17004D01*
X55278Y16937D01*
X54635Y14474D02*
Y14874D01*
X54835D01*
X54901Y14807D01*
Y14674D01*
X54835Y14607D01*
X54635D01*
X54768D02*
X54901Y14474D01*
X55035D02*
X55168D01*
X55101D01*
Y14874D01*
X55035Y14807D01*
X55634Y14474D02*
X55368D01*
X55634Y14740D01*
Y14807D01*
X55568Y14874D01*
X55435D01*
X55368Y14807D01*
X54475Y15424D02*
Y15090D01*
X54541Y15024D01*
X54675D01*
X54741Y15090D01*
Y15424D01*
X54875Y15024D02*
X55008D01*
X54941D01*
Y15424D01*
X54875Y15357D01*
X74703Y17944D02*
X74940D01*
X74703Y17624D02*
Y17944D01*
X75575D02*
X75815D01*
Y17624D02*
Y17944D01*
X73470Y14428D02*
Y14664D01*
Y14428D02*
X73789D01*
X73470Y15299D02*
Y15539D01*
X73789D01*
X73283Y17894D02*
X73520D01*
X73283Y17574D02*
Y17894D01*
X74155D02*
X74395D01*
Y17574D02*
Y17894D01*
X77742Y8604D02*
X77675Y8489D01*
X77708Y8547D01*
X77997Y8380D01*
X78021Y8289D01*
X77988Y8231D01*
X77897Y8207D01*
X77866Y8687D02*
X77842Y8778D01*
X77908Y8893D01*
X77999Y8917D01*
X78057Y8884D01*
X78081Y8793D01*
X78048Y8735D01*
X78081Y8793D01*
X78172Y8817D01*
X78230Y8784D01*
X78255Y8693D01*
X78188Y8578D01*
X78097Y8553D01*
X69900Y18309D02*
Y17976D01*
X69966Y17909D01*
X70099D01*
X70166Y17976D01*
Y18309D01*
X70566Y17909D02*
X70299D01*
X70566Y18176D01*
Y18243D01*
X70499Y18309D01*
X70366D01*
X70299Y18243D01*
X72441Y16867D02*
X72375Y16934D01*
X72241D01*
X72175Y16867D01*
Y16600D01*
X72241Y16534D01*
X72375D01*
X72441Y16600D01*
X72575Y16867D02*
X72641Y16934D01*
X72774D01*
X72841Y16867D01*
Y16800D01*
X72774Y16734D01*
X72708D01*
X72774D01*
X72841Y16667D01*
Y16600D01*
X72774Y16534D01*
X72641D01*
X72575Y16600D01*
X71641Y18257D02*
X71575Y18324D01*
X71441D01*
X71375Y18257D01*
Y17990D01*
X71441Y17924D01*
X71575D01*
X71641Y17990D01*
X71775Y17924D02*
X71908D01*
X71841D01*
Y18324D01*
X71775Y18257D01*
X74065Y5034D02*
Y5434D01*
X74265D01*
X74331Y5367D01*
Y5234D01*
X74265Y5167D01*
X74065D01*
X74198D02*
X74331Y5034D01*
X74731Y5434D02*
X74465D01*
Y5234D01*
X74598Y5300D01*
X74664D01*
X74731Y5234D01*
Y5100D01*
X74664Y5034D01*
X74531D01*
X74465Y5100D01*
X74025Y5734D02*
Y6134D01*
X74225D01*
X74291Y6067D01*
Y5934D01*
X74225Y5867D01*
X74025D01*
X74158D02*
X74291Y5734D01*
X74624D02*
Y6134D01*
X74425Y5934D01*
X74691D01*
X75685Y5754D02*
X75285D01*
Y5954D01*
X75351Y6020D01*
X75485D01*
X75551Y5954D01*
Y5754D01*
Y5887D02*
X75685Y6020D01*
X75351Y6154D02*
X75285Y6220D01*
Y6353D01*
X75351Y6420D01*
X75418D01*
X75485Y6353D01*
Y6287D01*
Y6353D01*
X75551Y6420D01*
X75618D01*
X75685Y6353D01*
Y6220D01*
X75618Y6154D01*
X72015Y6474D02*
Y6874D01*
X72215D01*
X72281Y6807D01*
Y6674D01*
X72215Y6607D01*
X72015D01*
X72148D02*
X72281Y6474D01*
X72681D02*
X72415D01*
X72681Y6740D01*
Y6807D01*
X72614Y6874D01*
X72481D01*
X72415Y6807D01*
X72115Y6994D02*
Y7394D01*
X72315D01*
X72381Y7327D01*
Y7194D01*
X72315Y7127D01*
X72115D01*
X72248D02*
X72381Y6994D01*
X72515D02*
X72648D01*
X72581D01*
Y7394D01*
X72515Y7327D01*
X77291Y15337D02*
X77225Y15404D01*
X77091D01*
X77025Y15337D01*
Y15070D01*
X77091Y15004D01*
X77225D01*
X77291Y15070D01*
X77691Y15004D02*
X77425D01*
X77691Y15270D01*
Y15337D01*
X77624Y15404D01*
X77491D01*
X77425Y15337D01*
X77296Y17243D02*
X77229Y17309D01*
X77096D01*
X77030Y17243D01*
Y16976D01*
X77096Y16909D01*
X77229D01*
X77296Y16976D01*
X77696Y17309D02*
X77563Y17243D01*
X77429Y17109D01*
Y16976D01*
X77496Y16909D01*
X77629D01*
X77696Y16976D01*
Y17043D01*
X77629Y17109D01*
X77429D01*
X74381Y18080D02*
Y18347D01*
X74315Y18414D01*
X74181D01*
X74115Y18347D01*
Y18080D01*
X74181Y18014D01*
X74315D01*
X74248Y18147D02*
X74381Y18014D01*
X74315D02*
X74381Y18080D01*
X74515Y18014D02*
X74648D01*
X74581D01*
Y18414D01*
X74515Y18347D01*
X73861Y13920D02*
Y14187D01*
X73795Y14254D01*
X73661D01*
X73595Y14187D01*
Y13920D01*
X73661Y13854D01*
X73795D01*
X73728Y13987D02*
X73861Y13854D01*
X73795D02*
X73861Y13920D01*
X74261Y13854D02*
X73995D01*
X74261Y14120D01*
Y14187D01*
X74194Y14254D01*
X74061D01*
X73995Y14187D01*
X76281Y17610D02*
Y17877D01*
X76215Y17944D01*
X76081D01*
X76015Y17877D01*
Y17610D01*
X76081Y17544D01*
X76215D01*
X76148Y17677D02*
X76281Y17544D01*
X76215D02*
X76281Y17610D01*
X76415Y17877D02*
X76481Y17944D01*
X76614D01*
X76681Y17877D01*
Y17810D01*
X76614Y17744D01*
X76548D01*
X76614D01*
X76681Y17677D01*
Y17610D01*
X76614Y17544D01*
X76481D01*
X76415Y17610D01*
X74685Y18414D02*
Y18814D01*
X74885D01*
X74951Y18747D01*
Y18614D01*
X74885Y18547D01*
X74685D01*
X74818D02*
X74951Y18414D01*
X75085D02*
X75218D01*
X75151D01*
Y18814D01*
X75085Y18747D01*
X75418D02*
X75484Y18814D01*
X75618D01*
X75684Y18747D01*
Y18480D01*
X75618Y18414D01*
X75484D01*
X75418Y18480D01*
Y18747D01*
X74905Y14088D02*
X74505D01*
Y14288D01*
X74571Y14355D01*
X74705D01*
X74771Y14288D01*
Y14088D01*
Y14221D02*
X74905Y14355D01*
X74505Y14754D02*
X74571Y14621D01*
X74705Y14488D01*
X74838D01*
X74905Y14554D01*
Y14688D01*
X74838Y14754D01*
X74771D01*
X74705Y14688D01*
Y14488D01*
X74245Y16504D02*
Y16904D01*
X74445D01*
X74511Y16837D01*
Y16704D01*
X74445Y16637D01*
X74245D01*
X74378D02*
X74511Y16504D01*
X74645Y16904D02*
X74911D01*
Y16837D01*
X74645Y16570D01*
Y16504D01*
X74235Y15984D02*
Y16384D01*
X74435D01*
X74501Y16317D01*
Y16184D01*
X74435Y16117D01*
X74235D01*
X74368D02*
X74501Y15984D01*
X74635Y16317D02*
X74701Y16384D01*
X74834D01*
X74901Y16317D01*
Y16250D01*
X74834Y16184D01*
X74901Y16117D01*
Y16050D01*
X74834Y15984D01*
X74701D01*
X74635Y16050D01*
Y16117D01*
X74701Y16184D01*
X74635Y16250D01*
Y16317D01*
X74701Y16184D02*
X74834D01*
X72155Y18474D02*
Y18874D01*
X72355D01*
X72421Y18807D01*
Y18674D01*
X72355Y18607D01*
X72155D01*
X72288D02*
X72421Y18474D01*
X72555Y18540D02*
X72621Y18474D01*
X72754D01*
X72821Y18540D01*
Y18807D01*
X72754Y18874D01*
X72621D01*
X72555Y18807D01*
Y18740D01*
X72621Y18674D01*
X72821D01*
X72856Y14213D02*
X72789Y14279D01*
X72656D01*
X72590Y14213D01*
Y13946D01*
X72656Y13879D01*
X72789D01*
X72856Y13946D01*
X72989Y14279D02*
X73256D01*
Y14213D01*
X72989Y13946D01*
Y13879D01*
X71116Y13593D02*
X71049Y13659D01*
X70916D01*
X70850Y13593D01*
Y13326D01*
X70916Y13259D01*
X71049D01*
X71116Y13326D01*
X71249Y13593D02*
X71316Y13659D01*
X71449D01*
X71516Y13593D01*
Y13526D01*
X71449Y13459D01*
X71516Y13393D01*
Y13326D01*
X71449Y13259D01*
X71316D01*
X71249Y13326D01*
Y13393D01*
X71316Y13459D01*
X71249Y13526D01*
Y13593D01*
X71316Y13459D02*
X71449D01*
X69130Y14709D02*
Y14376D01*
X69196Y14309D01*
X69329D01*
X69396Y14376D01*
Y14709D01*
X69529Y14643D02*
X69596Y14709D01*
X69729D01*
X69796Y14643D01*
Y14576D01*
X69729Y14509D01*
X69663D01*
X69729D01*
X69796Y14443D01*
Y14376D01*
X69729Y14309D01*
X69596D01*
X69529Y14376D01*
X75805Y16604D02*
Y17004D01*
X76005D01*
X76071Y16937D01*
Y16804D01*
X76005Y16737D01*
X75805D01*
X75938D02*
X76071Y16604D01*
X76205D02*
X76338D01*
X76271D01*
Y17004D01*
X76205Y16937D01*
X76538Y16604D02*
X76671D01*
X76604D01*
Y17004D01*
X76538Y16937D01*
X75895Y14474D02*
Y14874D01*
X76095D01*
X76161Y14807D01*
Y14674D01*
X76095Y14607D01*
X75895D01*
X76028D02*
X76161Y14474D01*
X76295D02*
X76428D01*
X76361D01*
Y14874D01*
X76295Y14807D01*
X76894Y14474D02*
X76628D01*
X76894Y14740D01*
Y14807D01*
X76828Y14874D01*
X76694D01*
X76628Y14807D01*
X75735Y15424D02*
Y15090D01*
X75801Y15024D01*
X75935D01*
X76001Y15090D01*
Y15424D01*
X76135Y15024D02*
X76268D01*
X76201D01*
Y15424D01*
X76135Y15357D01*
D53*
X7701Y13870D02*
G03*
X7701Y13870I-49J0D01*
G01*
X7694Y15880D02*
G03*
X7694Y15880I-49J0D01*
G01*
X28961Y13870D02*
G03*
X28961Y13870I-49J0D01*
G01*
X28954Y15880D02*
G03*
X28954Y15880I-49J0D01*
G01*
X50221Y13870D02*
G03*
X50221Y13870I-49J0D01*
G01*
X50214Y15880D02*
G03*
X50214Y15880I-49J0D01*
G01*
X71480Y13870D02*
G03*
X71480Y13870I-49J0D01*
G01*
X71474Y15880D02*
G03*
X71474Y15880I-49J0D01*
G01*
D54*
X11906Y16501D02*
G03*
X11906Y16501I-77J0D01*
G01*
X33166D02*
G03*
X33166Y16501I-77J0D01*
G01*
X54426D02*
G03*
X54426Y16501I-77J0D01*
G01*
X75685D02*
G03*
X75685Y16501I-77J0D01*
G01*
D55*
X6372Y13870D02*
X7396D01*
X6372D02*
Y14303D01*
Y15681D02*
X7396D01*
X6372Y15248D02*
Y15681D01*
X11488Y5024D02*
Y5103D01*
X11902Y5024D02*
Y5103D01*
X6365Y17258D02*
Y17691D01*
X7389D01*
X6365Y15880D02*
Y16313D01*
Y15880D02*
X7389D01*
X8236Y5395D02*
X8314D01*
X8236Y4982D02*
X8314D01*
X9491Y5395D02*
X9570D01*
X9491Y4982D02*
X9570D01*
X9491Y6145D02*
X9570D01*
X9491Y5732D02*
X9570D01*
X8236Y6145D02*
X8314D01*
X8236Y5732D02*
X8314D01*
X27632Y13870D02*
X28656D01*
X27632D02*
Y14303D01*
Y15681D02*
X28656D01*
X27632Y15248D02*
Y15681D01*
X32748Y5024D02*
Y5103D01*
X33162Y5024D02*
Y5103D01*
X27625Y17258D02*
Y17691D01*
X28649D01*
X27625Y15880D02*
Y16313D01*
Y15880D02*
X28649D01*
X29496Y5395D02*
X29574D01*
X29496Y4982D02*
X29574D01*
X30751Y5395D02*
X30830D01*
X30751Y4982D02*
X30830D01*
X30751Y6145D02*
X30830D01*
X30751Y5732D02*
X30830D01*
X29496Y6145D02*
X29574D01*
X29496Y5732D02*
X29574D01*
X48892Y13870D02*
X49915D01*
X48892D02*
Y14303D01*
Y15681D02*
X49915D01*
X48892Y15248D02*
Y15681D01*
X54008Y5024D02*
Y5103D01*
X54422Y5024D02*
Y5103D01*
X48885Y17258D02*
Y17691D01*
X49909D01*
X48885Y15880D02*
Y16313D01*
Y15880D02*
X49909D01*
X50755Y5395D02*
X50834D01*
X50755Y4982D02*
X50834D01*
X52011Y5395D02*
X52090D01*
X52011Y4982D02*
X52090D01*
X52011Y6145D02*
X52090D01*
X52011Y5732D02*
X52090D01*
X50755Y6145D02*
X50834D01*
X50755Y5732D02*
X50834D01*
X70152Y13870D02*
X71175D01*
X70152D02*
Y14303D01*
Y15681D02*
X71175D01*
X70152Y15248D02*
Y15681D01*
X75268Y5024D02*
Y5103D01*
X75681Y5024D02*
Y5103D01*
X70145Y17258D02*
Y17691D01*
X71168D01*
X70145Y15880D02*
Y16313D01*
Y15880D02*
X71168D01*
X72015Y5395D02*
X72094D01*
X72015Y4982D02*
X72094D01*
X73271Y5395D02*
X73349D01*
X73271Y4982D02*
X73349D01*
X73271Y6145D02*
X73349D01*
X73271Y5732D02*
X73349D01*
X72015Y6145D02*
X72094D01*
X72015Y5732D02*
X72094D01*
D56*
X4827Y5357D02*
X4523Y5181D01*
X4587Y5422D02*
X4763Y5117D01*
X3367Y7957D02*
X3063Y7781D01*
X3127Y8022D02*
X3303Y7717D01*
X10712Y19712D02*
X10751Y19673D01*
X10809Y19654D01*
X10887D01*
X10946Y19673D01*
X10985Y19712D01*
Y19751D01*
X10966Y19790D01*
X10946Y19810D01*
X10907Y19829D01*
X10790Y19868D01*
X10751Y19888D01*
X10731Y19907D01*
X10712Y19947D01*
Y20005D01*
X10751Y20044D01*
X10809Y20064D01*
X10887D01*
X10946Y20044D01*
X10985Y20005D01*
X10620Y19907D02*
X10386D01*
Y19868D01*
X10405Y19829D01*
X10425Y19810D01*
X10464Y19790D01*
X10522D01*
X10561Y19810D01*
X10600Y19849D01*
X10620Y19907D01*
Y19947D01*
X10600Y20005D01*
X10561Y20044D01*
X10522Y20064D01*
X10464D01*
X10425Y20044D01*
X10386Y20005D01*
X10298Y19907D02*
X10064D01*
Y19868D01*
X10083Y19829D01*
X10103Y19810D01*
X10142Y19790D01*
X10200D01*
X10239Y19810D01*
X10278Y19849D01*
X10298Y19907D01*
Y19947D01*
X10278Y20005D01*
X10239Y20044D01*
X10200Y20064D01*
X10142D01*
X10103Y20044D01*
X10064Y20005D01*
X9976Y19654D02*
Y20064D01*
Y19654D02*
X9819Y20064D01*
X9663Y19654D02*
X9819Y20064D01*
X9663Y19654D02*
Y20064D01*
X9546Y19907D02*
X9312D01*
Y19868D01*
X9331Y19829D01*
X9351Y19810D01*
X9390Y19790D01*
X9449D01*
X9488Y19810D01*
X9527Y19849D01*
X9546Y19907D01*
Y19947D01*
X9527Y20005D01*
X9488Y20044D01*
X9449Y20064D01*
X9390D01*
X9351Y20044D01*
X9312Y20005D01*
X8931Y19751D02*
X8951Y19712D01*
X8990Y19673D01*
X9029Y19654D01*
X9107D01*
X9146Y19673D01*
X9185Y19712D01*
X9204Y19751D01*
X9224Y19810D01*
Y19907D01*
X9204Y19966D01*
X9185Y20005D01*
X9146Y20044D01*
X9107Y20064D01*
X9029D01*
X8990Y20044D01*
X8951Y20005D01*
X8931Y19966D01*
X8816Y19654D02*
Y20064D01*
Y19654D02*
X8543Y20064D01*
Y19654D02*
Y20064D01*
X8136Y19751D02*
X8156Y19712D01*
X8195Y19673D01*
X8234Y19654D01*
X8312D01*
X8351Y19673D01*
X8390Y19712D01*
X8410Y19751D01*
X8429Y19810D01*
Y19907D01*
X8410Y19966D01*
X8390Y20005D01*
X8351Y20044D01*
X8312Y20064D01*
X8234D01*
X8195Y20044D01*
X8156Y20005D01*
X8136Y19966D01*
X6325Y8314D02*
X5970Y8109D01*
X6325Y8314D02*
X6413Y8162D01*
X6425Y8102D01*
X6418Y8075D01*
X6394Y8039D01*
X6360Y8019D01*
X6317Y8016D01*
X6290Y8024D01*
X6244Y8065D01*
X6156Y8217D01*
X6224Y8098D02*
X6107Y7873D01*
X6635Y7778D02*
X6508Y7998D01*
X6153Y7793D01*
X6279Y7573D01*
X6339Y7901D02*
X6417Y7765D01*
X6669Y7719D02*
X6392Y7379D01*
X6825Y7449D02*
X6392Y7379D01*
X6378Y7130D02*
X6534Y6859D01*
X7151Y6884D02*
X7053Y7053D01*
X6891Y6982D01*
X6918Y6975D01*
X6964Y6934D01*
X6994Y6883D01*
X7006Y6823D01*
X6992Y6769D01*
X6951Y6723D01*
X6917Y6704D01*
X6856Y6691D01*
X6803Y6706D01*
X6757Y6746D01*
X6728Y6797D01*
X6715Y6858D01*
X6722Y6884D01*
X6746Y6921D01*
X7334Y6568D02*
X6978Y6363D01*
X7164Y6470D02*
X7179Y6523D01*
X7176Y6567D01*
X7147Y6618D01*
X7110Y6642D01*
X7057Y6656D01*
X6997Y6644D01*
X6963Y6624D01*
X6922Y6578D01*
X6908Y6525D01*
X6910Y6481D01*
X6939Y6430D01*
X6976Y6406D01*
X7029Y6392D01*
X5945Y10474D02*
X5590Y10269D01*
X6056Y10282D02*
X5701Y10077D01*
X5988Y10400D02*
X6125Y10163D01*
X6276Y9901D02*
X6149Y10121D01*
X5794Y9916D01*
X5921Y9696D01*
X5980Y10023D02*
X6058Y9888D01*
X6310Y9842D02*
X5955Y9637D01*
X6310Y9842D02*
X6033Y9502D01*
X6466Y9571D02*
X6033Y9502D01*
X6466Y9571D02*
X6111Y9366D01*
X6764Y9056D02*
X6222Y8901D01*
X6823Y8954D02*
X6281Y8799D01*
X6510Y9067D02*
X6647Y8830D01*
X6399Y9025D02*
X6535Y8788D01*
X7177Y8340D02*
X6724Y8305D01*
X7040Y8577D02*
X7177Y8340D01*
X7155Y8222D02*
X7192Y8198D01*
X7272Y8176D01*
X6917Y7971D01*
X7299Y7935D02*
X7315Y7945D01*
X7359Y7947D01*
X7386Y7940D01*
X7422Y7916D01*
X7461Y7848D01*
X7464Y7805D01*
X7457Y7778D01*
X7433Y7742D01*
X7399Y7722D01*
X7355Y7720D01*
X7285Y7724D01*
X7018Y7796D01*
X7155Y7559D01*
X7488Y7645D02*
X7525Y7621D01*
X7605Y7600D01*
X7250Y7395D01*
X7765Y7323D02*
X7719Y7363D01*
X7648Y7368D01*
X7554Y7336D01*
X7503Y7307D01*
X7429Y7241D01*
X7397Y7178D01*
X7410Y7117D01*
X7429Y7084D01*
X7475Y7043D01*
X7546Y7038D01*
X7640Y7070D01*
X7691Y7099D01*
X7766Y7165D01*
X7797Y7228D01*
X7784Y7289D01*
X7765Y7323D01*
X4655Y11124D02*
X4300Y10919D01*
X4792Y10888D02*
X4437Y10683D01*
X4486Y11027D02*
X4623Y10790D01*
X4975Y10570D02*
X4848Y10790D01*
X4493Y10585D01*
X4620Y10365D01*
X4679Y10692D02*
X4757Y10557D01*
X4935Y10445D02*
X4952Y10455D01*
X4995Y10457D01*
X5022Y10450D01*
X5058Y10426D01*
X5097Y10358D01*
X5100Y10315D01*
X5093Y10288D01*
X5069Y10252D01*
X5035Y10232D01*
X4991Y10230D01*
X4921Y10234D01*
X4654Y10306D01*
X4791Y10069D01*
X5241Y10110D02*
X5195Y10151D01*
X5151Y10148D01*
X5117Y10129D01*
X5093Y10092D01*
X5096Y10049D01*
X5118Y9971D01*
X5130Y9911D01*
X5116Y9857D01*
X5092Y9821D01*
X5041Y9792D01*
X4998Y9789D01*
X4971Y9796D01*
X4925Y9837D01*
X4886Y9905D01*
X4873Y9965D01*
X4881Y9992D01*
X4905Y10028D01*
X4955Y10058D01*
X4999Y10060D01*
X5052Y10046D01*
X5098Y10005D01*
X5154Y9947D01*
X5191Y9923D01*
X5234Y9926D01*
X5268Y9945D01*
X5292Y9982D01*
X5280Y10042D01*
X5241Y10110D01*
X5433Y9777D02*
X5387Y9818D01*
X5317Y9822D01*
X5222Y9790D01*
X5172Y9761D01*
X5097Y9695D01*
X5066Y9632D01*
X5078Y9572D01*
X5098Y9538D01*
X5144Y9497D01*
X5214Y9492D01*
X5308Y9524D01*
X5359Y9554D01*
X5434Y9619D01*
X5465Y9682D01*
X5453Y9743D01*
X5433Y9777D01*
X5371Y9455D02*
X5459Y9302D01*
X5505Y9261D01*
X5532Y9254D01*
X5575Y9257D01*
X5626Y9286D01*
X5650Y9323D01*
X5657Y9349D01*
X5645Y9410D01*
X5557Y9562D01*
X5202Y9357D01*
X5802Y8943D02*
X5826Y8980D01*
X5840Y9033D01*
X5837Y9077D01*
X5798Y9144D01*
X5762Y9168D01*
X5709Y9183D01*
X5665Y9180D01*
X5604Y9168D01*
X5520Y9119D01*
X5479Y9073D01*
X5455Y9036D01*
X5441Y8983D01*
X5443Y8939D01*
X5482Y8872D01*
X5519Y8848D01*
X5572Y8833D01*
X5616Y8836D01*
X5944Y8892D02*
X5589Y8687D01*
X5944Y8892D02*
X6032Y8740D01*
X6044Y8680D01*
X6037Y8653D01*
X6013Y8617D01*
X5979Y8597D01*
X5935Y8594D01*
X5909Y8602D01*
X5863Y8643D01*
X5775Y8795D02*
X5863Y8643D01*
X5875Y8582D01*
X5868Y8555D01*
X5844Y8519D01*
X5793Y8490D01*
X5749Y8487D01*
X5723Y8494D01*
X5677Y8535D01*
X5589Y8687D01*
X8071Y4375D02*
Y4024D01*
X7895Y4199D02*
X8247D01*
X3734Y6951D02*
X3822Y6799D01*
X3868Y6758D01*
X3895Y6751D01*
X3939Y6754D01*
X3989Y6783D01*
X4013Y6819D01*
X4020Y6846D01*
X4008Y6906D01*
X3920Y7059D01*
X3565Y6854D01*
X3904Y6267D02*
X4181Y6607D01*
X3748Y6537D01*
X3895Y6555D02*
X3993Y6386D01*
X4307Y6389D02*
X3952Y6184D01*
X4307Y6389D02*
X4395Y6237D01*
X4407Y6176D01*
X4400Y6150D01*
X4376Y6113D01*
X4342Y6094D01*
X4298Y6091D01*
X4272Y6098D01*
X4226Y6139D01*
X4138Y6291D01*
X4206Y6173D02*
X4088Y5947D01*
X4558Y5955D02*
X4203Y5749D01*
X4489Y6073D02*
X4626Y5836D01*
X2660Y9189D02*
X2305Y8984D01*
X2797Y8952D02*
X2442Y8747D01*
X2491Y9091D02*
X2628Y8854D01*
X2980Y8634D02*
X2854Y8854D01*
X2498Y8649D01*
X2625Y8429D01*
X2684Y8756D02*
X2763Y8621D01*
X2395Y10764D02*
Y10354D01*
Y10764D02*
X2649D01*
X2395Y10568D02*
X2551D01*
X3008Y10354D02*
X2852Y10764D01*
X2696Y10354D01*
X2754Y10490D02*
X2950D01*
X3104Y10764D02*
Y10354D01*
Y10764D02*
X3377Y10354D01*
Y10764D02*
Y10354D01*
X3764Y10705D02*
X3725Y10744D01*
X3666Y10764D01*
X3588D01*
X3530Y10744D01*
X3490Y10705D01*
Y10666D01*
X3510Y10627D01*
X3530Y10607D01*
X3569Y10588D01*
X3686Y10549D01*
X3725Y10529D01*
X3744Y10510D01*
X3764Y10471D01*
Y10412D01*
X3725Y10373D01*
X3666Y10354D01*
X3588D01*
X3530Y10373D01*
X3490Y10412D01*
X26087Y5357D02*
X25783Y5181D01*
X25847Y5422D02*
X26023Y5117D01*
X24627Y7957D02*
X24323Y7781D01*
X24387Y8022D02*
X24563Y7717D01*
X31972Y19712D02*
X32011Y19673D01*
X32069Y19654D01*
X32147D01*
X32206Y19673D01*
X32245Y19712D01*
Y19751D01*
X32225Y19790D01*
X32206Y19810D01*
X32167Y19829D01*
X32050Y19868D01*
X32011Y19888D01*
X31991Y19907D01*
X31972Y19947D01*
Y20005D01*
X32011Y20044D01*
X32069Y20064D01*
X32147D01*
X32206Y20044D01*
X32245Y20005D01*
X31880Y19907D02*
X31646D01*
Y19868D01*
X31665Y19829D01*
X31685Y19810D01*
X31724Y19790D01*
X31782D01*
X31821Y19810D01*
X31860Y19849D01*
X31880Y19907D01*
Y19947D01*
X31860Y20005D01*
X31821Y20044D01*
X31782Y20064D01*
X31724D01*
X31685Y20044D01*
X31646Y20005D01*
X31558Y19907D02*
X31323D01*
Y19868D01*
X31343Y19829D01*
X31362Y19810D01*
X31401Y19790D01*
X31460D01*
X31499Y19810D01*
X31538Y19849D01*
X31558Y19907D01*
Y19947D01*
X31538Y20005D01*
X31499Y20044D01*
X31460Y20064D01*
X31401D01*
X31362Y20044D01*
X31323Y20005D01*
X31236Y19654D02*
Y20064D01*
Y19654D02*
X31079Y20064D01*
X30923Y19654D02*
X31079Y20064D01*
X30923Y19654D02*
Y20064D01*
X30806Y19907D02*
X30572D01*
Y19868D01*
X30591Y19829D01*
X30611Y19810D01*
X30650Y19790D01*
X30708D01*
X30747Y19810D01*
X30786Y19849D01*
X30806Y19907D01*
Y19947D01*
X30786Y20005D01*
X30747Y20044D01*
X30708Y20064D01*
X30650D01*
X30611Y20044D01*
X30572Y20005D01*
X30191Y19751D02*
X30210Y19712D01*
X30250Y19673D01*
X30289Y19654D01*
X30367D01*
X30406Y19673D01*
X30445Y19712D01*
X30464Y19751D01*
X30484Y19810D01*
Y19907D01*
X30464Y19966D01*
X30445Y20005D01*
X30406Y20044D01*
X30367Y20064D01*
X30289D01*
X30250Y20044D01*
X30210Y20005D01*
X30191Y19966D01*
X30076Y19654D02*
Y20064D01*
Y19654D02*
X29802Y20064D01*
Y19654D02*
Y20064D01*
X29396Y19751D02*
X29416Y19712D01*
X29455Y19673D01*
X29494Y19654D01*
X29572D01*
X29611Y19673D01*
X29650Y19712D01*
X29670Y19751D01*
X29689Y19810D01*
Y19907D01*
X29670Y19966D01*
X29650Y20005D01*
X29611Y20044D01*
X29572Y20064D01*
X29494D01*
X29455Y20044D01*
X29416Y20005D01*
X29396Y19966D01*
X27585Y8314D02*
X27230Y8109D01*
X27585Y8314D02*
X27673Y8162D01*
X27685Y8102D01*
X27678Y8075D01*
X27654Y8039D01*
X27620Y8019D01*
X27577Y8016D01*
X27550Y8024D01*
X27504Y8065D01*
X27416Y8217D01*
X27484Y8098D02*
X27367Y7873D01*
X27894Y7778D02*
X27767Y7998D01*
X27412Y7793D01*
X27539Y7573D01*
X27598Y7901D02*
X27676Y7765D01*
X27929Y7719D02*
X27652Y7379D01*
X28085Y7449D02*
X27652Y7379D01*
X27638Y7130D02*
X27794Y6859D01*
X28411Y6884D02*
X28313Y7053D01*
X28151Y6982D01*
X28178Y6975D01*
X28224Y6934D01*
X28253Y6883D01*
X28266Y6823D01*
X28252Y6769D01*
X28211Y6723D01*
X28177Y6704D01*
X28116Y6691D01*
X28063Y6706D01*
X28017Y6746D01*
X27987Y6797D01*
X27975Y6858D01*
X27982Y6884D01*
X28006Y6921D01*
X28593Y6568D02*
X28238Y6363D01*
X28424Y6470D02*
X28439Y6523D01*
X28436Y6567D01*
X28407Y6618D01*
X28370Y6642D01*
X28317Y6656D01*
X28256Y6644D01*
X28223Y6624D01*
X28182Y6578D01*
X28167Y6525D01*
X28170Y6481D01*
X28199Y6430D01*
X28236Y6406D01*
X28289Y6392D01*
X27205Y10474D02*
X26850Y10269D01*
X27316Y10282D02*
X26961Y10077D01*
X27248Y10400D02*
X27385Y10163D01*
X27536Y9901D02*
X27409Y10121D01*
X27054Y9916D01*
X27181Y9696D01*
X27240Y10023D02*
X27318Y9888D01*
X27570Y9842D02*
X27215Y9637D01*
X27570Y9842D02*
X27293Y9502D01*
X27726Y9571D02*
X27293Y9502D01*
X27726Y9571D02*
X27371Y9366D01*
X28024Y9056D02*
X27482Y8901D01*
X28083Y8954D02*
X27541Y8799D01*
X27770Y9067D02*
X27906Y8830D01*
X27658Y9025D02*
X27795Y8788D01*
X28437Y8340D02*
X27984Y8305D01*
X28300Y8577D02*
X28437Y8340D01*
X28415Y8222D02*
X28452Y8198D01*
X28532Y8176D01*
X28177Y7971D01*
X28558Y7935D02*
X28575Y7945D01*
X28619Y7947D01*
X28646Y7940D01*
X28682Y7916D01*
X28721Y7848D01*
X28724Y7805D01*
X28717Y7778D01*
X28692Y7742D01*
X28659Y7722D01*
X28615Y7720D01*
X28545Y7724D01*
X28278Y7796D01*
X28415Y7559D01*
X28748Y7645D02*
X28785Y7621D01*
X28865Y7600D01*
X28509Y7395D01*
X29025Y7323D02*
X28978Y7363D01*
X28908Y7368D01*
X28814Y7336D01*
X28763Y7307D01*
X28688Y7241D01*
X28657Y7178D01*
X28670Y7117D01*
X28689Y7084D01*
X28735Y7043D01*
X28806Y7038D01*
X28900Y7070D01*
X28951Y7099D01*
X29025Y7165D01*
X29057Y7228D01*
X29044Y7289D01*
X29025Y7323D01*
X25915Y11124D02*
X25560Y10919D01*
X26052Y10888D02*
X25697Y10683D01*
X25746Y11027D02*
X25883Y10790D01*
X26235Y10570D02*
X26108Y10790D01*
X25753Y10585D01*
X25880Y10365D01*
X25939Y10692D02*
X26017Y10557D01*
X26195Y10445D02*
X26211Y10455D01*
X26255Y10457D01*
X26282Y10450D01*
X26318Y10426D01*
X26357Y10358D01*
X26360Y10315D01*
X26353Y10288D01*
X26329Y10252D01*
X26295Y10232D01*
X26251Y10230D01*
X26181Y10234D01*
X25914Y10306D01*
X26051Y10069D01*
X26501Y10110D02*
X26454Y10151D01*
X26411Y10148D01*
X26377Y10129D01*
X26353Y10092D01*
X26356Y10049D01*
X26378Y9971D01*
X26390Y9911D01*
X26376Y9857D01*
X26352Y9821D01*
X26301Y9792D01*
X26258Y9789D01*
X26231Y9796D01*
X26185Y9837D01*
X26146Y9905D01*
X26133Y9965D01*
X26140Y9992D01*
X26164Y10028D01*
X26215Y10058D01*
X26259Y10060D01*
X26312Y10046D01*
X26358Y10005D01*
X26414Y9947D01*
X26451Y9923D01*
X26494Y9926D01*
X26528Y9945D01*
X26552Y9982D01*
X26540Y10042D01*
X26501Y10110D01*
X26693Y9777D02*
X26647Y9818D01*
X26577Y9822D01*
X26482Y9790D01*
X26432Y9761D01*
X26357Y9695D01*
X26326Y9632D01*
X26338Y9572D01*
X26357Y9538D01*
X26404Y9497D01*
X26474Y9492D01*
X26568Y9524D01*
X26619Y9554D01*
X26694Y9619D01*
X26725Y9682D01*
X26713Y9743D01*
X26693Y9777D01*
X26631Y9455D02*
X26719Y9302D01*
X26765Y9261D01*
X26792Y9254D01*
X26835Y9257D01*
X26886Y9286D01*
X26910Y9323D01*
X26917Y9349D01*
X26905Y9410D01*
X26817Y9562D01*
X26462Y9357D01*
X27061Y8943D02*
X27085Y8980D01*
X27100Y9033D01*
X27097Y9077D01*
X27058Y9144D01*
X27022Y9168D01*
X26968Y9183D01*
X26925Y9180D01*
X26864Y9168D01*
X26780Y9119D01*
X26739Y9073D01*
X26715Y9036D01*
X26700Y8983D01*
X26703Y8939D01*
X26742Y8872D01*
X26779Y8848D01*
X26832Y8833D01*
X26875Y8836D01*
X27204Y8892D02*
X26848Y8687D01*
X27204Y8892D02*
X27291Y8740D01*
X27304Y8680D01*
X27297Y8653D01*
X27273Y8617D01*
X27239Y8597D01*
X27195Y8594D01*
X27169Y8602D01*
X27122Y8643D01*
X27034Y8795D02*
X27122Y8643D01*
X27135Y8582D01*
X27128Y8555D01*
X27104Y8519D01*
X27053Y8490D01*
X27009Y8487D01*
X26983Y8494D01*
X26936Y8535D01*
X26848Y8687D01*
X29331Y4375D02*
Y4024D01*
X29155Y4199D02*
X29506D01*
X24994Y6951D02*
X25082Y6799D01*
X25128Y6758D01*
X25155Y6751D01*
X25198Y6754D01*
X25249Y6783D01*
X25273Y6819D01*
X25280Y6846D01*
X25268Y6906D01*
X25180Y7059D01*
X24825Y6854D01*
X25164Y6267D02*
X25441Y6607D01*
X25008Y6537D01*
X25155Y6555D02*
X25253Y6386D01*
X25567Y6389D02*
X25212Y6184D01*
X25567Y6389D02*
X25655Y6237D01*
X25667Y6176D01*
X25660Y6150D01*
X25636Y6113D01*
X25602Y6094D01*
X25558Y6091D01*
X25532Y6098D01*
X25485Y6139D01*
X25398Y6291D01*
X25466Y6173D02*
X25348Y5947D01*
X25818Y5955D02*
X25462Y5749D01*
X25749Y6073D02*
X25886Y5836D01*
X23920Y9189D02*
X23565Y8984D01*
X24057Y8952D02*
X23702Y8747D01*
X23751Y9091D02*
X23888Y8854D01*
X24240Y8634D02*
X24113Y8854D01*
X23758Y8649D01*
X23885Y8429D01*
X23944Y8756D02*
X24022Y8621D01*
X23655Y10764D02*
Y10354D01*
Y10764D02*
X23909D01*
X23655Y10568D02*
X23811D01*
X24268Y10354D02*
X24112Y10764D01*
X23956Y10354D01*
X24014Y10490D02*
X24209D01*
X24364Y10764D02*
Y10354D01*
Y10764D02*
X24637Y10354D01*
Y10764D02*
Y10354D01*
X25024Y10705D02*
X24985Y10744D01*
X24926Y10764D01*
X24848D01*
X24789Y10744D01*
X24750Y10705D01*
Y10666D01*
X24770Y10627D01*
X24789Y10607D01*
X24828Y10588D01*
X24946Y10549D01*
X24985Y10529D01*
X25004Y10510D01*
X25024Y10471D01*
Y10412D01*
X24985Y10373D01*
X24926Y10354D01*
X24848D01*
X24789Y10373D01*
X24750Y10412D01*
X47347Y5357D02*
X47043Y5181D01*
X47107Y5422D02*
X47283Y5117D01*
X45887Y7957D02*
X45583Y7781D01*
X45647Y8022D02*
X45823Y7717D01*
X53231Y19712D02*
X53271Y19673D01*
X53329Y19654D01*
X53407D01*
X53466Y19673D01*
X53505Y19712D01*
Y19751D01*
X53485Y19790D01*
X53466Y19810D01*
X53427Y19829D01*
X53310Y19868D01*
X53271Y19888D01*
X53251Y19907D01*
X53231Y19947D01*
Y20005D01*
X53271Y20044D01*
X53329Y20064D01*
X53407D01*
X53466Y20044D01*
X53505Y20005D01*
X53140Y19907D02*
X52905D01*
Y19868D01*
X52925Y19829D01*
X52944Y19810D01*
X52983Y19790D01*
X53042D01*
X53081Y19810D01*
X53120Y19849D01*
X53140Y19907D01*
Y19947D01*
X53120Y20005D01*
X53081Y20044D01*
X53042Y20064D01*
X52983D01*
X52944Y20044D01*
X52905Y20005D01*
X52818Y19907D02*
X52583D01*
Y19868D01*
X52603Y19829D01*
X52622Y19810D01*
X52661Y19790D01*
X52720D01*
X52759Y19810D01*
X52798Y19849D01*
X52818Y19907D01*
Y19947D01*
X52798Y20005D01*
X52759Y20044D01*
X52720Y20064D01*
X52661D01*
X52622Y20044D01*
X52583Y20005D01*
X52495Y19654D02*
Y20064D01*
Y19654D02*
X52339Y20064D01*
X52183Y19654D02*
X52339Y20064D01*
X52183Y19654D02*
Y20064D01*
X52066Y19907D02*
X51832D01*
Y19868D01*
X51851Y19829D01*
X51871Y19810D01*
X51910Y19790D01*
X51968D01*
X52007Y19810D01*
X52046Y19849D01*
X52066Y19907D01*
Y19947D01*
X52046Y20005D01*
X52007Y20044D01*
X51968Y20064D01*
X51910D01*
X51871Y20044D01*
X51832Y20005D01*
X51451Y19751D02*
X51470Y19712D01*
X51509Y19673D01*
X51548Y19654D01*
X51627D01*
X51666Y19673D01*
X51705Y19712D01*
X51724Y19751D01*
X51744Y19810D01*
Y19907D01*
X51724Y19966D01*
X51705Y20005D01*
X51666Y20044D01*
X51627Y20064D01*
X51548D01*
X51509Y20044D01*
X51470Y20005D01*
X51451Y19966D01*
X51336Y19654D02*
Y20064D01*
Y19654D02*
X51062Y20064D01*
Y19654D02*
Y20064D01*
X50656Y19751D02*
X50676Y19712D01*
X50715Y19673D01*
X50754Y19654D01*
X50832D01*
X50871Y19673D01*
X50910Y19712D01*
X50929Y19751D01*
X50949Y19810D01*
Y19907D01*
X50929Y19966D01*
X50910Y20005D01*
X50871Y20044D01*
X50832Y20064D01*
X50754D01*
X50715Y20044D01*
X50676Y20005D01*
X50656Y19966D01*
X48845Y8314D02*
X48490Y8109D01*
X48845Y8314D02*
X48933Y8162D01*
X48945Y8102D01*
X48938Y8075D01*
X48914Y8039D01*
X48880Y8019D01*
X48836Y8016D01*
X48810Y8024D01*
X48764Y8065D01*
X48676Y8217D01*
X48744Y8098D02*
X48626Y7873D01*
X49154Y7778D02*
X49027Y7998D01*
X48672Y7793D01*
X48799Y7573D01*
X48858Y7901D02*
X48936Y7765D01*
X49188Y7719D02*
X48911Y7379D01*
X49345Y7449D02*
X48911Y7379D01*
X48898Y7130D02*
X49054Y6859D01*
X49671Y6884D02*
X49573Y7053D01*
X49411Y6982D01*
X49438Y6975D01*
X49484Y6934D01*
X49513Y6883D01*
X49526Y6823D01*
X49511Y6769D01*
X49470Y6723D01*
X49437Y6704D01*
X49376Y6691D01*
X49323Y6706D01*
X49277Y6746D01*
X49247Y6797D01*
X49235Y6858D01*
X49242Y6884D01*
X49266Y6921D01*
X49853Y6568D02*
X49498Y6363D01*
X49684Y6470D02*
X49698Y6523D01*
X49696Y6567D01*
X49667Y6618D01*
X49630Y6642D01*
X49577Y6656D01*
X49516Y6644D01*
X49482Y6624D01*
X49441Y6578D01*
X49427Y6525D01*
X49430Y6481D01*
X49459Y6430D01*
X49496Y6406D01*
X49549Y6392D01*
X48465Y10474D02*
X48110Y10269D01*
X48576Y10282D02*
X48221Y10077D01*
X48508Y10400D02*
X48644Y10163D01*
X48796Y9901D02*
X48669Y10121D01*
X48314Y9916D01*
X48441Y9696D01*
X48500Y10023D02*
X48578Y9888D01*
X48830Y9842D02*
X48475Y9637D01*
X48830Y9842D02*
X48553Y9502D01*
X48986Y9571D02*
X48553Y9502D01*
X48986Y9571D02*
X48631Y9366D01*
X49284Y9056D02*
X48742Y8901D01*
X49342Y8954D02*
X48801Y8799D01*
X49030Y9067D02*
X49166Y8830D01*
X48918Y9025D02*
X49055Y8788D01*
X49697Y8340D02*
X49244Y8305D01*
X49560Y8577D02*
X49697Y8340D01*
X49675Y8222D02*
X49711Y8198D01*
X49791Y8176D01*
X49436Y7971D01*
X49818Y7935D02*
X49835Y7945D01*
X49879Y7947D01*
X49905Y7940D01*
X49942Y7916D01*
X49981Y7848D01*
X49984Y7805D01*
X49976Y7778D01*
X49952Y7742D01*
X49918Y7722D01*
X49875Y7720D01*
X49805Y7724D01*
X49538Y7796D01*
X49675Y7559D01*
X50008Y7645D02*
X50044Y7621D01*
X50124Y7600D01*
X49769Y7395D01*
X50285Y7323D02*
X50238Y7363D01*
X50168Y7368D01*
X50074Y7336D01*
X50023Y7307D01*
X49948Y7241D01*
X49917Y7178D01*
X49929Y7117D01*
X49949Y7084D01*
X49995Y7043D01*
X50065Y7038D01*
X50160Y7070D01*
X50210Y7099D01*
X50285Y7165D01*
X50316Y7228D01*
X50304Y7289D01*
X50285Y7323D01*
X47175Y11124D02*
X46820Y10919D01*
X47311Y10888D02*
X46956Y10683D01*
X47006Y11027D02*
X47142Y10790D01*
X47495Y10570D02*
X47368Y10790D01*
X47013Y10585D01*
X47140Y10365D01*
X47199Y10692D02*
X47277Y10557D01*
X47454Y10445D02*
X47471Y10455D01*
X47515Y10457D01*
X47542Y10450D01*
X47578Y10426D01*
X47617Y10358D01*
X47620Y10315D01*
X47612Y10288D01*
X47588Y10252D01*
X47555Y10232D01*
X47511Y10230D01*
X47441Y10234D01*
X47174Y10306D01*
X47311Y10069D01*
X47761Y10110D02*
X47714Y10151D01*
X47671Y10148D01*
X47637Y10129D01*
X47613Y10092D01*
X47615Y10049D01*
X47638Y9971D01*
X47650Y9911D01*
X47636Y9857D01*
X47612Y9821D01*
X47561Y9792D01*
X47517Y9789D01*
X47491Y9796D01*
X47444Y9837D01*
X47405Y9905D01*
X47393Y9965D01*
X47400Y9992D01*
X47424Y10028D01*
X47475Y10058D01*
X47519Y10060D01*
X47572Y10046D01*
X47618Y10005D01*
X47674Y9947D01*
X47710Y9923D01*
X47754Y9926D01*
X47788Y9945D01*
X47812Y9982D01*
X47800Y10042D01*
X47761Y10110D01*
X47953Y9777D02*
X47907Y9818D01*
X47836Y9822D01*
X47742Y9790D01*
X47691Y9761D01*
X47617Y9695D01*
X47585Y9632D01*
X47598Y9572D01*
X47617Y9538D01*
X47663Y9497D01*
X47734Y9492D01*
X47828Y9524D01*
X47879Y9554D01*
X47954Y9619D01*
X47985Y9682D01*
X47972Y9743D01*
X47953Y9777D01*
X47891Y9455D02*
X47979Y9302D01*
X48025Y9261D01*
X48052Y9254D01*
X48095Y9257D01*
X48146Y9286D01*
X48170Y9323D01*
X48177Y9349D01*
X48165Y9410D01*
X48077Y9562D01*
X47722Y9357D01*
X48321Y8943D02*
X48345Y8980D01*
X48360Y9033D01*
X48357Y9077D01*
X48318Y9144D01*
X48282Y9168D01*
X48228Y9183D01*
X48185Y9180D01*
X48124Y9168D01*
X48040Y9119D01*
X47999Y9073D01*
X47975Y9036D01*
X47960Y8983D01*
X47963Y8939D01*
X48002Y8872D01*
X48038Y8848D01*
X48092Y8833D01*
X48135Y8836D01*
X48463Y8892D02*
X48108Y8687D01*
X48463Y8892D02*
X48551Y8740D01*
X48564Y8680D01*
X48557Y8653D01*
X48532Y8617D01*
X48499Y8597D01*
X48455Y8594D01*
X48428Y8602D01*
X48382Y8643D01*
X48294Y8795D02*
X48382Y8643D01*
X48395Y8582D01*
X48387Y8555D01*
X48363Y8519D01*
X48313Y8490D01*
X48269Y8487D01*
X48242Y8494D01*
X48196Y8535D01*
X48108Y8687D01*
X50591Y4375D02*
Y4024D01*
X50415Y4199D02*
X50766D01*
X46254Y6951D02*
X46342Y6799D01*
X46388Y6758D01*
X46415Y6751D01*
X46458Y6754D01*
X46509Y6783D01*
X46533Y6819D01*
X46540Y6846D01*
X46528Y6906D01*
X46440Y7059D01*
X46085Y6854D01*
X46424Y6267D02*
X46701Y6607D01*
X46267Y6537D01*
X46415Y6555D02*
X46513Y6386D01*
X46826Y6389D02*
X46471Y6184D01*
X46826Y6389D02*
X46914Y6237D01*
X46927Y6176D01*
X46920Y6150D01*
X46896Y6113D01*
X46862Y6094D01*
X46818Y6091D01*
X46791Y6098D01*
X46745Y6139D01*
X46657Y6291D01*
X46726Y6173D02*
X46608Y5947D01*
X47077Y5955D02*
X46722Y5749D01*
X47009Y6073D02*
X47146Y5836D01*
X45180Y9189D02*
X44825Y8984D01*
X45317Y8952D02*
X44961Y8747D01*
X45011Y9091D02*
X45147Y8854D01*
X45500Y8634D02*
X45373Y8854D01*
X45018Y8649D01*
X45145Y8429D01*
X45204Y8756D02*
X45282Y8621D01*
X44915Y10764D02*
Y10354D01*
Y10764D02*
X45169D01*
X44915Y10568D02*
X45071D01*
X45528Y10354D02*
X45372Y10764D01*
X45215Y10354D01*
X45274Y10490D02*
X45469D01*
X45624Y10764D02*
Y10354D01*
Y10764D02*
X45897Y10354D01*
Y10764D02*
Y10354D01*
X46284Y10705D02*
X46244Y10744D01*
X46186Y10764D01*
X46108D01*
X46049Y10744D01*
X46010Y10705D01*
Y10666D01*
X46030Y10627D01*
X46049Y10607D01*
X46088Y10588D01*
X46205Y10549D01*
X46244Y10529D01*
X46264Y10510D01*
X46284Y10471D01*
Y10412D01*
X46244Y10373D01*
X46186Y10354D01*
X46108D01*
X46049Y10373D01*
X46010Y10412D01*
X68607Y5357D02*
X68303Y5181D01*
X68367Y5422D02*
X68543Y5117D01*
X67147Y7957D02*
X66843Y7781D01*
X66907Y8022D02*
X67083Y7717D01*
X74491Y19712D02*
X74530Y19673D01*
X74589Y19654D01*
X74667D01*
X74726Y19673D01*
X74765Y19712D01*
Y19751D01*
X74745Y19790D01*
X74726Y19810D01*
X74687Y19829D01*
X74569Y19868D01*
X74530Y19888D01*
X74511Y19907D01*
X74491Y19947D01*
Y20005D01*
X74530Y20044D01*
X74589Y20064D01*
X74667D01*
X74726Y20044D01*
X74765Y20005D01*
X74400Y19907D02*
X74165D01*
Y19868D01*
X74185Y19829D01*
X74204Y19810D01*
X74243Y19790D01*
X74302D01*
X74341Y19810D01*
X74380Y19849D01*
X74400Y19907D01*
Y19947D01*
X74380Y20005D01*
X74341Y20044D01*
X74302Y20064D01*
X74243D01*
X74204Y20044D01*
X74165Y20005D01*
X74077Y19907D02*
X73843D01*
Y19868D01*
X73863Y19829D01*
X73882Y19810D01*
X73921Y19790D01*
X73980D01*
X74019Y19810D01*
X74058Y19849D01*
X74077Y19907D01*
Y19947D01*
X74058Y20005D01*
X74019Y20044D01*
X73980Y20064D01*
X73921D01*
X73882Y20044D01*
X73843Y20005D01*
X73755Y19654D02*
Y20064D01*
Y19654D02*
X73599Y20064D01*
X73443Y19654D02*
X73599Y20064D01*
X73443Y19654D02*
Y20064D01*
X73326Y19907D02*
X73091D01*
Y19868D01*
X73111Y19829D01*
X73130Y19810D01*
X73169Y19790D01*
X73228D01*
X73267Y19810D01*
X73306Y19849D01*
X73326Y19907D01*
Y19947D01*
X73306Y20005D01*
X73267Y20044D01*
X73228Y20064D01*
X73169D01*
X73130Y20044D01*
X73091Y20005D01*
X72711Y19751D02*
X72730Y19712D01*
X72769Y19673D01*
X72808Y19654D01*
X72886D01*
X72925Y19673D01*
X72964Y19712D01*
X72984Y19751D01*
X73003Y19810D01*
Y19907D01*
X72984Y19966D01*
X72964Y20005D01*
X72925Y20044D01*
X72886Y20064D01*
X72808D01*
X72769Y20044D01*
X72730Y20005D01*
X72711Y19966D01*
X72595Y19654D02*
Y20064D01*
Y19654D02*
X72322Y20064D01*
Y19654D02*
Y20064D01*
X71916Y19751D02*
X71935Y19712D01*
X71975Y19673D01*
X72014Y19654D01*
X72092D01*
X72131Y19673D01*
X72170Y19712D01*
X72189Y19751D01*
X72209Y19810D01*
Y19907D01*
X72189Y19966D01*
X72170Y20005D01*
X72131Y20044D01*
X72092Y20064D01*
X72014D01*
X71975Y20044D01*
X71935Y20005D01*
X71916Y19966D01*
X70105Y8314D02*
X69750Y8109D01*
X70105Y8314D02*
X70192Y8162D01*
X70205Y8102D01*
X70198Y8075D01*
X70174Y8039D01*
X70140Y8019D01*
X70096Y8016D01*
X70070Y8024D01*
X70023Y8065D01*
X69936Y8217D01*
X70004Y8098D02*
X69886Y7873D01*
X70414Y7778D02*
X70287Y7998D01*
X69932Y7793D01*
X70059Y7573D01*
X70118Y7901D02*
X70196Y7765D01*
X70448Y7719D02*
X70171Y7379D01*
X70604Y7449D02*
X70171Y7379D01*
X70157Y7130D02*
X70314Y6859D01*
X70931Y6884D02*
X70833Y7053D01*
X70671Y6982D01*
X70698Y6975D01*
X70744Y6934D01*
X70773Y6883D01*
X70785Y6823D01*
X70771Y6769D01*
X70730Y6723D01*
X70696Y6704D01*
X70636Y6691D01*
X70583Y6706D01*
X70536Y6746D01*
X70507Y6797D01*
X70495Y6858D01*
X70502Y6884D01*
X70526Y6921D01*
X71113Y6568D02*
X70758Y6363D01*
X70944Y6470D02*
X70958Y6523D01*
X70956Y6567D01*
X70926Y6618D01*
X70890Y6642D01*
X70837Y6656D01*
X70776Y6644D01*
X70742Y6624D01*
X70701Y6578D01*
X70687Y6525D01*
X70690Y6481D01*
X70719Y6430D01*
X70755Y6406D01*
X70809Y6392D01*
X69725Y10474D02*
X69370Y10269D01*
X69836Y10282D02*
X69481Y10077D01*
X69768Y10400D02*
X69904Y10163D01*
X70056Y9901D02*
X69929Y10121D01*
X69574Y9916D01*
X69700Y9696D01*
X69760Y10023D02*
X69838Y9888D01*
X70090Y9842D02*
X69735Y9637D01*
X70090Y9842D02*
X69813Y9502D01*
X70246Y9571D02*
X69813Y9502D01*
X70246Y9571D02*
X69891Y9366D01*
X70544Y9056D02*
X70002Y8901D01*
X70602Y8954D02*
X70060Y8799D01*
X70289Y9067D02*
X70426Y8830D01*
X70178Y9025D02*
X70315Y8788D01*
X70957Y8340D02*
X70504Y8305D01*
X70820Y8577D02*
X70957Y8340D01*
X70935Y8222D02*
X70971Y8198D01*
X71051Y8176D01*
X70696Y7971D01*
X71078Y7935D02*
X71095Y7945D01*
X71139Y7947D01*
X71165Y7940D01*
X71202Y7916D01*
X71241Y7848D01*
X71243Y7805D01*
X71236Y7778D01*
X71212Y7742D01*
X71178Y7722D01*
X71135Y7720D01*
X71065Y7724D01*
X70798Y7796D01*
X70934Y7559D01*
X71268Y7645D02*
X71304Y7621D01*
X71384Y7600D01*
X71029Y7395D01*
X71544Y7323D02*
X71498Y7363D01*
X71428Y7368D01*
X71334Y7336D01*
X71283Y7307D01*
X71208Y7241D01*
X71177Y7178D01*
X71189Y7117D01*
X71209Y7084D01*
X71255Y7043D01*
X71325Y7038D01*
X71420Y7070D01*
X71470Y7099D01*
X71545Y7165D01*
X71576Y7228D01*
X71564Y7289D01*
X71544Y7323D01*
X68435Y11124D02*
X68080Y10919D01*
X68571Y10888D02*
X68216Y10683D01*
X68266Y11027D02*
X68402Y10790D01*
X68755Y10570D02*
X68628Y10790D01*
X68273Y10585D01*
X68400Y10365D01*
X68459Y10692D02*
X68537Y10557D01*
X68714Y10445D02*
X68731Y10455D01*
X68775Y10457D01*
X68801Y10450D01*
X68838Y10426D01*
X68877Y10358D01*
X68879Y10315D01*
X68872Y10288D01*
X68848Y10252D01*
X68814Y10232D01*
X68771Y10230D01*
X68701Y10234D01*
X68434Y10306D01*
X68571Y10069D01*
X69020Y10110D02*
X68974Y10151D01*
X68931Y10148D01*
X68897Y10129D01*
X68873Y10092D01*
X68875Y10049D01*
X68897Y9971D01*
X68910Y9911D01*
X68896Y9857D01*
X68872Y9821D01*
X68821Y9792D01*
X68777Y9789D01*
X68751Y9796D01*
X68704Y9837D01*
X68665Y9905D01*
X68653Y9965D01*
X68660Y9992D01*
X68684Y10028D01*
X68735Y10058D01*
X68778Y10060D01*
X68832Y10046D01*
X68878Y10005D01*
X68934Y9947D01*
X68970Y9923D01*
X69014Y9926D01*
X69048Y9945D01*
X69072Y9982D01*
X69059Y10042D01*
X69020Y10110D01*
X69213Y9777D02*
X69166Y9818D01*
X69096Y9822D01*
X69002Y9790D01*
X68951Y9761D01*
X68876Y9695D01*
X68845Y9632D01*
X68858Y9572D01*
X68877Y9538D01*
X68923Y9497D01*
X68994Y9492D01*
X69088Y9524D01*
X69139Y9554D01*
X69213Y9619D01*
X69245Y9682D01*
X69232Y9743D01*
X69213Y9777D01*
X69151Y9455D02*
X69239Y9302D01*
X69285Y9261D01*
X69311Y9254D01*
X69355Y9257D01*
X69406Y9286D01*
X69430Y9323D01*
X69437Y9349D01*
X69425Y9410D01*
X69337Y9562D01*
X68982Y9357D01*
X69581Y8943D02*
X69605Y8980D01*
X69619Y9033D01*
X69617Y9077D01*
X69578Y9144D01*
X69541Y9168D01*
X69488Y9183D01*
X69444Y9180D01*
X69384Y9168D01*
X69299Y9119D01*
X69258Y9073D01*
X69234Y9036D01*
X69220Y8983D01*
X69223Y8939D01*
X69262Y8872D01*
X69298Y8848D01*
X69352Y8833D01*
X69395Y8836D01*
X69723Y8892D02*
X69368Y8687D01*
X69723Y8892D02*
X69811Y8740D01*
X69824Y8680D01*
X69816Y8653D01*
X69792Y8617D01*
X69758Y8597D01*
X69715Y8594D01*
X69688Y8602D01*
X69642Y8643D01*
X69554Y8795D02*
X69642Y8643D01*
X69654Y8582D01*
X69647Y8555D01*
X69623Y8519D01*
X69572Y8490D01*
X69529Y8487D01*
X69502Y8494D01*
X69456Y8535D01*
X69368Y8687D01*
X71850Y4375D02*
Y4024D01*
X71675Y4199D02*
X72026D01*
X67514Y6951D02*
X67602Y6799D01*
X67648Y6758D01*
X67674Y6751D01*
X67718Y6754D01*
X67769Y6783D01*
X67793Y6819D01*
X67800Y6846D01*
X67788Y6906D01*
X67700Y7059D01*
X67345Y6854D01*
X67683Y6267D02*
X67960Y6607D01*
X67527Y6537D01*
X67675Y6555D02*
X67772Y6386D01*
X68086Y6389D02*
X67731Y6184D01*
X68086Y6389D02*
X68174Y6237D01*
X68187Y6176D01*
X68179Y6150D01*
X68155Y6113D01*
X68122Y6094D01*
X68078Y6091D01*
X68051Y6098D01*
X68005Y6139D01*
X67917Y6291D01*
X67986Y6173D02*
X67868Y5947D01*
X68337Y5955D02*
X67982Y5749D01*
X68269Y6073D02*
X68406Y5836D01*
X66440Y9189D02*
X66085Y8984D01*
X66576Y8952D02*
X66221Y8747D01*
X66271Y9091D02*
X66407Y8854D01*
X66760Y8634D02*
X66633Y8854D01*
X66278Y8649D01*
X66405Y8429D01*
X66464Y8756D02*
X66542Y8621D01*
X66175Y10764D02*
Y10354D01*
Y10764D02*
X66428D01*
X66175Y10568D02*
X66331D01*
X66788Y10354D02*
X66632Y10764D01*
X66475Y10354D01*
X66534Y10490D02*
X66729D01*
X66883Y10764D02*
Y10354D01*
Y10764D02*
X67157Y10354D01*
Y10764D02*
Y10354D01*
X67543Y10705D02*
X67504Y10744D01*
X67446Y10764D01*
X67368D01*
X67309Y10744D01*
X67270Y10705D01*
Y10666D01*
X67290Y10627D01*
X67309Y10607D01*
X67348Y10588D01*
X67465Y10549D01*
X67504Y10529D01*
X67524Y10510D01*
X67543Y10471D01*
Y10412D01*
X67504Y10373D01*
X67446Y10354D01*
X67368D01*
X67309Y10373D01*
X67270Y10412D01*
D57*
X5166Y13356D02*
Y12794D01*
X4885Y13075D02*
X5447D01*
X26426Y13356D02*
Y12794D01*
X26145Y13075D02*
X26707D01*
X47686Y13356D02*
Y12794D01*
X47405Y13075D02*
X47967D01*
X68946Y13356D02*
Y12794D01*
X68665Y13075D02*
X69227D01*
M02*
