G04 Layer_Color=32896*
%FSLAX24Y24*%
%MOIN*%
G70*
G01*
G75*
%ADD12C,0.0100*%
G04:AMPARAMS|DCode=68|XSize=29.5mil|YSize=87.9mil|CornerRadius=0mil|HoleSize=0mil|Usage=FLASHONLY|Rotation=55.000|XOffset=0mil|YOffset=0mil|HoleType=Round|Shape=Rectangle|*
%AMROTATEDRECTD68*
4,1,4,0.0275,-0.0373,-0.0445,0.0131,-0.0275,0.0373,0.0445,-0.0131,0.0275,-0.0373,0.0*
%
%ADD68ROTATEDRECTD68*%

%ADD127C,0.0040*%
%ADD128C,0.0039*%
%ADD129C,0.0060*%
G04:AMPARAMS|DCode=130|XSize=13.8mil|YSize=31.5mil|CornerRadius=0mil|HoleSize=0mil|Usage=FLASHONLY|Rotation=190.000|XOffset=0mil|YOffset=0mil|HoleType=Round|Shape=Rectangle|*
%AMROTATEDRECTD130*
4,1,4,0.0041,0.0167,0.0095,-0.0143,-0.0041,-0.0167,-0.0095,0.0143,0.0041,0.0167,0.0*
%
%ADD130ROTATEDRECTD130*%

G04:AMPARAMS|DCode=131|XSize=13.8mil|YSize=31.5mil|CornerRadius=0mil|HoleSize=0mil|Usage=FLASHONLY|Rotation=60.000|XOffset=0mil|YOffset=0mil|HoleType=Round|Shape=Rectangle|*
%AMROTATEDRECTD131*
4,1,4,0.0102,-0.0138,-0.0171,0.0019,-0.0102,0.0138,0.0171,-0.0019,0.0102,-0.0138,0.0*
%
%ADD131ROTATEDRECTD131*%

%ADD132R,0.0315X0.0138*%
%ADD133R,0.0118X0.0240*%
%ADD134R,0.0110X0.0240*%
%ADD135R,0.0240X0.0118*%
%ADD136R,0.0240X0.0110*%
G04:AMPARAMS|DCode=137|XSize=16.5mil|YSize=63.5mil|CornerRadius=0mil|HoleSize=0mil|Usage=FLASHONLY|Rotation=55.000|XOffset=0mil|YOffset=0mil|HoleType=Round|Shape=Rectangle|*
%AMROTATEDRECTD137*
4,1,4,0.0213,-0.0250,-0.0307,0.0114,-0.0213,0.0250,0.0307,-0.0114,0.0213,-0.0250,0.0*
%
%ADD137ROTATEDRECTD137*%

G04:AMPARAMS|DCode=138|XSize=17mil|YSize=64.5mil|CornerRadius=0mil|HoleSize=0mil|Usage=FLASHONLY|Rotation=55.000|XOffset=0mil|YOffset=0mil|HoleType=Round|Shape=Rectangle|*
%AMROTATEDRECTD138*
4,1,4,0.0215,-0.0255,-0.0313,0.0115,-0.0215,0.0255,0.0313,-0.0115,0.0215,-0.0255,0.0*
%
%ADD138ROTATEDRECTD138*%

%ADD139R,0.0138X0.0315*%
%ADD140R,0.0575X0.0295*%
%ADD141R,0.0575X0.0300*%
G04:AMPARAMS|DCode=142|XSize=11mil|YSize=24mil|CornerRadius=0mil|HoleSize=0mil|Usage=FLASHONLY|Rotation=60.000|XOffset=0mil|YOffset=0mil|HoleType=Round|Shape=Rectangle|*
%AMROTATEDRECTD142*
4,1,4,0.0076,-0.0108,-0.0131,0.0012,-0.0076,0.0108,0.0131,-0.0012,0.0076,-0.0108,0.0*
%
%ADD142ROTATEDRECTD142*%

G04:AMPARAMS|DCode=143|XSize=11.8mil|YSize=24mil|CornerRadius=0mil|HoleSize=0mil|Usage=FLASHONLY|Rotation=60.000|XOffset=0mil|YOffset=0mil|HoleType=Round|Shape=Rectangle|*
%AMROTATEDRECTD143*
4,1,4,0.0074,-0.0111,-0.0133,0.0009,-0.0074,0.0111,0.0133,-0.0009,0.0074,-0.0111,0.0*
%
%ADD143ROTATEDRECTD143*%

G04:AMPARAMS|DCode=144|XSize=11mil|YSize=24mil|CornerRadius=0mil|HoleSize=0mil|Usage=FLASHONLY|Rotation=150.000|XOffset=0mil|YOffset=0mil|HoleType=Round|Shape=Rectangle|*
%AMROTATEDRECTD144*
4,1,4,0.0108,0.0076,-0.0012,-0.0131,-0.0108,-0.0076,0.0012,0.0131,0.0108,0.0076,0.0*
%
%ADD144ROTATEDRECTD144*%

G04:AMPARAMS|DCode=145|XSize=11.8mil|YSize=24mil|CornerRadius=0mil|HoleSize=0mil|Usage=FLASHONLY|Rotation=150.000|XOffset=0mil|YOffset=0mil|HoleType=Round|Shape=Rectangle|*
%AMROTATEDRECTD145*
4,1,4,0.0111,0.0074,-0.0009,-0.0133,-0.0111,-0.0074,0.0009,0.0133,0.0111,0.0074,0.0*
%
%ADD145ROTATEDRECTD145*%

D12*
X11742Y7231D02*
X12555Y6661D01*
X12761Y8685D02*
X13574Y8116D01*
X33002Y7231D02*
X33815Y6661D01*
X34021Y8685D02*
X34833Y8116D01*
X54262Y7231D02*
X55075Y6661D01*
X55281Y8685D02*
X56093Y8116D01*
X75522Y7231D02*
X76335Y6661D01*
X76540Y8685D02*
X77353Y8116D01*
D68*
X12549Y7512D02*
D03*
X33809D02*
D03*
X55069D02*
D03*
X76328D02*
D03*
D127*
X16652Y11794D02*
X17001Y11856D01*
X15681Y10667D02*
X15858Y10974D01*
X15081Y9817D02*
X15258Y10124D01*
X12128Y17382D02*
Y17737D01*
X12532Y14542D02*
Y14897D01*
X11238Y17382D02*
Y17737D01*
X14062Y9115D02*
X14239Y9422D01*
X8273Y16052D02*
X8627Y16052D01*
X8850Y17519D02*
X8850Y17819D01*
X8330Y17519D02*
X8330Y17810D01*
X13283Y15742D02*
X13637Y15742D01*
X13283Y16382D02*
X13637D01*
X10068Y18831D02*
X10422Y18831D01*
X11073Y15161D02*
Y15515D01*
X9638Y16751D02*
X9992D01*
X9633Y16087D02*
X9987D01*
X9553Y18357D02*
Y18711D01*
X8760Y14849D02*
Y15149D01*
X8240Y14849D02*
Y15140D01*
X11688Y15897D02*
Y16251D01*
Y14847D02*
X11688Y15201D01*
X5958Y14237D02*
X5958Y13882D01*
X37911Y11794D02*
X38260Y11856D01*
X36941Y10667D02*
X37118Y10974D01*
X36341Y9817D02*
X36518Y10124D01*
X33388Y17382D02*
Y17737D01*
X33792Y14542D02*
Y14897D01*
X32498Y17382D02*
Y17737D01*
X35322Y9115D02*
X35499Y9422D01*
X29533Y16052D02*
X29887Y16052D01*
X30110Y17519D02*
X30110Y17819D01*
X29590Y17519D02*
X29590Y17810D01*
X34543Y15742D02*
X34897Y15742D01*
X34543Y16382D02*
X34897D01*
X31328Y18831D02*
X31682Y18831D01*
X32333Y15161D02*
Y15515D01*
X30898Y16751D02*
X31252D01*
X30893Y16087D02*
X31247D01*
X30813Y18357D02*
Y18711D01*
X30020Y14849D02*
Y15149D01*
X29500Y14849D02*
Y15140D01*
X32948Y15897D02*
Y16251D01*
Y14847D02*
X32948Y15201D01*
X27218Y14237D02*
X27218Y13882D01*
X59171Y11794D02*
X59520Y11856D01*
X58200Y10667D02*
X58378Y10974D01*
X57600Y9817D02*
X57778Y10124D01*
X54647Y17382D02*
Y17737D01*
X55052Y14542D02*
Y14897D01*
X53757Y17382D02*
Y17737D01*
X56582Y9115D02*
X56759Y9422D01*
X50793Y16052D02*
X51147Y16052D01*
X51370Y17519D02*
X51370Y17819D01*
X50850Y17519D02*
X50850Y17810D01*
X55803Y15742D02*
X56157Y15742D01*
X55803Y16382D02*
X56157D01*
X52588Y18831D02*
X52942Y18831D01*
X53593Y15161D02*
Y15515D01*
X52158Y16751D02*
X52512D01*
X52152Y16087D02*
X52507D01*
X52073Y18357D02*
Y18711D01*
X51280Y14849D02*
Y15149D01*
X50760Y14849D02*
Y15140D01*
X54207Y15897D02*
Y16251D01*
Y14847D02*
X54207Y15201D01*
X48477Y14237D02*
X48477Y13882D01*
X80431Y11794D02*
X80780Y11856D01*
X79460Y10667D02*
X79637Y10974D01*
X78860Y9817D02*
X79037Y10124D01*
X75907Y17382D02*
Y17737D01*
X76312Y14542D02*
Y14897D01*
X75017Y17382D02*
Y17737D01*
X77842Y9115D02*
X78019Y9422D01*
X72052Y16052D02*
X72407Y16052D01*
X72630Y17519D02*
X72630Y17819D01*
X72110Y17519D02*
X72110Y17810D01*
X77062Y15742D02*
X77417Y15742D01*
X77062Y16382D02*
X77417D01*
X73847Y18831D02*
X74202Y18831D01*
X74852Y15161D02*
Y15515D01*
X73417Y16751D02*
X73772D01*
X73412Y16087D02*
X73767D01*
X73332Y18357D02*
Y18711D01*
X72540Y14849D02*
Y15149D01*
X72020Y14849D02*
Y15140D01*
X75467Y15897D02*
Y16251D01*
Y14847D02*
X75467Y15201D01*
X69737Y14237D02*
X69737Y13882D01*
D128*
X16699Y11523D02*
X17048Y11584D01*
X15442Y10805D02*
X15619Y11112D01*
X14842Y9955D02*
X15019Y10262D01*
X11852Y17382D02*
Y17737D01*
X12808Y14542D02*
Y14897D01*
X10962Y17382D02*
Y17737D01*
X14301Y8977D02*
X14478Y9284D01*
X8273Y16327D02*
X8627D01*
X13283Y16017D02*
X13637D01*
X13283Y16657D02*
X13637Y16657D01*
X10068Y18556D02*
X10422Y18556D01*
X10797Y15161D02*
Y15515D01*
X9638Y16476D02*
X9992Y16476D01*
X9633Y15812D02*
X9987D01*
X9277Y18357D02*
X9277Y18711D01*
X11412Y15897D02*
Y16251D01*
Y14847D02*
Y15201D01*
X5682Y14237D02*
X5682Y13882D01*
X37959Y11523D02*
X38308Y11584D01*
X36702Y10805D02*
X36879Y11112D01*
X36102Y9955D02*
X36279Y10262D01*
X33112Y17382D02*
Y17737D01*
X34068Y14542D02*
Y14897D01*
X32222Y17382D02*
Y17737D01*
X35561Y8977D02*
X35738Y9284D01*
X29533Y16327D02*
X29887D01*
X34543Y16017D02*
X34897D01*
X34543Y16657D02*
X34897Y16657D01*
X31328Y18556D02*
X31682Y18556D01*
X32057Y15161D02*
Y15515D01*
X30898Y16476D02*
X31252Y16476D01*
X30893Y15812D02*
X31247D01*
X30537Y18357D02*
X30537Y18711D01*
X32672Y15897D02*
Y16251D01*
Y14847D02*
Y15201D01*
X26942Y14237D02*
X26942Y13882D01*
X59219Y11523D02*
X59568Y11584D01*
X57962Y10805D02*
X58139Y11112D01*
X57362Y9955D02*
X57539Y10262D01*
X54372Y17382D02*
Y17737D01*
X55328Y14542D02*
Y14897D01*
X53482Y17382D02*
Y17737D01*
X56820Y8977D02*
X56998Y9284D01*
X50793Y16327D02*
X51147D01*
X55803Y16017D02*
X56157D01*
X55803Y16657D02*
X56157Y16657D01*
X52588Y18556D02*
X52942Y18556D01*
X53317Y15161D02*
Y15515D01*
X52158Y16476D02*
X52512Y16476D01*
X52152Y15812D02*
X52507D01*
X51797Y18357D02*
X51797Y18711D01*
X53932Y15897D02*
Y16251D01*
Y14847D02*
Y15201D01*
X48202Y14237D02*
X48202Y13882D01*
X80479Y11523D02*
X80828Y11584D01*
X79222Y10805D02*
X79399Y11112D01*
X78622Y9955D02*
X78799Y10262D01*
X75632Y17382D02*
Y17737D01*
X76587Y14542D02*
Y14897D01*
X74742Y17382D02*
Y17737D01*
X78080Y8977D02*
X78257Y9284D01*
X72052Y16327D02*
X72407D01*
X77062Y16017D02*
X77417D01*
X77062Y16657D02*
X77417Y16657D01*
X73847Y18556D02*
X74202Y18556D01*
X74577Y15161D02*
Y15515D01*
X73417Y16476D02*
X73772Y16476D01*
X73412Y15812D02*
X73767D01*
X73057Y18357D02*
X73057Y18711D01*
X75192Y15897D02*
Y16251D01*
Y14847D02*
Y15201D01*
X69462Y14237D02*
X69462Y13882D01*
D129*
X11664Y14069D02*
X11860D01*
X11664Y13891D02*
X11860D01*
X12740Y13599D02*
X12740Y13796D01*
X12562Y13599D02*
Y13796D01*
X16150Y11819D02*
X16150Y12016D01*
X15972D02*
X15972Y11819D01*
X9495Y17874D02*
X10615D01*
X9495Y17354D02*
Y17874D01*
Y17354D02*
X10615Y17354D01*
X10615Y17874D01*
X9710Y14419D02*
X9710Y15539D01*
X9710Y14419D02*
X10230D01*
Y15539D01*
X9710D02*
X10230D01*
X12385Y17913D02*
X13505D01*
X12385Y17393D02*
Y17913D01*
Y17393D02*
X13505D01*
Y17913D01*
X14578Y10042D02*
X14676Y10212D01*
X14424Y10131D02*
X14522Y10301D01*
X13337Y9446D02*
X13508Y9348D01*
X13248Y9291D02*
X13419Y9193D01*
X32923Y14069D02*
X33120D01*
X32923Y13891D02*
X33120D01*
X34000Y13599D02*
X34000Y13796D01*
X33822Y13599D02*
Y13796D01*
X37410Y11819D02*
X37410Y12016D01*
X37232D02*
X37232Y11819D01*
X30755Y17874D02*
X31875D01*
X30755Y17354D02*
Y17874D01*
Y17354D02*
X31875Y17354D01*
X31875Y17874D01*
X30970Y14419D02*
X30970Y15539D01*
X30970Y14419D02*
X31490D01*
Y15539D01*
X30970D02*
X31490D01*
X33645Y17913D02*
X34765D01*
X33645Y17393D02*
Y17913D01*
Y17393D02*
X34765D01*
Y17913D01*
X35838Y10042D02*
X35936Y10212D01*
X35684Y10131D02*
X35782Y10301D01*
X34597Y9446D02*
X34767Y9348D01*
X34508Y9291D02*
X34678Y9193D01*
X54183Y14069D02*
X54380D01*
X54183Y13891D02*
X54380D01*
X55260Y13599D02*
X55260Y13796D01*
X55082Y13599D02*
Y13796D01*
X58670Y11819D02*
X58670Y12016D01*
X58492D02*
X58492Y11819D01*
X52015Y17874D02*
X53135D01*
X52015Y17354D02*
Y17874D01*
Y17354D02*
X53135Y17354D01*
X53135Y17874D01*
X52230Y14419D02*
X52230Y15539D01*
X52230Y14419D02*
X52750D01*
Y15539D01*
X52230D02*
X52750D01*
X54904Y17913D02*
X56024D01*
X54904Y17393D02*
Y17913D01*
Y17393D02*
X56024D01*
Y17913D01*
X57098Y10042D02*
X57196Y10212D01*
X56944Y10131D02*
X57042Y10301D01*
X55857Y9446D02*
X56027Y9348D01*
X55768Y9291D02*
X55938Y9193D01*
X75443Y14069D02*
X75640D01*
X75443Y13891D02*
X75640D01*
X76520Y13599D02*
X76520Y13796D01*
X76341Y13599D02*
Y13796D01*
X79930Y11819D02*
X79930Y12016D01*
X79751D02*
X79751Y11819D01*
X73275Y17874D02*
X74395D01*
X73275Y17354D02*
Y17874D01*
Y17354D02*
X74395Y17354D01*
X74395Y17874D01*
X73490Y14419D02*
X73490Y15539D01*
X73490Y14419D02*
X74010D01*
Y15539D01*
X73490D02*
X74010D01*
X76164Y17913D02*
X77284D01*
X76164Y17393D02*
Y17913D01*
Y17393D02*
X77284D01*
Y17913D01*
X78358Y10042D02*
X78456Y10212D01*
X78203Y10131D02*
X78302Y10301D01*
X77117Y9446D02*
X77287Y9348D01*
X77028Y9291D02*
X77198Y9193D01*
D130*
X16608Y11647D02*
D03*
X17092Y11732D02*
D03*
X37867Y11647D02*
D03*
X38352Y11732D02*
D03*
X59127Y11647D02*
D03*
X59612Y11732D02*
D03*
X80387Y11647D02*
D03*
X80872Y11732D02*
D03*
D131*
X15773Y11103D02*
D03*
X15527Y10676D02*
D03*
X15173Y10253D02*
D03*
X14927Y9826D02*
D03*
X14393Y9412D02*
D03*
X14147Y8986D02*
D03*
X37033Y11103D02*
D03*
X36787Y10676D02*
D03*
X36433Y10253D02*
D03*
X36187Y9826D02*
D03*
X35653Y9412D02*
D03*
X35407Y8986D02*
D03*
X58293Y11103D02*
D03*
X58047Y10676D02*
D03*
X57693Y10253D02*
D03*
X57447Y9826D02*
D03*
X56913Y9412D02*
D03*
X56667Y8986D02*
D03*
X79553Y11103D02*
D03*
X79307Y10676D02*
D03*
X78953Y10253D02*
D03*
X78706Y9826D02*
D03*
X78173Y9412D02*
D03*
X77926Y8986D02*
D03*
D132*
X11990Y17805D02*
D03*
X11990Y17313D02*
D03*
X12670Y14473D02*
D03*
X12670Y14965D02*
D03*
X11100Y17805D02*
D03*
X11100Y17313D02*
D03*
X10935Y15584D02*
D03*
X10935Y15092D02*
D03*
X9415Y18288D02*
D03*
X9415Y18780D02*
D03*
X11550Y16320D02*
D03*
X11550Y15828D02*
D03*
X11550Y14778D02*
D03*
X11550Y15270D02*
D03*
X5820Y14305D02*
D03*
X5820Y13813D02*
D03*
X33250Y17805D02*
D03*
X33250Y17313D02*
D03*
X33930Y14473D02*
D03*
X33930Y14965D02*
D03*
X32360Y17805D02*
D03*
X32360Y17313D02*
D03*
X32195Y15584D02*
D03*
X32195Y15092D02*
D03*
X30675Y18288D02*
D03*
X30675Y18780D02*
D03*
X32810Y16320D02*
D03*
Y15828D02*
D03*
X32810Y14778D02*
D03*
Y15270D02*
D03*
X27080Y14305D02*
D03*
X27080Y13813D02*
D03*
X54510Y17805D02*
D03*
X54510Y17313D02*
D03*
X55190Y14473D02*
D03*
X55190Y14965D02*
D03*
X53620Y17805D02*
D03*
X53620Y17313D02*
D03*
X53455Y15584D02*
D03*
X53455Y15092D02*
D03*
X51935Y18288D02*
D03*
X51935Y18780D02*
D03*
X54070Y16320D02*
D03*
X54070Y15828D02*
D03*
X54070Y14778D02*
D03*
X54070Y15270D02*
D03*
X48340Y14305D02*
D03*
X48340Y13813D02*
D03*
X75769Y17805D02*
D03*
X75769Y17313D02*
D03*
X76450Y14473D02*
D03*
X76450Y14965D02*
D03*
X74879Y17805D02*
D03*
X74879Y17313D02*
D03*
X74715Y15584D02*
D03*
X74715Y15092D02*
D03*
X73195Y18288D02*
D03*
X73195Y18780D02*
D03*
X75329Y16320D02*
D03*
Y15828D02*
D03*
X75329Y14778D02*
D03*
Y15270D02*
D03*
X69600Y14305D02*
D03*
X69600Y13813D02*
D03*
D133*
X11601Y13979D02*
D03*
X32861D02*
D03*
X54121D02*
D03*
X75380D02*
D03*
D134*
X11925Y13979D02*
D03*
X33185D02*
D03*
X54445D02*
D03*
X75705D02*
D03*
D135*
X12650Y13858D02*
D03*
X16060Y12078D02*
D03*
X33910Y13858D02*
D03*
X37320Y12078D02*
D03*
X55170Y13858D02*
D03*
X58580Y12078D02*
D03*
X76430Y13858D02*
D03*
X79840Y12078D02*
D03*
D136*
X12650Y13534D02*
D03*
X16060Y11754D02*
D03*
X33910Y13534D02*
D03*
X37320Y11754D02*
D03*
X55170Y13534D02*
D03*
X58580Y11754D02*
D03*
X76430Y13534D02*
D03*
X79840Y11754D02*
D03*
D137*
X12073Y6836D02*
D03*
X33333D02*
D03*
X54593D02*
D03*
X75853D02*
D03*
D138*
X13250Y8508D02*
D03*
X34510D02*
D03*
X55770D02*
D03*
X77029D02*
D03*
D139*
X8696Y16189D02*
D03*
X8204D02*
D03*
X13214Y15879D02*
D03*
X13706D02*
D03*
X13214Y16519D02*
D03*
X13706D02*
D03*
X10491Y18694D02*
D03*
X9999Y18694D02*
D03*
X10061Y16613D02*
D03*
X9569Y16613D02*
D03*
X9564Y15949D02*
D03*
X10056Y15949D02*
D03*
X29956Y16189D02*
D03*
X29464D02*
D03*
X34474Y15879D02*
D03*
X34966D02*
D03*
X34474Y16519D02*
D03*
X34966D02*
D03*
X31751Y18694D02*
D03*
X31259Y18694D02*
D03*
X31321Y16613D02*
D03*
X30829Y16613D02*
D03*
X30824Y15949D02*
D03*
X31316Y15949D02*
D03*
X51216Y16189D02*
D03*
X50724D02*
D03*
X55734Y15879D02*
D03*
X56226D02*
D03*
X55734Y16519D02*
D03*
X56226D02*
D03*
X53011Y18694D02*
D03*
X52519Y18694D02*
D03*
X52581Y16613D02*
D03*
X52089Y16613D02*
D03*
X52084Y15949D02*
D03*
X52576Y15949D02*
D03*
X72476Y16189D02*
D03*
X71983D02*
D03*
X76993Y15879D02*
D03*
X77486D02*
D03*
X76993Y16519D02*
D03*
X77486D02*
D03*
X74271Y18694D02*
D03*
X73779Y18694D02*
D03*
X73841Y16613D02*
D03*
X73349Y16613D02*
D03*
X73343Y15949D02*
D03*
X73836Y15949D02*
D03*
D140*
X8592Y17952D02*
D03*
X8502Y15282D02*
D03*
X29852Y17952D02*
D03*
X29762Y15282D02*
D03*
X51112Y17952D02*
D03*
X51022Y15282D02*
D03*
X72372Y17952D02*
D03*
X72282Y15282D02*
D03*
D141*
X8592Y17379D02*
D03*
X8502Y14709D02*
D03*
X29852Y17379D02*
D03*
X29762Y14709D02*
D03*
X51112Y17379D02*
D03*
X51022Y14709D02*
D03*
X72372Y17379D02*
D03*
X72282Y14709D02*
D03*
D142*
X14633Y10312D02*
D03*
X35892D02*
D03*
X57152D02*
D03*
X78412D02*
D03*
D143*
X14470Y10032D02*
D03*
X35730D02*
D03*
X56990D02*
D03*
X78250D02*
D03*
D144*
X13237Y9402D02*
D03*
X34497D02*
D03*
X55757D02*
D03*
X77017D02*
D03*
D145*
X13518Y9240D02*
D03*
X34778D02*
D03*
X56037D02*
D03*
X77297D02*
D03*
M02*
