G04 Layer_Color=2752767*
%FSLAX24Y24*%
%MOIN*%
G70*
G01*
G75*
%ADD146C,0.0020*%
%ADD149C,0.0027*%
D146*
X1249Y1249D02*
Y1409D01*
X1409D01*
Y1249D01*
X1249D01*
X81419Y1278D02*
Y1438D01*
X81579D01*
Y1278D01*
X81419D01*
Y21837D02*
Y21997D01*
X81579D01*
Y21837D01*
X81419D01*
X1249Y21808D02*
Y21968D01*
X1409D01*
Y21808D01*
X1249D01*
X4697Y11348D02*
X4617Y11508D01*
X4777D01*
X4697Y11348D01*
X14357D02*
X14277Y11508D01*
X14437D01*
X14357Y11348D01*
X9517Y10629D02*
X9557Y10669D01*
X9597D01*
X9557Y10709D01*
X9597Y10749D01*
X9557D01*
X9517Y10789D01*
X9477Y10749D01*
X9437D01*
X9477Y10709D01*
X9437Y10669D01*
X9477D01*
X9517Y10629D01*
X13445Y4280D02*
X13485Y4360D01*
X13445Y4440D01*
X13525Y4400D01*
X13605Y4440D01*
X13565Y4360D01*
X13605Y4280D01*
X13525Y4320D01*
X13445Y4280D01*
X13937Y5132D02*
X13977Y5212D01*
X13937Y5292D01*
X14017Y5252D01*
X14097Y5292D01*
X14057Y5212D01*
X14097Y5132D01*
X14017Y5172D01*
X13937Y5132D01*
X14429Y5984D02*
X14469Y6064D01*
X14429Y6144D01*
X14509Y6104D01*
X14589Y6144D01*
X14549Y6064D01*
X14589Y5984D01*
X14509Y6024D01*
X14429Y5984D01*
X14921Y6837D02*
X14961Y6917D01*
X14921Y6997D01*
X15001Y6957D01*
X15081Y6997D01*
X15041Y6917D01*
X15081Y6837D01*
X15001Y6877D01*
X14921Y6837D01*
X15413Y7689D02*
X15453Y7769D01*
X15413Y7849D01*
X15493Y7809D01*
X15573Y7849D01*
X15533Y7769D01*
X15573Y7689D01*
X15493Y7729D01*
X15413Y7689D01*
X15905Y8541D02*
X15945Y8622D01*
X15905Y8702D01*
X15985Y8662D01*
X16065Y8702D01*
X16025Y8622D01*
X16065Y8541D01*
X15985Y8582D01*
X15905Y8541D01*
X16397Y9394D02*
X16437Y9474D01*
X16397Y9554D01*
X16477Y9514D01*
X16557Y9554D01*
X16517Y9474D01*
X16557Y9394D01*
X16477Y9434D01*
X16397Y9394D01*
X16890Y10246D02*
X16930Y10326D01*
X16890Y10406D01*
X16970Y10366D01*
X17050Y10406D01*
X17010Y10326D01*
X17050Y10246D01*
X16970Y10286D01*
X16890Y10246D01*
X15617Y14209D02*
Y14169D01*
X15697D01*
Y14209D01*
X15737D01*
Y14289D01*
X15697D01*
Y14329D01*
X15617D01*
Y14289D01*
X15577D01*
Y14209D01*
X15617D01*
X3337D02*
Y14169D01*
X3417D01*
Y14209D01*
X3457D01*
Y14289D01*
X3417D01*
Y14329D01*
X3337D01*
Y14289D01*
X3297D01*
Y14209D01*
X3337D01*
X9477Y3579D02*
Y3539D01*
X9557D01*
Y3579D01*
X9597D01*
Y3659D01*
X9557D01*
Y3699D01*
X9477D01*
Y3659D01*
X9437D01*
Y3579D01*
X9477D01*
X7200Y3419D02*
X7240D01*
X7280Y3459D01*
X7320Y3419D01*
X7360D01*
Y3459D01*
X7320Y3499D01*
X7360Y3539D01*
Y3579D01*
X7320D01*
X7280Y3539D01*
X7240Y3579D01*
X7200D01*
Y3539D01*
X7240Y3499D01*
X7200Y3459D01*
Y3419D01*
X11680D02*
X11720D01*
X11760Y3459D01*
X11800Y3419D01*
X11840D01*
Y3459D01*
X11800Y3499D01*
X11840Y3539D01*
Y3579D01*
X11800D01*
X11760Y3539D01*
X11720Y3579D01*
X11680D01*
Y3539D01*
X11720Y3499D01*
X11680Y3459D01*
Y3419D01*
X17390Y11779D02*
X17470Y11859D01*
X17550Y11779D01*
X17470Y11699D01*
X17390Y11779D01*
X14960Y9449D02*
X15040Y9529D01*
X15120Y9449D01*
X15040Y9369D01*
X14960Y9449D01*
X15650Y10349D02*
X15730Y10429D01*
X15810Y10349D01*
X15730Y10269D01*
X15650Y10349D01*
X8310Y6749D02*
X8390Y6829D01*
X8470Y6749D01*
X8390Y6669D01*
X8310Y6749D01*
X8160Y5869D02*
X8240Y5949D01*
X8320Y5869D01*
X8240Y5789D01*
X8160Y5869D01*
X5145Y9169D02*
X5225Y9249D01*
X5305Y9169D01*
X5225Y9089D01*
X5145Y9169D01*
X8230Y4739D02*
X8310Y4819D01*
X8390Y4739D01*
X8310Y4659D01*
X8230Y4739D01*
X7930Y4749D02*
X8010Y4829D01*
X8090Y4749D01*
X8010Y4669D01*
X7930Y4749D01*
X13230Y7183D02*
Y7343D01*
X13390D01*
Y7183D01*
X13230D01*
X13270Y7223D02*
Y7303D01*
X13350D01*
Y7223D01*
X13270D01*
X15920Y5787D02*
X16000Y5867D01*
X16080Y5787D01*
X16000Y5707D01*
X15920Y5787D01*
X13870Y8539D02*
X13950Y8619D01*
X14030Y8539D01*
X13950Y8459D01*
X13870Y8539D01*
X13930Y7899D02*
X14010Y7979D01*
X14090Y7899D01*
X14010Y7819D01*
X13930Y7899D01*
X8420Y14119D02*
X8500Y14199D01*
X8580Y14119D01*
X8500Y14039D01*
X8420Y14119D01*
X12970Y5909D02*
Y6069D01*
X13130D01*
Y5909D01*
X12970D01*
X13010Y5949D02*
Y6029D01*
X13090D01*
Y5949D01*
X13010D01*
X12820Y6459D02*
Y6619D01*
X12980D01*
Y6459D01*
X12820D01*
X12860Y6499D02*
Y6579D01*
X12940D01*
Y6499D01*
X12860D01*
X6320Y16049D02*
X6400Y16129D01*
X6480Y16049D01*
X6400Y15969D01*
X6320Y16049D01*
X7980Y17409D02*
X8060Y17489D01*
X8140Y17409D01*
X8060Y17329D01*
X7980Y17409D01*
X16570Y6137D02*
X16650Y6217D01*
X16730Y6137D01*
X16650Y6057D01*
X16570Y6137D01*
X13628Y17259D02*
X13708Y17339D01*
X13788Y17259D01*
X13708Y17179D01*
X13628Y17259D01*
X11534Y7142D02*
Y7302D01*
X11694D01*
Y7142D01*
X11534D01*
X11574Y7182D02*
Y7262D01*
X11654D01*
Y7182D01*
X11574D01*
X12605Y15374D02*
X12685Y15454D01*
X12765Y15374D01*
X12685Y15294D01*
X12605Y15374D01*
X13650Y15479D02*
X13730Y15559D01*
X13810Y15479D01*
X13730Y15399D01*
X13650Y15479D01*
X11880Y14829D02*
X11960Y14909D01*
X12040Y14829D01*
X11960Y14749D01*
X11880Y14829D01*
X8640Y16569D02*
X8720Y16649D01*
X8800Y16569D01*
X8720Y16489D01*
X8640Y16569D01*
X14020Y16519D02*
X14100Y16599D01*
X14180Y16519D01*
X14100Y16439D01*
X14020Y16519D01*
X13400Y7559D02*
Y7719D01*
X13560D01*
Y7559D01*
X13400D01*
X13440Y7599D02*
Y7679D01*
X13520D01*
Y7599D01*
X13440D01*
X13380Y6819D02*
Y6979D01*
X13540D01*
Y6819D01*
X13380D01*
X13420Y6859D02*
Y6939D01*
X13500D01*
Y6859D01*
X13420D01*
X13790Y6623D02*
Y6783D01*
X13950D01*
Y6623D01*
X13790D01*
X13830Y6663D02*
Y6743D01*
X13910D01*
Y6663D01*
X13830D01*
X25956Y11348D02*
X25876Y11508D01*
X26036D01*
X25956Y11348D01*
X35616D02*
X35536Y11508D01*
X35696D01*
X35616Y11348D01*
X30776Y10629D02*
X30816Y10669D01*
X30856D01*
X30816Y10709D01*
X30856Y10749D01*
X30816D01*
X30776Y10789D01*
X30736Y10749D01*
X30696D01*
X30736Y10709D01*
X30696Y10669D01*
X30736D01*
X30776Y10629D01*
X34705Y4280D02*
X34745Y4360D01*
X34705Y4440D01*
X34785Y4400D01*
X34865Y4440D01*
X34825Y4360D01*
X34865Y4280D01*
X34785Y4320D01*
X34705Y4280D01*
X35197Y5132D02*
X35237Y5212D01*
X35197Y5292D01*
X35277Y5252D01*
X35357Y5292D01*
X35317Y5212D01*
X35357Y5132D01*
X35277Y5172D01*
X35197Y5132D01*
X35689Y5984D02*
X35729Y6064D01*
X35689Y6144D01*
X35769Y6104D01*
X35849Y6144D01*
X35809Y6064D01*
X35849Y5984D01*
X35769Y6024D01*
X35689Y5984D01*
X36181Y6837D02*
X36221Y6917D01*
X36181Y6997D01*
X36261Y6957D01*
X36341Y6997D01*
X36301Y6917D01*
X36341Y6837D01*
X36261Y6877D01*
X36181Y6837D01*
X36673Y7689D02*
X36713Y7769D01*
X36673Y7849D01*
X36753Y7809D01*
X36833Y7849D01*
X36793Y7769D01*
X36833Y7689D01*
X36753Y7729D01*
X36673Y7689D01*
X37165Y8541D02*
X37205Y8622D01*
X37165Y8702D01*
X37245Y8662D01*
X37325Y8702D01*
X37285Y8622D01*
X37325Y8541D01*
X37245Y8582D01*
X37165Y8541D01*
X37657Y9394D02*
X37697Y9474D01*
X37657Y9554D01*
X37737Y9514D01*
X37817Y9554D01*
X37777Y9474D01*
X37817Y9394D01*
X37737Y9434D01*
X37657Y9394D01*
X38149Y10246D02*
X38189Y10326D01*
X38149Y10406D01*
X38229Y10366D01*
X38309Y10406D01*
X38269Y10326D01*
X38309Y10246D01*
X38229Y10286D01*
X38149Y10246D01*
X36876Y14209D02*
Y14169D01*
X36956D01*
Y14209D01*
X36996D01*
Y14289D01*
X36956D01*
Y14329D01*
X36876D01*
Y14289D01*
X36836D01*
Y14209D01*
X36876D01*
X24596D02*
Y14169D01*
X24676D01*
Y14209D01*
X24716D01*
Y14289D01*
X24676D01*
Y14329D01*
X24596D01*
Y14289D01*
X24556D01*
Y14209D01*
X24596D01*
X30736Y3579D02*
Y3539D01*
X30816D01*
Y3579D01*
X30856D01*
Y3659D01*
X30816D01*
Y3699D01*
X30736D01*
Y3659D01*
X30696D01*
Y3579D01*
X30736D01*
X28460Y3419D02*
X28500D01*
X28540Y3459D01*
X28580Y3419D01*
X28620D01*
Y3459D01*
X28580Y3499D01*
X28620Y3539D01*
Y3579D01*
X28580D01*
X28540Y3539D01*
X28500Y3579D01*
X28460D01*
Y3539D01*
X28500Y3499D01*
X28460Y3459D01*
Y3419D01*
X32940D02*
X32980D01*
X33020Y3459D01*
X33060Y3419D01*
X33100D01*
Y3459D01*
X33060Y3499D01*
X33100Y3539D01*
Y3579D01*
X33060D01*
X33020Y3539D01*
X32980Y3579D01*
X32940D01*
Y3539D01*
X32980Y3499D01*
X32940Y3459D01*
Y3419D01*
X38650Y11779D02*
X38730Y11859D01*
X38810Y11779D01*
X38730Y11699D01*
X38650Y11779D01*
X36220Y9449D02*
X36300Y9529D01*
X36380Y9449D01*
X36300Y9369D01*
X36220Y9449D01*
X36910Y10349D02*
X36990Y10429D01*
X37070Y10349D01*
X36990Y10269D01*
X36910Y10349D01*
X29570Y6749D02*
X29650Y6829D01*
X29730Y6749D01*
X29650Y6669D01*
X29570Y6749D01*
X29420Y5869D02*
X29500Y5949D01*
X29580Y5869D01*
X29500Y5789D01*
X29420Y5869D01*
X26405Y9169D02*
X26485Y9249D01*
X26565Y9169D01*
X26485Y9089D01*
X26405Y9169D01*
X29490Y4739D02*
X29570Y4819D01*
X29650Y4739D01*
X29570Y4659D01*
X29490Y4739D01*
X29190Y4749D02*
X29270Y4829D01*
X29350Y4749D01*
X29270Y4669D01*
X29190Y4749D01*
X34490Y7183D02*
Y7343D01*
X34650D01*
Y7183D01*
X34490D01*
X34530Y7223D02*
Y7303D01*
X34610D01*
Y7223D01*
X34530D01*
X37180Y5787D02*
X37260Y5867D01*
X37340Y5787D01*
X37260Y5707D01*
X37180Y5787D01*
X35130Y8539D02*
X35210Y8619D01*
X35290Y8539D01*
X35210Y8459D01*
X35130Y8539D01*
X35190Y7899D02*
X35270Y7979D01*
X35350Y7899D01*
X35270Y7819D01*
X35190Y7899D01*
X29680Y14119D02*
X29760Y14199D01*
X29840Y14119D01*
X29760Y14039D01*
X29680Y14119D01*
X34230Y5909D02*
Y6069D01*
X34390D01*
Y5909D01*
X34230D01*
X34270Y5949D02*
Y6029D01*
X34350D01*
Y5949D01*
X34270D01*
X34080Y6459D02*
Y6619D01*
X34240D01*
Y6459D01*
X34080D01*
X34120Y6499D02*
Y6579D01*
X34200D01*
Y6499D01*
X34120D01*
X27580Y16049D02*
X27660Y16129D01*
X27740Y16049D01*
X27660Y15969D01*
X27580Y16049D01*
X29240Y17409D02*
X29320Y17489D01*
X29400Y17409D01*
X29320Y17329D01*
X29240Y17409D01*
X37830Y6137D02*
X37910Y6217D01*
X37990Y6137D01*
X37910Y6057D01*
X37830Y6137D01*
X34888Y17259D02*
X34968Y17339D01*
X35048Y17259D01*
X34968Y17179D01*
X34888Y17259D01*
X32794Y7142D02*
Y7302D01*
X32954D01*
Y7142D01*
X32794D01*
X32834Y7182D02*
Y7262D01*
X32914D01*
Y7182D01*
X32834D01*
X33865Y15374D02*
X33945Y15454D01*
X34025Y15374D01*
X33945Y15294D01*
X33865Y15374D01*
X34910Y15479D02*
X34990Y15559D01*
X35070Y15479D01*
X34990Y15399D01*
X34910Y15479D01*
X33140Y14829D02*
X33220Y14909D01*
X33300Y14829D01*
X33220Y14749D01*
X33140Y14829D01*
X29900Y16569D02*
X29980Y16649D01*
X30060Y16569D01*
X29980Y16489D01*
X29900Y16569D01*
X35280Y16519D02*
X35360Y16599D01*
X35440Y16519D01*
X35360Y16439D01*
X35280Y16519D01*
X34660Y7559D02*
Y7719D01*
X34820D01*
Y7559D01*
X34660D01*
X34700Y7599D02*
Y7679D01*
X34780D01*
Y7599D01*
X34700D01*
X34640Y6819D02*
Y6979D01*
X34800D01*
Y6819D01*
X34640D01*
X34680Y6859D02*
Y6939D01*
X34760D01*
Y6859D01*
X34680D01*
X35050Y6623D02*
Y6783D01*
X35210D01*
Y6623D01*
X35050D01*
X35090Y6663D02*
Y6743D01*
X35170D01*
Y6663D01*
X35090D01*
X47216Y11348D02*
X47136Y11508D01*
X47296D01*
X47216Y11348D01*
X56876D02*
X56796Y11508D01*
X56956D01*
X56876Y11348D01*
X52036Y10629D02*
X52076Y10669D01*
X52116D01*
X52076Y10709D01*
X52116Y10749D01*
X52076D01*
X52036Y10789D01*
X51996Y10749D01*
X51956D01*
X51996Y10709D01*
X51956Y10669D01*
X51996D01*
X52036Y10629D01*
X55964Y4280D02*
X56004Y4360D01*
X55964Y4440D01*
X56044Y4400D01*
X56124Y4440D01*
X56084Y4360D01*
X56124Y4280D01*
X56044Y4320D01*
X55964Y4280D01*
X56457Y5132D02*
X56497Y5212D01*
X56457Y5292D01*
X56537Y5252D01*
X56617Y5292D01*
X56577Y5212D01*
X56617Y5132D01*
X56537Y5172D01*
X56457Y5132D01*
X56949Y5984D02*
X56989Y6064D01*
X56949Y6144D01*
X57029Y6104D01*
X57109Y6144D01*
X57069Y6064D01*
X57109Y5984D01*
X57029Y6024D01*
X56949Y5984D01*
X57441Y6837D02*
X57481Y6917D01*
X57441Y6997D01*
X57521Y6957D01*
X57601Y6997D01*
X57561Y6917D01*
X57601Y6837D01*
X57521Y6877D01*
X57441Y6837D01*
X57933Y7689D02*
X57973Y7769D01*
X57933Y7849D01*
X58013Y7809D01*
X58093Y7849D01*
X58053Y7769D01*
X58093Y7689D01*
X58013Y7729D01*
X57933Y7689D01*
X58425Y8541D02*
X58465Y8622D01*
X58425Y8702D01*
X58505Y8662D01*
X58585Y8702D01*
X58545Y8622D01*
X58585Y8541D01*
X58505Y8582D01*
X58425Y8541D01*
X58917Y9394D02*
X58957Y9474D01*
X58917Y9554D01*
X58997Y9514D01*
X59077Y9554D01*
X59037Y9474D01*
X59077Y9394D01*
X58997Y9434D01*
X58917Y9394D01*
X59409Y10246D02*
X59449Y10326D01*
X59409Y10406D01*
X59489Y10366D01*
X59569Y10406D01*
X59529Y10326D01*
X59569Y10246D01*
X59489Y10286D01*
X59409Y10246D01*
X58136Y14209D02*
Y14169D01*
X58216D01*
Y14209D01*
X58256D01*
Y14289D01*
X58216D01*
Y14329D01*
X58136D01*
Y14289D01*
X58096D01*
Y14209D01*
X58136D01*
X45856D02*
Y14169D01*
X45936D01*
Y14209D01*
X45976D01*
Y14289D01*
X45936D01*
Y14329D01*
X45856D01*
Y14289D01*
X45816D01*
Y14209D01*
X45856D01*
X51996Y3579D02*
Y3539D01*
X52076D01*
Y3579D01*
X52116D01*
Y3659D01*
X52076D01*
Y3699D01*
X51996D01*
Y3659D01*
X51956D01*
Y3579D01*
X51996D01*
X49720Y3419D02*
X49760D01*
X49800Y3459D01*
X49840Y3419D01*
X49880D01*
Y3459D01*
X49840Y3499D01*
X49880Y3539D01*
Y3579D01*
X49840D01*
X49800Y3539D01*
X49760Y3579D01*
X49720D01*
Y3539D01*
X49760Y3499D01*
X49720Y3459D01*
Y3419D01*
X54200D02*
X54240D01*
X54280Y3459D01*
X54320Y3419D01*
X54360D01*
Y3459D01*
X54320Y3499D01*
X54360Y3539D01*
Y3579D01*
X54320D01*
X54280Y3539D01*
X54240Y3579D01*
X54200D01*
Y3539D01*
X54240Y3499D01*
X54200Y3459D01*
Y3419D01*
X59910Y11779D02*
X59990Y11859D01*
X60070Y11779D01*
X59990Y11699D01*
X59910Y11779D01*
X57480Y9449D02*
X57560Y9529D01*
X57640Y9449D01*
X57560Y9369D01*
X57480Y9449D01*
X58170Y10349D02*
X58250Y10429D01*
X58330Y10349D01*
X58250Y10269D01*
X58170Y10349D01*
X50830Y6749D02*
X50910Y6829D01*
X50990Y6749D01*
X50910Y6669D01*
X50830Y6749D01*
X50680Y5869D02*
X50760Y5949D01*
X50840Y5869D01*
X50760Y5789D01*
X50680Y5869D01*
X47664Y9169D02*
X47744Y9249D01*
X47824Y9169D01*
X47744Y9089D01*
X47664Y9169D01*
X50750Y4739D02*
X50830Y4819D01*
X50910Y4739D01*
X50830Y4659D01*
X50750Y4739D01*
X50450Y4749D02*
X50530Y4829D01*
X50610Y4749D01*
X50530Y4669D01*
X50450Y4749D01*
X55750Y7183D02*
Y7343D01*
X55910D01*
Y7183D01*
X55750D01*
X55790Y7223D02*
Y7303D01*
X55870D01*
Y7223D01*
X55790D01*
X58440Y5787D02*
X58520Y5867D01*
X58600Y5787D01*
X58520Y5707D01*
X58440Y5787D01*
X56390Y8539D02*
X56470Y8619D01*
X56550Y8539D01*
X56470Y8459D01*
X56390Y8539D01*
X56450Y7899D02*
X56530Y7979D01*
X56610Y7899D01*
X56530Y7819D01*
X56450Y7899D01*
X50940Y14119D02*
X51020Y14199D01*
X51100Y14119D01*
X51020Y14039D01*
X50940Y14119D01*
X55490Y5909D02*
Y6069D01*
X55650D01*
Y5909D01*
X55490D01*
X55530Y5949D02*
Y6029D01*
X55610D01*
Y5949D01*
X55530D01*
X55340Y6459D02*
Y6619D01*
X55500D01*
Y6459D01*
X55340D01*
X55380Y6499D02*
Y6579D01*
X55460D01*
Y6499D01*
X55380D01*
X48840Y16049D02*
X48920Y16129D01*
X49000Y16049D01*
X48920Y15969D01*
X48840Y16049D01*
X50500Y17409D02*
X50580Y17489D01*
X50660Y17409D01*
X50580Y17329D01*
X50500Y17409D01*
X59090Y6137D02*
X59170Y6217D01*
X59250Y6137D01*
X59170Y6057D01*
X59090Y6137D01*
X56148Y17259D02*
X56228Y17339D01*
X56308Y17259D01*
X56228Y17179D01*
X56148Y17259D01*
X54054Y7142D02*
Y7302D01*
X54214D01*
Y7142D01*
X54054D01*
X54094Y7182D02*
Y7262D01*
X54174D01*
Y7182D01*
X54094D01*
X55125Y15374D02*
X55205Y15454D01*
X55285Y15374D01*
X55205Y15294D01*
X55125Y15374D01*
X56170Y15479D02*
X56250Y15559D01*
X56330Y15479D01*
X56250Y15399D01*
X56170Y15479D01*
X54400Y14829D02*
X54480Y14909D01*
X54560Y14829D01*
X54480Y14749D01*
X54400Y14829D01*
X51160Y16569D02*
X51240Y16649D01*
X51320Y16569D01*
X51240Y16489D01*
X51160Y16569D01*
X56540Y16519D02*
X56620Y16599D01*
X56700Y16519D01*
X56620Y16439D01*
X56540Y16519D01*
X55920Y7559D02*
Y7719D01*
X56080D01*
Y7559D01*
X55920D01*
X55960Y7599D02*
Y7679D01*
X56040D01*
Y7599D01*
X55960D01*
X55900Y6819D02*
Y6979D01*
X56060D01*
Y6819D01*
X55900D01*
X55940Y6859D02*
Y6939D01*
X56020D01*
Y6859D01*
X55940D01*
X56310Y6623D02*
Y6783D01*
X56470D01*
Y6623D01*
X56310D01*
X56350Y6663D02*
Y6743D01*
X56430D01*
Y6663D01*
X56350D01*
X68476Y11348D02*
X68396Y11508D01*
X68556D01*
X68476Y11348D01*
X78136D02*
X78056Y11508D01*
X78216D01*
X78136Y11348D01*
X73296Y10629D02*
X73336Y10669D01*
X73376D01*
X73336Y10709D01*
X73376Y10749D01*
X73336D01*
X73296Y10789D01*
X73256Y10749D01*
X73216D01*
X73256Y10709D01*
X73216Y10669D01*
X73256D01*
X73296Y10629D01*
X77224Y4280D02*
X77264Y4360D01*
X77224Y4440D01*
X77304Y4400D01*
X77384Y4440D01*
X77344Y4360D01*
X77384Y4280D01*
X77304Y4320D01*
X77224Y4280D01*
X77716Y5132D02*
X77756Y5212D01*
X77716Y5292D01*
X77796Y5252D01*
X77876Y5292D01*
X77836Y5212D01*
X77876Y5132D01*
X77796Y5172D01*
X77716Y5132D01*
X78208Y5984D02*
X78249Y6064D01*
X78208Y6144D01*
X78288Y6104D01*
X78369Y6144D01*
X78328Y6064D01*
X78369Y5984D01*
X78288Y6024D01*
X78208Y5984D01*
X78701Y6837D02*
X78741Y6917D01*
X78701Y6997D01*
X78781Y6957D01*
X78861Y6997D01*
X78821Y6917D01*
X78861Y6837D01*
X78781Y6877D01*
X78701Y6837D01*
X79193Y7689D02*
X79233Y7769D01*
X79193Y7849D01*
X79273Y7809D01*
X79353Y7849D01*
X79313Y7769D01*
X79353Y7689D01*
X79273Y7729D01*
X79193Y7689D01*
X79685Y8541D02*
X79725Y8622D01*
X79685Y8702D01*
X79765Y8662D01*
X79845Y8702D01*
X79805Y8622D01*
X79845Y8541D01*
X79765Y8582D01*
X79685Y8541D01*
X80177Y9394D02*
X80217Y9474D01*
X80177Y9554D01*
X80257Y9514D01*
X80337Y9554D01*
X80297Y9474D01*
X80337Y9394D01*
X80257Y9434D01*
X80177Y9394D01*
X80669Y10246D02*
X80709Y10326D01*
X80669Y10406D01*
X80749Y10366D01*
X80829Y10406D01*
X80789Y10326D01*
X80829Y10246D01*
X80749Y10286D01*
X80669Y10246D01*
X79396Y14209D02*
Y14169D01*
X79476D01*
Y14209D01*
X79516D01*
Y14289D01*
X79476D01*
Y14329D01*
X79396D01*
Y14289D01*
X79356D01*
Y14209D01*
X79396D01*
X67116D02*
Y14169D01*
X67196D01*
Y14209D01*
X67236D01*
Y14289D01*
X67196D01*
Y14329D01*
X67116D01*
Y14289D01*
X67076D01*
Y14209D01*
X67116D01*
X73256Y3579D02*
Y3539D01*
X73336D01*
Y3579D01*
X73376D01*
Y3659D01*
X73336D01*
Y3699D01*
X73256D01*
Y3659D01*
X73216D01*
Y3579D01*
X73256D01*
X70980Y3419D02*
X71020D01*
X71060Y3459D01*
X71100Y3419D01*
X71140D01*
Y3459D01*
X71100Y3499D01*
X71140Y3539D01*
Y3579D01*
X71100D01*
X71060Y3539D01*
X71020Y3579D01*
X70980D01*
Y3539D01*
X71020Y3499D01*
X70980Y3459D01*
Y3419D01*
X75460D02*
X75500D01*
X75540Y3459D01*
X75580Y3419D01*
X75620D01*
Y3459D01*
X75580Y3499D01*
X75620Y3539D01*
Y3579D01*
X75580D01*
X75540Y3539D01*
X75500Y3579D01*
X75460D01*
Y3539D01*
X75500Y3499D01*
X75460Y3459D01*
Y3419D01*
X81170Y11779D02*
X81250Y11859D01*
X81330Y11779D01*
X81250Y11699D01*
X81170Y11779D01*
X78740Y9449D02*
X78820Y9529D01*
X78900Y9449D01*
X78820Y9369D01*
X78740Y9449D01*
X79430Y10349D02*
X79510Y10429D01*
X79590Y10349D01*
X79510Y10269D01*
X79430Y10349D01*
X72090Y6749D02*
X72170Y6829D01*
X72250Y6749D01*
X72170Y6669D01*
X72090Y6749D01*
X71940Y5869D02*
X72020Y5949D01*
X72100Y5869D01*
X72020Y5789D01*
X71940Y5869D01*
X68924Y9169D02*
X69004Y9249D01*
X69084Y9169D01*
X69004Y9089D01*
X68924Y9169D01*
X72010Y4739D02*
X72090Y4819D01*
X72170Y4739D01*
X72090Y4659D01*
X72010Y4739D01*
X71710Y4749D02*
X71790Y4829D01*
X71870Y4749D01*
X71790Y4669D01*
X71710Y4749D01*
X77010Y7183D02*
Y7343D01*
X77170D01*
Y7183D01*
X77010D01*
X77050Y7223D02*
Y7303D01*
X77130D01*
Y7223D01*
X77050D01*
X79700Y5787D02*
X79780Y5867D01*
X79860Y5787D01*
X79780Y5707D01*
X79700Y5787D01*
X77650Y8539D02*
X77730Y8619D01*
X77810Y8539D01*
X77730Y8459D01*
X77650Y8539D01*
X77710Y7899D02*
X77790Y7979D01*
X77870Y7899D01*
X77790Y7819D01*
X77710Y7899D01*
X72200Y14119D02*
X72280Y14199D01*
X72360Y14119D01*
X72280Y14039D01*
X72200Y14119D01*
X76750Y5909D02*
Y6069D01*
X76910D01*
Y5909D01*
X76750D01*
X76790Y5949D02*
Y6029D01*
X76870D01*
Y5949D01*
X76790D01*
X76600Y6459D02*
Y6619D01*
X76760D01*
Y6459D01*
X76600D01*
X76640Y6499D02*
Y6579D01*
X76720D01*
Y6499D01*
X76640D01*
X70100Y16049D02*
X70180Y16129D01*
X70260Y16049D01*
X70180Y15969D01*
X70100Y16049D01*
X71760Y17409D02*
X71840Y17489D01*
X71920Y17409D01*
X71840Y17329D01*
X71760Y17409D01*
X80350Y6137D02*
X80430Y6217D01*
X80510Y6137D01*
X80430Y6057D01*
X80350Y6137D01*
X77408Y17259D02*
X77488Y17339D01*
X77568Y17259D01*
X77488Y17179D01*
X77408Y17259D01*
X75314Y7142D02*
Y7302D01*
X75474D01*
Y7142D01*
X75314D01*
X75354Y7182D02*
Y7262D01*
X75434D01*
Y7182D01*
X75354D01*
X76385Y15374D02*
X76465Y15454D01*
X76545Y15374D01*
X76465Y15294D01*
X76385Y15374D01*
X77430Y15479D02*
X77510Y15559D01*
X77590Y15479D01*
X77510Y15399D01*
X77430Y15479D01*
X75660Y14829D02*
X75740Y14909D01*
X75820Y14829D01*
X75740Y14749D01*
X75660Y14829D01*
X72420Y16569D02*
X72500Y16649D01*
X72580Y16569D01*
X72500Y16489D01*
X72420Y16569D01*
X77800Y16519D02*
X77880Y16599D01*
X77960Y16519D01*
X77880Y16439D01*
X77800Y16519D01*
X77180Y7559D02*
Y7719D01*
X77340D01*
Y7559D01*
X77180D01*
X77220Y7599D02*
Y7679D01*
X77300D01*
Y7599D01*
X77220D01*
X77160Y6819D02*
Y6979D01*
X77320D01*
Y6819D01*
X77160D01*
X77200Y6859D02*
Y6939D01*
X77280D01*
Y6859D01*
X77200D01*
X77570Y6623D02*
Y6783D01*
X77730D01*
Y6623D01*
X77570D01*
X77610Y6663D02*
Y6743D01*
X77690D01*
Y6663D01*
X77610D01*
D149*
X13640Y14843D02*
G03*
X13640Y14843I-80J0D01*
G01*
X13640Y14055D02*
G03*
X13640Y14055I-80J0D01*
G01*
X7143Y6370D02*
G03*
X7143Y6370I-80J0D01*
G01*
X7537Y5688D02*
G03*
X7537Y5688I-80J0D01*
G01*
X11520Y5226D02*
G03*
X11520Y5226I-80J0D01*
G01*
X11520Y6013D02*
G03*
X11520Y6013I-80J0D01*
G01*
X6231Y5036D02*
G03*
X6231Y5036I-80J0D01*
G01*
X5549Y4643D02*
G03*
X5549Y4643I-80J0D01*
G01*
X2699Y9553D02*
G03*
X2699Y9553I-80J0D01*
G01*
X3381Y9946D02*
G03*
X3381Y9946I-80J0D01*
G01*
X3649Y7913D02*
G03*
X3649Y7913I-80J0D01*
G01*
X4331Y8306D02*
G03*
X4331Y8306I-80J0D01*
G01*
X5281Y6666D02*
G03*
X5281Y6666I-80J0D01*
G01*
X4599Y6273D02*
G03*
X4599Y6273I-80J0D01*
G01*
X34900Y14843D02*
G03*
X34900Y14843I-80J0D01*
G01*
X34900Y14055D02*
G03*
X34900Y14055I-80J0D01*
G01*
X28403Y6370D02*
G03*
X28403Y6370I-80J0D01*
G01*
X28797Y5688D02*
G03*
X28797Y5688I-80J0D01*
G01*
X32780Y5226D02*
G03*
X32780Y5226I-80J0D01*
G01*
X32780Y6013D02*
G03*
X32780Y6013I-80J0D01*
G01*
X27491Y5036D02*
G03*
X27491Y5036I-80J0D01*
G01*
X26809Y4643D02*
G03*
X26809Y4643I-80J0D01*
G01*
X23959Y9553D02*
G03*
X23959Y9553I-80J0D01*
G01*
X24641Y9946D02*
G03*
X24641Y9946I-80J0D01*
G01*
X24909Y7913D02*
G03*
X24909Y7913I-80J0D01*
G01*
X25591Y8306D02*
G03*
X25591Y8306I-80J0D01*
G01*
X26541Y6666D02*
G03*
X26541Y6666I-80J0D01*
G01*
X25859Y6273D02*
G03*
X25859Y6273I-80J0D01*
G01*
X56160Y14843D02*
G03*
X56160Y14843I-80J0D01*
G01*
X56160Y14055D02*
G03*
X56160Y14055I-80J0D01*
G01*
X49663Y6370D02*
G03*
X49663Y6370I-80J0D01*
G01*
X50057Y5688D02*
G03*
X50057Y5688I-80J0D01*
G01*
X54040Y5226D02*
G03*
X54040Y5226I-80J0D01*
G01*
X54040Y6013D02*
G03*
X54040Y6013I-80J0D01*
G01*
X48751Y5036D02*
G03*
X48751Y5036I-80J0D01*
G01*
X48069Y4643D02*
G03*
X48069Y4643I-80J0D01*
G01*
X45219Y9553D02*
G03*
X45219Y9553I-80J0D01*
G01*
X45901Y9946D02*
G03*
X45901Y9946I-80J0D01*
G01*
X46169Y7913D02*
G03*
X46169Y7913I-80J0D01*
G01*
X46851Y8306D02*
G03*
X46851Y8306I-80J0D01*
G01*
X47801Y6666D02*
G03*
X47801Y6666I-80J0D01*
G01*
X47119Y6273D02*
G03*
X47119Y6273I-80J0D01*
G01*
X77419Y14843D02*
G03*
X77419Y14843I-80J0D01*
G01*
X77419Y14055D02*
G03*
X77419Y14055I-80J0D01*
G01*
X70923Y6370D02*
G03*
X70923Y6370I-80J0D01*
G01*
X71316Y5688D02*
G03*
X71316Y5688I-80J0D01*
G01*
X75300Y5226D02*
G03*
X75300Y5226I-80J0D01*
G01*
X75300Y6013D02*
G03*
X75300Y6013I-80J0D01*
G01*
X70010Y5036D02*
G03*
X70010Y5036I-80J0D01*
G01*
X69329Y4643D02*
G03*
X69329Y4643I-80J0D01*
G01*
X66479Y9553D02*
G03*
X66479Y9553I-80J0D01*
G01*
X67160Y9946D02*
G03*
X67160Y9946I-80J0D01*
G01*
X67429Y7913D02*
G03*
X67429Y7913I-80J0D01*
G01*
X68110Y8306D02*
G03*
X68110Y8306I-80J0D01*
G01*
X69060Y6666D02*
G03*
X69060Y6666I-80J0D01*
G01*
X68379Y6273D02*
G03*
X68379Y6273I-80J0D01*
G01*
M02*
