G04 Layer_Color=32768*
%FSLAX24Y24*%
%MOIN*%
G70*
G01*
G75*
%ADD101C,0.0039*%
%ADD107C,0.0020*%
%ADD108C,0.0020*%
D101*
X6687Y14775D02*
X7081D01*
X6884Y14578D02*
X6884Y14972D01*
X11695Y4867D02*
Y5261D01*
X11498Y5064D02*
X11892D01*
X6877Y16588D02*
Y16982D01*
X6680Y16785D02*
X7074D01*
X12193Y15979D02*
X12587D01*
X12390Y15783D02*
Y16176D01*
X8078Y5189D02*
X8472D01*
X8275Y4992D02*
Y5386D01*
X9334Y5189D02*
X9727D01*
X9531Y4992D02*
Y5386D01*
X9334Y5939D02*
X9727D01*
X9531Y5742D02*
Y6136D01*
X8078Y5939D02*
X8472D01*
X8275Y5742D02*
Y6136D01*
X27947Y14775D02*
X28341D01*
X28144Y14578D02*
X28144Y14972D01*
X32955Y4867D02*
Y5261D01*
X32758Y5064D02*
X33152D01*
X28137Y16588D02*
Y16982D01*
X27940Y16785D02*
X28334D01*
X33453Y15979D02*
X33847D01*
X33650Y15783D02*
Y16176D01*
X29338Y5189D02*
X29732D01*
X29535Y4992D02*
Y5386D01*
X30594Y5189D02*
X30987D01*
X30790Y4992D02*
Y5386D01*
X30594Y5939D02*
X30987D01*
X30790Y5742D02*
Y6136D01*
X29338Y5939D02*
X29732D01*
X29535Y5742D02*
Y6136D01*
X49207Y14775D02*
X49600D01*
X49404Y14578D02*
X49404Y14972D01*
X54215Y4867D02*
Y5261D01*
X54018Y5064D02*
X54412D01*
X49397Y16588D02*
Y16982D01*
X49200Y16785D02*
X49594D01*
X54713Y15979D02*
X55107D01*
X54910Y15783D02*
Y16176D01*
X50598Y5189D02*
X50992D01*
X50795Y4992D02*
Y5386D01*
X51853Y5189D02*
X52247D01*
X52050Y4992D02*
Y5386D01*
X51853Y5939D02*
X52247D01*
X52050Y5742D02*
Y6136D01*
X50598Y5939D02*
X50992D01*
X50795Y5742D02*
Y6136D01*
X70467Y14775D02*
X70860D01*
X70663Y14578D02*
X70663Y14972D01*
X75475Y4867D02*
Y5261D01*
X75278Y5064D02*
X75672D01*
X70657Y16588D02*
Y16982D01*
X70460Y16785D02*
X70853D01*
X75973Y15979D02*
X76366D01*
X76170Y15783D02*
Y16176D01*
X71858Y5189D02*
X72252D01*
X72055Y4992D02*
Y5386D01*
X73113Y5189D02*
X73507D01*
X73310Y4992D02*
Y5386D01*
X73113Y5939D02*
X73507D01*
X73310Y5742D02*
Y6136D01*
X71858Y5939D02*
X72252D01*
X72055Y5742D02*
Y6136D01*
D107*
X8113Y14219D02*
X8890D01*
X8113Y15776D02*
X8890D01*
X8113Y14219D02*
Y15776D01*
X8890Y14219D02*
Y15776D01*
X8203Y16889D02*
X8980D01*
X8203Y18446D02*
X8980D01*
X8203Y16889D02*
Y18446D01*
X8980Y16889D02*
Y18446D01*
X5998Y13204D02*
Y13755D01*
Y13204D02*
X7002D01*
Y13755D01*
X5998Y13755D02*
X7002Y13755D01*
X12958Y16244D02*
Y16795D01*
Y16244D02*
X13962D01*
Y16795D01*
X12958D02*
X13962D01*
X12958Y15604D02*
Y16155D01*
Y15604D02*
X13962D01*
Y16155D01*
X12958D02*
X13962D01*
X7948Y16465D02*
X8952D01*
Y15914D02*
Y16465D01*
X7948Y15914D02*
X8952D01*
X7948D02*
Y16465D01*
X11274Y14522D02*
X11826D01*
Y15526D01*
X11274D02*
X11826D01*
X11274Y14522D02*
Y15526D01*
Y15572D02*
Y16576D01*
X11826D01*
Y15572D02*
Y16576D01*
X11274Y15572D02*
X11826D01*
X9139Y18032D02*
X9691D01*
Y19036D01*
X9139D02*
X9691D01*
X9139Y18032D02*
Y19036D01*
X9308Y15674D02*
X10312D01*
X9308D02*
Y16225D01*
X10312D01*
Y15674D02*
Y16225D01*
X10317Y16338D02*
Y16889D01*
X9313D02*
X10317D01*
X9313Y16338D02*
Y16889D01*
Y16338D02*
X10317D01*
X10659Y14836D02*
Y15840D01*
X11211D01*
Y14836D02*
Y15840D01*
X10659Y14836D02*
X11211D01*
X10747Y18418D02*
Y18969D01*
X9743D02*
X10747D01*
X9743Y18418D02*
Y18969D01*
Y18418D02*
X10747D01*
X29373Y14219D02*
X30150D01*
X29373Y15776D02*
X30150D01*
X29373Y14219D02*
Y15776D01*
X30150Y14219D02*
Y15776D01*
X29463Y16889D02*
X30240D01*
X29463Y18446D02*
X30240D01*
X29463Y16889D02*
Y18446D01*
X30240Y16889D02*
Y18446D01*
X27258Y13204D02*
Y13755D01*
Y13204D02*
X28262D01*
Y13755D01*
X27258Y13755D02*
X28262Y13755D01*
X34218Y16244D02*
Y16795D01*
Y16244D02*
X35222D01*
Y16795D01*
X34218D02*
X35222D01*
X34218Y15604D02*
Y16155D01*
Y15604D02*
X35222D01*
Y16155D01*
X34218D02*
X35222D01*
X29208Y16465D02*
X30212D01*
Y15914D02*
Y16465D01*
X29208Y15914D02*
X30212D01*
X29208D02*
Y16465D01*
X32534Y14522D02*
X33085D01*
Y15526D01*
X32534D02*
X33085D01*
X32534Y14522D02*
Y15526D01*
Y15572D02*
Y16576D01*
X33085D01*
Y15572D02*
Y16576D01*
X32534Y15572D02*
X33085D01*
X30399Y18032D02*
X30951D01*
Y19036D01*
X30399D02*
X30951D01*
X30399Y18032D02*
Y19036D01*
X30568Y15674D02*
X31572D01*
X30568D02*
Y16225D01*
X31572D01*
Y15674D02*
Y16225D01*
X31577Y16338D02*
Y16889D01*
X30573D02*
X31577D01*
X30573Y16338D02*
Y16889D01*
Y16338D02*
X31577D01*
X31919Y14836D02*
Y15840D01*
X32471D01*
Y14836D02*
Y15840D01*
X31919Y14836D02*
X32471D01*
X32007Y18418D02*
Y18969D01*
X31003D02*
X32007D01*
X31003Y18418D02*
Y18969D01*
Y18418D02*
X32007D01*
X50633Y14219D02*
X51410D01*
X50633Y15776D02*
X51410D01*
X50633Y14219D02*
Y15776D01*
X51410Y14219D02*
Y15776D01*
X50723Y16889D02*
X51500D01*
X50723Y18446D02*
X51500D01*
X50723Y16889D02*
Y18446D01*
X51500Y16889D02*
Y18446D01*
X48518Y13204D02*
Y13755D01*
Y13204D02*
X49522D01*
Y13755D01*
X48518Y13755D02*
X49522Y13755D01*
X55478Y16244D02*
Y16795D01*
Y16244D02*
X56482D01*
Y16795D01*
X55478D02*
X56482D01*
X55478Y15604D02*
Y16155D01*
Y15604D02*
X56482D01*
Y16155D01*
X55478D02*
X56482D01*
X50468Y16465D02*
X51472D01*
Y15914D02*
Y16465D01*
X50468Y15914D02*
X51472D01*
X50468D02*
Y16465D01*
X53794Y14522D02*
X54345D01*
Y15526D01*
X53794D02*
X54345D01*
X53794Y14522D02*
Y15526D01*
Y15572D02*
Y16576D01*
X54345D01*
Y15572D02*
Y16576D01*
X53794Y15572D02*
X54345D01*
X51659Y18032D02*
X52210D01*
Y19036D01*
X51659D02*
X52210D01*
X51659Y18032D02*
Y19036D01*
X51828Y15674D02*
X52832D01*
X51828D02*
Y16225D01*
X52832D01*
Y15674D02*
Y16225D01*
X52837Y16338D02*
Y16889D01*
X51833D02*
X52837D01*
X51833Y16338D02*
Y16889D01*
Y16338D02*
X52837D01*
X53179Y14836D02*
Y15840D01*
X53730D01*
Y14836D02*
Y15840D01*
X53179Y14836D02*
X53730D01*
X53267Y18418D02*
Y18969D01*
X52263D02*
X53267D01*
X52263Y18418D02*
Y18969D01*
Y18418D02*
X53267D01*
X71893Y14219D02*
X72670D01*
X71893Y15776D02*
X72670D01*
X71893Y14219D02*
Y15776D01*
X72670Y14219D02*
Y15776D01*
X71983Y16889D02*
X72760D01*
X71983Y18446D02*
X72760D01*
X71983Y16889D02*
Y18446D01*
X72760Y16889D02*
Y18446D01*
X69778Y13204D02*
Y13755D01*
Y13204D02*
X70781D01*
Y13755D01*
X69778Y13755D02*
X70781Y13755D01*
X76738Y16244D02*
Y16795D01*
Y16244D02*
X77741D01*
Y16795D01*
X76738D02*
X77741D01*
X76738Y15604D02*
Y16155D01*
Y15604D02*
X77741D01*
Y16155D01*
X76738D02*
X77741D01*
X71728Y16465D02*
X72731D01*
Y15914D02*
Y16465D01*
X71728Y15914D02*
X72731D01*
X71728D02*
Y16465D01*
X75054Y14522D02*
X75605D01*
Y15526D01*
X75054D02*
X75605D01*
X75054Y14522D02*
Y15526D01*
Y15572D02*
Y16576D01*
X75605D01*
Y15572D02*
Y16576D01*
X75054Y15572D02*
X75605D01*
X72919Y18032D02*
X73470D01*
Y19036D01*
X72919D02*
X73470D01*
X72919Y18032D02*
Y19036D01*
X73088Y15674D02*
X74091D01*
X73088D02*
Y16225D01*
X74091D01*
Y15674D02*
Y16225D01*
X74097Y16338D02*
Y16889D01*
X73093D02*
X74097D01*
X73093Y16338D02*
Y16889D01*
Y16338D02*
X74097D01*
X74439Y14836D02*
Y15840D01*
X74990D01*
Y14836D02*
Y15840D01*
X74439Y14836D02*
X74990D01*
X74527Y18418D02*
Y18969D01*
X73523D02*
X74527D01*
X73523Y18418D02*
Y18969D01*
Y18418D02*
X74527D01*
D108*
X7868Y13830D02*
Y15720D01*
X6175Y13830D02*
Y15720D01*
Y13830D02*
X7868D01*
X6175Y15720D02*
X7868Y15720D01*
X11380Y4493D02*
X12010D01*
X11380Y5635D02*
X12010D01*
X11380Y4493D02*
Y5635D01*
X12010Y4493D02*
Y5635D01*
X6168Y17730D02*
X7861D01*
X6168Y15840D02*
X7861D01*
X6168D02*
Y17730D01*
X7861Y15840D02*
Y17730D01*
X11898Y15487D02*
Y16472D01*
X12882Y15487D02*
Y16472D01*
X11898D02*
X12882D01*
X11898Y15487D02*
X12882D01*
X7704Y4874D02*
Y5504D01*
X8846Y4874D02*
Y5504D01*
X7704D02*
X8846D01*
X7704Y4874D02*
X8846D01*
X8960D02*
Y5504D01*
X10101Y4874D02*
Y5504D01*
X8960D02*
X10101D01*
X8960Y4874D02*
X10101D01*
X8960Y5624D02*
Y6254D01*
X10101Y5624D02*
Y6254D01*
X8960D02*
X10101D01*
X8960Y5624D02*
X10101D01*
X7704D02*
Y6254D01*
X8846Y5624D02*
Y6254D01*
X7704D02*
X8846D01*
X7704Y5624D02*
X8846D01*
X29128Y13830D02*
Y15720D01*
X27435Y13830D02*
Y15720D01*
Y13830D02*
X29128D01*
X27435Y15720D02*
X29128Y15720D01*
X32640Y4493D02*
X33270D01*
X32640Y5635D02*
X33270D01*
X32640Y4493D02*
Y5635D01*
X33270Y4493D02*
Y5635D01*
X27428Y17730D02*
X29121D01*
X27428Y15840D02*
X29121D01*
X27428D02*
Y17730D01*
X29121Y15840D02*
Y17730D01*
X33158Y15487D02*
Y16472D01*
X34142Y15487D02*
Y16472D01*
X33158D02*
X34142D01*
X33158Y15487D02*
X34142D01*
X28964Y4874D02*
Y5504D01*
X30106Y4874D02*
Y5504D01*
X28964D02*
X30106D01*
X28964Y4874D02*
X30106D01*
X30220D02*
Y5504D01*
X31361Y4874D02*
Y5504D01*
X30220D02*
X31361D01*
X30220Y4874D02*
X31361D01*
X30220Y5624D02*
Y6254D01*
X31361Y5624D02*
Y6254D01*
X30220D02*
X31361D01*
X30220Y5624D02*
X31361D01*
X28964D02*
Y6254D01*
X30106Y5624D02*
Y6254D01*
X28964D02*
X30106D01*
X28964Y5624D02*
X30106D01*
X50388Y13830D02*
Y15720D01*
X48695Y13830D02*
Y15720D01*
Y13830D02*
X50388D01*
X48695Y15720D02*
X50388Y15720D01*
X53900Y4493D02*
X54530D01*
X53900Y5635D02*
X54530D01*
X53900Y4493D02*
Y5635D01*
X54530Y4493D02*
Y5635D01*
X48688Y17730D02*
X50381D01*
X48688Y15840D02*
X50381D01*
X48688D02*
Y17730D01*
X50381Y15840D02*
Y17730D01*
X54418Y15487D02*
Y16472D01*
X55402Y15487D02*
Y16472D01*
X54418D02*
X55402D01*
X54418Y15487D02*
X55402D01*
X50224Y4874D02*
Y5504D01*
X51366Y4874D02*
Y5504D01*
X50224D02*
X51366D01*
X50224Y4874D02*
X51366D01*
X51479D02*
Y5504D01*
X52621Y4874D02*
Y5504D01*
X51479D02*
X52621D01*
X51479Y4874D02*
X52621D01*
X51479Y5624D02*
Y6254D01*
X52621Y5624D02*
Y6254D01*
X51479D02*
X52621D01*
X51479Y5624D02*
X52621D01*
X50224D02*
Y6254D01*
X51366Y5624D02*
Y6254D01*
X50224D02*
X51366D01*
X50224Y5624D02*
X51366D01*
X71648Y13830D02*
Y15720D01*
X69955Y13830D02*
Y15720D01*
Y13830D02*
X71648D01*
X69955Y15720D02*
X71648Y15720D01*
X75160Y4493D02*
X75790D01*
X75160Y5635D02*
X75790D01*
X75160Y4493D02*
Y5635D01*
X75790Y4493D02*
Y5635D01*
X69948Y17730D02*
X71641D01*
X69948Y15840D02*
X71641D01*
X69948D02*
Y17730D01*
X71641Y15840D02*
Y17730D01*
X75677Y15487D02*
Y16472D01*
X76662Y15487D02*
Y16472D01*
X75677D02*
X76662D01*
X75677Y15487D02*
X76662D01*
X71484Y4874D02*
Y5504D01*
X72626Y4874D02*
Y5504D01*
X71484D02*
X72626D01*
X71484Y4874D02*
X72626D01*
X72739D02*
Y5504D01*
X73881Y4874D02*
Y5504D01*
X72739D02*
X73881D01*
X72739Y4874D02*
X73881D01*
X72739Y5624D02*
Y6254D01*
X73881Y5624D02*
Y6254D01*
X72739D02*
X73881D01*
X72739Y5624D02*
X73881D01*
X71484D02*
Y6254D01*
X72626Y5624D02*
Y6254D01*
X71484D02*
X72626D01*
X71484Y5624D02*
X72626D01*
M02*
