G04 Layer_Physical_Order=2*
G04 Layer_Color=16711680*
%FSLAX24Y24*%
%MOIN*%
G70*
G01*
G75*
%ADD10C,0.0070*%
G04:AMPARAMS|DCode=11|XSize=78.7mil|YSize=78.7mil|CornerRadius=39.4mil|HoleSize=0mil|Usage=FLASHONLY|Rotation=90.000|XOffset=0mil|YOffset=0mil|HoleType=Round|Shape=RoundedRectangle|*
%AMROUNDEDRECTD11*
21,1,0.0787,0.0000,0,0,90.0*
21,1,0.0000,0.0787,0,0,90.0*
1,1,0.0787,0.0000,0.0000*
1,1,0.0787,0.0000,0.0000*
1,1,0.0787,0.0000,0.0000*
1,1,0.0787,0.0000,0.0000*
%
%ADD11ROUNDEDRECTD11*%
%ADD12C,0.0100*%
%ADD29C,0.0080*%
%ADD30C,0.0130*%
%ADD31C,0.0300*%
%ADD33C,0.0800*%
%ADD36C,0.0748*%
%ADD39C,0.0800*%
%ADD40P,0.0990X4X165.0*%
%ADD41P,0.0866X8X22.5*%
%ADD42C,0.0300*%
%ADD43C,0.0400*%
%ADD44C,0.0500*%
%ADD45C,0.0600*%
%ADD46C,0.1400*%
%ADD47C,0.0650*%
%ADD48C,0.0500*%
%ADD49C,0.0450*%
%ADD50C,0.0220*%
%ADD51C,0.1000*%
%ADD52C,0.3937*%
G36*
X80319Y22843D02*
Y20845D01*
X2755Y20845D01*
Y22843D01*
X80319Y22843D01*
D02*
G37*
G36*
X75875Y18674D02*
X77845D01*
X77905Y18614D01*
X79956Y15013D01*
X79956Y14836D01*
X79911Y14815D01*
X79849Y14866D01*
X79720Y14935D01*
X79581Y14977D01*
X79436Y14991D01*
X79291Y14977D01*
X79152Y14935D01*
X79024Y14866D01*
X78911Y14774D01*
X78819Y14661D01*
X78750Y14533D01*
X78708Y14394D01*
X78693Y14249D01*
X78708Y14104D01*
X78750Y13964D01*
X78819Y13836D01*
X78911Y13724D01*
X79024Y13631D01*
X79152Y13563D01*
X79291Y13520D01*
X79436Y13506D01*
X79581Y13520D01*
X79720Y13563D01*
X79849Y13631D01*
X79913Y13684D01*
X79958Y13662D01*
X79958Y13488D01*
X79557Y13087D01*
X79556Y13088D01*
X79516Y13029D01*
X79502Y12959D01*
X79516Y12890D01*
X79556Y12831D01*
X79556Y12831D01*
X79592Y12796D01*
X79959Y12429D01*
X79960Y11359D01*
X80470Y10849D01*
X78191Y6985D01*
X78141Y6979D01*
X77715Y7427D01*
X77716Y7719D01*
X77775Y7896D01*
X77823Y7905D01*
X77889Y7949D01*
X77933Y8016D01*
X77949Y8094D01*
X77933Y8172D01*
X77889Y8238D01*
X77823Y8282D01*
X77794Y8288D01*
X77767Y8330D01*
X78407Y11116D01*
X78935Y11644D01*
Y12424D01*
X78285Y13074D01*
X76445Y13074D01*
X75535Y13074D01*
X74215Y13849D01*
X71830D01*
X71054Y13074D01*
X69888Y13074D01*
X69310Y13651D01*
X69310Y14951D01*
X69330Y14957D01*
X69335Y14959D01*
X69340Y14960D01*
X69349Y14966D01*
X69358Y14970D01*
X69361Y14974D01*
X69366Y14977D01*
X69618Y15230D01*
X69621Y15234D01*
X69625Y15237D01*
X69629Y15247D01*
X69635Y15255D01*
X69636Y15260D01*
X69638Y15265D01*
X69731Y15609D01*
X69731Y15615D01*
X69733Y15620D01*
X69732Y15630D01*
X69733Y15640D01*
X69731Y15645D01*
X69731Y15650D01*
X69638Y15995D01*
X69636Y16000D01*
X69635Y16005D01*
X69629Y16013D01*
X69625Y16023D01*
X69621Y16026D01*
X69618Y16030D01*
X69366Y16283D01*
X69357Y16288D01*
X69349Y16295D01*
X69310Y16318D01*
X69310Y17719D01*
X70245Y18654D01*
X71154D01*
X71816Y19316D01*
X75233D01*
X75875Y18674D01*
D02*
G37*
G36*
X54615D02*
X56585D01*
X56645Y18614D01*
X58696Y15013D01*
X58697Y14836D01*
X58651Y14815D01*
X58589Y14866D01*
X58460Y14935D01*
X58321Y14977D01*
X58176Y14991D01*
X58031Y14977D01*
X57892Y14935D01*
X57764Y14866D01*
X57651Y14774D01*
X57559Y14661D01*
X57490Y14533D01*
X57448Y14394D01*
X57434Y14249D01*
X57448Y14104D01*
X57490Y13964D01*
X57559Y13836D01*
X57651Y13724D01*
X57764Y13631D01*
X57892Y13563D01*
X58031Y13520D01*
X58176Y13506D01*
X58321Y13520D01*
X58460Y13563D01*
X58589Y13631D01*
X58653Y13684D01*
X58698Y13662D01*
X58698Y13488D01*
X58297Y13087D01*
X58296Y13088D01*
X58256Y13029D01*
X58242Y12959D01*
X58256Y12890D01*
X58296Y12831D01*
X58296Y12831D01*
X58332Y12796D01*
X58699Y12429D01*
X58700Y11359D01*
X59210Y10849D01*
X56931Y6985D01*
X56881Y6979D01*
X56455Y7427D01*
X56456Y7719D01*
X56516Y7896D01*
X56563Y7905D01*
X56629Y7949D01*
X56673Y8016D01*
X56689Y8094D01*
X56673Y8172D01*
X56629Y8238D01*
X56563Y8282D01*
X56534Y8288D01*
X56507Y8330D01*
X57147Y11116D01*
X57675Y11644D01*
Y12424D01*
X57025Y13074D01*
X55185Y13074D01*
X54275Y13074D01*
X52955Y13849D01*
X50570D01*
X49794Y13074D01*
X48628Y13074D01*
X48050Y13651D01*
X48050Y14951D01*
X48070Y14957D01*
X48075Y14959D01*
X48080Y14960D01*
X48089Y14966D01*
X48098Y14970D01*
X48102Y14974D01*
X48106Y14977D01*
X48358Y15230D01*
X48361Y15234D01*
X48365Y15237D01*
X48370Y15247D01*
X48375Y15255D01*
X48376Y15260D01*
X48379Y15265D01*
X48471Y15609D01*
X48471Y15615D01*
X48473Y15620D01*
X48472Y15630D01*
X48473Y15640D01*
X48471Y15645D01*
X48471Y15650D01*
X48379Y15995D01*
X48376Y16000D01*
X48375Y16005D01*
X48370Y16013D01*
X48365Y16023D01*
X48361Y16026D01*
X48358Y16030D01*
X48106Y16283D01*
X48097Y16288D01*
X48090Y16295D01*
X48050Y16318D01*
X48050Y17719D01*
X48985Y18654D01*
X49894D01*
X50556Y19316D01*
X53973D01*
X54615Y18674D01*
D02*
G37*
G36*
X33355D02*
X35325D01*
X35385Y18614D01*
X37437Y15013D01*
X37437Y14836D01*
X37392Y14815D01*
X37329Y14866D01*
X37201Y14935D01*
X37061Y14977D01*
X36916Y14991D01*
X36772Y14977D01*
X36632Y14935D01*
X36504Y14866D01*
X36391Y14774D01*
X36299Y14661D01*
X36230Y14533D01*
X36188Y14394D01*
X36174Y14249D01*
X36188Y14104D01*
X36230Y13964D01*
X36299Y13836D01*
X36391Y13724D01*
X36504Y13631D01*
X36632Y13563D01*
X36772Y13520D01*
X36916Y13506D01*
X37061Y13520D01*
X37201Y13563D01*
X37329Y13631D01*
X37393Y13684D01*
X37438Y13662D01*
X37438Y13488D01*
X37037Y13087D01*
X37036Y13088D01*
X36996Y13029D01*
X36982Y12959D01*
X36996Y12890D01*
X37036Y12831D01*
X37036Y12831D01*
X37072Y12796D01*
X37439Y12429D01*
X37441Y11359D01*
X37950Y10849D01*
X35671Y6985D01*
X35621Y6979D01*
X35195Y7427D01*
X35197Y7719D01*
X35256Y7896D01*
X35303Y7905D01*
X35369Y7949D01*
X35413Y8016D01*
X35429Y8094D01*
X35413Y8172D01*
X35369Y8238D01*
X35303Y8282D01*
X35274Y8288D01*
X35247Y8330D01*
X35888Y11116D01*
X36415Y11644D01*
Y12424D01*
X35766Y13074D01*
X33925Y13074D01*
X33016Y13074D01*
X31695Y13849D01*
X29310D01*
X28534Y13074D01*
X27368Y13074D01*
X26790Y13651D01*
X26790Y14951D01*
X26811Y14957D01*
X26815Y14959D01*
X26820Y14960D01*
X26829Y14966D01*
X26838Y14970D01*
X26842Y14974D01*
X26846Y14977D01*
X27098Y15230D01*
X27101Y15234D01*
X27105Y15237D01*
X27110Y15247D01*
X27115Y15255D01*
X27116Y15260D01*
X27119Y15265D01*
X27211Y15609D01*
X27211Y15615D01*
X27213Y15620D01*
X27212Y15630D01*
X27213Y15640D01*
X27211Y15645D01*
X27211Y15650D01*
X27119Y15995D01*
X27116Y16000D01*
X27115Y16005D01*
X27110Y16013D01*
X27105Y16023D01*
X27101Y16026D01*
X27098Y16030D01*
X26846Y16283D01*
X26837Y16288D01*
X26830Y16295D01*
X26790Y16318D01*
X26790Y17719D01*
X27725Y18654D01*
X28634D01*
X29296Y19316D01*
X32713D01*
X33355Y18674D01*
D02*
G37*
G36*
X12095D02*
X14065D01*
X14125Y18614D01*
X16177Y15013D01*
X16177Y14836D01*
X16132Y14815D01*
X16069Y14866D01*
X15941Y14935D01*
X15801Y14977D01*
X15657Y14991D01*
X15512Y14977D01*
X15372Y14935D01*
X15244Y14866D01*
X15131Y14774D01*
X15039Y14661D01*
X14970Y14533D01*
X14928Y14394D01*
X14914Y14249D01*
X14928Y14104D01*
X14970Y13964D01*
X15039Y13836D01*
X15131Y13724D01*
X15244Y13631D01*
X15372Y13563D01*
X15512Y13520D01*
X15657Y13506D01*
X15801Y13520D01*
X15941Y13563D01*
X16069Y13631D01*
X16133Y13684D01*
X16178Y13662D01*
X16178Y13488D01*
X15777Y13087D01*
X15776Y13088D01*
X15736Y13029D01*
X15723Y12959D01*
X15736Y12890D01*
X15776Y12831D01*
X15776Y12831D01*
X15812Y12796D01*
X16180Y12429D01*
X16181Y11359D01*
X16690Y10849D01*
X14411Y6985D01*
X14361Y6979D01*
X13935Y7427D01*
X13937Y7719D01*
X13996Y7896D01*
X14043Y7905D01*
X14109Y7949D01*
X14154Y8016D01*
X14169Y8094D01*
X14154Y8172D01*
X14109Y8238D01*
X14043Y8282D01*
X14014Y8288D01*
X13987Y8330D01*
X14628Y11116D01*
X15155Y11644D01*
Y12424D01*
X14506Y13074D01*
X12665Y13074D01*
X11756Y13074D01*
X10435Y13849D01*
X8050D01*
X7274Y13074D01*
X6108Y13074D01*
X5530Y13651D01*
X5530Y14951D01*
X5551Y14957D01*
X5555Y14959D01*
X5561Y14960D01*
X5569Y14966D01*
X5578Y14970D01*
X5582Y14974D01*
X5586Y14977D01*
X5838Y15230D01*
X5841Y15234D01*
X5845Y15237D01*
X5850Y15247D01*
X5856Y15255D01*
X5857Y15260D01*
X5859Y15265D01*
X5951Y15609D01*
X5952Y15615D01*
X5953Y15620D01*
X5953Y15630D01*
X5953Y15640D01*
X5952Y15645D01*
X5951Y15650D01*
X5859Y15995D01*
X5857Y16000D01*
X5856Y16005D01*
X5850Y16013D01*
X5845Y16023D01*
X5841Y16026D01*
X5838Y16030D01*
X5586Y16283D01*
X5578Y16288D01*
X5570Y16295D01*
X5530Y16318D01*
X5530Y17719D01*
X6465Y18654D01*
X7374D01*
X8036Y19316D01*
X11453D01*
X12095Y18674D01*
D02*
G37*
G36*
X80300Y2333D02*
Y335D01*
X2736Y335D01*
Y2333D01*
X80300Y2333D01*
D02*
G37*
%LPC*%
G36*
X79669Y22671D02*
Y22670D01*
X78487D01*
Y22671D01*
X78410Y22656D01*
X78344Y22612D01*
X78300Y22546D01*
X78285Y22469D01*
X78286D01*
Y21287D01*
X78285D01*
X78300Y21210D01*
X78344Y21144D01*
X78410Y21100D01*
X78487Y21085D01*
Y21086D01*
X79669D01*
Y21085D01*
X79746Y21100D01*
X79812Y21144D01*
X79856Y21210D01*
X79871Y21287D01*
X79870D01*
Y22469D01*
X79871D01*
X79856Y22546D01*
X79812Y22612D01*
X79746Y22656D01*
X79669Y22671D01*
D02*
G37*
G36*
X4380Y22642D02*
Y22640D01*
X3199D01*
Y22642D01*
X3121Y22626D01*
X3056Y22582D01*
X3012Y22517D01*
X2996Y22439D01*
X2998D01*
Y21258D01*
X2996D01*
X3012Y21180D01*
X3056Y21115D01*
X3121Y21071D01*
X3199Y21055D01*
Y21057D01*
X4380D01*
Y21055D01*
X4457Y21071D01*
X4523Y21115D01*
X4567Y21180D01*
X4583Y21258D01*
X4581D01*
Y22439D01*
X4583D01*
X4567Y22517D01*
X4523Y22582D01*
X4457Y22626D01*
X4380Y22642D01*
D02*
G37*
G36*
X79669Y2112D02*
Y2111D01*
X78487D01*
Y2112D01*
X78410Y2097D01*
X78344Y2053D01*
X78300Y1987D01*
X78285Y1909D01*
X78286D01*
Y728D01*
X78285D01*
X78300Y651D01*
X78344Y585D01*
X78410Y541D01*
X78487Y526D01*
Y527D01*
X79669D01*
Y526D01*
X79746Y541D01*
X79812Y585D01*
X79856Y651D01*
X79871Y728D01*
X79870D01*
Y1909D01*
X79871D01*
X79856Y1987D01*
X79812Y2053D01*
X79746Y2097D01*
X79669Y2112D01*
D02*
G37*
G36*
X4380Y2083D02*
Y2081D01*
X3199D01*
Y2083D01*
X3121Y2067D01*
X3056Y2023D01*
X3012Y1957D01*
X2996Y1880D01*
X2998D01*
Y699D01*
X2996D01*
X3012Y621D01*
X3056Y556D01*
X3121Y512D01*
X3199Y496D01*
Y498D01*
X4380D01*
Y496D01*
X4457Y512D01*
X4523Y556D01*
X4567Y621D01*
X4583Y699D01*
X4581D01*
Y1880D01*
X4583D01*
X4567Y1957D01*
X4523Y2023D01*
X4457Y2067D01*
X4380Y2083D01*
D02*
G37*
%LPD*%
D10*
X79747Y21878D02*
G03*
X79747Y21878I-669J0D01*
G01*
X4459Y21848D02*
G03*
X4459Y21848I-669J0D01*
G01*
Y1289D02*
G03*
X4459Y1289I-669J0D01*
G01*
X79747Y1319D02*
G03*
X79747Y1319I-669J0D01*
G01*
D11*
X79078Y21878D02*
D03*
X3789Y21848D02*
D03*
Y1289D02*
D03*
X79078Y1319D02*
D03*
D12*
X433Y384D02*
X2274D01*
X433D02*
Y2244D01*
X2274Y384D02*
Y2244D01*
X433D02*
X2274D01*
X82444Y413D02*
Y2274D01*
X80604Y413D02*
Y2274D01*
X82444D01*
X80604Y413D02*
X82444D01*
X80604Y20972D02*
X82444D01*
X80604Y22833D02*
X82444D01*
X80604Y20972D02*
Y22833D01*
X82444Y20972D02*
Y22833D01*
X433Y22803D02*
X2274D01*
Y20943D02*
Y22803D01*
X433Y20943D02*
Y22803D01*
Y20943D02*
X2274D01*
D29*
X14017Y5212D02*
X14835Y5544D01*
X14635Y6554D02*
X14915Y6384D01*
X13843Y7362D02*
X14635Y6554D01*
X13843Y7362D02*
X13845Y7734D01*
X13965Y8094D01*
X14915Y6384D02*
X15057Y6242D01*
Y5944D02*
Y6242D01*
X14835Y5544D02*
X15057Y5944D01*
X16000Y5787D02*
X16650Y6137D01*
X35277Y5212D02*
X36095Y5544D01*
X35895Y6554D02*
X36175Y6384D01*
X35103Y7362D02*
X35895Y6554D01*
X35103Y7362D02*
X35105Y7734D01*
X35225Y8094D01*
X36175Y6384D02*
X36316Y6242D01*
Y5944D02*
Y6242D01*
X36095Y5544D02*
X36316Y5944D01*
X37260Y5787D02*
X37910Y6137D01*
X56537Y5212D02*
X57355Y5544D01*
X57155Y6554D02*
X57435Y6384D01*
X56363Y7362D02*
X57155Y6554D01*
X56363Y7362D02*
X56365Y7734D01*
X56485Y8094D01*
X57435Y6384D02*
X57576Y6242D01*
Y5944D02*
Y6242D01*
X57355Y5544D02*
X57576Y5944D01*
X58520Y5787D02*
X59170Y6137D01*
X77796Y5212D02*
X78615Y5544D01*
X78415Y6554D02*
X78695Y6384D01*
X77623Y7362D02*
X78415Y6554D01*
X77623Y7362D02*
X77625Y7734D01*
X77745Y8094D01*
X78695Y6384D02*
X78836Y6242D01*
Y5944D02*
Y6242D01*
X78615Y5544D02*
X78836Y5944D01*
X79780Y5787D02*
X80430Y6137D01*
D30*
X16975Y10320D02*
X17250Y9663D01*
X3017Y7409D02*
X3787Y6059D01*
X13159Y3209D02*
X13415D01*
X11355Y5014D02*
X13159Y3209D01*
X10957Y4435D02*
X11205Y4684D01*
X10957Y3499D02*
Y4435D01*
X10716Y7233D02*
X11107Y7259D01*
X10716Y7233D02*
X11077Y7289D01*
X8357Y6869D02*
X10716Y7233D01*
X17087Y8054D02*
X17088Y8058D01*
X17250Y9663D01*
X13625Y3624D02*
X13725D01*
X14007Y3209D02*
X14138Y3339D01*
X13705Y3209D02*
X13705D01*
X14007D01*
X13415Y3209D02*
X13705Y3209D01*
X13936Y3208D01*
X11892Y6894D02*
X11892Y6893D01*
X11883Y6894D02*
X11890Y6886D01*
X11215Y6894D02*
X11311D01*
X11786D02*
X11883D01*
X11311D02*
X11391D01*
X11886D02*
X11892D01*
X11886D02*
X11892Y6893D01*
X11786Y6894D02*
X11890Y6886D01*
X11883Y6894D02*
X11886D01*
X6495Y5014D02*
X11355D01*
X6440Y5069D02*
X6495Y5014D01*
X6097Y5069D02*
X6440D01*
X14138Y3339D02*
X17088Y8058D01*
X6997Y6989D02*
X7673Y7033D01*
X7673D01*
X10716Y7233D01*
X4697Y12019D02*
X4697Y12019D01*
Y12019D02*
X5497Y9539D01*
X4697Y12019D02*
Y12019D01*
Y12019D02*
Y12019D01*
X10791Y6964D02*
X11218Y6934D01*
X11421Y6919D01*
X11627Y6905D01*
X11391Y6894D02*
X11786D01*
X11220Y6950D02*
X11426Y6933D01*
X11631Y6915D01*
X10534Y6982D02*
X10791Y6964D01*
X10504Y7012D02*
X10847Y6982D01*
X11220Y6950D01*
X11631Y6915D02*
X11886Y6894D01*
X11627Y6905D02*
X11786Y6894D01*
X38235Y10320D02*
X38510Y9663D01*
X24276Y7409D02*
X25046Y6059D01*
X34419Y3209D02*
X34675D01*
X32615Y5014D02*
X34419Y3209D01*
X32216Y4435D02*
X32465Y4684D01*
X32216Y3499D02*
Y4435D01*
X31976Y7233D02*
X32366Y7259D01*
X31976Y7233D02*
X32336Y7289D01*
X29616Y6869D02*
X31976Y7233D01*
X38347Y8054D02*
X38348Y8058D01*
X38510Y9663D01*
X34885Y3624D02*
X34985D01*
X35267Y3209D02*
X35398Y3339D01*
X34965Y3209D02*
X34965D01*
X35267D01*
X34675Y3209D02*
X34965Y3209D01*
X35196Y3208D01*
X33151Y6894D02*
X33152Y6893D01*
X33143Y6894D02*
X33150Y6886D01*
X32475Y6894D02*
X32571D01*
X33045D02*
X33143D01*
X32571D02*
X32651D01*
X33146D02*
X33151D01*
X33146D02*
X33152Y6893D01*
X33045Y6894D02*
X33150Y6886D01*
X33143Y6894D02*
X33146D01*
X27755Y5014D02*
X32615D01*
X27700Y5069D02*
X27755Y5014D01*
X27356Y5069D02*
X27700D01*
X35398Y3339D02*
X38348Y8058D01*
X28256Y6989D02*
X28933Y7033D01*
X28933D01*
X31976Y7233D01*
X25956Y12019D02*
X25956Y12019D01*
Y12019D02*
X26756Y9539D01*
X25956Y12019D02*
Y12019D01*
Y12019D02*
Y12019D01*
X32051Y6964D02*
X32478Y6934D01*
X32681Y6919D01*
X32887Y6905D01*
X32651Y6894D02*
X33045D01*
X32480Y6950D02*
X32686Y6933D01*
X32890Y6915D01*
X31794Y6982D02*
X32051Y6964D01*
X31764Y7012D02*
X32107Y6982D01*
X32480Y6950D01*
X32890Y6915D02*
X33146Y6894D01*
X32887Y6905D02*
X33045Y6894D01*
X59494Y10320D02*
X59770Y9663D01*
X45536Y7409D02*
X46306Y6059D01*
X55679Y3209D02*
X55935D01*
X53875Y5014D02*
X55679Y3209D01*
X53476Y4435D02*
X53725Y4684D01*
X53476Y3499D02*
Y4435D01*
X53236Y7233D02*
X53626Y7259D01*
X53236Y7233D02*
X53596Y7289D01*
X50876Y6869D02*
X53236Y7233D01*
X59607Y8054D02*
X59608Y8058D01*
X59770Y9663D01*
X56145Y3624D02*
X56245D01*
X56527Y3209D02*
X56658Y3339D01*
X56225Y3209D02*
X56225D01*
X56527D01*
X55935Y3209D02*
X56225Y3209D01*
X56455Y3208D01*
X54411Y6894D02*
X54412Y6893D01*
X54403Y6894D02*
X54410Y6886D01*
X53735Y6894D02*
X53830D01*
X54305D02*
X54403D01*
X53830D02*
X53910D01*
X54406D02*
X54411D01*
X54406D02*
X54412Y6893D01*
X54305Y6894D02*
X54410Y6886D01*
X54403Y6894D02*
X54406D01*
X49015Y5014D02*
X53875D01*
X48960Y5069D02*
X49015Y5014D01*
X48616Y5069D02*
X48960D01*
X56658Y3339D02*
X59608Y8058D01*
X49516Y6989D02*
X50193Y7033D01*
X50193D01*
X53236Y7233D01*
X47216Y12019D02*
X47216Y12019D01*
Y12019D02*
X48016Y9539D01*
X47216Y12019D02*
Y12019D01*
Y12019D02*
Y12019D01*
X53310Y6964D02*
X53738Y6934D01*
X53941Y6919D01*
X54147Y6905D01*
X53910Y6894D02*
X54305D01*
X53740Y6950D02*
X53945Y6933D01*
X54150Y6915D01*
X53054Y6982D02*
X53310Y6964D01*
X53024Y7012D02*
X53366Y6982D01*
X53740Y6950D01*
X54150Y6915D02*
X54406Y6894D01*
X54147Y6905D02*
X54305Y6894D01*
X80754Y10320D02*
X81030Y9663D01*
X66796Y7409D02*
X67566Y6059D01*
X76939Y3209D02*
X77195D01*
X75135Y5014D02*
X76939Y3209D01*
X74736Y4435D02*
X74985Y4684D01*
X74736Y3499D02*
Y4435D01*
X74496Y7233D02*
X74886Y7259D01*
X74496Y7233D02*
X74856Y7289D01*
X72136Y6869D02*
X74496Y7233D01*
X80867Y8054D02*
X80867Y8058D01*
X81030Y9663D01*
X77405Y3624D02*
X77505D01*
X77787Y3209D02*
X77917Y3339D01*
X77485Y3209D02*
X77485D01*
X77787D01*
X77195Y3209D02*
X77485Y3209D01*
X77715Y3208D01*
X75671Y6894D02*
X75672Y6893D01*
X75662Y6894D02*
X75670Y6886D01*
X74995Y6894D02*
X75090D01*
X75565D02*
X75662D01*
X75090D02*
X75170D01*
X75666D02*
X75671D01*
X75666D02*
X75672Y6893D01*
X75565Y6894D02*
X75670Y6886D01*
X75662Y6894D02*
X75666D01*
X70275Y5014D02*
X75135D01*
X70220Y5069D02*
X70275Y5014D01*
X69876Y5069D02*
X70220D01*
X77917Y3339D02*
X80867Y8058D01*
X70776Y6989D02*
X71452Y7033D01*
X71452D01*
X74496Y7233D01*
X68476Y12019D02*
X68476Y12019D01*
Y12019D02*
X69276Y9539D01*
X68476Y12019D02*
Y12019D01*
Y12019D02*
Y12019D01*
X74570Y6964D02*
X74997Y6934D01*
X75201Y6919D01*
X75407Y6905D01*
X75170Y6894D02*
X75565D01*
X74999Y6950D02*
X75205Y6933D01*
X75410Y6915D01*
X74314Y6982D02*
X74570Y6964D01*
X74284Y7012D02*
X74626Y6982D01*
X74999Y6950D01*
X75410Y6915D02*
X75666Y6894D01*
X75407Y6905D02*
X75565Y6894D01*
D31*
X5387Y6036D02*
X6997Y6989D01*
X4085Y6824D02*
Y7524D01*
Y6824D02*
X5015Y5274D01*
X13325Y3624D02*
X13625D01*
X11515Y5434D02*
X13325Y3624D01*
X11175Y5434D02*
X11515D01*
X5015Y5274D02*
X5375D01*
X6534Y5771D02*
X6847Y5459D01*
X5375Y5274D02*
X6195Y5771D01*
X6534D01*
X3907Y8586D02*
X5143Y9327D01*
X5497Y9539D01*
X26646Y6036D02*
X28256Y6989D01*
X25345Y6824D02*
Y7524D01*
Y6824D02*
X26275Y5274D01*
X34585Y3624D02*
X34885D01*
X32775Y5434D02*
X34585Y3624D01*
X32435Y5434D02*
X32775D01*
X26275Y5274D02*
X26635D01*
X27794Y5771D02*
X28106Y5459D01*
X26635Y5274D02*
X27455Y5771D01*
X27794D01*
X25166Y8586D02*
X26403Y9327D01*
X26756Y9539D01*
X47906Y6036D02*
X49516Y6989D01*
X46605Y6824D02*
Y7524D01*
Y6824D02*
X47535Y5274D01*
X55845Y3624D02*
X56145D01*
X54035Y5434D02*
X55845Y3624D01*
X53695Y5434D02*
X54035D01*
X47535Y5274D02*
X47895D01*
X49054Y5771D02*
X49366Y5459D01*
X47895Y5274D02*
X48715Y5771D01*
X49054D01*
X46426Y8586D02*
X47662Y9327D01*
X48016Y9539D01*
X69166Y6036D02*
X70776Y6989D01*
X67865Y6824D02*
Y7524D01*
Y6824D02*
X68795Y5274D01*
X77105Y3624D02*
X77405D01*
X75295Y5434D02*
X77105Y3624D01*
X74955Y5434D02*
X75295D01*
X68795Y5274D02*
X69155D01*
X70314Y5771D02*
X70626Y5459D01*
X69155Y5274D02*
X69975Y5771D01*
X70314D01*
X67686Y8586D02*
X68922Y9327D01*
X69276Y9539D01*
D33*
X12504Y8069D02*
Y8191D01*
X13009Y7564D02*
X13011Y7563D01*
X13011Y7563D01*
X13105Y7474D01*
X12504Y8069D02*
X13009Y7564D01*
X11311Y6894D02*
X11351Y6854D01*
X11391Y6894D01*
X11415Y6917D01*
X12136Y7093D02*
X14017Y5212D01*
X11138Y7093D02*
X11138D01*
X11614D01*
X12136D01*
X33764Y8069D02*
Y8191D01*
X34269Y7564D02*
X34271Y7563D01*
X34271Y7563D01*
X34365Y7474D01*
X33764Y8069D02*
X34269Y7564D01*
X32571Y6894D02*
X32611Y6854D01*
X32651Y6894D01*
X32674Y6917D01*
X33395Y7093D02*
X35277Y5212D01*
X32398Y7093D02*
X32398D01*
X32874D01*
X33395D01*
X55024Y8069D02*
Y8191D01*
X55529Y7564D02*
X55530Y7563D01*
X55530Y7563D01*
X55625Y7474D01*
X55024Y8069D02*
X55529Y7564D01*
X53830Y6894D02*
X53870Y6854D01*
X53910Y6894D01*
X53934Y6917D01*
X54655Y7093D02*
X56537Y5212D01*
X53658Y7093D02*
X53658D01*
X54134D01*
X54655D01*
X76284Y8069D02*
Y8191D01*
X76789Y7564D02*
X76790Y7563D01*
X76790Y7563D01*
X76885Y7474D01*
X76284Y8069D02*
X76789Y7564D01*
X75090Y6894D02*
X75130Y6854D01*
X75170Y6894D01*
X75194Y6917D01*
X75915Y7093D02*
X77796Y5212D01*
X74917Y7093D02*
X74917D01*
X75394D01*
X75915D01*
D36*
X16970Y10326D02*
D03*
X16477Y9474D02*
D03*
X15985Y8622D02*
D03*
X15493Y7769D02*
D03*
X15001Y6917D02*
D03*
X14509Y6064D02*
D03*
X14017Y5212D02*
D03*
X13525Y4360D02*
D03*
X38229Y10326D02*
D03*
X37737Y9474D02*
D03*
X37245Y8622D02*
D03*
X36753Y7769D02*
D03*
X36261Y6917D02*
D03*
X35769Y6064D02*
D03*
X35277Y5212D02*
D03*
X34785Y4360D02*
D03*
X59489Y10326D02*
D03*
X58997Y9474D02*
D03*
X58505Y8622D02*
D03*
X58013Y7769D02*
D03*
X57521Y6917D02*
D03*
X57029Y6064D02*
D03*
X56537Y5212D02*
D03*
X56044Y4360D02*
D03*
X80749Y10326D02*
D03*
X80257Y9474D02*
D03*
X79765Y8622D02*
D03*
X79273Y7769D02*
D03*
X78781Y6917D02*
D03*
X78288Y6064D02*
D03*
X77796Y5212D02*
D03*
X77304Y4360D02*
D03*
D39*
X10957Y3499D02*
D03*
X4887Y6902D02*
D03*
X3407Y9452D02*
D03*
X32216Y3499D02*
D03*
X26146Y6902D02*
D03*
X24666Y9452D02*
D03*
X53476Y3499D02*
D03*
X47406Y6902D02*
D03*
X45926Y9452D02*
D03*
X74736Y3499D02*
D03*
X68666Y6902D02*
D03*
X67186Y9452D02*
D03*
D40*
X5387Y6036D02*
D03*
X3907Y8586D02*
D03*
X26646Y6036D02*
D03*
X25166Y8586D02*
D03*
X47906Y6036D02*
D03*
X46426Y8586D02*
D03*
X69166Y6036D02*
D03*
X67686Y8586D02*
D03*
D41*
X8077Y3499D02*
D03*
X29336D02*
D03*
X50596D02*
D03*
X71856D02*
D03*
D42*
X8090Y14179D02*
D03*
X6990Y13979D02*
D03*
X8040Y16789D02*
D03*
X3017Y7409D02*
D03*
X3787Y6059D02*
D03*
X14100Y16519D02*
D03*
X8720Y16569D02*
D03*
X11960Y14829D02*
D03*
X13730Y15479D02*
D03*
X12685Y15374D02*
D03*
X9165Y6394D02*
D03*
X11205Y4684D02*
D03*
X8645Y6394D02*
D03*
X12239Y17270D02*
D03*
X13965Y8094D02*
D03*
X16650Y6137D02*
D03*
X16000Y5787D02*
D03*
X29350Y14179D02*
D03*
X28250Y13979D02*
D03*
X29300Y16789D02*
D03*
X24276Y7409D02*
D03*
X25046Y6059D02*
D03*
X35360Y16519D02*
D03*
X29980Y16569D02*
D03*
X33220Y14829D02*
D03*
X34990Y15479D02*
D03*
X33945Y15374D02*
D03*
X30425Y6394D02*
D03*
X32465Y4684D02*
D03*
X29905Y6394D02*
D03*
X33499Y17270D02*
D03*
X35225Y8094D02*
D03*
X37910Y6137D02*
D03*
X37260Y5787D02*
D03*
X50610Y14179D02*
D03*
X49510Y13979D02*
D03*
X50560Y16789D02*
D03*
X45536Y7409D02*
D03*
X46306Y6059D02*
D03*
X56620Y16519D02*
D03*
X51240Y16569D02*
D03*
X54480Y14829D02*
D03*
X56250Y15479D02*
D03*
X55205Y15374D02*
D03*
X51685Y6394D02*
D03*
X53725Y4684D02*
D03*
X51165Y6394D02*
D03*
X54759Y17270D02*
D03*
X56485Y8094D02*
D03*
X59170Y6137D02*
D03*
X58520Y5787D02*
D03*
X71870Y14179D02*
D03*
X70770Y13979D02*
D03*
X71820Y16789D02*
D03*
X66796Y7409D02*
D03*
X67566Y6059D02*
D03*
X77880Y16519D02*
D03*
X72500Y16569D02*
D03*
X75740Y14829D02*
D03*
X77510Y15479D02*
D03*
X76465Y15374D02*
D03*
X72945Y6394D02*
D03*
X74985Y4684D02*
D03*
X72425Y6394D02*
D03*
X76018Y17270D02*
D03*
X77745Y8094D02*
D03*
X80430Y6137D02*
D03*
X79780Y5787D02*
D03*
D43*
X12923Y8060D02*
D03*
X11614Y7222D02*
D03*
X11175Y5434D02*
D03*
X12594Y7759D02*
D03*
X12504Y8191D02*
D03*
X13053Y7607D02*
D03*
X11215Y6894D02*
D03*
X11615Y6734D02*
D03*
X12015Y6984D02*
D03*
X34183Y8060D02*
D03*
X32874Y7222D02*
D03*
X32435Y5434D02*
D03*
X33854Y7759D02*
D03*
X33764Y8191D02*
D03*
X34312Y7607D02*
D03*
X32475Y6894D02*
D03*
X32875Y6734D02*
D03*
X33275Y6984D02*
D03*
X55443Y8060D02*
D03*
X54134Y7222D02*
D03*
X53695Y5434D02*
D03*
X55114Y7759D02*
D03*
X55024Y8191D02*
D03*
X55572Y7607D02*
D03*
X53735Y6894D02*
D03*
X54135Y6734D02*
D03*
X54535Y6984D02*
D03*
X76703Y8060D02*
D03*
X75394Y7222D02*
D03*
X74955Y5434D02*
D03*
X76374Y7759D02*
D03*
X76284Y8191D02*
D03*
X76832Y7607D02*
D03*
X74995Y6894D02*
D03*
X75395Y6734D02*
D03*
X75795Y6984D02*
D03*
D44*
X4085Y7524D02*
D03*
X25345D02*
D03*
X46605D02*
D03*
X67865D02*
D03*
D45*
X6847Y5459D02*
D03*
X6097Y5069D02*
D03*
X28106Y5459D02*
D03*
X27356Y5069D02*
D03*
X49366Y5459D02*
D03*
X48616Y5069D02*
D03*
X70626Y5459D02*
D03*
X69876Y5069D02*
D03*
D46*
X5143Y9327D02*
G03*
X7673Y7033I4187J2077D01*
G01*
X8357Y6832D02*
G03*
X10791Y6964I974J4572D01*
G01*
X7673Y7033D02*
G03*
X8357Y6832I1657J4371D01*
G01*
X10791Y6964D02*
G03*
X10847Y6982I-1461J4440D01*
G01*
D02*
G03*
X11138Y7093I-1517J4421D01*
G01*
X4697Y12019D02*
G03*
X5143Y9327I4634J-615D01*
G01*
X4701Y12054D02*
G03*
X4697Y12019I4629J-651D01*
G01*
X13464Y10433D02*
X13972Y11839D01*
X14357Y12019D01*
X12930Y8091D02*
X12931Y8094D01*
X13464Y10433D01*
X26403Y9327D02*
G03*
X28933Y7033I4187J2077D01*
G01*
X29616Y6832D02*
G03*
X32051Y6964I974J4572D01*
G01*
X28933Y7033D02*
G03*
X29616Y6832I1657J4371D01*
G01*
X32051Y6964D02*
G03*
X32107Y6982I-1461J4440D01*
G01*
D02*
G03*
X32398Y7093I-1517J4421D01*
G01*
X25956Y12019D02*
G03*
X26403Y9327I4634J-615D01*
G01*
X25961Y12054D02*
G03*
X25956Y12019I4629J-651D01*
G01*
X34723Y10433D02*
X35232Y11839D01*
X35616Y12019D01*
X34190Y8091D02*
X34191Y8094D01*
X34723Y10433D01*
X47662Y9327D02*
G03*
X50193Y7033I4187J2077D01*
G01*
X50876Y6832D02*
G03*
X53310Y6964I974J4572D01*
G01*
X50193Y7033D02*
G03*
X50876Y6832I1657J4371D01*
G01*
X53310Y6964D02*
G03*
X53366Y6982I-1461J4440D01*
G01*
D02*
G03*
X53658Y7093I-1517J4421D01*
G01*
X47216Y12019D02*
G03*
X47662Y9327I4634J-615D01*
G01*
X47221Y12054D02*
G03*
X47216Y12019I4629J-651D01*
G01*
X55983Y10433D02*
X56492Y11839D01*
X56876Y12019D01*
X55450Y8091D02*
X55451Y8094D01*
X55983Y10433D01*
X68922Y9327D02*
G03*
X71452Y7033I4187J2077D01*
G01*
X72136Y6832D02*
G03*
X74570Y6964I974J4572D01*
G01*
X71452Y7033D02*
G03*
X72136Y6832I1657J4371D01*
G01*
X74570Y6964D02*
G03*
X74626Y6982I-1461J4440D01*
G01*
D02*
G03*
X74917Y7093I-1517J4421D01*
G01*
X68476Y12019D02*
G03*
X68922Y9327I4634J-615D01*
G01*
X68481Y12054D02*
G03*
X68476Y12019I4629J-651D01*
G01*
X77243Y10433D02*
X77752Y11839D01*
X78136Y12019D01*
X76710Y8091D02*
X76710Y8094D01*
X77243Y10433D01*
D47*
X14350Y7545D02*
X14970Y6925D01*
X14350Y7545D02*
X15820Y10089D01*
X13105Y7474D02*
X14508Y6065D01*
X35610Y7545D02*
X36230Y6925D01*
X35610Y7545D02*
X37080Y10089D01*
X34365Y7474D02*
X35768Y6065D01*
X56870Y7545D02*
X57490Y6925D01*
X56870Y7545D02*
X58340Y10089D01*
X55625Y7474D02*
X57028Y6065D01*
X78130Y7545D02*
X78750Y6925D01*
X78130Y7545D02*
X79600Y10089D01*
X76885Y7474D02*
X78288Y6065D01*
D48*
X15820Y10089D02*
X16255Y10566D01*
X16030Y12199D02*
X16420Y10889D01*
X37080Y10089D02*
X37515Y10566D01*
X37290Y12199D02*
X37680Y10889D01*
X58340Y10089D02*
X58774Y10566D01*
X58550Y12199D02*
X58940Y10889D01*
X79600Y10089D02*
X80034Y10566D01*
X79810Y12199D02*
X80200Y10889D01*
D49*
X16255Y10566D02*
X16420Y10889D01*
X37515Y10566D02*
X37680Y10889D01*
X58774Y10566D02*
X58940Y10889D01*
X80034Y10566D02*
X80200Y10889D01*
D50*
X15534Y6181D02*
Y6355D01*
X15525Y6364D02*
X15534Y6355D01*
X13895Y3624D02*
X14097Y3826D01*
X13725Y3624D02*
X13895D01*
X14097Y3826D02*
X15534Y6181D01*
X14990Y6905D02*
X15525Y6364D01*
X14970Y6925D02*
X14990Y6905D01*
X36793Y6181D02*
Y6355D01*
X36785Y6364D02*
X36793Y6355D01*
X35155Y3624D02*
X35357Y3826D01*
X34985Y3624D02*
X35155D01*
X35357Y3826D02*
X36793Y6181D01*
X36250Y6905D02*
X36785Y6364D01*
X36230Y6925D02*
X36250Y6905D01*
X58053Y6181D02*
Y6355D01*
X58045Y6364D02*
X58053Y6355D01*
X56415Y3624D02*
X56617Y3826D01*
X56245Y3624D02*
X56415D01*
X56617Y3826D02*
X58053Y6181D01*
X57509Y6905D02*
X58045Y6364D01*
X57490Y6925D02*
X57509Y6905D01*
X79313Y6181D02*
Y6355D01*
X79305Y6364D02*
X79313Y6355D01*
X77674Y3624D02*
X77877Y3826D01*
X77505Y3624D02*
X77674D01*
X77877Y3826D02*
X79313Y6181D01*
X78769Y6905D02*
X79305Y6364D01*
X78750Y6925D02*
X78769Y6905D01*
D51*
X4697Y12019D02*
D03*
X14357D02*
D03*
X25956D02*
D03*
X35616D02*
D03*
X47216D02*
D03*
X56876D02*
D03*
X68476D02*
D03*
X78136D02*
D03*
D52*
X9517Y10709D02*
D03*
X30776D02*
D03*
X52036D02*
D03*
X73296D02*
D03*
M02*
