G04 Layer_Color=16711935*
%FSLAX24Y24*%
%MOIN*%
G70*
G01*
G75*
G04:AMPARAMS|DCode=73|XSize=118.7mil|YSize=118.7mil|CornerRadius=59.4mil|HoleSize=0mil|Usage=FLASHONLY|Rotation=90.000|XOffset=0mil|YOffset=0mil|HoleType=Round|Shape=RoundedRectangle|*
%AMROUNDEDRECTD73*
21,1,0.1187,0.0000,0,0,90.0*
21,1,0.0000,0.1187,0,0,90.0*
1,1,0.1187,0.0000,0.0000*
1,1,0.1187,0.0000,0.0000*
1,1,0.1187,0.0000,0.0000*
1,1,0.1187,0.0000,0.0000*
%
%ADD73ROUNDEDRECTD73*%
%ADD89C,0.0828*%
%ADD92C,0.0080*%
%ADD93C,0.0880*%
%ADD94P,0.1103X4X165.0*%
%ADD95P,0.0953X8X22.5*%
%ADD96C,0.0680*%
%ADD97C,0.0200*%
%ADD98C,0.1080*%
%ADD99C,0.4017*%
G36*
X70661Y5676D02*
X70698Y5666D01*
X70734Y5650D01*
X70766Y5628D01*
X70793Y5600D01*
X70816Y5569D01*
X70832Y5534D01*
X70842Y5497D01*
X70846Y5459D01*
X70842Y5421D01*
X70832Y5383D01*
X70816Y5349D01*
X70793Y5317D01*
X70766Y5290D01*
X70734Y5268D01*
X70698Y5252D01*
X70661Y5242D01*
X70622Y5238D01*
X70583Y5242D01*
X70545Y5252D01*
X70510Y5268D01*
X70478Y5290D01*
X70450Y5317D01*
X70428Y5349D01*
X70411Y5383D01*
X70401Y5421D01*
X70398Y5459D01*
X70401Y5497D01*
X70411Y5534D01*
X70428Y5569D01*
X70450Y5600D01*
X70478Y5628D01*
X70510Y5650D01*
X70545Y5666D01*
X70583Y5676D01*
X70622Y5679D01*
X70661Y5676D01*
D02*
G37*
G36*
X49401D02*
X49439Y5666D01*
X49474Y5650D01*
X49506Y5628D01*
X49534Y5600D01*
X49556Y5569D01*
X49572Y5534D01*
X49583Y5497D01*
X49586Y5459D01*
X49583Y5421D01*
X49572Y5383D01*
X49556Y5349D01*
X49534Y5317D01*
X49506Y5290D01*
X49474Y5268D01*
X49439Y5252D01*
X49401Y5242D01*
X49362Y5238D01*
X49323Y5242D01*
X49285Y5252D01*
X49250Y5268D01*
X49218Y5290D01*
X49190Y5317D01*
X49168Y5349D01*
X49151Y5383D01*
X49141Y5421D01*
X49138Y5459D01*
X49141Y5497D01*
X49151Y5534D01*
X49168Y5569D01*
X49190Y5600D01*
X49218Y5628D01*
X49250Y5650D01*
X49285Y5666D01*
X49323Y5676D01*
X49362Y5679D01*
X49401Y5676D01*
D02*
G37*
G36*
X28141D02*
X28179Y5666D01*
X28214Y5650D01*
X28246Y5628D01*
X28274Y5600D01*
X28296Y5569D01*
X28313Y5534D01*
X28323Y5497D01*
X28326Y5459D01*
X28323Y5421D01*
X28313Y5383D01*
X28296Y5349D01*
X28274Y5317D01*
X28246Y5290D01*
X28214Y5268D01*
X28179Y5252D01*
X28141Y5242D01*
X28102Y5238D01*
X28063Y5242D01*
X28025Y5252D01*
X27990Y5268D01*
X27958Y5290D01*
X27930Y5317D01*
X27908Y5349D01*
X27892Y5383D01*
X27881Y5421D01*
X27878Y5459D01*
X27881Y5497D01*
X27892Y5534D01*
X27908Y5569D01*
X27930Y5600D01*
X27958Y5628D01*
X27990Y5650D01*
X28025Y5666D01*
X28063Y5676D01*
X28102Y5679D01*
X28141Y5676D01*
D02*
G37*
G36*
X6881D02*
X6919Y5666D01*
X6954Y5650D01*
X6986Y5628D01*
X7014Y5600D01*
X7036Y5569D01*
X7053Y5534D01*
X7063Y5497D01*
X7066Y5459D01*
X7063Y5421D01*
X7053Y5383D01*
X7036Y5349D01*
X7014Y5317D01*
X6986Y5290D01*
X6954Y5268D01*
X6919Y5252D01*
X6881Y5242D01*
X6842Y5238D01*
X6803Y5242D01*
X6766Y5252D01*
X6730Y5268D01*
X6698Y5290D01*
X6671Y5317D01*
X6648Y5349D01*
X6632Y5383D01*
X6622Y5421D01*
X6618Y5459D01*
X6622Y5497D01*
X6632Y5534D01*
X6648Y5569D01*
X6671Y5600D01*
X6698Y5628D01*
X6730Y5650D01*
X6766Y5666D01*
X6803Y5676D01*
X6842Y5679D01*
X6881Y5676D01*
D02*
G37*
G36*
X69918Y5283D02*
X69956Y5273D01*
X69991Y5257D01*
X70023Y5235D01*
X70051Y5207D01*
X70073Y5176D01*
X70090Y5141D01*
X70100Y5104D01*
X70103Y5066D01*
X70100Y5027D01*
X70090Y4990D01*
X70073Y4956D01*
X70051Y4924D01*
X70023Y4897D01*
X69991Y4875D01*
X69956Y4859D01*
X69918Y4849D01*
X69879Y4845D01*
X69840Y4849D01*
X69803Y4859D01*
X69767Y4875D01*
X69735Y4897D01*
X69708Y4924D01*
X69685Y4956D01*
X69669Y4990D01*
X69659Y5027D01*
X69655Y5066D01*
X69659Y5104D01*
X69669Y5141D01*
X69685Y5176D01*
X69708Y5207D01*
X69735Y5235D01*
X69767Y5257D01*
X69803Y5273D01*
X69840Y5283D01*
X69879Y5286D01*
X69918Y5283D01*
D02*
G37*
G36*
X48658D02*
X48696Y5273D01*
X48731Y5257D01*
X48763Y5235D01*
X48791Y5207D01*
X48813Y5176D01*
X48830Y5141D01*
X48840Y5104D01*
X48843Y5066D01*
X48840Y5027D01*
X48830Y4990D01*
X48813Y4956D01*
X48791Y4924D01*
X48763Y4897D01*
X48731Y4875D01*
X48696Y4859D01*
X48658Y4849D01*
X48619Y4845D01*
X48580Y4849D01*
X48543Y4859D01*
X48507Y4875D01*
X48475Y4897D01*
X48448Y4924D01*
X48425Y4956D01*
X48409Y4990D01*
X48399Y5027D01*
X48395Y5066D01*
X48399Y5104D01*
X48409Y5141D01*
X48425Y5176D01*
X48448Y5207D01*
X48475Y5235D01*
X48507Y5257D01*
X48543Y5273D01*
X48580Y5283D01*
X48619Y5286D01*
X48658Y5283D01*
D02*
G37*
G36*
X27398D02*
X27436Y5273D01*
X27472Y5257D01*
X27504Y5235D01*
X27531Y5207D01*
X27554Y5176D01*
X27570Y5141D01*
X27580Y5104D01*
X27584Y5066D01*
X27580Y5027D01*
X27570Y4990D01*
X27554Y4956D01*
X27531Y4924D01*
X27504Y4897D01*
X27472Y4875D01*
X27436Y4859D01*
X27398Y4849D01*
X27360Y4845D01*
X27321Y4849D01*
X27283Y4859D01*
X27248Y4875D01*
X27216Y4897D01*
X27188Y4924D01*
X27166Y4956D01*
X27149Y4990D01*
X27139Y5027D01*
X27136Y5066D01*
X27139Y5104D01*
X27149Y5141D01*
X27166Y5176D01*
X27188Y5207D01*
X27216Y5235D01*
X27248Y5257D01*
X27283Y5273D01*
X27321Y5283D01*
X27360Y5286D01*
X27398Y5283D01*
D02*
G37*
G36*
X6139D02*
X6176Y5273D01*
X6212Y5257D01*
X6244Y5235D01*
X6271Y5207D01*
X6294Y5176D01*
X6310Y5141D01*
X6320Y5104D01*
X6324Y5066D01*
X6320Y5027D01*
X6310Y4990D01*
X6294Y4956D01*
X6271Y4924D01*
X6244Y4897D01*
X6212Y4875D01*
X6176Y4859D01*
X6139Y4849D01*
X6100Y4845D01*
X6061Y4849D01*
X6023Y4859D01*
X5988Y4875D01*
X5956Y4897D01*
X5928Y4924D01*
X5906Y4956D01*
X5889Y4990D01*
X5879Y5027D01*
X5876Y5066D01*
X5879Y5104D01*
X5889Y5141D01*
X5906Y5176D01*
X5928Y5207D01*
X5956Y5235D01*
X5988Y5257D01*
X6023Y5273D01*
X6061Y5283D01*
X6100Y5286D01*
X6139Y5283D01*
D02*
G37*
D73*
X79078Y21878D02*
D03*
X3789Y21848D02*
D03*
Y1289D02*
D03*
X79078Y1319D02*
D03*
D89*
X16970Y10326D02*
D03*
X16477Y9474D02*
D03*
X15985Y8622D02*
D03*
X15493Y7769D02*
D03*
X15001Y6917D02*
D03*
X14509Y6064D02*
D03*
X14017Y5212D02*
D03*
X13525Y4360D02*
D03*
X38229Y10326D02*
D03*
X37737Y9474D02*
D03*
X37245Y8622D02*
D03*
X36753Y7769D02*
D03*
X36261Y6917D02*
D03*
X35769Y6064D02*
D03*
X35277Y5212D02*
D03*
X34785Y4360D02*
D03*
X59489Y10326D02*
D03*
X58997Y9474D02*
D03*
X58505Y8622D02*
D03*
X58013Y7769D02*
D03*
X57521Y6917D02*
D03*
X57029Y6064D02*
D03*
X56537Y5212D02*
D03*
X56044Y4360D02*
D03*
X80749Y10326D02*
D03*
X80257Y9474D02*
D03*
X79765Y8622D02*
D03*
X79273Y7769D02*
D03*
X78781Y6917D02*
D03*
X78288Y6064D02*
D03*
X77796Y5212D02*
D03*
X77304Y4360D02*
D03*
D92*
X9517Y3619D02*
D03*
X30776D02*
D03*
X52036D02*
D03*
X73296D02*
D03*
D93*
X10957Y3499D02*
D03*
X4887Y6902D02*
D03*
X3407Y9452D02*
D03*
X32216Y3499D02*
D03*
X26146Y6902D02*
D03*
X24666Y9452D02*
D03*
X53476Y3499D02*
D03*
X47406Y6902D02*
D03*
X45926Y9452D02*
D03*
X74736Y3499D02*
D03*
X68666Y6902D02*
D03*
X67186Y9452D02*
D03*
D94*
X5387Y6036D02*
D03*
X3907Y8586D02*
D03*
X26646Y6036D02*
D03*
X25166Y8586D02*
D03*
X47906Y6036D02*
D03*
X46426Y8586D02*
D03*
X69166Y6036D02*
D03*
X67686Y8586D02*
D03*
D95*
X8077Y3499D02*
D03*
X29336D02*
D03*
X50596D02*
D03*
X71856D02*
D03*
D96*
X6847Y5459D02*
D03*
X6097Y5069D02*
D03*
X28106Y5459D02*
D03*
X27356Y5069D02*
D03*
X49366Y5459D02*
D03*
X48616Y5069D02*
D03*
X70626Y5459D02*
D03*
X69876Y5069D02*
D03*
D97*
X11215Y6894D02*
D03*
X11615Y6734D02*
D03*
X32475Y6894D02*
D03*
X32875Y6734D02*
D03*
X53735Y6894D02*
D03*
X54135Y6734D02*
D03*
X74995Y6894D02*
D03*
X75395Y6734D02*
D03*
D98*
X4697Y12019D02*
D03*
X14357D02*
D03*
X25956D02*
D03*
X35616D02*
D03*
X47216D02*
D03*
X56876D02*
D03*
X68476D02*
D03*
X78136D02*
D03*
D99*
X9517Y10709D02*
D03*
X30776D02*
D03*
X52036D02*
D03*
X73296D02*
D03*
M02*
