G04 Layer_Color=2752767*
%FSLAX24Y24*%
%MOIN*%
G70*
G01*
G75*
%ADD107C,0.0020*%
%ADD110C,0.0027*%
%ADD111C,0.0013*%
D107*
X1249Y1249D02*
Y1409D01*
X1409D01*
Y1249D01*
X1249D01*
X81419Y1278D02*
Y1438D01*
X81579D01*
Y1278D01*
X81419D01*
Y21837D02*
Y21997D01*
X81579D01*
Y21837D01*
X81419D01*
X1249Y21808D02*
Y21968D01*
X1409D01*
Y21808D01*
X1249D01*
X3377Y14169D02*
X3297Y14329D01*
X3457D01*
X3377Y14169D01*
X4697Y11939D02*
X4737Y11979D01*
X4777D01*
X4737Y12019D01*
X4777Y12059D01*
X4737D01*
X4697Y12099D01*
X4657Y12059D01*
X4617D01*
X4657Y12019D01*
X4617Y11979D01*
X4657D01*
X4697Y11939D01*
X15577Y14169D02*
X15617Y14249D01*
X15577Y14329D01*
X15657Y14289D01*
X15737Y14329D01*
X15697Y14249D01*
X15737Y14169D01*
X15657Y14209D01*
X15577Y14169D01*
X14357Y11939D02*
X14397Y11979D01*
X14437D01*
X14397Y12019D01*
X14437Y12059D01*
X14397D01*
X14357Y12099D01*
X14317Y12059D01*
X14277D01*
X14317Y12019D01*
X14277Y11979D01*
X14317D01*
X14357Y11939D01*
X9477Y10669D02*
Y10629D01*
X9557D01*
Y10669D01*
X9597D01*
Y10749D01*
X9557D01*
Y10789D01*
X9477D01*
Y10749D01*
X9437D01*
Y10669D01*
X9477D01*
X9437Y3539D02*
X9477Y3619D01*
X9437Y3699D01*
X9517Y3659D01*
X9597Y3699D01*
X9557Y3619D01*
X9597Y3539D01*
X9517Y3579D01*
X9437Y3539D01*
X10877Y3419D02*
X10917D01*
X10957Y3459D01*
X10997Y3419D01*
X11037D01*
Y3459D01*
X10997Y3499D01*
X11037Y3539D01*
Y3579D01*
X10997D01*
X10957Y3539D01*
X10917Y3579D01*
X10877D01*
Y3539D01*
X10917Y3499D01*
X10877Y3459D01*
Y3419D01*
X7997D02*
X8037D01*
X8077Y3459D01*
X8117Y3419D01*
X8157D01*
Y3459D01*
X8117Y3499D01*
X8157Y3539D01*
Y3579D01*
X8117D01*
X8077Y3539D01*
X8037Y3579D01*
X7997D01*
Y3539D01*
X8037Y3499D01*
X7997Y3459D01*
Y3419D01*
X8010Y14179D02*
X8090Y14259D01*
X8170Y14179D01*
X8090Y14099D01*
X8010Y14179D01*
X6910Y13979D02*
X6990Y14059D01*
X7070Y13979D01*
X6990Y13899D01*
X6910Y13979D01*
X7960Y16789D02*
X8040Y16869D01*
X8120Y16789D01*
X8040Y16709D01*
X7960Y16789D01*
X2937Y7409D02*
X3017Y7489D01*
X3097Y7409D01*
X3017Y7329D01*
X2937Y7409D01*
X3707Y6059D02*
X3787Y6139D01*
X3867Y6059D01*
X3787Y5979D01*
X3707Y6059D01*
X12843Y7980D02*
Y8140D01*
X13003D01*
Y7980D01*
X12843D01*
X12883Y8020D02*
Y8100D01*
X12963D01*
Y8020D01*
X12883D01*
X14020Y16519D02*
X14100Y16599D01*
X14180Y16519D01*
X14100Y16439D01*
X14020Y16519D01*
X8640Y16569D02*
X8720Y16649D01*
X8800Y16569D01*
X8720Y16489D01*
X8640Y16569D01*
X11880Y14829D02*
X11960Y14909D01*
X12040Y14829D01*
X11960Y14749D01*
X11880Y14829D01*
X13650Y15479D02*
X13730Y15559D01*
X13810Y15479D01*
X13730Y15399D01*
X13650Y15479D01*
X12605Y15374D02*
X12685Y15454D01*
X12765Y15374D01*
X12685Y15294D01*
X12605Y15374D01*
X6847Y5379D02*
X6767Y5539D01*
X6927D01*
X6847Y5379D01*
Y5419D02*
X6807Y5499D01*
X6887D01*
X6847Y5419D01*
X9085Y6394D02*
X9165Y6474D01*
X9245Y6394D01*
X9165Y6314D01*
X9085Y6394D01*
X11125Y4684D02*
X11205Y4764D01*
X11285Y4684D01*
X11205Y4604D01*
X11125Y4684D01*
X8565Y6394D02*
X8645Y6474D01*
X8725Y6394D01*
X8645Y6314D01*
X8565Y6394D01*
X11534Y7142D02*
Y7302D01*
X11694D01*
Y7142D01*
X11534D01*
X11574Y7182D02*
Y7262D01*
X11654D01*
Y7182D01*
X11574D01*
X11095Y5354D02*
Y5514D01*
X11255D01*
Y5354D01*
X11095D01*
X11135Y5394D02*
Y5474D01*
X11215D01*
Y5394D01*
X11135D01*
X12159Y17270D02*
X12239Y17350D01*
X12319Y17270D01*
X12239Y17190D01*
X12159Y17270D01*
X12514Y7679D02*
Y7839D01*
X12674D01*
Y7679D01*
X12514D01*
X12554Y7719D02*
Y7799D01*
X12634D01*
Y7719D01*
X12554D01*
X12424Y8111D02*
Y8271D01*
X12584D01*
Y8111D01*
X12424D01*
X12464Y8151D02*
Y8231D01*
X12544D01*
Y8151D01*
X12464D01*
X12973Y7527D02*
Y7687D01*
X13133D01*
Y7527D01*
X12973D01*
X13013Y7567D02*
Y7647D01*
X13093D01*
Y7567D01*
X13013D01*
X13885Y8094D02*
X13965Y8174D01*
X14045Y8094D01*
X13965Y8014D01*
X13885Y8094D01*
X16570Y6137D02*
X16650Y6217D01*
X16730Y6137D01*
X16650Y6057D01*
X16570Y6137D01*
X15920Y5787D02*
X16000Y5867D01*
X16080Y5787D01*
X16000Y5707D01*
X15920Y5787D01*
X11135Y6814D02*
Y6974D01*
X11295D01*
Y6814D01*
X11135D01*
X11175Y6854D02*
Y6934D01*
X11255D01*
Y6854D01*
X11175D01*
X11535Y6654D02*
Y6814D01*
X11695D01*
Y6654D01*
X11535D01*
X11575Y6694D02*
Y6774D01*
X11655D01*
Y6694D01*
X11575D01*
X11935Y6904D02*
Y7064D01*
X12095D01*
Y6904D01*
X11935D01*
X11975Y6944D02*
Y7024D01*
X12055D01*
Y6944D01*
X11975D01*
X6097Y4989D02*
X6017Y5149D01*
X6177D01*
X6097Y4989D01*
Y5029D02*
X6057Y5109D01*
X6137D01*
X6097Y5029D01*
X24636Y14169D02*
X24556Y14329D01*
X24716D01*
X24636Y14169D01*
X25956Y11939D02*
X25996Y11979D01*
X26036D01*
X25996Y12019D01*
X26036Y12059D01*
X25996D01*
X25956Y12099D01*
X25916Y12059D01*
X25876D01*
X25916Y12019D01*
X25876Y11979D01*
X25916D01*
X25956Y11939D01*
X36836Y14169D02*
X36876Y14249D01*
X36836Y14329D01*
X36916Y14289D01*
X36996Y14329D01*
X36956Y14249D01*
X36996Y14169D01*
X36916Y14209D01*
X36836Y14169D01*
X35616Y11939D02*
X35656Y11979D01*
X35696D01*
X35656Y12019D01*
X35696Y12059D01*
X35656D01*
X35616Y12099D01*
X35576Y12059D01*
X35536D01*
X35576Y12019D01*
X35536Y11979D01*
X35576D01*
X35616Y11939D01*
X30736Y10669D02*
Y10629D01*
X30816D01*
Y10669D01*
X30856D01*
Y10749D01*
X30816D01*
Y10789D01*
X30736D01*
Y10749D01*
X30696D01*
Y10669D01*
X30736D01*
X30696Y3539D02*
X30736Y3619D01*
X30696Y3699D01*
X30776Y3659D01*
X30856Y3699D01*
X30816Y3619D01*
X30856Y3539D01*
X30776Y3579D01*
X30696Y3539D01*
X32136Y3419D02*
X32176D01*
X32216Y3459D01*
X32256Y3419D01*
X32296D01*
Y3459D01*
X32256Y3499D01*
X32296Y3539D01*
Y3579D01*
X32256D01*
X32216Y3539D01*
X32176Y3579D01*
X32136D01*
Y3539D01*
X32176Y3499D01*
X32136Y3459D01*
Y3419D01*
X29256D02*
X29296D01*
X29336Y3459D01*
X29376Y3419D01*
X29416D01*
Y3459D01*
X29376Y3499D01*
X29416Y3539D01*
Y3579D01*
X29376D01*
X29336Y3539D01*
X29296Y3579D01*
X29256D01*
Y3539D01*
X29296Y3499D01*
X29256Y3459D01*
Y3419D01*
X29270Y14179D02*
X29350Y14259D01*
X29430Y14179D01*
X29350Y14099D01*
X29270Y14179D01*
X28170Y13979D02*
X28250Y14059D01*
X28330Y13979D01*
X28250Y13899D01*
X28170Y13979D01*
X29220Y16789D02*
X29300Y16869D01*
X29380Y16789D01*
X29300Y16709D01*
X29220Y16789D01*
X24196Y7409D02*
X24276Y7489D01*
X24356Y7409D01*
X24276Y7329D01*
X24196Y7409D01*
X24966Y6059D02*
X25046Y6139D01*
X25126Y6059D01*
X25046Y5979D01*
X24966Y6059D01*
X34103Y7980D02*
Y8140D01*
X34263D01*
Y7980D01*
X34103D01*
X34143Y8020D02*
Y8100D01*
X34223D01*
Y8020D01*
X34143D01*
X35280Y16519D02*
X35360Y16599D01*
X35440Y16519D01*
X35360Y16439D01*
X35280Y16519D01*
X29900Y16569D02*
X29980Y16649D01*
X30060Y16569D01*
X29980Y16489D01*
X29900Y16569D01*
X33140Y14829D02*
X33220Y14909D01*
X33300Y14829D01*
X33220Y14749D01*
X33140Y14829D01*
X34910Y15479D02*
X34990Y15559D01*
X35070Y15479D01*
X34990Y15399D01*
X34910Y15479D01*
X33865Y15374D02*
X33945Y15454D01*
X34025Y15374D01*
X33945Y15294D01*
X33865Y15374D01*
X28106Y5379D02*
X28026Y5539D01*
X28186D01*
X28106Y5379D01*
Y5419D02*
X28066Y5499D01*
X28146D01*
X28106Y5419D01*
X30345Y6394D02*
X30425Y6474D01*
X30505Y6394D01*
X30425Y6314D01*
X30345Y6394D01*
X32385Y4684D02*
X32465Y4764D01*
X32545Y4684D01*
X32465Y4604D01*
X32385Y4684D01*
X29825Y6394D02*
X29905Y6474D01*
X29985Y6394D01*
X29905Y6314D01*
X29825Y6394D01*
X32794Y7142D02*
Y7302D01*
X32954D01*
Y7142D01*
X32794D01*
X32834Y7182D02*
Y7262D01*
X32914D01*
Y7182D01*
X32834D01*
X32355Y5354D02*
Y5514D01*
X32515D01*
Y5354D01*
X32355D01*
X32395Y5394D02*
Y5474D01*
X32475D01*
Y5394D01*
X32395D01*
X33419Y17270D02*
X33499Y17350D01*
X33579Y17270D01*
X33499Y17190D01*
X33419Y17270D01*
X33774Y7679D02*
Y7839D01*
X33934D01*
Y7679D01*
X33774D01*
X33814Y7719D02*
Y7799D01*
X33894D01*
Y7719D01*
X33814D01*
X33684Y8111D02*
Y8271D01*
X33844D01*
Y8111D01*
X33684D01*
X33724Y8151D02*
Y8231D01*
X33804D01*
Y8151D01*
X33724D01*
X34232Y7527D02*
Y7687D01*
X34392D01*
Y7527D01*
X34232D01*
X34272Y7567D02*
Y7647D01*
X34352D01*
Y7567D01*
X34272D01*
X35145Y8094D02*
X35225Y8174D01*
X35305Y8094D01*
X35225Y8014D01*
X35145Y8094D01*
X37830Y6137D02*
X37910Y6217D01*
X37990Y6137D01*
X37910Y6057D01*
X37830Y6137D01*
X37180Y5787D02*
X37260Y5867D01*
X37340Y5787D01*
X37260Y5707D01*
X37180Y5787D01*
X32395Y6814D02*
Y6974D01*
X32555D01*
Y6814D01*
X32395D01*
X32435Y6854D02*
Y6934D01*
X32515D01*
Y6854D01*
X32435D01*
X32795Y6654D02*
Y6814D01*
X32955D01*
Y6654D01*
X32795D01*
X32835Y6694D02*
Y6774D01*
X32915D01*
Y6694D01*
X32835D01*
X33195Y6904D02*
Y7064D01*
X33355D01*
Y6904D01*
X33195D01*
X33235Y6944D02*
Y7024D01*
X33315D01*
Y6944D01*
X33235D01*
X27356Y4989D02*
X27276Y5149D01*
X27436D01*
X27356Y4989D01*
Y5029D02*
X27316Y5109D01*
X27396D01*
X27356Y5029D01*
X45896Y14169D02*
X45816Y14329D01*
X45976D01*
X45896Y14169D01*
X47216Y11939D02*
X47256Y11979D01*
X47296D01*
X47256Y12019D01*
X47296Y12059D01*
X47256D01*
X47216Y12099D01*
X47176Y12059D01*
X47136D01*
X47176Y12019D01*
X47136Y11979D01*
X47176D01*
X47216Y11939D01*
X58096Y14169D02*
X58136Y14249D01*
X58096Y14329D01*
X58176Y14289D01*
X58256Y14329D01*
X58216Y14249D01*
X58256Y14169D01*
X58176Y14209D01*
X58096Y14169D01*
X56876Y11939D02*
X56916Y11979D01*
X56956D01*
X56916Y12019D01*
X56956Y12059D01*
X56916D01*
X56876Y12099D01*
X56836Y12059D01*
X56796D01*
X56836Y12019D01*
X56796Y11979D01*
X56836D01*
X56876Y11939D01*
X51996Y10669D02*
Y10629D01*
X52076D01*
Y10669D01*
X52116D01*
Y10749D01*
X52076D01*
Y10789D01*
X51996D01*
Y10749D01*
X51956D01*
Y10669D01*
X51996D01*
X51956Y3539D02*
X51996Y3619D01*
X51956Y3699D01*
X52036Y3659D01*
X52116Y3699D01*
X52076Y3619D01*
X52116Y3539D01*
X52036Y3579D01*
X51956Y3539D01*
X53396Y3419D02*
X53436D01*
X53476Y3459D01*
X53516Y3419D01*
X53556D01*
Y3459D01*
X53516Y3499D01*
X53556Y3539D01*
Y3579D01*
X53516D01*
X53476Y3539D01*
X53436Y3579D01*
X53396D01*
Y3539D01*
X53436Y3499D01*
X53396Y3459D01*
Y3419D01*
X50516D02*
X50556D01*
X50596Y3459D01*
X50636Y3419D01*
X50676D01*
Y3459D01*
X50636Y3499D01*
X50676Y3539D01*
Y3579D01*
X50636D01*
X50596Y3539D01*
X50556Y3579D01*
X50516D01*
Y3539D01*
X50556Y3499D01*
X50516Y3459D01*
Y3419D01*
X50530Y14179D02*
X50610Y14259D01*
X50690Y14179D01*
X50610Y14099D01*
X50530Y14179D01*
X49430Y13979D02*
X49510Y14059D01*
X49590Y13979D01*
X49510Y13899D01*
X49430Y13979D01*
X50480Y16789D02*
X50560Y16869D01*
X50640Y16789D01*
X50560Y16709D01*
X50480Y16789D01*
X45456Y7409D02*
X45536Y7489D01*
X45616Y7409D01*
X45536Y7329D01*
X45456Y7409D01*
X46226Y6059D02*
X46306Y6139D01*
X46386Y6059D01*
X46306Y5979D01*
X46226Y6059D01*
X55363Y7980D02*
Y8140D01*
X55523D01*
Y7980D01*
X55363D01*
X55403Y8020D02*
Y8100D01*
X55483D01*
Y8020D01*
X55403D01*
X56540Y16519D02*
X56620Y16599D01*
X56700Y16519D01*
X56620Y16439D01*
X56540Y16519D01*
X51160Y16569D02*
X51240Y16649D01*
X51320Y16569D01*
X51240Y16489D01*
X51160Y16569D01*
X54400Y14829D02*
X54480Y14909D01*
X54560Y14829D01*
X54480Y14749D01*
X54400Y14829D01*
X56170Y15479D02*
X56250Y15559D01*
X56330Y15479D01*
X56250Y15399D01*
X56170Y15479D01*
X55125Y15374D02*
X55205Y15454D01*
X55285Y15374D01*
X55205Y15294D01*
X55125Y15374D01*
X49366Y5379D02*
X49286Y5539D01*
X49446D01*
X49366Y5379D01*
Y5419D02*
X49326Y5499D01*
X49406D01*
X49366Y5419D01*
X51605Y6394D02*
X51685Y6474D01*
X51765Y6394D01*
X51685Y6314D01*
X51605Y6394D01*
X53645Y4684D02*
X53725Y4764D01*
X53805Y4684D01*
X53725Y4604D01*
X53645Y4684D01*
X51085Y6394D02*
X51165Y6474D01*
X51245Y6394D01*
X51165Y6314D01*
X51085Y6394D01*
X54054Y7142D02*
Y7302D01*
X54214D01*
Y7142D01*
X54054D01*
X54094Y7182D02*
Y7262D01*
X54174D01*
Y7182D01*
X54094D01*
X53615Y5354D02*
Y5514D01*
X53775D01*
Y5354D01*
X53615D01*
X53655Y5394D02*
Y5474D01*
X53735D01*
Y5394D01*
X53655D01*
X54679Y17270D02*
X54759Y17350D01*
X54839Y17270D01*
X54759Y17190D01*
X54679Y17270D01*
X55034Y7679D02*
Y7839D01*
X55194D01*
Y7679D01*
X55034D01*
X55074Y7719D02*
Y7799D01*
X55154D01*
Y7719D01*
X55074D01*
X54944Y8111D02*
Y8271D01*
X55104D01*
Y8111D01*
X54944D01*
X54984Y8151D02*
Y8231D01*
X55064D01*
Y8151D01*
X54984D01*
X55492Y7527D02*
Y7687D01*
X55652D01*
Y7527D01*
X55492D01*
X55532Y7567D02*
Y7647D01*
X55612D01*
Y7567D01*
X55532D01*
X56405Y8094D02*
X56485Y8174D01*
X56565Y8094D01*
X56485Y8014D01*
X56405Y8094D01*
X59090Y6137D02*
X59170Y6217D01*
X59250Y6137D01*
X59170Y6057D01*
X59090Y6137D01*
X58440Y5787D02*
X58520Y5867D01*
X58600Y5787D01*
X58520Y5707D01*
X58440Y5787D01*
X53655Y6814D02*
Y6974D01*
X53815D01*
Y6814D01*
X53655D01*
X53695Y6854D02*
Y6934D01*
X53775D01*
Y6854D01*
X53695D01*
X54055Y6654D02*
Y6814D01*
X54215D01*
Y6654D01*
X54055D01*
X54095Y6694D02*
Y6774D01*
X54175D01*
Y6694D01*
X54095D01*
X54455Y6904D02*
Y7064D01*
X54615D01*
Y6904D01*
X54455D01*
X54495Y6944D02*
Y7024D01*
X54575D01*
Y6944D01*
X54495D01*
X48616Y4989D02*
X48536Y5149D01*
X48696D01*
X48616Y4989D01*
Y5029D02*
X48576Y5109D01*
X48656D01*
X48616Y5029D01*
X67156Y14169D02*
X67076Y14329D01*
X67236D01*
X67156Y14169D01*
X68476Y11939D02*
X68516Y11979D01*
X68556D01*
X68516Y12019D01*
X68556Y12059D01*
X68516D01*
X68476Y12099D01*
X68436Y12059D01*
X68396D01*
X68436Y12019D01*
X68396Y11979D01*
X68436D01*
X68476Y11939D01*
X79356Y14169D02*
X79396Y14249D01*
X79356Y14329D01*
X79436Y14289D01*
X79516Y14329D01*
X79476Y14249D01*
X79516Y14169D01*
X79436Y14209D01*
X79356Y14169D01*
X78136Y11939D02*
X78176Y11979D01*
X78216D01*
X78176Y12019D01*
X78216Y12059D01*
X78176D01*
X78136Y12099D01*
X78096Y12059D01*
X78056D01*
X78096Y12019D01*
X78056Y11979D01*
X78096D01*
X78136Y11939D01*
X73256Y10669D02*
Y10629D01*
X73336D01*
Y10669D01*
X73376D01*
Y10749D01*
X73336D01*
Y10789D01*
X73256D01*
Y10749D01*
X73216D01*
Y10669D01*
X73256D01*
X73216Y3539D02*
X73256Y3619D01*
X73216Y3699D01*
X73296Y3659D01*
X73376Y3699D01*
X73336Y3619D01*
X73376Y3539D01*
X73296Y3579D01*
X73216Y3539D01*
X74656Y3419D02*
X74696D01*
X74736Y3459D01*
X74776Y3419D01*
X74816D01*
Y3459D01*
X74776Y3499D01*
X74816Y3539D01*
Y3579D01*
X74776D01*
X74736Y3539D01*
X74696Y3579D01*
X74656D01*
Y3539D01*
X74696Y3499D01*
X74656Y3459D01*
Y3419D01*
X71776D02*
X71816D01*
X71856Y3459D01*
X71896Y3419D01*
X71936D01*
Y3459D01*
X71896Y3499D01*
X71936Y3539D01*
Y3579D01*
X71896D01*
X71856Y3539D01*
X71816Y3579D01*
X71776D01*
Y3539D01*
X71816Y3499D01*
X71776Y3459D01*
Y3419D01*
X71790Y14179D02*
X71870Y14259D01*
X71950Y14179D01*
X71870Y14099D01*
X71790Y14179D01*
X70690Y13979D02*
X70770Y14059D01*
X70850Y13979D01*
X70770Y13899D01*
X70690Y13979D01*
X71740Y16789D02*
X71820Y16869D01*
X71900Y16789D01*
X71820Y16709D01*
X71740Y16789D01*
X66716Y7409D02*
X66796Y7489D01*
X66876Y7409D01*
X66796Y7329D01*
X66716Y7409D01*
X67486Y6059D02*
X67566Y6139D01*
X67646Y6059D01*
X67566Y5979D01*
X67486Y6059D01*
X76623Y7980D02*
Y8140D01*
X76783D01*
Y7980D01*
X76623D01*
X76663Y8020D02*
Y8100D01*
X76743D01*
Y8020D01*
X76663D01*
X77800Y16519D02*
X77880Y16599D01*
X77960Y16519D01*
X77880Y16439D01*
X77800Y16519D01*
X72420Y16569D02*
X72500Y16649D01*
X72580Y16569D01*
X72500Y16489D01*
X72420Y16569D01*
X75660Y14829D02*
X75740Y14909D01*
X75820Y14829D01*
X75740Y14749D01*
X75660Y14829D01*
X77430Y15479D02*
X77510Y15559D01*
X77590Y15479D01*
X77510Y15399D01*
X77430Y15479D01*
X76385Y15374D02*
X76465Y15454D01*
X76545Y15374D01*
X76465Y15294D01*
X76385Y15374D01*
X70626Y5379D02*
X70546Y5539D01*
X70706D01*
X70626Y5379D01*
Y5419D02*
X70586Y5499D01*
X70666D01*
X70626Y5419D01*
X72865Y6394D02*
X72945Y6474D01*
X73025Y6394D01*
X72945Y6314D01*
X72865Y6394D01*
X74905Y4684D02*
X74985Y4764D01*
X75065Y4684D01*
X74985Y4604D01*
X74905Y4684D01*
X72345Y6394D02*
X72425Y6474D01*
X72505Y6394D01*
X72425Y6314D01*
X72345Y6394D01*
X75314Y7142D02*
Y7302D01*
X75474D01*
Y7142D01*
X75314D01*
X75354Y7182D02*
Y7262D01*
X75434D01*
Y7182D01*
X75354D01*
X74875Y5354D02*
Y5514D01*
X75035D01*
Y5354D01*
X74875D01*
X74915Y5394D02*
Y5474D01*
X74995D01*
Y5394D01*
X74915D01*
X75938Y17270D02*
X76018Y17350D01*
X76098Y17270D01*
X76018Y17190D01*
X75938Y17270D01*
X76294Y7679D02*
Y7839D01*
X76454D01*
Y7679D01*
X76294D01*
X76334Y7719D02*
Y7799D01*
X76414D01*
Y7719D01*
X76334D01*
X76204Y8111D02*
Y8271D01*
X76364D01*
Y8111D01*
X76204D01*
X76244Y8151D02*
Y8231D01*
X76324D01*
Y8151D01*
X76244D01*
X76752Y7527D02*
Y7687D01*
X76912D01*
Y7527D01*
X76752D01*
X76792Y7567D02*
Y7647D01*
X76872D01*
Y7567D01*
X76792D01*
X77665Y8094D02*
X77745Y8174D01*
X77825Y8094D01*
X77745Y8014D01*
X77665Y8094D01*
X80350Y6137D02*
X80430Y6217D01*
X80510Y6137D01*
X80430Y6057D01*
X80350Y6137D01*
X79700Y5787D02*
X79780Y5867D01*
X79860Y5787D01*
X79780Y5707D01*
X79700Y5787D01*
X74915Y6814D02*
Y6974D01*
X75075D01*
Y6814D01*
X74915D01*
X74955Y6854D02*
Y6934D01*
X75035D01*
Y6854D01*
X74955D01*
X75315Y6654D02*
Y6814D01*
X75475D01*
Y6654D01*
X75315D01*
X75355Y6694D02*
Y6774D01*
X75435D01*
Y6694D01*
X75355D01*
X75715Y6904D02*
Y7064D01*
X75875D01*
Y6904D01*
X75715D01*
X75755Y6944D02*
Y7024D01*
X75835D01*
Y6944D01*
X75755D01*
X69876Y4989D02*
X69796Y5149D01*
X69956D01*
X69876Y4989D01*
Y5029D02*
X69836Y5109D01*
X69916D01*
X69876Y5029D01*
D110*
X17050Y10326D02*
G03*
X17050Y10326I-80J0D01*
G01*
X16557Y9474D02*
G03*
X16557Y9474I-80J0D01*
G01*
X16065Y8622D02*
G03*
X16065Y8622I-80J0D01*
G01*
X15573Y7769D02*
G03*
X15573Y7769I-80J0D01*
G01*
X15081Y6917D02*
G03*
X15081Y6917I-80J0D01*
G01*
X14589Y6064D02*
G03*
X14589Y6064I-80J0D01*
G01*
X14097Y5212D02*
G03*
X14097Y5212I-80J0D01*
G01*
X13605Y4360D02*
G03*
X13605Y4360I-80J0D01*
G01*
X4967Y6902D02*
G03*
X4967Y6902I-80J0D01*
G01*
X5467Y6036D02*
G03*
X5467Y6036I-80J0D01*
G01*
X3987Y8586D02*
G03*
X3987Y8586I-80J0D01*
G01*
X3487Y9452D02*
G03*
X3487Y9452I-80J0D01*
G01*
X4165Y7524D02*
G03*
X4165Y7524I-80J0D01*
G01*
X38309Y10326D02*
G03*
X38309Y10326I-80J0D01*
G01*
X37817Y9474D02*
G03*
X37817Y9474I-80J0D01*
G01*
X37325Y8622D02*
G03*
X37325Y8622I-80J0D01*
G01*
X36833Y7769D02*
G03*
X36833Y7769I-80J0D01*
G01*
X36341Y6917D02*
G03*
X36341Y6917I-80J0D01*
G01*
X35849Y6064D02*
G03*
X35849Y6064I-80J0D01*
G01*
X35357Y5212D02*
G03*
X35357Y5212I-80J0D01*
G01*
X34865Y4360D02*
G03*
X34865Y4360I-80J0D01*
G01*
X26226Y6902D02*
G03*
X26226Y6902I-80J0D01*
G01*
X26726Y6036D02*
G03*
X26726Y6036I-80J0D01*
G01*
X25246Y8586D02*
G03*
X25246Y8586I-80J0D01*
G01*
X24746Y9452D02*
G03*
X24746Y9452I-80J0D01*
G01*
X25425Y7524D02*
G03*
X25425Y7524I-80J0D01*
G01*
X59569Y10326D02*
G03*
X59569Y10326I-80J0D01*
G01*
X59077Y9474D02*
G03*
X59077Y9474I-80J0D01*
G01*
X58585Y8622D02*
G03*
X58585Y8622I-80J0D01*
G01*
X58093Y7769D02*
G03*
X58093Y7769I-80J0D01*
G01*
X57601Y6917D02*
G03*
X57601Y6917I-80J0D01*
G01*
X57109Y6064D02*
G03*
X57109Y6064I-80J0D01*
G01*
X56617Y5212D02*
G03*
X56617Y5212I-80J0D01*
G01*
X56124Y4360D02*
G03*
X56124Y4360I-80J0D01*
G01*
X47486Y6902D02*
G03*
X47486Y6902I-80J0D01*
G01*
X47986Y6036D02*
G03*
X47986Y6036I-80J0D01*
G01*
X46506Y8586D02*
G03*
X46506Y8586I-80J0D01*
G01*
X46006Y9452D02*
G03*
X46006Y9452I-80J0D01*
G01*
X46685Y7524D02*
G03*
X46685Y7524I-80J0D01*
G01*
X80829Y10326D02*
G03*
X80829Y10326I-80J0D01*
G01*
X80337Y9474D02*
G03*
X80337Y9474I-80J0D01*
G01*
X79845Y8622D02*
G03*
X79845Y8622I-80J0D01*
G01*
X79353Y7769D02*
G03*
X79353Y7769I-80J0D01*
G01*
X78861Y6917D02*
G03*
X78861Y6917I-80J0D01*
G01*
X78369Y6064D02*
G03*
X78369Y6064I-80J0D01*
G01*
X77876Y5212D02*
G03*
X77876Y5212I-80J0D01*
G01*
X77384Y4360D02*
G03*
X77384Y4360I-80J0D01*
G01*
X68746Y6902D02*
G03*
X68746Y6902I-80J0D01*
G01*
X69246Y6036D02*
G03*
X69246Y6036I-80J0D01*
G01*
X67766Y8586D02*
G03*
X67766Y8586I-80J0D01*
G01*
X67266Y9452D02*
G03*
X67266Y9452I-80J0D01*
G01*
X67945Y7524D02*
G03*
X67945Y7524I-80J0D01*
G01*
D111*
X4125D02*
G03*
X4125Y7524I-40J0D01*
G01*
X25385D02*
G03*
X25385Y7524I-40J0D01*
G01*
X46645D02*
G03*
X46645Y7524I-40J0D01*
G01*
X67905D02*
G03*
X67905Y7524I-40J0D01*
G01*
M02*
