G04 Layer_Color=8421504*
%FSLAX24Y24*%
%MOIN*%
G70*
G01*
G75*
G04:AMPARAMS|DCode=11|XSize=78.7mil|YSize=78.7mil|CornerRadius=39.4mil|HoleSize=0mil|Usage=FLASHONLY|Rotation=90.000|XOffset=0mil|YOffset=0mil|HoleType=Round|Shape=RoundedRectangle|*
%AMROUNDEDRECTD11*
21,1,0.0787,0.0000,0,0,90.0*
21,1,0.0000,0.0787,0,0,90.0*
1,1,0.0787,0.0000,0.0000*
1,1,0.0787,0.0000,0.0000*
1,1,0.0787,0.0000,0.0000*
1,1,0.0787,0.0000,0.0000*
%
%ADD11ROUNDEDRECTD11*%
%ADD58C,0.0354*%
G04:AMPARAMS|DCode=59|XSize=45.2mil|YSize=57.1mil|CornerRadius=0mil|HoleSize=0mil|Usage=FLASHONLY|Rotation=240.000|XOffset=0mil|YOffset=0mil|HoleType=Round|Shape=Rectangle|*
%AMROTATEDRECTD59*
4,1,4,-0.0134,0.0339,0.0360,0.0053,0.0134,-0.0339,-0.0360,-0.0053,-0.0134,0.0339,0.0*
%
%ADD59ROTATEDRECTD59*%

G04:AMPARAMS|DCode=60|XSize=45.2mil|YSize=57.1mil|CornerRadius=0mil|HoleSize=0mil|Usage=FLASHONLY|Rotation=300.000|XOffset=0mil|YOffset=0mil|HoleType=Round|Shape=Rectangle|*
%AMROTATEDRECTD60*
4,1,4,-0.0360,0.0053,0.0134,0.0339,0.0360,-0.0053,-0.0134,-0.0339,-0.0360,0.0053,0.0*
%
%ADD60ROTATEDRECTD60*%

G04:AMPARAMS|DCode=61|XSize=50mil|YSize=58mil|CornerRadius=12mil|HoleSize=0mil|Usage=FLASHONLY|Rotation=270.000|XOffset=0mil|YOffset=0mil|HoleType=Round|Shape=RoundedRectangle|*
%AMROUNDEDRECTD61*
21,1,0.0500,0.0340,0,0,270.0*
21,1,0.0260,0.0580,0,0,270.0*
1,1,0.0240,-0.0170,-0.0130*
1,1,0.0240,-0.0170,0.0130*
1,1,0.0240,0.0170,0.0130*
1,1,0.0240,0.0170,-0.0130*
%
%ADD61ROUNDEDRECTD61*%
%ADD62R,0.0452X0.0177*%
%ADD63R,0.0374X0.0177*%
G04:AMPARAMS|DCode=64|XSize=27.1mil|YSize=37.4mil|CornerRadius=4.8mil|HoleSize=0mil|Usage=FLASHONLY|Rotation=0.000|XOffset=0mil|YOffset=0mil|HoleType=Round|Shape=RoundedRectangle|*
%AMROUNDEDRECTD64*
21,1,0.0271,0.0277,0,0,0.0*
21,1,0.0175,0.0374,0,0,0.0*
1,1,0.0097,0.0087,-0.0139*
1,1,0.0097,-0.0087,-0.0139*
1,1,0.0097,-0.0087,0.0139*
1,1,0.0097,0.0087,0.0139*
%
%ADD64ROUNDEDRECTD64*%
%ADD65R,0.0300X0.0340*%
%ADD66R,0.0340X0.0300*%
%ADD67R,0.0472X0.0315*%
%ADD68R,0.0140X0.0130*%
%ADD69R,0.0130X0.0140*%
%ADD70R,0.0315X0.0472*%
G04:AMPARAMS|DCode=71|XSize=27.1mil|YSize=37.4mil|CornerRadius=4.8mil|HoleSize=0mil|Usage=FLASHONLY|Rotation=90.000|XOffset=0mil|YOffset=0mil|HoleType=Round|Shape=RoundedRectangle|*
%AMROUNDEDRECTD71*
21,1,0.0271,0.0277,0,0,90.0*
21,1,0.0175,0.0374,0,0,90.0*
1,1,0.0097,0.0139,0.0087*
1,1,0.0097,0.0139,-0.0087*
1,1,0.0097,-0.0139,-0.0087*
1,1,0.0097,-0.0139,0.0087*
%
%ADD71ROUNDEDRECTD71*%
G36*
X70967Y17110D02*
X71198Y16879D01*
Y16691D01*
X70967Y16461D01*
X69997Y16461D01*
X69997Y17110D01*
X70967Y17110D01*
D02*
G37*
G36*
X49708D02*
X49938Y16879D01*
Y16691D01*
X49708Y16461D01*
X48738Y16461D01*
X48738Y17110D01*
X49708Y17110D01*
D02*
G37*
G36*
X28448D02*
X28678Y16879D01*
Y16691D01*
X28448Y16461D01*
X27478Y16461D01*
X27478Y17110D01*
X28448Y17110D01*
D02*
G37*
G36*
X7188D02*
X7418Y16879D01*
Y16691D01*
X7188Y16461D01*
X6218Y16461D01*
X6218Y17110D01*
X7188Y17110D01*
D02*
G37*
G36*
X70974Y15100D02*
X71205Y14869D01*
Y14681D01*
X70974Y14451D01*
X70004Y14451D01*
X70004Y15100D01*
X70974Y15100D01*
D02*
G37*
G36*
X49714D02*
X49945Y14869D01*
Y14681D01*
X49714Y14451D01*
X48744Y14451D01*
X48744Y15100D01*
X49714Y15100D01*
D02*
G37*
G36*
X28455D02*
X28685Y14869D01*
Y14681D01*
X28455Y14451D01*
X27485Y14451D01*
X27485Y15100D01*
X28455Y15100D01*
D02*
G37*
G36*
X7195D02*
X7425Y14869D01*
Y14681D01*
X7195Y14451D01*
X6225Y14451D01*
X6225Y15100D01*
X7195Y15100D01*
D02*
G37*
D11*
X79078Y1319D02*
D03*
X3789Y21848D02*
D03*
X79078Y21878D02*
D03*
X3789Y1289D02*
D03*
D58*
X13702Y4360D02*
G03*
X13702Y4360I-177J0D01*
G01*
X14194Y5212D02*
G03*
X14194Y5212I-177J0D01*
G01*
X14686Y6064D02*
G03*
X14686Y6064I-177J0D01*
G01*
X15178Y6917D02*
G03*
X15178Y6917I-177J0D01*
G01*
X15670Y7769D02*
G03*
X15670Y7769I-177J0D01*
G01*
X16163Y8622D02*
G03*
X16163Y8622I-177J0D01*
G01*
X16655Y9474D02*
G03*
X16655Y9474I-177J0D01*
G01*
X17147Y10326D02*
G03*
X17147Y10326I-177J0D01*
G01*
X34962Y4360D02*
G03*
X34962Y4360I-177J0D01*
G01*
X35454Y5212D02*
G03*
X35454Y5212I-177J0D01*
G01*
X35946Y6064D02*
G03*
X35946Y6064I-177J0D01*
G01*
X36438Y6917D02*
G03*
X36438Y6917I-177J0D01*
G01*
X36930Y7769D02*
G03*
X36930Y7769I-177J0D01*
G01*
X37422Y8622D02*
G03*
X37422Y8622I-177J0D01*
G01*
X37914Y9474D02*
G03*
X37914Y9474I-177J0D01*
G01*
X38407Y10326D02*
G03*
X38407Y10326I-177J0D01*
G01*
X56222Y4360D02*
G03*
X56222Y4360I-177J0D01*
G01*
X56714Y5212D02*
G03*
X56714Y5212I-177J0D01*
G01*
X57206Y6064D02*
G03*
X57206Y6064I-177J0D01*
G01*
X57698Y6917D02*
G03*
X57698Y6917I-177J0D01*
G01*
X58190Y7769D02*
G03*
X58190Y7769I-177J0D01*
G01*
X58682Y8622D02*
G03*
X58682Y8622I-177J0D01*
G01*
X59174Y9474D02*
G03*
X59174Y9474I-177J0D01*
G01*
X59666Y10326D02*
G03*
X59666Y10326I-177J0D01*
G01*
X77481Y4360D02*
G03*
X77481Y4360I-177J0D01*
G01*
X77974Y5212D02*
G03*
X77974Y5212I-177J0D01*
G01*
X78466Y6064D02*
G03*
X78466Y6064I-177J0D01*
G01*
X78958Y6917D02*
G03*
X78958Y6917I-177J0D01*
G01*
X79450Y7769D02*
G03*
X79450Y7769I-177J0D01*
G01*
X79942Y8622D02*
G03*
X79942Y8622I-177J0D01*
G01*
X80434Y9474D02*
G03*
X80434Y9474I-177J0D01*
G01*
X80926Y10326D02*
G03*
X80926Y10326I-177J0D01*
G01*
D59*
X17130Y5850D02*
D03*
X16500Y4758D02*
D03*
X18160Y7630D02*
D03*
X17530Y6538D02*
D03*
X38390Y5850D02*
D03*
X37760Y4758D02*
D03*
X39420Y7630D02*
D03*
X38790Y6538D02*
D03*
X59650Y5850D02*
D03*
X59020Y4758D02*
D03*
X60680Y7630D02*
D03*
X60050Y6538D02*
D03*
X80910Y5850D02*
D03*
X80280Y4758D02*
D03*
X81940Y7630D02*
D03*
X81310Y6538D02*
D03*
D60*
X1950Y5860D02*
D03*
X2580Y4768D02*
D03*
X930Y7660D02*
D03*
X1560Y6568D02*
D03*
X23210Y5860D02*
D03*
X23840Y4768D02*
D03*
X22190Y7660D02*
D03*
X22820Y6568D02*
D03*
X44470Y5860D02*
D03*
X45100Y4768D02*
D03*
X43450Y7660D02*
D03*
X44080Y6568D02*
D03*
X65730Y5860D02*
D03*
X66360Y4768D02*
D03*
X64710Y7660D02*
D03*
X65340Y6568D02*
D03*
D61*
X8500Y14619D02*
D03*
Y15373D02*
D03*
X8590Y17289D02*
D03*
Y18043D02*
D03*
X29760Y14619D02*
D03*
Y15373D02*
D03*
X29850Y17289D02*
D03*
Y18043D02*
D03*
X51020Y14619D02*
D03*
Y15373D02*
D03*
X51110Y17289D02*
D03*
Y18043D02*
D03*
X72280Y14619D02*
D03*
Y15373D02*
D03*
X72370Y17289D02*
D03*
Y18043D02*
D03*
D62*
X7593Y14185D02*
D03*
X7593Y15366D02*
D03*
X7586Y17376D02*
D03*
Y16195D02*
D03*
X28852Y14185D02*
D03*
X28852Y15366D02*
D03*
X28846Y17376D02*
D03*
Y16195D02*
D03*
X50112Y14185D02*
D03*
X50112Y15366D02*
D03*
X50105Y17376D02*
D03*
Y16195D02*
D03*
X71372Y14185D02*
D03*
X71372Y15366D02*
D03*
X71365Y17376D02*
D03*
Y16195D02*
D03*
D63*
X7632Y14775D02*
D03*
X7625Y16785D02*
D03*
X28892Y14775D02*
D03*
X28885Y16785D02*
D03*
X50152Y14775D02*
D03*
X50145Y16785D02*
D03*
X71411Y14775D02*
D03*
X71405Y16785D02*
D03*
D64*
X6768Y13479D02*
D03*
X6232D02*
D03*
X13728Y16519D02*
D03*
X13192D02*
D03*
X13728Y15879D02*
D03*
X13192D02*
D03*
X8182Y16189D02*
D03*
X8718D02*
D03*
X10078Y15949D02*
D03*
X9542D02*
D03*
X9547Y16613D02*
D03*
X10083D02*
D03*
X9977Y18694D02*
D03*
X10513D02*
D03*
X28028Y13479D02*
D03*
X27492D02*
D03*
X34988Y16519D02*
D03*
X34452D02*
D03*
X34988Y15879D02*
D03*
X34452D02*
D03*
X29442Y16189D02*
D03*
X29978D02*
D03*
X31338Y15949D02*
D03*
X30802D02*
D03*
X30807Y16613D02*
D03*
X31343D02*
D03*
X31237Y18694D02*
D03*
X31773D02*
D03*
X49287Y13479D02*
D03*
X48752D02*
D03*
X56247Y16519D02*
D03*
X55712D02*
D03*
X56247Y15879D02*
D03*
X55712D02*
D03*
X50702Y16189D02*
D03*
X51237D02*
D03*
X52597Y15949D02*
D03*
X52062D02*
D03*
X52067Y16613D02*
D03*
X52602D02*
D03*
X52497Y18694D02*
D03*
X53032D02*
D03*
X70547Y13479D02*
D03*
X70012D02*
D03*
X77507Y16519D02*
D03*
X76972D02*
D03*
X77507Y15879D02*
D03*
X76972D02*
D03*
X71962Y16189D02*
D03*
X72497D02*
D03*
X73857Y15949D02*
D03*
X73322D02*
D03*
X73327Y16613D02*
D03*
X73862D02*
D03*
X73757Y18694D02*
D03*
X74292D02*
D03*
D65*
X11475Y18104D02*
D03*
X11855Y17270D02*
D03*
X11101D02*
D03*
X10055Y18054D02*
D03*
X10435Y17220D02*
D03*
X9681D02*
D03*
X32735Y18104D02*
D03*
X33115Y17270D02*
D03*
X32361D02*
D03*
X31315Y18054D02*
D03*
X31695Y17220D02*
D03*
X30941D02*
D03*
X53995Y18104D02*
D03*
X54375Y17270D02*
D03*
X53621D02*
D03*
X52575Y18054D02*
D03*
X52955Y17220D02*
D03*
X52201D02*
D03*
X75255Y18104D02*
D03*
X75635Y17270D02*
D03*
X74881D02*
D03*
X73835Y18054D02*
D03*
X74215Y17220D02*
D03*
X73461D02*
D03*
D66*
X9530Y14979D02*
D03*
X10364Y15359D02*
D03*
Y14605D02*
D03*
X30790Y14979D02*
D03*
X31624Y15359D02*
D03*
Y14605D02*
D03*
X52050Y14979D02*
D03*
X52883Y15359D02*
D03*
Y14605D02*
D03*
X73310Y14979D02*
D03*
X74143Y15359D02*
D03*
Y14605D02*
D03*
D67*
X11695Y4699D02*
D03*
Y5428D02*
D03*
X32955Y4699D02*
D03*
Y5428D02*
D03*
X54215Y4699D02*
D03*
Y5428D02*
D03*
X75475Y4699D02*
D03*
Y5428D02*
D03*
D68*
X12095Y16270D02*
D03*
X12685D02*
D03*
X12095Y16078D02*
D03*
X12685D02*
D03*
X12095Y15881D02*
D03*
X12685D02*
D03*
X12095Y15689D02*
D03*
X12685D02*
D03*
X33355Y16270D02*
D03*
X33945D02*
D03*
X33355Y16078D02*
D03*
X33945D02*
D03*
X33355Y15881D02*
D03*
X33945D02*
D03*
X33355Y15689D02*
D03*
X33945D02*
D03*
X54614Y16270D02*
D03*
X55205D02*
D03*
X54614Y16078D02*
D03*
X55205D02*
D03*
X54614Y15881D02*
D03*
X55205D02*
D03*
X54614Y15689D02*
D03*
X55205D02*
D03*
X75874Y16270D02*
D03*
X76465D02*
D03*
X75874Y16078D02*
D03*
X76465D02*
D03*
X75874Y15881D02*
D03*
X76465D02*
D03*
X75874Y15689D02*
D03*
X76465D02*
D03*
D69*
X12292Y16275D02*
D03*
X12488D02*
D03*
X12292Y15684D02*
D03*
X12488D02*
D03*
X33551Y16275D02*
D03*
X33748D02*
D03*
X33551Y15684D02*
D03*
X33748D02*
D03*
X54811Y16275D02*
D03*
X55008D02*
D03*
X54811Y15684D02*
D03*
X55008D02*
D03*
X76071Y16275D02*
D03*
X76268D02*
D03*
X76071Y15684D02*
D03*
X76268D02*
D03*
D70*
X7911Y5189D02*
D03*
X8639D02*
D03*
X9166D02*
D03*
X9895D02*
D03*
X9166Y5939D02*
D03*
X9895D02*
D03*
X7911D02*
D03*
X8639D02*
D03*
X29171Y5189D02*
D03*
X29899D02*
D03*
X30426D02*
D03*
X31155D02*
D03*
X30426Y5939D02*
D03*
X31155D02*
D03*
X29171D02*
D03*
X29899D02*
D03*
X50431Y5189D02*
D03*
X51159D02*
D03*
X51686D02*
D03*
X52414D02*
D03*
X51686Y5939D02*
D03*
X52414D02*
D03*
X50431D02*
D03*
X51159D02*
D03*
X71690Y5189D02*
D03*
X72419D02*
D03*
X72946D02*
D03*
X73674D02*
D03*
X72946Y5939D02*
D03*
X73674D02*
D03*
X71690D02*
D03*
X72419D02*
D03*
D71*
X11550Y15291D02*
D03*
Y14756D02*
D03*
Y15806D02*
D03*
Y16341D02*
D03*
X9415Y18801D02*
D03*
Y18266D02*
D03*
X10935Y15070D02*
D03*
Y15606D02*
D03*
X32810Y15291D02*
D03*
Y14756D02*
D03*
Y15806D02*
D03*
Y16341D02*
D03*
X30675Y18801D02*
D03*
Y18266D02*
D03*
X32195Y15070D02*
D03*
Y15606D02*
D03*
X54070Y15291D02*
D03*
Y14756D02*
D03*
Y15806D02*
D03*
Y16341D02*
D03*
X51935Y18801D02*
D03*
Y18266D02*
D03*
X53455Y15070D02*
D03*
Y15606D02*
D03*
X75329Y15291D02*
D03*
Y14756D02*
D03*
Y15806D02*
D03*
Y16341D02*
D03*
X73195Y18801D02*
D03*
Y18266D02*
D03*
X74715Y15070D02*
D03*
Y15606D02*
D03*
M02*
