G04 Layer_Color=16711935*
%FSLAX24Y24*%
%MOIN*%
G70*
G01*
G75*
G04:AMPARAMS|DCode=93|XSize=118.7mil|YSize=118.7mil|CornerRadius=59.4mil|HoleSize=0mil|Usage=FLASHONLY|Rotation=90.000|XOffset=0mil|YOffset=0mil|HoleType=Round|Shape=RoundedRectangle|*
%AMROUNDEDRECTD93*
21,1,0.1187,0.0000,0,0,90.0*
21,1,0.0000,0.1187,0,0,90.0*
1,1,0.1187,0.0000,0.0000*
1,1,0.1187,0.0000,0.0000*
1,1,0.1187,0.0000,0.0000*
1,1,0.1187,0.0000,0.0000*
%
%ADD93ROUNDEDRECTD93*%
G04:AMPARAMS|DCode=113|XSize=118.7mil|YSize=118.7mil|CornerRadius=59.4mil|HoleSize=0mil|Usage=FLASHONLY|Rotation=0.000|XOffset=0mil|YOffset=0mil|HoleType=Round|Shape=RoundedRectangle|*
%AMROUNDEDRECTD113*
21,1,0.1187,0.0000,0,0,0.0*
21,1,0.0000,0.1187,0,0,0.0*
1,1,0.1187,0.0000,0.0000*
1,1,0.1187,0.0000,0.0000*
1,1,0.1187,0.0000,0.0000*
1,1,0.1187,0.0000,0.0000*
%
%ADD113ROUNDEDRECTD113*%
%ADD117C,0.0570*%
%ADD118R,0.0570X0.0570*%
%ADD119P,0.0806X4X165.0*%
%ADD120C,0.1080*%
%ADD122C,0.0828*%
%ADD123P,0.0806X4X255.0*%
%ADD124P,0.0953X8X22.5*%
%ADD125C,0.0880*%
%ADD126C,0.4017*%
D93*
X79078Y21878D02*
D03*
X3789Y21848D02*
D03*
Y1289D02*
D03*
X79078Y1319D02*
D03*
D113*
X16740Y12959D02*
D03*
X1110Y10679D02*
D03*
X38000Y12959D02*
D03*
X22370Y10679D02*
D03*
X59260Y12959D02*
D03*
X43630Y10679D02*
D03*
X80520Y12959D02*
D03*
X64890Y10679D02*
D03*
D117*
X13560Y14843D02*
D03*
X7063Y6370D02*
D03*
X11440Y5226D02*
D03*
X5469Y4643D02*
D03*
X2619Y9553D02*
D03*
X3569Y7913D02*
D03*
X4519Y6273D02*
D03*
X34820Y14843D02*
D03*
X28323Y6370D02*
D03*
X32700Y5226D02*
D03*
X26729Y4643D02*
D03*
X23879Y9553D02*
D03*
X24829Y7913D02*
D03*
X25779Y6273D02*
D03*
X56080Y14843D02*
D03*
X49583Y6370D02*
D03*
X53960Y5226D02*
D03*
X47989Y4643D02*
D03*
X45139Y9553D02*
D03*
X46089Y7913D02*
D03*
X47039Y6273D02*
D03*
X77339Y14843D02*
D03*
X70843Y6370D02*
D03*
X75220Y5226D02*
D03*
X69249Y4643D02*
D03*
X66399Y9553D02*
D03*
X67349Y7913D02*
D03*
X68299Y6273D02*
D03*
D118*
X13560Y14055D02*
D03*
X11440Y6013D02*
D03*
X34820Y14055D02*
D03*
X32700Y6013D02*
D03*
X56080Y14055D02*
D03*
X53960Y6013D02*
D03*
X77339Y14055D02*
D03*
X75220Y6013D02*
D03*
D119*
X7457Y5688D02*
D03*
X28717D02*
D03*
X49977D02*
D03*
X71236D02*
D03*
D120*
X4697Y11428D02*
D03*
X14357D02*
D03*
X25956D02*
D03*
X35616D02*
D03*
X47216D02*
D03*
X56876D02*
D03*
X68476D02*
D03*
X78136D02*
D03*
D122*
X13525Y4360D02*
D03*
X14017Y5212D02*
D03*
X14509Y6064D02*
D03*
X15001Y6917D02*
D03*
X15493Y7769D02*
D03*
X15985Y8622D02*
D03*
X16477Y9474D02*
D03*
X16970Y10326D02*
D03*
X34785Y4360D02*
D03*
X35277Y5212D02*
D03*
X35769Y6064D02*
D03*
X36261Y6917D02*
D03*
X36753Y7769D02*
D03*
X37245Y8622D02*
D03*
X37737Y9474D02*
D03*
X38229Y10326D02*
D03*
X56044Y4360D02*
D03*
X56537Y5212D02*
D03*
X57029Y6064D02*
D03*
X57521Y6917D02*
D03*
X58013Y7769D02*
D03*
X58505Y8622D02*
D03*
X58997Y9474D02*
D03*
X59489Y10326D02*
D03*
X77304Y4360D02*
D03*
X77796Y5212D02*
D03*
X78288Y6064D02*
D03*
X78781Y6917D02*
D03*
X79273Y7769D02*
D03*
X79765Y8622D02*
D03*
X80257Y9474D02*
D03*
X80749Y10326D02*
D03*
D123*
X6151Y5036D02*
D03*
X3301Y9946D02*
D03*
X4251Y8306D02*
D03*
X5201Y6666D02*
D03*
X27411Y5036D02*
D03*
X24561Y9946D02*
D03*
X25511Y8306D02*
D03*
X26461Y6666D02*
D03*
X48671Y5036D02*
D03*
X45821Y9946D02*
D03*
X46771Y8306D02*
D03*
X47721Y6666D02*
D03*
X69930Y5036D02*
D03*
X67080Y9946D02*
D03*
X68030Y8306D02*
D03*
X68980Y6666D02*
D03*
D124*
X7280Y3499D02*
D03*
X28540D02*
D03*
X49800D02*
D03*
X71060D02*
D03*
D125*
X11760D02*
D03*
X33020D02*
D03*
X54280D02*
D03*
X75540D02*
D03*
D126*
X9517Y10709D02*
D03*
X30776D02*
D03*
X52036D02*
D03*
X73296D02*
D03*
M02*
