G04 Layer_Color=65535*
%FSLAX24Y24*%
%MOIN*%
G70*
G01*
G75*
%ADD12C,0.0100*%
%ADD36C,0.0080*%
%ADD38C,0.0160*%
%ADD62C,0.0098*%
%ADD63C,0.0157*%
%ADD64C,0.0433*%
%ADD65C,0.0079*%
%ADD66C,0.0077*%
%ADD67C,0.0123*%
G04:AMPARAMS|DCode=68|XSize=29.5mil|YSize=87.9mil|CornerRadius=0mil|HoleSize=0mil|Usage=FLASHONLY|Rotation=55.000|XOffset=0mil|YOffset=0mil|HoleType=Round|Shape=Rectangle|*
%AMROTATEDRECTD68*
4,1,4,0.0275,-0.0373,-0.0445,0.0131,-0.0275,0.0373,0.0445,-0.0131,0.0275,-0.0373,0.0*
%
%ADD68ROTATEDRECTD68*%

D12*
X12355Y3897D02*
G03*
X12355Y3897I-313J0D01*
G01*
X17072Y6338D02*
X17591Y6038D01*
X16668Y5678D02*
X17213Y5363D01*
X16640Y5629D02*
X17185Y5314D01*
X16543Y5461D02*
X16668Y5678D01*
X17088Y5147D02*
X17213Y5363D01*
X18102Y8118D02*
X18621Y7818D01*
X17698Y7458D02*
X18243Y7143D01*
X17670Y7409D02*
X18215Y7094D01*
X17573Y7241D02*
X17698Y7458D01*
X18118Y6927D02*
X18243Y7143D01*
X1523Y6028D02*
X2042Y6328D01*
X1893Y5349D02*
X2437Y5663D01*
X1921Y5300D02*
X2466Y5614D01*
X1893Y5349D02*
X2018Y5132D01*
X2437Y5663D02*
X2562Y5447D01*
X478Y7853D02*
X998Y8153D01*
X848Y7173D02*
X1393Y7488D01*
X876Y7124D02*
X1421Y7439D01*
X848Y7173D02*
X973Y6957D01*
X1393Y7488D02*
X1518Y7271D01*
X12555Y6661D02*
X13574Y8116D01*
X11742Y7231D02*
X12761Y8685D01*
X12685Y3890D02*
X13964Y3151D01*
X12505Y4562D02*
X12685Y3890D01*
X12505Y4562D02*
X16285Y11108D01*
X16957Y11288D02*
X18235Y10550D01*
X16285Y11108D02*
X16957Y11288D01*
X12685Y3890D02*
X12719Y3870D01*
X12787Y3831D01*
X13964Y3151D02*
X18235Y10550D01*
X33614Y3897D02*
G03*
X33614Y3897I-313J0D01*
G01*
X38332Y6338D02*
X38851Y6038D01*
X37928Y5678D02*
X38473Y5363D01*
X37900Y5629D02*
X38445Y5314D01*
X37803Y5461D02*
X37928Y5678D01*
X38348Y5147D02*
X38473Y5363D01*
X39362Y8118D02*
X39881Y7818D01*
X38958Y7458D02*
X39503Y7143D01*
X38930Y7409D02*
X39475Y7094D01*
X38833Y7241D02*
X38958Y7458D01*
X39378Y6927D02*
X39503Y7143D01*
X22783Y6028D02*
X23302Y6328D01*
X23152Y5349D02*
X23697Y5663D01*
X23181Y5300D02*
X23725Y5614D01*
X23152Y5349D02*
X23277Y5132D01*
X23697Y5663D02*
X23822Y5447D01*
X21738Y7853D02*
X22258Y8153D01*
X22108Y7173D02*
X22653Y7488D01*
X22136Y7124D02*
X22681Y7439D01*
X22108Y7173D02*
X22233Y6957D01*
X22653Y7488D02*
X22778Y7271D01*
X33815Y6661D02*
X34833Y8116D01*
X33002Y7231D02*
X34021Y8685D01*
X33945Y3890D02*
X35224Y3151D01*
X33765Y4562D02*
X33945Y3890D01*
X33765Y4562D02*
X37544Y11108D01*
X38217Y11288D02*
X39495Y10550D01*
X37544Y11108D02*
X38217Y11288D01*
X33945Y3890D02*
X33979Y3870D01*
X34047Y3831D01*
X35224Y3151D02*
X39495Y10550D01*
X54874Y3897D02*
G03*
X54874Y3897I-313J0D01*
G01*
X59591Y6338D02*
X60111Y6038D01*
X59188Y5678D02*
X59732Y5363D01*
X59159Y5629D02*
X59704Y5314D01*
X59063Y5461D02*
X59188Y5678D01*
X59607Y5147D02*
X59732Y5363D01*
X60621Y8118D02*
X61141Y7818D01*
X60218Y7458D02*
X60762Y7143D01*
X60189Y7409D02*
X60734Y7094D01*
X60093Y7241D02*
X60218Y7458D01*
X60637Y6927D02*
X60762Y7143D01*
X44043Y6028D02*
X44562Y6328D01*
X44412Y5349D02*
X44957Y5663D01*
X44440Y5300D02*
X44985Y5614D01*
X44412Y5349D02*
X44537Y5132D01*
X44957Y5663D02*
X45082Y5447D01*
X42998Y7853D02*
X43517Y8153D01*
X43368Y7173D02*
X43913Y7488D01*
X43396Y7124D02*
X43941Y7439D01*
X43368Y7173D02*
X43493Y6957D01*
X43913Y7488D02*
X44037Y7271D01*
X55075Y6661D02*
X56093Y8116D01*
X54262Y7231D02*
X55281Y8685D01*
X55205Y3890D02*
X56483Y3151D01*
X55025Y4562D02*
X55205Y3890D01*
X55025Y4562D02*
X58804Y11108D01*
X59476Y11288D02*
X60755Y10550D01*
X58804Y11108D02*
X59476Y11288D01*
X55205Y3890D02*
X55239Y3870D01*
X55307Y3831D01*
X56483Y3151D02*
X60755Y10550D01*
X76134Y3897D02*
G03*
X76134Y3897I-313J0D01*
G01*
X80851Y6338D02*
X81371Y6038D01*
X80447Y5678D02*
X80992Y5363D01*
X80419Y5629D02*
X80964Y5314D01*
X80322Y5461D02*
X80447Y5678D01*
X80867Y5147D02*
X80992Y5363D01*
X81881Y8118D02*
X82401Y7818D01*
X81477Y7458D02*
X82022Y7143D01*
X81449Y7409D02*
X81994Y7094D01*
X81352Y7241D02*
X81477Y7458D01*
X81897Y6927D02*
X82022Y7143D01*
X65302Y6028D02*
X65822Y6328D01*
X65672Y5349D02*
X66217Y5663D01*
X65700Y5300D02*
X66245Y5614D01*
X65672Y5349D02*
X65797Y5132D01*
X66217Y5663D02*
X66342Y5447D01*
X64258Y7853D02*
X64777Y8153D01*
X64627Y7173D02*
X65172Y7488D01*
X64656Y7124D02*
X65200Y7439D01*
X64627Y7173D02*
X64752Y6957D01*
X65172Y7488D02*
X65297Y7271D01*
X76335Y6661D02*
X77353Y8116D01*
X75522Y7231D02*
X76540Y8685D01*
X76465Y3890D02*
X77743Y3151D01*
X76285Y4562D02*
X76465Y3890D01*
X76285Y4562D02*
X80064Y11108D01*
X80736Y11288D02*
X82015Y10550D01*
X80064Y11108D02*
X80736Y11288D01*
X76465Y3890D02*
X76499Y3870D01*
X76567Y3831D01*
X77743Y3151D02*
X82015Y10550D01*
D36*
X10615Y17574D02*
X10615Y17894D01*
X10375D02*
X10615D01*
X9504Y17574D02*
Y17894D01*
X9740D01*
X9690Y15539D02*
X10009D01*
X9690Y15299D02*
Y15539D01*
Y14428D02*
X10009D01*
X9690D02*
Y14664D01*
X13505Y17614D02*
Y17933D01*
X13265Y17933D02*
X13505Y17933D01*
X12394Y17933D02*
X12394Y17614D01*
X12394Y17933D02*
X12630Y17933D01*
X31875Y17574D02*
X31875Y17894D01*
X31635D02*
X31875D01*
X30764Y17574D02*
Y17894D01*
X31000D01*
X30950Y15539D02*
X31269D01*
X30950Y15299D02*
Y15539D01*
Y14428D02*
X31269D01*
X30950D02*
Y14664D01*
X34765Y17614D02*
Y17933D01*
X34525Y17933D02*
X34765Y17933D01*
X33653Y17933D02*
X33653Y17614D01*
X33653Y17933D02*
X33890Y17933D01*
X53135Y17574D02*
X53135Y17894D01*
X52895D02*
X53135D01*
X52024Y17574D02*
Y17894D01*
X52260D01*
X52210Y15539D02*
X52529D01*
X52210Y15299D02*
Y15539D01*
Y14428D02*
X52529D01*
X52210D02*
Y14664D01*
X56024Y17614D02*
Y17933D01*
X55784Y17933D02*
X56024Y17933D01*
X54913Y17933D02*
X54913Y17614D01*
X54913Y17933D02*
X55149Y17933D01*
X74395Y17574D02*
X74395Y17894D01*
X74155D02*
X74395D01*
X73283Y17574D02*
Y17894D01*
X73520D01*
X73470Y15539D02*
X73789D01*
X73470Y15299D02*
Y15539D01*
Y14428D02*
X73789D01*
X73470D02*
Y14664D01*
X77284Y17614D02*
Y17933D01*
X77044Y17933D02*
X77284Y17933D01*
X76173Y17933D02*
X76173Y17614D01*
X76173Y17933D02*
X76409Y17933D01*
D38*
X11906Y16501D02*
G03*
X11906Y16501I-77J0D01*
G01*
X7060Y4879D02*
X8650Y5829D01*
X5940Y10539D02*
X8660Y5869D01*
X4313Y9615D02*
X5940Y10539D01*
X33166Y16501D02*
G03*
X33166Y16501I-77J0D01*
G01*
X28320Y4879D02*
X29910Y5829D01*
X27200Y10539D02*
X29920Y5869D01*
X25573Y9615D02*
X27200Y10539D01*
X54426Y16501D02*
G03*
X54426Y16501I-77J0D01*
G01*
X49580Y4879D02*
X51170Y5829D01*
X48460Y10539D02*
X51180Y5869D01*
X46833Y9615D02*
X48460Y10539D01*
X75685Y16501D02*
G03*
X75685Y16501I-77J0D01*
G01*
X70839Y4879D02*
X72430Y5829D01*
X69720Y10539D02*
X72440Y5869D01*
X68093Y9615D02*
X69720Y10539D01*
D62*
X7689Y16504D02*
G03*
X7689Y16504I-49J0D01*
G01*
X7699Y13774D02*
G03*
X7699Y13774I-49J0D01*
G01*
X28949Y16504D02*
G03*
X28949Y16504I-49J0D01*
G01*
X28959Y13774D02*
G03*
X28959Y13774I-49J0D01*
G01*
X50209Y16504D02*
G03*
X50209Y16504I-49J0D01*
G01*
X50219Y13774D02*
G03*
X50219Y13774I-49J0D01*
G01*
X71469Y16504D02*
G03*
X71469Y16504I-49J0D01*
G01*
X71479Y13774D02*
G03*
X71479Y13774I-49J0D01*
G01*
D63*
X5151Y3777D02*
X5901Y4210D01*
X5743Y4483D02*
X5901Y4210D01*
X5743Y4483D02*
X6152Y4719D01*
X6310Y4446D01*
X7060Y4879D01*
X4304Y5243D02*
X5151Y3777D01*
X4304Y5243D02*
X4918Y5597D01*
X5600Y5991D01*
X6213Y6345D01*
X7060Y4879D01*
X3363Y11255D02*
X4210Y9789D01*
X2750Y10901D02*
X3363Y11255D01*
X2068Y10507D02*
X2750Y10901D01*
X1454Y10153D02*
X2068Y10507D01*
X1454Y10153D02*
X2301Y8687D01*
X3460Y9356D02*
X4210Y9789D01*
X3302Y9629D02*
X3460Y9356D01*
X2893Y9393D02*
X3302Y9629D01*
X2893Y9393D02*
X3051Y9120D01*
X2301Y8687D02*
X3051Y9120D01*
X4313Y9615D02*
X5160Y8149D01*
X3700Y9261D02*
X4313Y9615D01*
X3018Y8867D02*
X3700Y9261D01*
X2404Y8513D02*
X3018Y8867D01*
X2404Y8513D02*
X3251Y7047D01*
X4410Y7716D02*
X5160Y8149D01*
X4252Y7989D02*
X4410Y7716D01*
X3843Y7753D02*
X4252Y7989D01*
X3843Y7753D02*
X4001Y7480D01*
X3251Y7047D02*
X4001Y7480D01*
X4201Y5407D02*
X4951Y5840D01*
X4793Y6113D02*
X4951Y5840D01*
X4793Y6113D02*
X5202Y6349D01*
X5360Y6076D01*
X6110Y6509D01*
X3354Y6873D02*
X4201Y5407D01*
X3354Y6873D02*
X3968Y7227D01*
X4650Y7621D01*
X5263Y7975D01*
X6110Y6509D01*
X26410Y3777D02*
X27161Y4210D01*
X27003Y4483D02*
X27161Y4210D01*
X27003Y4483D02*
X27412Y4719D01*
X27570Y4446D01*
X28320Y4879D01*
X25564Y5243D02*
X26410Y3777D01*
X25564Y5243D02*
X26178Y5597D01*
X26860Y5991D01*
X27473Y6345D01*
X28320Y4879D01*
X24623Y11255D02*
X25470Y9789D01*
X24010Y10901D02*
X24623Y11255D01*
X23328Y10507D02*
X24010Y10901D01*
X22714Y10153D02*
X23328Y10507D01*
X22714Y10153D02*
X23560Y8687D01*
X24720Y9356D02*
X25470Y9789D01*
X24562Y9629D02*
X24720Y9356D01*
X24153Y9393D02*
X24562Y9629D01*
X24153Y9393D02*
X24311Y9120D01*
X23560Y8687D02*
X24311Y9120D01*
X25573Y9615D02*
X26420Y8149D01*
X24960Y9261D02*
X25573Y9615D01*
X24278Y8867D02*
X24960Y9261D01*
X23664Y8513D02*
X24278Y8867D01*
X23664Y8513D02*
X24510Y7047D01*
X25670Y7716D02*
X26420Y8149D01*
X25512Y7989D02*
X25670Y7716D01*
X25103Y7753D02*
X25512Y7989D01*
X25103Y7753D02*
X25261Y7480D01*
X24510Y7047D02*
X25261Y7480D01*
X25460Y5407D02*
X26211Y5840D01*
X26053Y6113D02*
X26211Y5840D01*
X26053Y6113D02*
X26462Y6349D01*
X26620Y6076D01*
X27370Y6509D01*
X24614Y6873D02*
X25460Y5407D01*
X24614Y6873D02*
X25228Y7227D01*
X25910Y7621D01*
X26523Y7975D01*
X27370Y6509D01*
X47670Y3777D02*
X48420Y4210D01*
X48263Y4483D02*
X48420Y4210D01*
X48263Y4483D02*
X48672Y4719D01*
X48830Y4446D01*
X49580Y4879D01*
X46824Y5243D02*
X47670Y3777D01*
X46824Y5243D02*
X47438Y5597D01*
X48119Y5991D01*
X48733Y6345D01*
X49580Y4879D01*
X45883Y11255D02*
X46730Y9789D01*
X45269Y10901D02*
X45883Y11255D01*
X44588Y10507D02*
X45269Y10901D01*
X43974Y10153D02*
X44588Y10507D01*
X43974Y10153D02*
X44820Y8687D01*
X45980Y9356D02*
X46730Y9789D01*
X45822Y9629D02*
X45980Y9356D01*
X45413Y9393D02*
X45822Y9629D01*
X45413Y9393D02*
X45570Y9120D01*
X44820Y8687D02*
X45570Y9120D01*
X46833Y9615D02*
X47680Y8149D01*
X46219Y9261D02*
X46833Y9615D01*
X45538Y8867D02*
X46219Y9261D01*
X44924Y8513D02*
X45538Y8867D01*
X44924Y8513D02*
X45770Y7047D01*
X46930Y7716D02*
X47680Y8149D01*
X46772Y7989D02*
X46930Y7716D01*
X46363Y7753D02*
X46772Y7989D01*
X46363Y7753D02*
X46520Y7480D01*
X45770Y7047D02*
X46520Y7480D01*
X46720Y5407D02*
X47470Y5840D01*
X47313Y6113D02*
X47470Y5840D01*
X47313Y6113D02*
X47722Y6349D01*
X47880Y6076D01*
X48630Y6509D01*
X45874Y6873D02*
X46720Y5407D01*
X45874Y6873D02*
X46488Y7227D01*
X47169Y7621D01*
X47783Y7975D01*
X48630Y6509D01*
X68930Y3777D02*
X69680Y4210D01*
X69523Y4483D02*
X69680Y4210D01*
X69523Y4483D02*
X69932Y4719D01*
X70089Y4446D01*
X70839Y4879D01*
X68084Y5243D02*
X68930Y3777D01*
X68084Y5243D02*
X68697Y5597D01*
X69379Y5991D01*
X69993Y6345D01*
X70839Y4879D01*
X67143Y11255D02*
X67989Y9789D01*
X66529Y10901D02*
X67143Y11255D01*
X65847Y10507D02*
X66529Y10901D01*
X65234Y10153D02*
X65847Y10507D01*
X65234Y10153D02*
X66080Y8687D01*
X67239Y9356D02*
X67989Y9789D01*
X67082Y9629D02*
X67239Y9356D01*
X66673Y9393D02*
X67082Y9629D01*
X66673Y9393D02*
X66830Y9120D01*
X66080Y8687D02*
X66830Y9120D01*
X68093Y9615D02*
X68939Y8149D01*
X67479Y9261D02*
X68093Y9615D01*
X66797Y8867D02*
X67479Y9261D01*
X66184Y8513D02*
X66797Y8867D01*
X66184Y8513D02*
X67030Y7047D01*
X68189Y7716D02*
X68939Y8149D01*
X68032Y7989D02*
X68189Y7716D01*
X67623Y7753D02*
X68032Y7989D01*
X67623Y7753D02*
X67780Y7480D01*
X67030Y7047D02*
X67780Y7480D01*
X67980Y5407D02*
X68730Y5840D01*
X68573Y6113D02*
X68730Y5840D01*
X68573Y6113D02*
X68982Y6349D01*
X69139Y6076D01*
X69889Y6509D01*
X67134Y6873D02*
X67980Y5407D01*
X67134Y6873D02*
X67747Y7227D01*
X68429Y7621D01*
X69043Y7975D01*
X69889Y6509D01*
D64*
X5866Y6554D02*
X5900Y6573D01*
X3016Y11464D02*
X3050Y11483D01*
X3966Y9824D02*
X4000Y9843D01*
X4916Y8184D02*
X4950Y8203D01*
X27126Y6554D02*
X27160Y6573D01*
X24276Y11464D02*
X24310Y11483D01*
X25226Y9824D02*
X25260Y9843D01*
X26176Y8184D02*
X26210Y8203D01*
X48386Y6554D02*
X48420Y6573D01*
X45536Y11464D02*
X45570Y11483D01*
X46486Y9824D02*
X46520Y9843D01*
X47436Y8184D02*
X47470Y8203D01*
X69645Y6554D02*
X69679Y6573D01*
X66795Y11464D02*
X66829Y11483D01*
X67745Y9824D02*
X67779Y9843D01*
X68695Y8184D02*
X68729Y8203D01*
D65*
X9791Y5722D02*
X9870D01*
X9791Y6135D02*
X9870D01*
X9791Y6463D02*
X9869D01*
X9791Y6876D02*
X9869D01*
X8643Y6340D02*
Y6419D01*
X9057Y6340D02*
Y6419D01*
X5719Y8737D02*
X5759Y8669D01*
X5361Y8530D02*
X5401Y8462D01*
X4700Y9655D02*
X4739Y9587D01*
X5058Y9862D02*
X5097Y9794D01*
X6360Y17882D02*
Y18315D01*
X7384D01*
X6360Y16504D02*
Y16937D01*
Y16504D02*
X7384D01*
X6370Y13774D02*
X7394D01*
X6370D02*
Y14207D01*
Y15585D02*
X7394D01*
X6370Y15152D02*
Y15585D01*
X31051Y5722D02*
X31130D01*
X31051Y6135D02*
X31130D01*
X31050Y6463D02*
X31129D01*
X31050Y6876D02*
X31129D01*
X29903Y6340D02*
Y6419D01*
X30317Y6340D02*
Y6419D01*
X26979Y8737D02*
X27019Y8669D01*
X26621Y8530D02*
X26661Y8462D01*
X25960Y9655D02*
X25999Y9587D01*
X26318Y9862D02*
X26357Y9794D01*
X27620Y17882D02*
Y18315D01*
X28644D01*
X27620Y16504D02*
Y16937D01*
Y16504D02*
X28644D01*
X27630Y13774D02*
X28654D01*
X27630D02*
Y14207D01*
Y15585D02*
X28654D01*
X27630Y15152D02*
Y15585D01*
X52311Y5722D02*
X52390D01*
X52311Y6135D02*
X52390D01*
X52310Y6463D02*
X52389D01*
X52310Y6876D02*
X52389D01*
X51163Y6340D02*
Y6419D01*
X51576Y6340D02*
Y6419D01*
X48239Y8737D02*
X48278Y8669D01*
X47881Y8530D02*
X47920Y8462D01*
X47219Y9655D02*
X47259Y9587D01*
X47577Y9862D02*
X47617Y9794D01*
X48880Y17882D02*
Y18315D01*
X49904D01*
X48880Y16504D02*
Y16937D01*
Y16504D02*
X49904D01*
X48890Y13774D02*
X49914D01*
X48890D02*
Y14207D01*
Y15585D02*
X49914D01*
X48890Y15152D02*
Y15585D01*
X73571Y5722D02*
X73649D01*
X73571Y6135D02*
X73649D01*
X73570Y6463D02*
X73649D01*
X73570Y6876D02*
X73649D01*
X72423Y6340D02*
Y6419D01*
X72836Y6340D02*
Y6419D01*
X69499Y8737D02*
X69538Y8669D01*
X69141Y8530D02*
X69180Y8462D01*
X68479Y9655D02*
X68519Y9587D01*
X68837Y9862D02*
X68877Y9794D01*
X70140Y17882D02*
Y18315D01*
X71164D01*
X70140Y16504D02*
Y16937D01*
Y16504D02*
X71164D01*
X70150Y13774D02*
X71174D01*
X70150D02*
Y14207D01*
Y15585D02*
X71174D01*
X70150Y15152D02*
Y15585D01*
D66*
X3005Y6244D02*
X2650Y6039D01*
X3005Y6244D02*
X3132Y6025D01*
X2836Y6147D02*
X2914Y6011D01*
X2957Y5508D02*
X3234Y5849D01*
X2800Y5779D01*
X2948Y5797D02*
X3046Y5627D01*
X3359Y5631D02*
X3004Y5426D01*
X3359Y5631D02*
X3141Y5189D01*
X3496Y5394D02*
X3141Y5189D01*
X7035Y7954D02*
X6680Y7749D01*
X7035Y7954D02*
X7162Y7735D01*
X6866Y7857D02*
X6944Y7721D01*
X6987Y7218D02*
X7264Y7559D01*
X6830Y7489D01*
X6978Y7507D02*
X7076Y7337D01*
X7389Y7341D02*
X7034Y7136D01*
X7389Y7341D02*
X7171Y6899D01*
X7526Y7104D02*
X7171Y6899D01*
X7669Y6740D02*
X7683Y6793D01*
X7671Y6854D01*
X7632Y6921D01*
X7585Y6962D01*
X7532Y6976D01*
X7498Y6957D01*
X7474Y6921D01*
X7467Y6894D01*
X7470Y6850D01*
X7494Y6729D01*
X7497Y6686D01*
X7490Y6659D01*
X7466Y6623D01*
X7415Y6593D01*
X7362Y6608D01*
X7316Y6649D01*
X7276Y6716D01*
X7264Y6777D01*
X7278Y6830D01*
X15295Y4944D02*
X15650Y4739D01*
X15432Y5181D02*
X15787Y4976D01*
X15464Y4847D02*
X15601Y5083D01*
X15615Y5499D02*
X15488Y5279D01*
X15843Y5074D01*
X15970Y5294D01*
X15657Y5182D02*
X15735Y5317D01*
X16161Y5624D02*
X15727Y5693D01*
X16004Y5353D01*
X15915Y5472D02*
X16013Y5641D01*
X15922Y6030D02*
X16277Y5825D01*
X15853Y5912D02*
X15990Y6148D01*
X16141Y6410D02*
X16014Y6191D01*
X16370Y5986D01*
X16496Y6205D01*
X16184Y6093D02*
X16262Y6228D01*
X16175Y6470D02*
X16531Y6265D01*
X16175Y6470D02*
X16263Y6622D01*
X16310Y6663D01*
X16336Y6670D01*
X16380Y6667D01*
X16414Y6648D01*
X16438Y6611D01*
X16445Y6585D01*
X16432Y6524D01*
X16345Y6372D01*
X16413Y6490D02*
X16667Y6501D01*
X12750Y12989D02*
Y12579D01*
X13023Y12989D02*
Y12579D01*
X12750Y12794D02*
X13023D01*
X13390Y12989D02*
X13137D01*
Y12579D01*
X13390D01*
X13137Y12794D02*
X13293D01*
X13771Y12579D02*
X13615Y12989D01*
X13459Y12579D01*
X13517Y12716D02*
X13713D01*
X14004Y12989D02*
Y12579D01*
X13867Y12989D02*
X14140D01*
X1065Y11724D02*
X1270Y11369D01*
X1302Y11861D02*
X1507Y11506D01*
X1163Y11555D02*
X1399Y11692D01*
X1501Y11976D02*
X1477Y11940D01*
X1463Y11887D01*
X1466Y11843D01*
X1478Y11782D01*
X1527Y11698D01*
X1573Y11657D01*
X1609Y11633D01*
X1663Y11619D01*
X1706Y11621D01*
X1774Y11660D01*
X1798Y11697D01*
X1812Y11750D01*
X1810Y11794D01*
X1797Y11854D01*
X1748Y11939D01*
X1702Y11980D01*
X1666Y12004D01*
X1612Y12018D01*
X1569Y12015D01*
X1501Y11976D01*
X1872Y12190D02*
X2077Y11835D01*
X1753Y12122D02*
X1990Y12258D01*
X2252Y12410D02*
X2032Y12283D01*
X2237Y11928D01*
X2457Y12055D01*
X2130Y12114D02*
X2265Y12192D01*
X2311Y12444D02*
X2516Y12089D01*
X2311Y12444D02*
X2753Y12226D01*
X2548Y12581D02*
X2753Y12226D01*
X2646Y12637D02*
X2851Y12282D01*
X2646Y12637D02*
X2764Y12706D01*
X2825Y12718D01*
X2878Y12704D01*
X2915Y12680D01*
X2961Y12639D01*
X3010Y12554D01*
X3022Y12494D01*
X3025Y12450D01*
X3010Y12397D01*
X2969Y12350D01*
X2851Y12282D01*
X5899Y9487D02*
X5987Y9335D01*
X6033Y9294D01*
X6060Y9287D01*
X6103Y9289D01*
X6154Y9319D01*
X6178Y9355D01*
X6185Y9382D01*
X6173Y9442D01*
X6085Y9594D01*
X5730Y9389D01*
X6069Y8803D02*
X6346Y9143D01*
X5913Y9073D01*
X6060Y9091D02*
X6158Y8922D01*
X6472Y8925D02*
X6117Y8720D01*
X6472Y8925D02*
X6560Y8773D01*
X6572Y8712D01*
X6565Y8685D01*
X6541Y8649D01*
X6507Y8629D01*
X6463Y8627D01*
X6437Y8634D01*
X6390Y8675D01*
X6303Y8827D01*
X6371Y8709D02*
X6253Y8483D01*
X6723Y8490D02*
X6367Y8285D01*
X6654Y8609D02*
X6791Y8372D01*
X4970Y13149D02*
Y12739D01*
X5243Y13149D02*
Y12739D01*
X4970Y12954D02*
X5243D01*
X5610Y13149D02*
X5357D01*
Y12739D01*
X5610D01*
X5357Y12954D02*
X5513D01*
X5991Y12739D02*
X5835Y13149D01*
X5679Y12739D01*
X5737Y12876D02*
X5933D01*
X6224Y13149D02*
Y12739D01*
X6087Y13149D02*
X6360D01*
X1645Y11244D02*
X1850Y10889D01*
X1645Y11244D02*
X1865Y11371D01*
X1743Y11075D02*
X1878Y11153D01*
X2381Y11196D02*
X2041Y11473D01*
X2110Y11040D01*
X2093Y11187D02*
X2262Y11285D01*
X2259Y11599D02*
X2464Y11244D01*
X2259Y11599D02*
X2701Y11380D01*
X2496Y11736D02*
X2701Y11380D01*
X10712Y19712D02*
X10751Y19673D01*
X10809Y19654D01*
X10887D01*
X10946Y19673D01*
X10985Y19712D01*
Y19751D01*
X10966Y19790D01*
X10946Y19810D01*
X10907Y19829D01*
X10790Y19868D01*
X10751Y19888D01*
X10731Y19907D01*
X10712Y19947D01*
Y20005D01*
X10751Y20044D01*
X10809Y20064D01*
X10887D01*
X10946Y20044D01*
X10985Y20005D01*
X10620Y19907D02*
X10386D01*
Y19868D01*
X10405Y19829D01*
X10425Y19810D01*
X10464Y19790D01*
X10522D01*
X10561Y19810D01*
X10600Y19849D01*
X10620Y19907D01*
Y19947D01*
X10600Y20005D01*
X10561Y20044D01*
X10522Y20064D01*
X10464D01*
X10425Y20044D01*
X10386Y20005D01*
X10298Y19907D02*
X10064D01*
Y19868D01*
X10083Y19829D01*
X10103Y19810D01*
X10142Y19790D01*
X10200D01*
X10239Y19810D01*
X10278Y19849D01*
X10298Y19907D01*
Y19947D01*
X10278Y20005D01*
X10239Y20044D01*
X10200Y20064D01*
X10142D01*
X10103Y20044D01*
X10064Y20005D01*
X9976Y19654D02*
Y20064D01*
Y19654D02*
X9819Y20064D01*
X9663Y19654D02*
X9819Y20064D01*
X9663Y19654D02*
Y20064D01*
X9546Y19907D02*
X9312D01*
Y19868D01*
X9331Y19829D01*
X9351Y19810D01*
X9390Y19790D01*
X9449D01*
X9488Y19810D01*
X9527Y19849D01*
X9546Y19907D01*
Y19947D01*
X9527Y20005D01*
X9488Y20044D01*
X9449Y20064D01*
X9390D01*
X9351Y20044D01*
X9312Y20005D01*
X8931Y19751D02*
X8951Y19712D01*
X8990Y19673D01*
X9029Y19654D01*
X9107D01*
X9146Y19673D01*
X9185Y19712D01*
X9204Y19751D01*
X9224Y19810D01*
Y19907D01*
X9204Y19966D01*
X9185Y20005D01*
X9146Y20044D01*
X9107Y20064D01*
X9029D01*
X8990Y20044D01*
X8951Y20005D01*
X8931Y19966D01*
X8816Y19654D02*
Y20064D01*
Y19654D02*
X8543Y20064D01*
Y19654D02*
Y20064D01*
X8136Y19751D02*
X8156Y19712D01*
X8195Y19673D01*
X8234Y19654D01*
X8312D01*
X8351Y19673D01*
X8390Y19712D01*
X8410Y19751D01*
X8429Y19810D01*
Y19907D01*
X8410Y19966D01*
X8390Y20005D01*
X8351Y20044D01*
X8312Y20064D01*
X8234D01*
X8195Y20044D01*
X8156Y20005D01*
X8136Y19966D01*
X4272Y10703D02*
X3968Y10527D01*
X4032Y10767D02*
X4208Y10463D01*
X7294Y4402D02*
Y4051D01*
X7118Y4226D02*
X7470D01*
X24265Y6244D02*
X23910Y6039D01*
X24265Y6244D02*
X24392Y6025D01*
X24096Y6147D02*
X24174Y6011D01*
X24216Y5508D02*
X24493Y5849D01*
X24060Y5779D01*
X24208Y5797D02*
X24305Y5627D01*
X24619Y5631D02*
X24264Y5426D01*
X24619Y5631D02*
X24401Y5189D01*
X24756Y5394D02*
X24401Y5189D01*
X28295Y7954D02*
X27940Y7749D01*
X28295Y7954D02*
X28422Y7735D01*
X28126Y7857D02*
X28204Y7721D01*
X28246Y7218D02*
X28523Y7559D01*
X28090Y7489D01*
X28238Y7507D02*
X28335Y7337D01*
X28649Y7341D02*
X28294Y7136D01*
X28649Y7341D02*
X28431Y6899D01*
X28786Y7104D02*
X28431Y6899D01*
X28929Y6740D02*
X28943Y6793D01*
X28930Y6854D01*
X28891Y6921D01*
X28845Y6962D01*
X28792Y6976D01*
X28758Y6957D01*
X28734Y6921D01*
X28727Y6894D01*
X28729Y6850D01*
X28754Y6729D01*
X28757Y6686D01*
X28750Y6659D01*
X28726Y6623D01*
X28675Y6593D01*
X28622Y6608D01*
X28575Y6649D01*
X28536Y6716D01*
X28524Y6777D01*
X28538Y6830D01*
X36555Y4944D02*
X36910Y4739D01*
X36691Y5181D02*
X37047Y4976D01*
X36724Y4847D02*
X36861Y5083D01*
X36875Y5499D02*
X36748Y5279D01*
X37103Y5074D01*
X37230Y5294D01*
X36917Y5182D02*
X36995Y5317D01*
X37420Y5624D02*
X36987Y5693D01*
X37264Y5353D01*
X37175Y5472D02*
X37273Y5641D01*
X37181Y6030D02*
X37537Y5825D01*
X37113Y5912D02*
X37250Y6148D01*
X37401Y6410D02*
X37274Y6191D01*
X37629Y5986D01*
X37756Y6205D01*
X37443Y6093D02*
X37521Y6228D01*
X37435Y6470D02*
X37790Y6265D01*
X37435Y6470D02*
X37523Y6622D01*
X37569Y6663D01*
X37596Y6670D01*
X37640Y6667D01*
X37673Y6648D01*
X37698Y6611D01*
X37705Y6585D01*
X37692Y6524D01*
X37604Y6372D01*
X37673Y6490D02*
X37927Y6501D01*
X34010Y12989D02*
Y12579D01*
X34283Y12989D02*
Y12579D01*
X34010Y12794D02*
X34283D01*
X34650Y12989D02*
X34396D01*
Y12579D01*
X34650D01*
X34396Y12794D02*
X34553D01*
X35031Y12579D02*
X34875Y12989D01*
X34719Y12579D01*
X34777Y12716D02*
X34972D01*
X35263Y12989D02*
Y12579D01*
X35127Y12989D02*
X35400D01*
X22325Y11724D02*
X22530Y11369D01*
X22562Y11861D02*
X22767Y11506D01*
X22422Y11555D02*
X22659Y11692D01*
X22761Y11976D02*
X22737Y11940D01*
X22723Y11887D01*
X22725Y11843D01*
X22738Y11782D01*
X22787Y11698D01*
X22833Y11657D01*
X22869Y11633D01*
X22923Y11619D01*
X22966Y11621D01*
X23034Y11660D01*
X23058Y11697D01*
X23072Y11750D01*
X23069Y11794D01*
X23057Y11854D01*
X23008Y11939D01*
X22962Y11980D01*
X22926Y12004D01*
X22872Y12018D01*
X22829Y12015D01*
X22761Y11976D01*
X23131Y12190D02*
X23336Y11835D01*
X23013Y12122D02*
X23250Y12258D01*
X23512Y12410D02*
X23292Y12283D01*
X23497Y11928D01*
X23717Y12055D01*
X23390Y12114D02*
X23525Y12192D01*
X23571Y12444D02*
X23776Y12089D01*
X23571Y12444D02*
X24013Y12226D01*
X23808Y12581D02*
X24013Y12226D01*
X23906Y12637D02*
X24111Y12282D01*
X23906Y12637D02*
X24024Y12706D01*
X24085Y12718D01*
X24138Y12704D01*
X24174Y12680D01*
X24221Y12639D01*
X24269Y12554D01*
X24282Y12494D01*
X24284Y12450D01*
X24270Y12397D01*
X24229Y12350D01*
X24111Y12282D01*
X27159Y9487D02*
X27247Y9335D01*
X27293Y9294D01*
X27320Y9287D01*
X27363Y9289D01*
X27414Y9319D01*
X27438Y9355D01*
X27445Y9382D01*
X27433Y9442D01*
X27345Y9594D01*
X26990Y9389D01*
X27329Y8803D02*
X27606Y9143D01*
X27172Y9073D01*
X27320Y9091D02*
X27418Y8922D01*
X27732Y8925D02*
X27376Y8720D01*
X27732Y8925D02*
X27819Y8773D01*
X27832Y8712D01*
X27825Y8685D01*
X27801Y8649D01*
X27767Y8629D01*
X27723Y8627D01*
X27696Y8634D01*
X27650Y8675D01*
X27562Y8827D01*
X27631Y8709D02*
X27513Y8483D01*
X27982Y8490D02*
X27627Y8285D01*
X27914Y8609D02*
X28051Y8372D01*
X26230Y13149D02*
Y12739D01*
X26503Y13149D02*
Y12739D01*
X26230Y12954D02*
X26503D01*
X26870Y13149D02*
X26616D01*
Y12739D01*
X26870D01*
X26616Y12954D02*
X26773D01*
X27251Y12739D02*
X27095Y13149D01*
X26939Y12739D01*
X26997Y12876D02*
X27192D01*
X27483Y13149D02*
Y12739D01*
X27347Y13149D02*
X27620D01*
X22905Y11244D02*
X23110Y10889D01*
X22905Y11244D02*
X23125Y11371D01*
X23002Y11075D02*
X23138Y11153D01*
X23641Y11196D02*
X23300Y11473D01*
X23370Y11040D01*
X23353Y11187D02*
X23522Y11285D01*
X23519Y11599D02*
X23724Y11244D01*
X23519Y11599D02*
X23960Y11380D01*
X23755Y11736D02*
X23960Y11380D01*
X31972Y19712D02*
X32011Y19673D01*
X32069Y19654D01*
X32147D01*
X32206Y19673D01*
X32245Y19712D01*
Y19751D01*
X32225Y19790D01*
X32206Y19810D01*
X32167Y19829D01*
X32050Y19868D01*
X32011Y19888D01*
X31991Y19907D01*
X31972Y19947D01*
Y20005D01*
X32011Y20044D01*
X32069Y20064D01*
X32147D01*
X32206Y20044D01*
X32245Y20005D01*
X31880Y19907D02*
X31646D01*
Y19868D01*
X31665Y19829D01*
X31685Y19810D01*
X31724Y19790D01*
X31782D01*
X31821Y19810D01*
X31860Y19849D01*
X31880Y19907D01*
Y19947D01*
X31860Y20005D01*
X31821Y20044D01*
X31782Y20064D01*
X31724D01*
X31685Y20044D01*
X31646Y20005D01*
X31558Y19907D02*
X31323D01*
Y19868D01*
X31343Y19829D01*
X31362Y19810D01*
X31401Y19790D01*
X31460D01*
X31499Y19810D01*
X31538Y19849D01*
X31558Y19907D01*
Y19947D01*
X31538Y20005D01*
X31499Y20044D01*
X31460Y20064D01*
X31401D01*
X31362Y20044D01*
X31323Y20005D01*
X31236Y19654D02*
Y20064D01*
Y19654D02*
X31079Y20064D01*
X30923Y19654D02*
X31079Y20064D01*
X30923Y19654D02*
Y20064D01*
X30806Y19907D02*
X30572D01*
Y19868D01*
X30591Y19829D01*
X30611Y19810D01*
X30650Y19790D01*
X30708D01*
X30747Y19810D01*
X30786Y19849D01*
X30806Y19907D01*
Y19947D01*
X30786Y20005D01*
X30747Y20044D01*
X30708Y20064D01*
X30650D01*
X30611Y20044D01*
X30572Y20005D01*
X30191Y19751D02*
X30210Y19712D01*
X30250Y19673D01*
X30289Y19654D01*
X30367D01*
X30406Y19673D01*
X30445Y19712D01*
X30464Y19751D01*
X30484Y19810D01*
Y19907D01*
X30464Y19966D01*
X30445Y20005D01*
X30406Y20044D01*
X30367Y20064D01*
X30289D01*
X30250Y20044D01*
X30210Y20005D01*
X30191Y19966D01*
X30076Y19654D02*
Y20064D01*
Y19654D02*
X29802Y20064D01*
Y19654D02*
Y20064D01*
X29396Y19751D02*
X29416Y19712D01*
X29455Y19673D01*
X29494Y19654D01*
X29572D01*
X29611Y19673D01*
X29650Y19712D01*
X29670Y19751D01*
X29689Y19810D01*
Y19907D01*
X29670Y19966D01*
X29650Y20005D01*
X29611Y20044D01*
X29572Y20064D01*
X29494D01*
X29455Y20044D01*
X29416Y20005D01*
X29396Y19966D01*
X25532Y10703D02*
X25228Y10527D01*
X25292Y10767D02*
X25468Y10463D01*
X28554Y4402D02*
Y4051D01*
X28378Y4226D02*
X28730D01*
X45525Y6244D02*
X45170Y6039D01*
X45525Y6244D02*
X45652Y6025D01*
X45356Y6147D02*
X45434Y6011D01*
X45476Y5508D02*
X45753Y5849D01*
X45320Y5779D01*
X45468Y5797D02*
X45565Y5627D01*
X45879Y5631D02*
X45524Y5426D01*
X45879Y5631D02*
X45661Y5189D01*
X46016Y5394D02*
X45661Y5189D01*
X49555Y7954D02*
X49200Y7749D01*
X49555Y7954D02*
X49682Y7735D01*
X49386Y7857D02*
X49464Y7721D01*
X49506Y7218D02*
X49783Y7559D01*
X49350Y7489D01*
X49498Y7507D02*
X49595Y7337D01*
X49909Y7341D02*
X49554Y7136D01*
X49909Y7341D02*
X49691Y6899D01*
X50046Y7104D02*
X49691Y6899D01*
X50188Y6740D02*
X50203Y6793D01*
X50190Y6854D01*
X50151Y6921D01*
X50105Y6962D01*
X50052Y6976D01*
X50018Y6957D01*
X49994Y6921D01*
X49987Y6894D01*
X49989Y6850D01*
X50014Y6729D01*
X50017Y6686D01*
X50010Y6659D01*
X49985Y6623D01*
X49935Y6593D01*
X49881Y6608D01*
X49835Y6649D01*
X49796Y6716D01*
X49784Y6777D01*
X49798Y6830D01*
X57815Y4944D02*
X58170Y4739D01*
X57951Y5181D02*
X58306Y4976D01*
X57984Y4847D02*
X58120Y5083D01*
X58135Y5499D02*
X58008Y5279D01*
X58363Y5074D01*
X58490Y5294D01*
X58177Y5182D02*
X58255Y5317D01*
X58680Y5624D02*
X58247Y5693D01*
X58524Y5353D01*
X58435Y5472D02*
X58533Y5641D01*
X58441Y6030D02*
X58796Y5825D01*
X58373Y5912D02*
X58510Y6148D01*
X58661Y6410D02*
X58534Y6191D01*
X58889Y5986D01*
X59016Y6205D01*
X58703Y6093D02*
X58781Y6228D01*
X58695Y6470D02*
X59050Y6265D01*
X58695Y6470D02*
X58783Y6622D01*
X58829Y6663D01*
X58856Y6670D01*
X58899Y6667D01*
X58933Y6648D01*
X58957Y6611D01*
X58965Y6585D01*
X58952Y6524D01*
X58864Y6372D01*
X58933Y6490D02*
X59187Y6501D01*
X55270Y12989D02*
Y12579D01*
X55543Y12989D02*
Y12579D01*
X55270Y12794D02*
X55543D01*
X55910Y12989D02*
X55656D01*
Y12579D01*
X55910D01*
X55656Y12794D02*
X55812D01*
X56291Y12579D02*
X56135Y12989D01*
X55978Y12579D01*
X56037Y12716D02*
X56232D01*
X56523Y12989D02*
Y12579D01*
X56387Y12989D02*
X56660D01*
X43585Y11724D02*
X43790Y11369D01*
X43821Y11861D02*
X44026Y11506D01*
X43682Y11555D02*
X43919Y11692D01*
X44021Y11976D02*
X43997Y11940D01*
X43983Y11887D01*
X43985Y11843D01*
X43998Y11782D01*
X44046Y11698D01*
X44093Y11657D01*
X44129Y11633D01*
X44182Y11619D01*
X44226Y11621D01*
X44294Y11660D01*
X44318Y11697D01*
X44332Y11750D01*
X44329Y11794D01*
X44317Y11854D01*
X44268Y11939D01*
X44222Y11980D01*
X44185Y12004D01*
X44132Y12018D01*
X44089Y12015D01*
X44021Y11976D01*
X44391Y12190D02*
X44596Y11835D01*
X44273Y12122D02*
X44510Y12258D01*
X44772Y12410D02*
X44552Y12283D01*
X44757Y11928D01*
X44977Y12055D01*
X44650Y12114D02*
X44785Y12192D01*
X44831Y12444D02*
X45036Y12089D01*
X44831Y12444D02*
X45273Y12226D01*
X45068Y12581D02*
X45273Y12226D01*
X45166Y12637D02*
X45371Y12282D01*
X45166Y12637D02*
X45284Y12706D01*
X45345Y12718D01*
X45398Y12704D01*
X45434Y12680D01*
X45481Y12639D01*
X45529Y12554D01*
X45542Y12494D01*
X45544Y12450D01*
X45530Y12397D01*
X45489Y12350D01*
X45371Y12282D01*
X48419Y9487D02*
X48507Y9335D01*
X48553Y9294D01*
X48580Y9287D01*
X48623Y9289D01*
X48674Y9319D01*
X48698Y9355D01*
X48705Y9382D01*
X48693Y9442D01*
X48605Y9594D01*
X48250Y9389D01*
X48588Y8803D02*
X48865Y9143D01*
X48432Y9073D01*
X48580Y9091D02*
X48678Y8922D01*
X48991Y8925D02*
X48636Y8720D01*
X48991Y8925D02*
X49079Y8773D01*
X49092Y8712D01*
X49084Y8685D01*
X49060Y8649D01*
X49027Y8629D01*
X48983Y8627D01*
X48956Y8634D01*
X48910Y8675D01*
X48822Y8827D01*
X48891Y8709D02*
X48773Y8483D01*
X49242Y8490D02*
X48887Y8285D01*
X49174Y8609D02*
X49311Y8372D01*
X47490Y13149D02*
Y12739D01*
X47763Y13149D02*
Y12739D01*
X47490Y12954D02*
X47763D01*
X48130Y13149D02*
X47876D01*
Y12739D01*
X48130D01*
X47876Y12954D02*
X48032D01*
X48511Y12739D02*
X48355Y13149D01*
X48198Y12739D01*
X48257Y12876D02*
X48452D01*
X48743Y13149D02*
Y12739D01*
X48607Y13149D02*
X48880D01*
X44165Y11244D02*
X44370Y10889D01*
X44165Y11244D02*
X44384Y11371D01*
X44262Y11075D02*
X44398Y11153D01*
X44901Y11196D02*
X44560Y11473D01*
X44630Y11040D01*
X44612Y11187D02*
X44782Y11285D01*
X44778Y11599D02*
X44983Y11244D01*
X44778Y11599D02*
X45220Y11380D01*
X45015Y11736D02*
X45220Y11380D01*
X53231Y19712D02*
X53271Y19673D01*
X53329Y19654D01*
X53407D01*
X53466Y19673D01*
X53505Y19712D01*
Y19751D01*
X53485Y19790D01*
X53466Y19810D01*
X53427Y19829D01*
X53310Y19868D01*
X53271Y19888D01*
X53251Y19907D01*
X53231Y19947D01*
Y20005D01*
X53271Y20044D01*
X53329Y20064D01*
X53407D01*
X53466Y20044D01*
X53505Y20005D01*
X53140Y19907D02*
X52905D01*
Y19868D01*
X52925Y19829D01*
X52944Y19810D01*
X52983Y19790D01*
X53042D01*
X53081Y19810D01*
X53120Y19849D01*
X53140Y19907D01*
Y19947D01*
X53120Y20005D01*
X53081Y20044D01*
X53042Y20064D01*
X52983D01*
X52944Y20044D01*
X52905Y20005D01*
X52818Y19907D02*
X52583D01*
Y19868D01*
X52603Y19829D01*
X52622Y19810D01*
X52661Y19790D01*
X52720D01*
X52759Y19810D01*
X52798Y19849D01*
X52818Y19907D01*
Y19947D01*
X52798Y20005D01*
X52759Y20044D01*
X52720Y20064D01*
X52661D01*
X52622Y20044D01*
X52583Y20005D01*
X52495Y19654D02*
Y20064D01*
Y19654D02*
X52339Y20064D01*
X52183Y19654D02*
X52339Y20064D01*
X52183Y19654D02*
Y20064D01*
X52066Y19907D02*
X51832D01*
Y19868D01*
X51851Y19829D01*
X51871Y19810D01*
X51910Y19790D01*
X51968D01*
X52007Y19810D01*
X52046Y19849D01*
X52066Y19907D01*
Y19947D01*
X52046Y20005D01*
X52007Y20044D01*
X51968Y20064D01*
X51910D01*
X51871Y20044D01*
X51832Y20005D01*
X51451Y19751D02*
X51470Y19712D01*
X51509Y19673D01*
X51548Y19654D01*
X51627D01*
X51666Y19673D01*
X51705Y19712D01*
X51724Y19751D01*
X51744Y19810D01*
Y19907D01*
X51724Y19966D01*
X51705Y20005D01*
X51666Y20044D01*
X51627Y20064D01*
X51548D01*
X51509Y20044D01*
X51470Y20005D01*
X51451Y19966D01*
X51336Y19654D02*
Y20064D01*
Y19654D02*
X51062Y20064D01*
Y19654D02*
Y20064D01*
X50656Y19751D02*
X50676Y19712D01*
X50715Y19673D01*
X50754Y19654D01*
X50832D01*
X50871Y19673D01*
X50910Y19712D01*
X50929Y19751D01*
X50949Y19810D01*
Y19907D01*
X50929Y19966D01*
X50910Y20005D01*
X50871Y20044D01*
X50832Y20064D01*
X50754D01*
X50715Y20044D01*
X50676Y20005D01*
X50656Y19966D01*
X46792Y10703D02*
X46488Y10527D01*
X46552Y10767D02*
X46728Y10463D01*
X49814Y4402D02*
Y4051D01*
X49638Y4226D02*
X49990D01*
X66785Y6244D02*
X66430Y6039D01*
X66785Y6244D02*
X66912Y6025D01*
X66616Y6147D02*
X66694Y6011D01*
X66736Y5508D02*
X67013Y5849D01*
X66580Y5779D01*
X66728Y5797D02*
X66825Y5627D01*
X67139Y5631D02*
X66784Y5426D01*
X67139Y5631D02*
X66921Y5189D01*
X67276Y5394D02*
X66921Y5189D01*
X70815Y7954D02*
X70460Y7749D01*
X70815Y7954D02*
X70942Y7735D01*
X70646Y7857D02*
X70724Y7721D01*
X70766Y7218D02*
X71043Y7559D01*
X70610Y7489D01*
X70758Y7507D02*
X70855Y7337D01*
X71169Y7341D02*
X70814Y7136D01*
X71169Y7341D02*
X70951Y6899D01*
X71306Y7104D02*
X70951Y6899D01*
X71448Y6740D02*
X71463Y6793D01*
X71450Y6854D01*
X71411Y6921D01*
X71365Y6962D01*
X71312Y6976D01*
X71278Y6957D01*
X71254Y6921D01*
X71247Y6894D01*
X71249Y6850D01*
X71274Y6729D01*
X71277Y6686D01*
X71269Y6659D01*
X71245Y6623D01*
X71195Y6593D01*
X71141Y6608D01*
X71095Y6649D01*
X71056Y6716D01*
X71044Y6777D01*
X71058Y6830D01*
X79074Y4944D02*
X79430Y4739D01*
X79211Y5181D02*
X79566Y4976D01*
X79244Y4847D02*
X79380Y5083D01*
X79395Y5499D02*
X79268Y5279D01*
X79623Y5074D01*
X79750Y5294D01*
X79437Y5182D02*
X79515Y5317D01*
X79940Y5624D02*
X79507Y5693D01*
X79784Y5353D01*
X79695Y5472D02*
X79792Y5641D01*
X79701Y6030D02*
X80056Y5825D01*
X79633Y5912D02*
X79770Y6148D01*
X79921Y6410D02*
X79794Y6191D01*
X80149Y5986D01*
X80276Y6205D01*
X79963Y6093D02*
X80041Y6228D01*
X79955Y6470D02*
X80310Y6265D01*
X79955Y6470D02*
X80043Y6622D01*
X80089Y6663D01*
X80116Y6670D01*
X80159Y6667D01*
X80193Y6648D01*
X80217Y6611D01*
X80224Y6585D01*
X80212Y6524D01*
X80124Y6372D01*
X80192Y6490D02*
X80447Y6501D01*
X76530Y12989D02*
Y12579D01*
X76803Y12989D02*
Y12579D01*
X76530Y12794D02*
X76803D01*
X77170Y12989D02*
X76916D01*
Y12579D01*
X77170D01*
X76916Y12794D02*
X77072D01*
X77551Y12579D02*
X77394Y12989D01*
X77238Y12579D01*
X77297Y12716D02*
X77492D01*
X77783Y12989D02*
Y12579D01*
X77646Y12989D02*
X77920D01*
X64845Y11724D02*
X65050Y11369D01*
X65081Y11861D02*
X65286Y11506D01*
X64942Y11555D02*
X65179Y11692D01*
X65281Y11976D02*
X65257Y11940D01*
X65242Y11887D01*
X65245Y11843D01*
X65257Y11782D01*
X65306Y11698D01*
X65352Y11657D01*
X65389Y11633D01*
X65442Y11619D01*
X65486Y11621D01*
X65553Y11660D01*
X65577Y11697D01*
X65592Y11750D01*
X65589Y11794D01*
X65577Y11854D01*
X65528Y11939D01*
X65482Y11980D01*
X65445Y12004D01*
X65392Y12018D01*
X65348Y12015D01*
X65281Y11976D01*
X65651Y12190D02*
X65856Y11835D01*
X65533Y12122D02*
X65769Y12258D01*
X66032Y12410D02*
X65812Y12283D01*
X66017Y11928D01*
X66237Y12055D01*
X65909Y12114D02*
X66045Y12192D01*
X66091Y12444D02*
X66296Y12089D01*
X66091Y12444D02*
X66532Y12226D01*
X66327Y12581D02*
X66532Y12226D01*
X66426Y12637D02*
X66631Y12282D01*
X66426Y12637D02*
X66544Y12706D01*
X66604Y12718D01*
X66658Y12704D01*
X66694Y12680D01*
X66740Y12639D01*
X66789Y12554D01*
X66802Y12494D01*
X66804Y12450D01*
X66790Y12397D01*
X66749Y12350D01*
X66631Y12282D01*
X69679Y9487D02*
X69766Y9335D01*
X69813Y9294D01*
X69839Y9287D01*
X69883Y9289D01*
X69934Y9319D01*
X69958Y9355D01*
X69965Y9382D01*
X69952Y9442D01*
X69865Y9594D01*
X69510Y9389D01*
X69848Y8803D02*
X70125Y9143D01*
X69692Y9073D01*
X69840Y9091D02*
X69937Y8922D01*
X70251Y8925D02*
X69896Y8720D01*
X70251Y8925D02*
X70339Y8773D01*
X70351Y8712D01*
X70344Y8685D01*
X70320Y8649D01*
X70286Y8629D01*
X70243Y8627D01*
X70216Y8634D01*
X70170Y8675D01*
X70082Y8827D01*
X70150Y8709D02*
X70033Y8483D01*
X70502Y8490D02*
X70147Y8285D01*
X70434Y8609D02*
X70570Y8372D01*
X68750Y13149D02*
Y12739D01*
X69023Y13149D02*
Y12739D01*
X68750Y12954D02*
X69023D01*
X69390Y13149D02*
X69136D01*
Y12739D01*
X69390D01*
X69136Y12954D02*
X69292D01*
X69771Y12739D02*
X69614Y13149D01*
X69458Y12739D01*
X69517Y12876D02*
X69712D01*
X70003Y13149D02*
Y12739D01*
X69866Y13149D02*
X70140D01*
X65425Y11244D02*
X65630Y10889D01*
X65425Y11244D02*
X65644Y11371D01*
X65522Y11075D02*
X65657Y11153D01*
X66160Y11196D02*
X65820Y11473D01*
X65890Y11040D01*
X65872Y11187D02*
X66041Y11285D01*
X66038Y11599D02*
X66243Y11244D01*
X66038Y11599D02*
X66480Y11380D01*
X66275Y11736D02*
X66480Y11380D01*
X74491Y19712D02*
X74530Y19673D01*
X74589Y19654D01*
X74667D01*
X74726Y19673D01*
X74765Y19712D01*
Y19751D01*
X74745Y19790D01*
X74726Y19810D01*
X74687Y19829D01*
X74569Y19868D01*
X74530Y19888D01*
X74511Y19907D01*
X74491Y19947D01*
Y20005D01*
X74530Y20044D01*
X74589Y20064D01*
X74667D01*
X74726Y20044D01*
X74765Y20005D01*
X74400Y19907D02*
X74165D01*
Y19868D01*
X74185Y19829D01*
X74204Y19810D01*
X74243Y19790D01*
X74302D01*
X74341Y19810D01*
X74380Y19849D01*
X74400Y19907D01*
Y19947D01*
X74380Y20005D01*
X74341Y20044D01*
X74302Y20064D01*
X74243D01*
X74204Y20044D01*
X74165Y20005D01*
X74077Y19907D02*
X73843D01*
Y19868D01*
X73863Y19829D01*
X73882Y19810D01*
X73921Y19790D01*
X73980D01*
X74019Y19810D01*
X74058Y19849D01*
X74077Y19907D01*
Y19947D01*
X74058Y20005D01*
X74019Y20044D01*
X73980Y20064D01*
X73921D01*
X73882Y20044D01*
X73843Y20005D01*
X73755Y19654D02*
Y20064D01*
Y19654D02*
X73599Y20064D01*
X73443Y19654D02*
X73599Y20064D01*
X73443Y19654D02*
Y20064D01*
X73326Y19907D02*
X73091D01*
Y19868D01*
X73111Y19829D01*
X73130Y19810D01*
X73169Y19790D01*
X73228D01*
X73267Y19810D01*
X73306Y19849D01*
X73326Y19907D01*
Y19947D01*
X73306Y20005D01*
X73267Y20044D01*
X73228Y20064D01*
X73169D01*
X73130Y20044D01*
X73091Y20005D01*
X72711Y19751D02*
X72730Y19712D01*
X72769Y19673D01*
X72808Y19654D01*
X72886D01*
X72925Y19673D01*
X72964Y19712D01*
X72984Y19751D01*
X73003Y19810D01*
Y19907D01*
X72984Y19966D01*
X72964Y20005D01*
X72925Y20044D01*
X72886Y20064D01*
X72808D01*
X72769Y20044D01*
X72730Y20005D01*
X72711Y19966D01*
X72595Y19654D02*
Y20064D01*
Y19654D02*
X72322Y20064D01*
Y19654D02*
Y20064D01*
X71916Y19751D02*
X71935Y19712D01*
X71975Y19673D01*
X72014Y19654D01*
X72092D01*
X72131Y19673D01*
X72170Y19712D01*
X72189Y19751D01*
X72209Y19810D01*
Y19907D01*
X72189Y19966D01*
X72170Y20005D01*
X72131Y20044D01*
X72092Y20064D01*
X72014D01*
X71975Y20044D01*
X71935Y20005D01*
X71916Y19966D01*
X68052Y10703D02*
X67747Y10527D01*
X67812Y10767D02*
X67987Y10463D01*
X71074Y4402D02*
Y4051D01*
X70898Y4226D02*
X71249D01*
D67*
X12980Y12081D02*
X13542D01*
X5711Y12482D02*
Y11919D01*
X5430Y12201D02*
X5992D01*
X34240Y12081D02*
X34802D01*
X26971Y12482D02*
Y11919D01*
X26690Y12201D02*
X27252D01*
X55500Y12081D02*
X56062D01*
X48231Y12482D02*
Y11919D01*
X47950Y12201D02*
X48512D01*
X76760Y12081D02*
X77322D01*
X69491Y12482D02*
Y11919D01*
X69210Y12201D02*
X69772D01*
D68*
X12549Y7512D02*
D03*
X33809D02*
D03*
X55069D02*
D03*
X76328D02*
D03*
M02*
